# 3ds Max Wavefront OBJ Exporter v0.97b - (c)2007 guruware
# File Created: 27.05.2016 16:25:06

mtllib ripple.mtl

#
# object Plane001
#

v  -50.94465637 46.62910461 25.64281845
v  -37.48844147 24.20991898 16.95789337
v  -50.94465637 41.79552460 16.95789337
v  -37.48844147 27.38044548 25.64281845
v  -37.48844147 20.64456940 8.27297115
v  -50.94465637 36.20748138 8.27297115
v  -24.03222656 14.00123024 8.27297115
v  -24.03222656 17.55510902 25.64281845
v  -37.48844147 16.93638992 -0.41195297
v  -50.94465637 30.29615402 -0.41195297
v  -37.48844147 13.33736229 -9.09687710
v  -50.94465637 24.49272728 -9.09687710
v  -24.03222656 12.37120342 -0.41195297
v  -24.03222656 10.91310787 -9.09687710
v  -10.57601166 13.59048653 8.27297115
v  -10.57601166 14.55468178 25.64281845
v  2.88020325 16.72536278 8.27297115
v  2.88020325 15.78074646 25.64281845
v  -10.57601166 13.76694107 -0.41195297
v  -10.57601166 14.20676041 -9.09687710
v  2.88020325 20.20512009 -9.09687710
v  -37.48844147 10.09947586 -17.78180122
v  -50.94465637 19.22837830 -17.78180122
v  -37.48844147 7.47471571 -26.46672440
v  -50.94465637 14.93428612 -26.46672440
v  -24.03222656 9.68243504 -17.78180122
v  -24.03222656 8.73467827 -26.46672440
v  -50.94465637 12.04163361 -35.15164948
v  -37.48844147 5.07252359 -43.83657455
v  -50.94465637 10.98159790 -43.83657455
v  -24.03222656 7.90988255 -43.83657455
v  -10.57601166 14.77819061 -17.78180122
v  -10.57601166 15.34947777 -26.46672440
v  2.88020325 23.95441628 -26.46672440
v  -10.57601166 15.96461296 -43.83657455
v  2.88020325 25.70764923 -43.83657455
v  16.33641815 20.71888542 8.27297115
v  16.33641815 18.63488770 25.64281845
v  29.79263306 22.88408279 8.27297115
v  29.79263306 20.51868629 25.64281845
v  16.33641815 25.89498520 -9.09687710
v  29.79263306 28.26315308 -9.09687710
v  43.24884796 20.53397751 8.27297115
v  43.24884796 18.83372879 25.64281845
v  56.70506287 10.98159790 8.27297115
v  56.70506287 10.98159790 25.64281845
v  43.24884796 24.29642487 -9.09687710
v  56.70506287 10.98159790 -9.09687710
v  16.33641815 31.18479538 -26.46672440
v  29.79263306 33.67591858 -26.46672440
v  16.33641815 33.60993195 -43.83657455
v  29.79263306 36.14238739 -43.83657455
v  43.24884796 28.06308365 -26.46672440
v  56.70506287 10.98159790 -26.46672440
v  43.24884796 29.77596664 -43.83657455
v  56.70506287 10.98159790 -43.83657455
# 56 vertices

vn 0.76763725 0.57240576 -0.28824410
vn 0.65690964 0.70898795 -0.25652644
vn 0.74131417 0.58485949 -0.32923040
vn 0.71128774 0.66027904 -0.24104214
vn 0.57668960 0.75674146 -0.30784976
vn 0.68667018 0.61596304 -0.38610050
vn 0.23177305 0.95558769 -0.18202589
vn 0.35748628 0.91861695 -0.16836406
vn 0.49003005 0.80710864 -0.32931164
vn 0.62462389 0.65700555 -0.42212400
vn 0.39033067 0.86003071 -0.32861704
vn 0.55869663 0.70821345 -0.43161529
vn 0.10668588 0.97925276 -0.17228496
vn -0.02931032 0.98739797 -0.15551880
vn -0.07901792 0.99610978 -0.03900582
vn 0.03497402 0.99911118 -0.02352911
vn -0.26840743 0.95793903 0.10153976
vn -0.16543458 0.98361683 0.07161918
vn -0.19281031 0.98029876 0.04287769
vn -0.30288765 0.95234644 0.03599080
vn -0.40211844 0.89890224 0.17399880
vn 0.28773862 0.90962982 -0.29963326
vn 0.49455851 0.76858509 -0.40581867
vn 0.17960025 0.95868921 -0.22058737
vn 0.45494452 0.82066798 -0.34573048
vn -0.15761316 0.97898537 -0.12940517
vn -0.26093873 0.96179539 -0.08282847
vn 0.42190838 0.88920695 -0.17693035
vn 0.09655062 0.98630100 -0.13374706
vn 0.39958632 0.90994275 -0.11106271
vn -0.33997789 0.93774927 -0.07100248
vn -0.39676505 0.91563439 0.06473898
vn -0.48332906 0.87461358 0.03800077
vn -0.49581528 0.85854882 0.13061842
vn -0.53545648 0.84449571 0.01064764
vn -0.53323698 0.84293228 0.07157855
vn -0.21215707 0.95821202 0.19188292
vn -0.17650788 0.97674274 0.12173164
vn 0.02109022 0.97897238 0.20289963
vn 0.00300862 0.99226630 0.12409085
vn -0.26396522 0.92647272 0.26827350
vn 0.06819490 0.95697868 0.28203061
vn 0.40214399 0.90704513 0.12469723
vn 0.34466815 0.93620455 0.06873771
vn 0.56171304 0.82705635 0.02136020
vn 0.50399899 0.86370426 -0.00000000
vn 0.50896263 0.84233069 0.17730212
vn 0.67437875 0.73730576 0.03991853
vn -0.31544915 0.92877936 0.19457826
vn 0.10895393 0.97185022 0.20889288
vn -0.33574972 0.93407321 0.12157062
vn 0.12362437 0.98257226 0.13881217
vn 0.59271014 0.79456633 0.13175353
vn 0.76462281 0.64369327 0.03179539
vn 0.62271041 0.77744496 0.08838002
vn 0.79732174 0.60305154 0.02463558
# 56 vertex normals

g Plane001
usemtl wire_061135006
s 1
f 1//1 2//2 3//3 
f 1//1 4//4 2//2 
f 3//3 5//5 6//6 
f 3//3 2//2 5//5 
f 2//2 7//7 5//5 
f 2//2 8//8 7//7 
f 2//2 4//4 8//8 
f 6//6 9//9 10//10 
f 6//6 5//5 9//9 
f 10//10 11//11 12//12 
f 10//10 9//9 11//11 
f 5//5 13//13 9//9 
f 5//5 7//7 13//13 
f 9//9 14//14 11//11 
f 9//9 13//13 14//14 
f 8//8 15//15 7//7 
f 8//8 16//16 15//15 
f 16//16 17//17 15//15 
f 16//16 18//18 17//17 
f 7//7 19//19 13//13 
f 7//7 15//15 19//19 
f 13//13 20//20 14//14 
f 13//13 19//19 20//20 
f 19//19 21//21 20//20 
f 19//19 17//17 21//21 
f 19//19 15//15 17//17 
f 22//22 12//12 11//11 
f 23//23 12//12 22//22 
f 24//24 23//23 22//22 
f 25//25 23//23 24//24 
f 11//11 26//26 22//22 
f 11//11 14//14 26//26 
f 22//22 27//27 24//24 
f 22//22 26//26 27//27 
f 28//28 29//29 30//30 
f 28//28 24//24 29//29 
f 28//28 25//25 24//24 
f 24//24 31//31 29//29 
f 24//24 27//27 31//31 
f 14//14 32//32 26//26 
f 14//14 20//20 32//32 
f 26//26 33//33 27//27 
f 26//26 32//32 33//33 
f 32//32 34//34 33//33 
f 32//32 21//21 34//34 
f 32//32 20//20 21//21 
f 27//27 35//35 31//31 
f 27//27 33//33 35//35 
f 33//33 36//36 35//35 
f 33//33 34//34 36//36 
f 18//18 37//37 17//17 
f 18//18 38//38 37//37 
f 38//38 39//39 37//37 
f 38//38 40//40 39//39 
f 17//17 41//41 21//21 
f 17//17 37//37 41//41 
f 37//37 42//42 41//41 
f 37//37 39//39 42//42 
f 40//40 43//43 39//39 
f 40//40 44//44 43//43 
f 44//44 45//45 43//43 
f 44//44 46//46 45//45 
f 39//39 47//47 42//42 
f 39//39 43//43 47//47 
f 43//43 48//48 47//47 
f 43//43 45//45 48//48 
f 21//21 49//49 34//34 
f 21//21 41//41 49//49 
f 41//41 50//50 49//49 
f 41//41 42//42 50//50 
f 34//34 51//51 36//36 
f 34//34 49//49 51//51 
f 49//49 52//52 51//51 
f 49//49 50//50 52//52 
f 42//42 53//53 50//50 
f 42//42 47//47 53//53 
f 47//47 54//54 53//53 
f 47//47 48//48 54//54 
f 50//50 55//55 52//52 
f 50//50 53//53 55//55 
f 53//53 56//56 55//55 
f 53//53 54//54 56//56 
# 0 polygons - 82 triangles
