solid 
  facet normal 0.000000E+00 -1.000000E+00 0.000000E+00
    outer loop
      vertex -1.850000E+01 -2.450000E+01 3.100000E+01
      vertex -1.850000E+01 -2.450000E+01 -1.000000E-03
      vertex 1.250000E+01 -2.450000E+01 -1.000000E-03
    endloop
  endfacet
  facet normal 0.000000E+00 -1.000000E+00 0.000000E+00
    outer loop
      vertex -1.850000E+01 -2.450000E+01 3.100000E+01
      vertex 1.250000E+01 -2.450000E+01 -1.000000E-03
      vertex 1.250000E+01 -2.450000E+01 3.100000E+01
    endloop
  endfacet
  facet normal -1.000000E+00 0.000000E+00 0.000000E+00
    outer loop
      vertex -1.850000E+01 6.500000E+00 3.100000E+01
      vertex -1.850000E+01 6.500000E+00 -1.000000E-03
      vertex -1.850000E+01 -2.450000E+01 -1.000000E-03
    endloop
  endfacet
  facet normal -1.000000E+00 0.000000E+00 0.000000E+00
    outer loop
      vertex -1.850000E+01 6.500000E+00 3.100000E+01
      vertex -1.850000E+01 -2.450000E+01 -1.000000E-03
      vertex -1.850000E+01 -2.450000E+01 3.100000E+01
    endloop
  endfacet
  facet normal 0.000000E+00 1.000000E+00 0.000000E+00
    outer loop
      vertex -1.850000E+01 6.500000E+00 -1.000000E-03
      vertex -1.850000E+01 6.500000E+00 3.100000E+01
      vertex 1.250000E+01 6.500000E+00 3.100000E+01
    endloop
  endfacet
  facet normal 0.000000E+00 1.000000E+00 0.000000E+00
    outer loop
      vertex -1.850000E+01 6.500000E+00 -1.000000E-03
      vertex 1.250000E+01 6.500000E+00 3.100000E+01
      vertex 1.250000E+01 6.500000E+00 -1.000000E-03
    endloop
  endfacet
  facet normal 1.000000E+00 0.000000E+00 0.000000E+00
    outer loop
      vertex 1.250000E+01 6.500000E+00 3.100000E+01
      vertex 1.250000E+01 -2.450000E+01 3.100000E+01
      vertex 1.250000E+01 -2.450000E+01 -1.000000E-03
    endloop
  endfacet
  facet normal 1.000000E+00 0.000000E+00 0.000000E+00
    outer loop
      vertex 1.250000E+01 6.500000E+00 3.100000E+01
      vertex 1.250000E+01 -2.450000E+01 -1.000000E-03
      vertex 1.250000E+01 6.500000E+00 -1.000000E-03
    endloop
  endfacet
  facet normal 0.000000E+00 0.000000E+00 -1.000000E+00
    outer loop
      vertex 1.250000E+01 6.500000E+00 -1.000000E-03
      vertex 1.250000E+01 -2.450000E+01 -1.000000E-03
      vertex -1.850000E+01 -2.450000E+01 -1.000000E-03
    endloop
  endfacet
  facet normal 0.000000E+00 0.000000E+00 -1.000000E+00
    outer loop
      vertex 1.250000E+01 6.500000E+00 -1.000000E-03
      vertex -1.850000E+01 -2.450000E+01 -1.000000E-03
      vertex -1.850000E+01 6.500000E+00 -1.000000E-03
    endloop
  endfacet
  facet normal 0.000000E+00 0.000000E+00 1.000000E+00
    outer loop
      vertex -1.850000E+01 6.500000E+00 3.100000E+01
      vertex -1.850000E+01 -2.450000E+01 3.100000E+01
      vertex 1.250000E+01 -2.450000E+01 3.100000E+01
    endloop
  endfacet
  facet normal 0.000000E+00 0.000000E+00 1.000000E+00
    outer loop
      vertex -1.850000E+01 6.500000E+00 3.100000E+01
      vertex 1.250000E+01 -2.450000E+01 3.100000E+01
      vertex 1.250000E+01 6.500000E+00 3.100000E+01
    endloop
  endfacet
endsolid 
