G75*
%MOIN*%
%OFA0B0*%
%FSLAX25Y25*%
%IPPOS*%
%LPD*%
%AMOC8*
5,1,8,0,0,1.08239X$1,22.5*
%
%ADD10C,0.00000*%
D10*
X0013311Y0038461D02*
X0013311Y0254996D01*
X0229846Y0254996D01*
X0229846Y0038461D01*
X0013311Y0038461D01*
X0018823Y0050272D02*
X0018825Y0050430D01*
X0018831Y0050588D01*
X0018841Y0050746D01*
X0018855Y0050904D01*
X0018873Y0051061D01*
X0018894Y0051218D01*
X0018920Y0051374D01*
X0018950Y0051530D01*
X0018983Y0051685D01*
X0019021Y0051838D01*
X0019062Y0051991D01*
X0019107Y0052143D01*
X0019156Y0052294D01*
X0019209Y0052443D01*
X0019265Y0052591D01*
X0019325Y0052737D01*
X0019389Y0052882D01*
X0019457Y0053025D01*
X0019528Y0053167D01*
X0019602Y0053307D01*
X0019680Y0053444D01*
X0019762Y0053580D01*
X0019846Y0053714D01*
X0019935Y0053845D01*
X0020026Y0053974D01*
X0020121Y0054101D01*
X0020218Y0054226D01*
X0020319Y0054348D01*
X0020423Y0054467D01*
X0020530Y0054584D01*
X0020640Y0054698D01*
X0020753Y0054809D01*
X0020868Y0054918D01*
X0020986Y0055023D01*
X0021107Y0055125D01*
X0021230Y0055225D01*
X0021356Y0055321D01*
X0021484Y0055414D01*
X0021614Y0055504D01*
X0021747Y0055590D01*
X0021882Y0055674D01*
X0022018Y0055753D01*
X0022157Y0055830D01*
X0022298Y0055902D01*
X0022440Y0055972D01*
X0022584Y0056037D01*
X0022730Y0056099D01*
X0022877Y0056157D01*
X0023026Y0056212D01*
X0023176Y0056263D01*
X0023327Y0056310D01*
X0023479Y0056353D01*
X0023632Y0056392D01*
X0023787Y0056428D01*
X0023942Y0056459D01*
X0024098Y0056487D01*
X0024254Y0056511D01*
X0024411Y0056531D01*
X0024569Y0056547D01*
X0024726Y0056559D01*
X0024885Y0056567D01*
X0025043Y0056571D01*
X0025201Y0056571D01*
X0025359Y0056567D01*
X0025518Y0056559D01*
X0025675Y0056547D01*
X0025833Y0056531D01*
X0025990Y0056511D01*
X0026146Y0056487D01*
X0026302Y0056459D01*
X0026457Y0056428D01*
X0026612Y0056392D01*
X0026765Y0056353D01*
X0026917Y0056310D01*
X0027068Y0056263D01*
X0027218Y0056212D01*
X0027367Y0056157D01*
X0027514Y0056099D01*
X0027660Y0056037D01*
X0027804Y0055972D01*
X0027946Y0055902D01*
X0028087Y0055830D01*
X0028226Y0055753D01*
X0028362Y0055674D01*
X0028497Y0055590D01*
X0028630Y0055504D01*
X0028760Y0055414D01*
X0028888Y0055321D01*
X0029014Y0055225D01*
X0029137Y0055125D01*
X0029258Y0055023D01*
X0029376Y0054918D01*
X0029491Y0054809D01*
X0029604Y0054698D01*
X0029714Y0054584D01*
X0029821Y0054467D01*
X0029925Y0054348D01*
X0030026Y0054226D01*
X0030123Y0054101D01*
X0030218Y0053974D01*
X0030309Y0053845D01*
X0030398Y0053714D01*
X0030482Y0053580D01*
X0030564Y0053444D01*
X0030642Y0053307D01*
X0030716Y0053167D01*
X0030787Y0053025D01*
X0030855Y0052882D01*
X0030919Y0052737D01*
X0030979Y0052591D01*
X0031035Y0052443D01*
X0031088Y0052294D01*
X0031137Y0052143D01*
X0031182Y0051991D01*
X0031223Y0051838D01*
X0031261Y0051685D01*
X0031294Y0051530D01*
X0031324Y0051374D01*
X0031350Y0051218D01*
X0031371Y0051061D01*
X0031389Y0050904D01*
X0031403Y0050746D01*
X0031413Y0050588D01*
X0031419Y0050430D01*
X0031421Y0050272D01*
X0031419Y0050114D01*
X0031413Y0049956D01*
X0031403Y0049798D01*
X0031389Y0049640D01*
X0031371Y0049483D01*
X0031350Y0049326D01*
X0031324Y0049170D01*
X0031294Y0049014D01*
X0031261Y0048859D01*
X0031223Y0048706D01*
X0031182Y0048553D01*
X0031137Y0048401D01*
X0031088Y0048250D01*
X0031035Y0048101D01*
X0030979Y0047953D01*
X0030919Y0047807D01*
X0030855Y0047662D01*
X0030787Y0047519D01*
X0030716Y0047377D01*
X0030642Y0047237D01*
X0030564Y0047100D01*
X0030482Y0046964D01*
X0030398Y0046830D01*
X0030309Y0046699D01*
X0030218Y0046570D01*
X0030123Y0046443D01*
X0030026Y0046318D01*
X0029925Y0046196D01*
X0029821Y0046077D01*
X0029714Y0045960D01*
X0029604Y0045846D01*
X0029491Y0045735D01*
X0029376Y0045626D01*
X0029258Y0045521D01*
X0029137Y0045419D01*
X0029014Y0045319D01*
X0028888Y0045223D01*
X0028760Y0045130D01*
X0028630Y0045040D01*
X0028497Y0044954D01*
X0028362Y0044870D01*
X0028226Y0044791D01*
X0028087Y0044714D01*
X0027946Y0044642D01*
X0027804Y0044572D01*
X0027660Y0044507D01*
X0027514Y0044445D01*
X0027367Y0044387D01*
X0027218Y0044332D01*
X0027068Y0044281D01*
X0026917Y0044234D01*
X0026765Y0044191D01*
X0026612Y0044152D01*
X0026457Y0044116D01*
X0026302Y0044085D01*
X0026146Y0044057D01*
X0025990Y0044033D01*
X0025833Y0044013D01*
X0025675Y0043997D01*
X0025518Y0043985D01*
X0025359Y0043977D01*
X0025201Y0043973D01*
X0025043Y0043973D01*
X0024885Y0043977D01*
X0024726Y0043985D01*
X0024569Y0043997D01*
X0024411Y0044013D01*
X0024254Y0044033D01*
X0024098Y0044057D01*
X0023942Y0044085D01*
X0023787Y0044116D01*
X0023632Y0044152D01*
X0023479Y0044191D01*
X0023327Y0044234D01*
X0023176Y0044281D01*
X0023026Y0044332D01*
X0022877Y0044387D01*
X0022730Y0044445D01*
X0022584Y0044507D01*
X0022440Y0044572D01*
X0022298Y0044642D01*
X0022157Y0044714D01*
X0022018Y0044791D01*
X0021882Y0044870D01*
X0021747Y0044954D01*
X0021614Y0045040D01*
X0021484Y0045130D01*
X0021356Y0045223D01*
X0021230Y0045319D01*
X0021107Y0045419D01*
X0020986Y0045521D01*
X0020868Y0045626D01*
X0020753Y0045735D01*
X0020640Y0045846D01*
X0020530Y0045960D01*
X0020423Y0046077D01*
X0020319Y0046196D01*
X0020218Y0046318D01*
X0020121Y0046443D01*
X0020026Y0046570D01*
X0019935Y0046699D01*
X0019846Y0046830D01*
X0019762Y0046964D01*
X0019680Y0047100D01*
X0019602Y0047237D01*
X0019528Y0047377D01*
X0019457Y0047519D01*
X0019389Y0047662D01*
X0019325Y0047807D01*
X0019265Y0047953D01*
X0019209Y0048101D01*
X0019156Y0048250D01*
X0019107Y0048401D01*
X0019062Y0048553D01*
X0019021Y0048706D01*
X0018983Y0048859D01*
X0018950Y0049014D01*
X0018920Y0049170D01*
X0018894Y0049326D01*
X0018873Y0049483D01*
X0018855Y0049640D01*
X0018841Y0049798D01*
X0018831Y0049956D01*
X0018825Y0050114D01*
X0018823Y0050272D01*
M02*
