G04 #@! TF.FileFunction,Legend,Top*
%FSLAX46Y46*%
G04 Gerber Fmt 4.6, Leading zero omitted, Abs format (unit mm)*
G04 Created by KiCad (PCBNEW (2016-07-14 BZR 6980)-product) date Sunday, 23 April 2017 'PMt' 23:49:01*
%MOMM*%
%LPD*%
G01*
G04 APERTURE LIST*
%ADD10C,0.150000*%
%ADD11C,0.200000*%
%ADD12C,0.500000*%
%ADD13C,0.175000*%
%ADD14C,0.120000*%
%ADD15R,0.800000X0.750000*%
%ADD16R,0.750000X0.800000*%
%ADD17R,1.198880X1.198880*%
%ADD18R,1.727200X2.032000*%
%ADD19O,1.727200X2.032000*%
%ADD20R,0.500000X0.900000*%
%ADD21R,0.450000X1.750000*%
%ADD22R,1.060000X0.650000*%
%ADD23R,2.032000X1.727200*%
%ADD24O,2.032000X1.727200*%
%ADD25R,0.900000X0.500000*%
%ADD26C,1.300000*%
%ADD27C,2.800000*%
%ADD28C,1.200000*%
G04 APERTURE END LIST*
D10*
D11*
X181000000Y-96250000D02*
X181000000Y-96750000D01*
X180750000Y-96500000D02*
X181250000Y-96500000D01*
X180750000Y-97250000D02*
X181250000Y-97250000D01*
D12*
X156000000Y-92800000D02*
G75*
G03X156000000Y-92800000I-200000J0D01*
G01*
D13*
X174800000Y-84116666D02*
X174800000Y-83416666D01*
X174966666Y-83416666D01*
X175066666Y-83450000D01*
X175133333Y-83516666D01*
X175166666Y-83583333D01*
X175200000Y-83716666D01*
X175200000Y-83816666D01*
X175166666Y-83950000D01*
X175133333Y-84016666D01*
X175066666Y-84083333D01*
X174966666Y-84116666D01*
X174800000Y-84116666D01*
X175500000Y-83750000D02*
X175733333Y-83750000D01*
X157483333Y-97316666D02*
X161783333Y-96816666D01*
X162450000Y-97116666D02*
X162783333Y-97116666D01*
X162383333Y-97316666D02*
X162616666Y-96616666D01*
X162850000Y-97316666D01*
D10*
X164950000Y-83300000D02*
X164250000Y-83300000D01*
X164250000Y-82100000D02*
X164950000Y-82100000D01*
X161950000Y-83300000D02*
X161250000Y-83300000D01*
X161250000Y-82100000D02*
X161950000Y-82100000D01*
X173300000Y-87750000D02*
X173300000Y-88450000D01*
X172100000Y-88450000D02*
X172100000Y-87750000D01*
X180700000Y-91200000D02*
X180000000Y-91200000D01*
X180000000Y-90000000D02*
X180700000Y-90000000D01*
X169550000Y-97149020D02*
X169550000Y-94449020D01*
X168050000Y-97149020D02*
X168050000Y-94449020D01*
X168950000Y-95649020D02*
X168700000Y-95649020D01*
X168700000Y-95649020D02*
X168850000Y-95799020D01*
X168450000Y-95899020D02*
X169150000Y-95899020D01*
X168800000Y-95549020D02*
X168800000Y-95199020D01*
X168800000Y-95899020D02*
X168450000Y-95549020D01*
X168450000Y-95549020D02*
X169150000Y-95549020D01*
X169150000Y-95549020D02*
X168800000Y-95899020D01*
X171550000Y-97149020D02*
X171550000Y-94449020D01*
X170050000Y-97149020D02*
X170050000Y-94449020D01*
X170950000Y-95649020D02*
X170700000Y-95649020D01*
X170700000Y-95649020D02*
X170850000Y-95799020D01*
X170450000Y-95899020D02*
X171150000Y-95899020D01*
X170800000Y-95549020D02*
X170800000Y-95199020D01*
X175900000Y-86400000D02*
G75*
G03X175900000Y-86400000I-100000J0D01*
G01*
X176350000Y-86650000D02*
X175850000Y-86650000D01*
X176350000Y-89550000D02*
X176350000Y-86650000D01*
X175850000Y-89550000D02*
X176350000Y-89550000D01*
X175850000Y-86650000D02*
X175850000Y-89550000D01*
X182730000Y-87730000D02*
X182730000Y-92810000D01*
X182730000Y-92810000D02*
X185270000Y-92810000D01*
X185270000Y-92810000D02*
X185270000Y-87730000D01*
X185550000Y-84910000D02*
X185550000Y-86460000D01*
X185270000Y-87730000D02*
X182730000Y-87730000D01*
X175580000Y-92550000D01*
X175920000Y-92550000D02*
X175920000Y-91550000D01*
X177280000Y-91550000D02*
X177280000Y-92550000D01*
D10*
X148000000Y-95350000D02*
X148000000Y-83350000D01*
X134100000Y-83350000D02*
X152800000Y-83350000D01*
X134100000Y-95350000D02*
X134100000Y-83350000D01*
X152900000Y-95350000D02*
X141352380Y-88850000D02*
X140352380Y-88850000D01*
X140495238Y-88945238D01*
X140590476Y-89040476D01*
X140638095Y-89135714D01*
%LPC*%
D15*
X165350000Y-82700000D03*
X163850000Y-82700000D03*
X162350000Y-82700000D03*
X160850000Y-82700000D03*
D16*
X172700000Y-87350000D03*
X172700000Y-88850000D03*
D15*
X181100000Y-90600000D03*
X179600000Y-90600000D03*
D17*
X168800000Y-94500000D03*
X168800000Y-96598040D03*
X170800000Y-94500000D03*
X170800000Y-96598040D03*
X172800000Y-94500000D03*
X172800000Y-96598040D03*
D18*
X175640000Y-81600000D03*
D19*
X173100000Y-81600000D03*
X170560000Y-81600000D03*
D20*
X181100000Y-89000000D03*
X179600000Y-89000000D03*
X179600000Y-87300000D03*
X181100000Y-87300000D03*
D21*
X156775000Y-92600000D03*
X157425000Y-92600000D03*
X158075000Y-92600000D03*
X158725000Y-92600000D03*
X159375000Y-92600000D03*
X160025000Y-92600000D03*
X160675000Y-92600000D03*
X161325000Y-92600000D03*
X161975000Y-92600000D03*
X162625000Y-92600000D03*
X163275000Y-92600000D03*
X163925000Y-92600000D03*
X164575000Y-92600000D03*
X165225000Y-92600000D03*
X165225000Y-85400000D03*
X164575000Y-85400000D03*
X163925000Y-85400000D03*
X163275000Y-85400000D03*
X162625000Y-85400000D03*
X161975000Y-85400000D03*
X161325000Y-85400000D03*
X160675000Y-85400000D03*
X160025000Y-85400000D03*
X159375000Y-85400000D03*
X158725000Y-85400000D03*
X158075000Y-85400000D03*
X157425000Y-85400000D03*
X156775000Y-85400000D03*
D22*
X175000000Y-87150000D03*
X175000000Y-88100000D03*
X175000000Y-89050000D03*
X177200000Y-89050000D03*
X177200000Y-87150000D03*
D23*
X184000000Y-86460000D03*
D24*
X184000000Y-89000000D03*
X184000000Y-91540000D03*
D17*
X174900000Y-94501960D03*
X174900000Y-96600000D03*
D15*
X159000000Y-94600000D03*
X160500000Y-94600000D03*
X162350000Y-81100000D03*
X160850000Y-81100000D03*
D25*
X171150000Y-88600000D03*
X171150000Y-90100000D03*
X169550000Y-88600000D03*
X169550000Y-90100000D03*
X168800000Y-91300000D03*
X168800000Y-92800000D03*
X170800000Y-91300000D03*
X170800000Y-92800000D03*
X172800000Y-91300000D03*
X172800000Y-92800000D03*
X174900000Y-91300000D03*
X174900000Y-92800000D03*
X176600000Y-91300000D03*
X176600000Y-92800000D03*
D26*
X152900000Y-88350000D03*
X152900000Y-90350000D03*
X152900000Y-92850000D03*
X152900000Y-85850000D03*
D27*
X150800000Y-83500000D03*
X150800000Y-95200000D03*
D28*
X150800000Y-87100000D03*
X150800000Y-91600000D03*
M02*
