G04 #@! TF.FileFunction,Copper,L1,Top,Signal*
%FSLAX46Y46*%
G04 Gerber Fmt 4.6, Leading zero omitted, Abs format (unit mm)*
G04 Created by KiCad (PCBNEW (2016-07-14 BZR 6980)-product) date Sunday, 23 April 2017 'PMt' 23:49:01*
%MOMM*%
%LPD*%
G01*
G04 APERTURE LIST*
%ADD10C,0.150000*%
%ADD11R,0.800000X0.750000*%
%ADD12R,0.750000X0.800000*%
%ADD13R,1.198880X1.198880*%
%ADD14R,1.727200X2.032000*%
%ADD15O,1.727200X2.032000*%
%ADD16R,0.500000X0.900000*%
%ADD17R,0.450000X1.750000*%
%ADD18R,1.060000X0.650000*%
%ADD19R,2.032000X1.727200*%
%ADD20O,2.032000X1.727200*%
%ADD21R,0.900000X0.500000*%
%ADD22C,1.300000*%
%ADD23C,2.800000*%
%ADD24C,0.685800*%
%ADD25C,0.800000*%
%ADD26C,0.500000*%
%ADD27C,0.300000*%
%ADD28C,0.400000*%
%ADD29C,0.800000*%
%ADD30C,0.250000*%
%ADD31C,0.180000*%
%ADD32C,0.160000*%
G04 APERTURE END LIST*
D10*
D11*
X165350000Y-82700000D03*
X163850000Y-82700000D03*
X162350000Y-82700000D03*
X160850000Y-82700000D03*
D12*
X172700000Y-87350000D03*
X172700000Y-88850000D03*
D11*
X181100000Y-90600000D03*
X179600000Y-90600000D03*
D13*
X168800000Y-94500000D03*
X168800000Y-96598040D03*
X170800000Y-94500000D03*
X170800000Y-96598040D03*
X172800000Y-94500000D03*
X172800000Y-96598040D03*
D14*
X175640000Y-81600000D03*
D15*
X173100000Y-81600000D03*
X170560000Y-81600000D03*
D16*
X181100000Y-89000000D03*
X179600000Y-89000000D03*
X179600000Y-87300000D03*
X181100000Y-87300000D03*
D17*
X156775000Y-92600000D03*
X157425000Y-92600000D03*
X158075000Y-92600000D03*
X158725000Y-92600000D03*
X159375000Y-92600000D03*
X160025000Y-92600000D03*
X160675000Y-92600000D03*
X161325000Y-92600000D03*
X161975000Y-92600000D03*
X162625000Y-92600000D03*
X163275000Y-92600000D03*
X163925000Y-92600000D03*
X164575000Y-92600000D03*
X165225000Y-92600000D03*
X165225000Y-85400000D03*
X164575000Y-85400000D03*
X163925000Y-85400000D03*
X163275000Y-85400000D03*
X162625000Y-85400000D03*
X161975000Y-85400000D03*
X161325000Y-85400000D03*
X160675000Y-85400000D03*
X160025000Y-85400000D03*
X159375000Y-85400000D03*
X158725000Y-85400000D03*
X158075000Y-85400000D03*
X157425000Y-85400000D03*
X156775000Y-85400000D03*
D18*
X175000000Y-87150000D03*
X175000000Y-88100000D03*
X175000000Y-89050000D03*
X177200000Y-89050000D03*
X177200000Y-87150000D03*
D19*
X184000000Y-86460000D03*
D20*
X184000000Y-89000000D03*
X184000000Y-91540000D03*
D13*
X174900000Y-94501960D03*
X174900000Y-96600000D03*
D11*
X159000000Y-94600000D03*
X160500000Y-94600000D03*
X162350000Y-81100000D03*
X160850000Y-81100000D03*
D21*
X171150000Y-88600000D03*
X171150000Y-90100000D03*
X169550000Y-88600000D03*
X169550000Y-90100000D03*
X168800000Y-91300000D03*
X168800000Y-92800000D03*
X170800000Y-91300000D03*
X170800000Y-92800000D03*
X172800000Y-91300000D03*
X172800000Y-92800000D03*
X174900000Y-91300000D03*
X174900000Y-92800000D03*
X176600000Y-91300000D03*
X176600000Y-92800000D03*
D22*
X152900000Y-88350000D03*
X152900000Y-90350000D03*
X152900000Y-92850000D03*
X152900000Y-85850000D03*
D23*
X150800000Y-83500000D03*
X150800000Y-95200000D03*
D24*
X173700000Y-89200000D03*
X162300004Y-87000000D03*
X159600000Y-82700000D03*
X161700000Y-94600000D03*
X176200000Y-96600000D03*
X179600000Y-91700000D03*
X158100000Y-83900000D03*
X168600000Y-89399998D03*
X167200000Y-85000000D03*
X159600000Y-81100000D03*
X163800000Y-81100000D03*
D25*
X159300000Y-87400000D03*
X167300000Y-96600000D03*
X167300000Y-94500000D03*
X160900000Y-87400000D03*
D24*
X174900000Y-90299999D03*
X174900000Y-85300000D03*
D25*
X166500002Y-90900000D03*
X177200000Y-90200000D03*
X168000000Y-87400000D03*
X173800000Y-87400000D03*
D24*
X154500000Y-89792900D03*
X154500000Y-88907100D03*
D26*
X165325000Y-82700000D02*
X165325000Y-83475000D01*
X165325000Y-83475000D02*
X164900000Y-83900000D01*
X164900000Y-83900000D02*
X164250677Y-83900000D01*
X163947598Y-84375049D02*
X163927410Y-84395237D01*
X164250677Y-83900000D02*
X163947598Y-84203079D01*
X163947598Y-84203079D02*
X163947598Y-84375049D01*
X163927410Y-84395237D02*
X163927410Y-85400000D01*
D27*
X165325000Y-82700000D02*
X165325000Y-82826415D01*
D26*
X165350000Y-82700000D02*
X165325000Y-82700000D01*
X172700000Y-88850000D02*
X173350000Y-88850000D01*
X173350000Y-88850000D02*
X173700000Y-89200000D01*
X175000000Y-89050000D02*
X173850000Y-89050000D01*
X173850000Y-89050000D02*
X173700000Y-89200000D01*
X175000000Y-88100000D02*
X175000000Y-89050000D01*
X163850000Y-82700000D02*
X163850000Y-83378030D01*
X163850000Y-83378030D02*
X163295188Y-83932842D01*
X163275000Y-84125000D02*
X163295188Y-84104812D01*
X163295188Y-84104812D02*
X163295188Y-83932842D01*
X163275000Y-85400000D02*
X163275000Y-84125000D01*
X160850000Y-82700000D02*
X160850000Y-83575000D01*
X160850000Y-83575000D02*
X160875000Y-83600000D01*
X160875000Y-83600000D02*
X160900000Y-83600000D01*
X161325000Y-85400000D02*
X161325000Y-84025000D01*
X161325000Y-84025000D02*
X160900000Y-83600000D01*
X160675000Y-92600000D02*
X160675000Y-93800000D01*
X160500000Y-94600000D02*
X160500000Y-93975000D01*
X160500000Y-93975000D02*
X160675000Y-93800000D01*
X163275000Y-85400000D02*
X163275000Y-86509937D01*
X163275000Y-86509937D02*
X162784937Y-87000000D01*
X162784937Y-87000000D02*
X162300004Y-87000000D01*
X161325000Y-86509929D02*
X161815071Y-87000000D01*
X161325000Y-85400000D02*
X161325000Y-86509929D01*
X161815071Y-87000000D02*
X162300004Y-87000000D01*
X159700000Y-82700000D02*
X159600000Y-82700000D01*
X160850000Y-82700000D02*
X159700000Y-82700000D01*
X160850000Y-82700000D02*
X160850000Y-81100000D01*
X160500000Y-94600000D02*
X161700000Y-94600000D01*
X158075000Y-85400000D02*
X158075000Y-83925000D01*
X158075000Y-83925000D02*
X158100000Y-83900000D01*
X158075000Y-85400000D02*
X158725000Y-85400000D01*
X179600000Y-90600000D02*
X179600000Y-91700000D01*
X174900000Y-96600000D02*
X176200000Y-96600000D01*
X172800000Y-96598040D02*
X174898040Y-96598040D01*
X174898040Y-96598040D02*
X174900000Y-96600000D01*
X169250000Y-85000000D02*
X170560000Y-83690000D01*
X170560000Y-83690000D02*
X170560000Y-81600000D01*
X167200000Y-85000000D02*
X169250000Y-85000000D01*
X168600000Y-90500000D02*
X168600000Y-89399998D01*
X168800000Y-91300000D02*
X168800000Y-90700000D01*
X168800000Y-90700000D02*
X168600000Y-90500000D01*
D28*
X170500000Y-88600000D02*
X171150000Y-88600000D01*
D26*
X169550000Y-88600000D02*
X170500000Y-88600000D01*
X168600000Y-89399998D02*
X168750002Y-89399998D01*
X168750002Y-89399998D02*
X169550000Y-88600000D01*
X162350000Y-82700000D02*
X162350000Y-83575000D01*
X162350000Y-83575000D02*
X161977410Y-83947590D01*
X161977410Y-83947590D02*
X161977410Y-85400000D01*
D29*
X162350000Y-81100000D02*
X163800000Y-81100000D01*
D30*
X174222599Y-89677401D02*
X175726921Y-89677401D01*
X175726921Y-89677401D02*
X176250000Y-89154322D01*
X176250000Y-89154322D02*
X176250000Y-88675000D01*
X176250000Y-88675000D02*
X177200000Y-87725000D01*
X177200000Y-87725000D02*
X177200000Y-87150000D01*
D26*
X177200000Y-87150000D02*
X179450000Y-87150000D01*
X179450000Y-87150000D02*
X179600000Y-87300000D01*
X159000000Y-94600000D02*
X159000000Y-94000000D01*
X159000000Y-94000000D02*
X158725000Y-93725000D01*
X158725000Y-93725000D02*
X158725000Y-92600000D01*
D28*
X174222599Y-89677401D02*
X173800000Y-90100000D01*
X173800000Y-90100000D02*
X173800000Y-92100000D01*
X173800000Y-92100000D02*
X167800000Y-92100000D01*
X167800000Y-92100000D02*
X163300000Y-96600000D01*
X163300000Y-96600000D02*
X159600000Y-96600000D01*
X159000000Y-96000000D02*
X159000000Y-94600000D01*
X159600000Y-96600000D02*
X159000000Y-96000000D01*
D27*
X181100000Y-87300000D02*
X181100000Y-89000000D01*
X181100000Y-90600000D02*
X181100000Y-89000000D01*
X181100000Y-89000000D02*
X184000000Y-89000000D01*
D26*
X168800000Y-94500000D02*
X168800000Y-92800000D01*
X168800000Y-96598040D02*
X167301960Y-96598040D01*
X167301960Y-96598040D02*
X167300000Y-96600000D01*
D27*
X159300000Y-87400000D02*
X160025000Y-86675000D01*
X160025000Y-86675000D02*
X160025000Y-85400000D01*
D26*
X170800000Y-92800000D02*
X170800000Y-94500000D01*
X167300000Y-94500000D02*
X167300000Y-95065685D01*
X167300000Y-95065685D02*
X167734314Y-95499999D01*
X167734314Y-95499999D02*
X167876797Y-95499999D01*
X167876797Y-95499999D02*
X167878639Y-95501841D01*
X167878639Y-95501841D02*
X170603241Y-95501841D01*
X170603241Y-95501841D02*
X170800000Y-95698600D01*
X170800000Y-95698600D02*
X170800000Y-96598040D01*
D27*
X160675000Y-85400000D02*
X160675000Y-86400000D01*
X160900000Y-86900000D02*
X160675000Y-86675000D01*
X160675000Y-86675000D02*
X160675000Y-86400000D01*
X160900000Y-87400000D02*
X160900000Y-86900000D01*
D26*
X172800000Y-92800000D02*
X172800000Y-94500000D01*
D27*
X175640000Y-81600000D02*
X175640000Y-84560000D01*
X175640000Y-84560000D02*
X174900000Y-85300000D01*
D26*
X176600000Y-91300000D02*
X175599999Y-90299999D01*
X175599999Y-90299999D02*
X174900000Y-90299999D01*
D29*
X175640000Y-81600000D02*
X180803600Y-81600000D01*
X180803600Y-81600000D02*
X184000000Y-84796400D01*
X184000000Y-84796400D02*
X184000000Y-86460000D01*
D26*
X174900000Y-92800000D02*
X174900000Y-94501960D01*
D27*
X165934317Y-90900000D02*
X166500002Y-90900000D01*
X159900000Y-90900000D02*
X165934317Y-90900000D01*
X159375000Y-91425000D02*
X159900000Y-90900000D01*
X159375000Y-92600000D02*
X159375000Y-91425000D01*
X177200000Y-90200000D02*
X177200000Y-89050000D01*
X177200000Y-89050000D02*
X179550000Y-89050000D01*
X179550000Y-89050000D02*
X179600000Y-89000000D01*
X166000000Y-89400000D02*
X167600001Y-87799999D01*
X158400000Y-89400000D02*
X166000000Y-89400000D01*
X167600001Y-87799999D02*
X168000000Y-87400000D01*
X156775000Y-91025000D02*
X158400000Y-89400000D01*
X175000000Y-87150000D02*
X174050000Y-87150000D01*
X174050000Y-87150000D02*
X173800000Y-87400000D01*
X156775000Y-91025000D02*
X156800000Y-91000000D01*
X156775000Y-92600000D02*
X156775000Y-91025000D01*
D26*
X169550000Y-90100000D02*
X169600000Y-90100000D01*
X169600000Y-90100000D02*
X170800000Y-91300000D01*
X174900000Y-91300000D02*
X175100000Y-91300000D01*
X175100000Y-91300000D02*
X176600000Y-92800000D01*
X171150000Y-90100000D02*
X171600000Y-90100000D01*
X171600000Y-90100000D02*
X172800000Y-91300000D01*
D27*
X154500000Y-89792900D02*
X154342900Y-89792900D01*
X154342900Y-89792900D02*
X152900000Y-88350000D01*
X157560197Y-89599999D02*
X154692901Y-89599999D01*
X154692901Y-89599999D02*
X154500000Y-89792900D01*
X165225000Y-86712500D02*
X165150000Y-86787500D01*
X165225000Y-85400000D02*
X165225000Y-86712500D01*
X165150000Y-86787500D02*
X165150000Y-87703552D01*
X165150000Y-87703552D02*
X163905962Y-88947590D01*
X163905962Y-88947590D02*
X158212605Y-88947591D01*
X158212605Y-88947591D02*
X157560197Y-89599999D01*
X157353101Y-89100001D02*
X154692901Y-89100001D01*
X154692901Y-89100001D02*
X154500000Y-88907100D01*
X164650000Y-86787500D02*
X164650000Y-87496448D01*
X158005501Y-88447601D02*
X157353101Y-89100001D01*
X164575000Y-85400000D02*
X164575000Y-86712500D01*
X164575000Y-86712500D02*
X164650000Y-86787500D01*
X164650000Y-87496448D02*
X163698847Y-88447601D01*
X163698847Y-88447601D02*
X158005501Y-88447601D01*
D31*
G36*
X161443040Y-80386260D02*
X161404451Y-80479422D01*
X161363152Y-80451826D01*
X161250000Y-80429319D01*
X160450000Y-80429319D01*
X160336848Y-80451826D01*
X160240922Y-80515922D01*
X160176826Y-80611848D01*
X160154319Y-80725000D01*
X160154319Y-81475000D01*
X160176826Y-81588152D01*
X160240922Y-81684078D01*
X160310000Y-81730235D01*
X160310000Y-82069765D01*
X160240922Y-82115922D01*
X160211470Y-82160000D01*
X159949905Y-82160000D01*
X159726444Y-82067210D01*
X159474661Y-82066991D01*
X159241959Y-82163141D01*
X159063767Y-82341023D01*
X158967210Y-82573556D01*
X158966991Y-82825339D01*
X159063141Y-83058041D01*
X159241023Y-83236233D01*
X159473556Y-83332790D01*
X159725339Y-83333009D01*
X159950439Y-83240000D01*
X160211470Y-83240000D01*
X160240922Y-83284078D01*
X160310000Y-83330235D01*
X160310000Y-83575000D01*
X160351105Y-83781649D01*
X160468162Y-83956838D01*
X160493160Y-83981835D01*
X160493162Y-83981838D01*
X160568503Y-84032179D01*
X160765644Y-84229319D01*
X160450000Y-84229319D01*
X160350000Y-84249210D01*
X160250000Y-84229319D01*
X159800000Y-84229319D01*
X159700000Y-84249210D01*
X159600000Y-84229319D01*
X159150000Y-84229319D01*
X159050000Y-84249210D01*
X158950000Y-84229319D01*
X158648548Y-84229319D01*
X158732790Y-84026444D01*
X158733009Y-83774661D01*
X158636859Y-83541959D01*
X158458977Y-83363767D01*
X158226444Y-83267210D01*
X157974661Y-83266991D01*
X157741959Y-83363141D01*
X157563767Y-83541023D01*
X157467210Y-83773556D01*
X157466991Y-84025339D01*
X157535000Y-84189934D01*
X157535000Y-84229319D01*
X157200000Y-84229319D01*
X157100000Y-84249210D01*
X157000000Y-84229319D01*
X156550000Y-84229319D01*
X156436848Y-84251826D01*
X156340922Y-84315922D01*
X156276826Y-84411848D01*
X156254319Y-84525000D01*
X156254319Y-86275000D01*
X156276826Y-86388152D01*
X156340922Y-86484078D01*
X156436848Y-86548174D01*
X156550000Y-86570681D01*
X156760000Y-86570681D01*
X156760000Y-88660001D01*
X155082699Y-88660001D01*
X155036859Y-88549059D01*
X154858977Y-88370867D01*
X154626444Y-88274310D01*
X154374661Y-88274091D01*
X154141959Y-88370241D01*
X153963767Y-88548123D01*
X153892355Y-88720101D01*
X153801758Y-88629504D01*
X153839837Y-88537798D01*
X153840163Y-88163843D01*
X153697358Y-87818228D01*
X153433163Y-87553571D01*
X153087798Y-87410163D01*
X152713843Y-87409837D01*
X152368228Y-87552642D01*
X152103571Y-87816837D01*
X151960163Y-88162202D01*
X151959837Y-88536157D01*
X152102642Y-88881772D01*
X152366837Y-89146429D01*
X152712202Y-89289837D01*
X153086157Y-89290163D01*
X153179387Y-89251641D01*
X153881782Y-89954036D01*
X153963141Y-90150941D01*
X154141023Y-90329133D01*
X154373556Y-90425690D01*
X154625339Y-90425909D01*
X154858041Y-90329759D01*
X155036233Y-90151877D01*
X155082689Y-90039999D01*
X156760000Y-90039999D01*
X156760000Y-90417746D01*
X156463873Y-90713873D01*
X156368493Y-90856619D01*
X156335000Y-91025000D01*
X156335000Y-91524785D01*
X156276826Y-91611848D01*
X156254319Y-91725000D01*
X156254319Y-93475000D01*
X156276826Y-93588152D01*
X156340922Y-93684078D01*
X156436848Y-93748174D01*
X156550000Y-93770681D01*
X156760000Y-93770681D01*
X156760000Y-97635000D01*
X149035950Y-97635000D01*
X148759733Y-97580057D01*
X148556043Y-97443957D01*
X148419943Y-97240269D01*
X148365000Y-96964049D01*
X148365000Y-95534687D01*
X149109707Y-95534687D01*
X149366452Y-96156057D01*
X149841442Y-96631877D01*
X150462363Y-96889706D01*
X151134687Y-96890293D01*
X151756057Y-96633548D01*
X152231877Y-96158558D01*
X152489706Y-95537637D01*
X152490293Y-94865313D01*
X152233548Y-94243943D01*
X151758558Y-93768123D01*
X151718521Y-93751498D01*
X152230434Y-93751498D01*
X152290990Y-93967244D01*
X152764899Y-94115257D01*
X153259376Y-94070646D01*
X153509010Y-93967244D01*
X153569566Y-93751498D01*
X152900000Y-93081931D01*
X152230434Y-93751498D01*
X151718521Y-93751498D01*
X151137637Y-93510294D01*
X150465313Y-93509707D01*
X149843943Y-93766452D01*
X149368123Y-94241442D01*
X149110294Y-94862363D01*
X149109707Y-95534687D01*
X148365000Y-95534687D01*
X148365000Y-92714899D01*
X151634743Y-92714899D01*
X151679354Y-93209376D01*
X151782756Y-93459010D01*
X151998502Y-93519566D01*
X152668069Y-92850000D01*
X153131931Y-92850000D01*
X153801498Y-93519566D01*
X154017244Y-93459010D01*
X154165257Y-92985101D01*
X154120646Y-92490624D01*
X154017244Y-92240990D01*
X153801498Y-92180434D01*
X153131931Y-92850000D01*
X152668069Y-92850000D01*
X151998502Y-92180434D01*
X151782756Y-92240990D01*
X151634743Y-92714899D01*
X148365000Y-92714899D01*
X148365000Y-91776255D01*
X149909846Y-91776255D01*
X150045055Y-92103486D01*
X150295197Y-92354065D01*
X150622191Y-92489845D01*
X150976255Y-92490154D01*
X151303486Y-92354945D01*
X151554065Y-92104803D01*
X151618966Y-91948502D01*
X152230434Y-91948502D01*
X152900000Y-92618069D01*
X153569566Y-91948502D01*
X153509010Y-91732756D01*
X153035101Y-91584743D01*
X152540624Y-91629354D01*
X152290990Y-91732756D01*
X152230434Y-91948502D01*
X151618966Y-91948502D01*
X151689845Y-91777809D01*
X151690154Y-91423745D01*
X151554945Y-91096514D01*
X151304803Y-90845935D01*
X150977809Y-90710155D01*
X150623745Y-90709846D01*
X150296514Y-90845055D01*
X150045935Y-91095197D01*
X149910155Y-91422191D01*
X149909846Y-91776255D01*
X148365000Y-91776255D01*
X148365000Y-90536157D01*
X151959837Y-90536157D01*
X152102642Y-90881772D01*
X152366837Y-91146429D01*
X152712202Y-91289837D01*
X153086157Y-91290163D01*
X153431772Y-91147358D01*
X153696429Y-90883163D01*
X153839837Y-90537798D01*
X153840163Y-90163843D01*
X153697358Y-89818228D01*
X153433163Y-89553571D01*
X153087798Y-89410163D01*
X152713843Y-89409837D01*
X152368228Y-89552642D01*
X152103571Y-89816837D01*
X151960163Y-90162202D01*
X151959837Y-90536157D01*
X148365000Y-90536157D01*
X148365000Y-87276255D01*
X149909846Y-87276255D01*
X150045055Y-87603486D01*
X150295197Y-87854065D01*
X150622191Y-87989845D01*
X150976255Y-87990154D01*
X151303486Y-87854945D01*
X151554065Y-87604803D01*
X151689845Y-87277809D01*
X151690154Y-86923745D01*
X151554945Y-86596514D01*
X151304803Y-86345935D01*
X150977809Y-86210155D01*
X150623745Y-86209846D01*
X150296514Y-86345055D01*
X150045935Y-86595197D01*
X149910155Y-86922191D01*
X149909846Y-87276255D01*
X148365000Y-87276255D01*
X148365000Y-86036157D01*
X151959837Y-86036157D01*
X152102642Y-86381772D01*
X152366837Y-86646429D01*
X152712202Y-86789837D01*
X153086157Y-86790163D01*
X153431772Y-86647358D01*
X153696429Y-86383163D01*
X153839837Y-86037798D01*
X153840163Y-85663843D01*
X153697358Y-85318228D01*
X153433163Y-85053571D01*
X153087798Y-84910163D01*
X152713843Y-84909837D01*
X152368228Y-85052642D01*
X152103571Y-85316837D01*
X151960163Y-85662202D01*
X151959837Y-86036157D01*
X148365000Y-86036157D01*
X148365000Y-83834687D01*
X149109707Y-83834687D01*
X149366452Y-84456057D01*
X149841442Y-84931877D01*
X150462363Y-85189706D01*
X151134687Y-85190293D01*
X151756057Y-84933548D01*
X152231877Y-84458558D01*
X152489706Y-83837637D01*
X152490293Y-83165313D01*
X152233548Y-82543943D01*
X151758558Y-82068123D01*
X151137637Y-81810294D01*
X150465313Y-81809707D01*
X149843943Y-82066452D01*
X149368123Y-82541442D01*
X149110294Y-83162363D01*
X149109707Y-83834687D01*
X148365000Y-83834687D01*
X148365000Y-81035951D01*
X148419943Y-80759731D01*
X148556043Y-80556043D01*
X148759733Y-80419943D01*
X149035950Y-80365000D01*
X161464300Y-80365000D01*
X161443040Y-80386260D01*
X161443040Y-80386260D01*
G37*
X161443040Y-80386260D02*
X161404451Y-80479422D01*
X161363152Y-80451826D01*
X161250000Y-80429319D01*
X160450000Y-80429319D01*
X160336848Y-80451826D01*
X160240922Y-80515922D01*
X160176826Y-80611848D01*
X160154319Y-80725000D01*
X160154319Y-81475000D01*
X160176826Y-81588152D01*
X160240922Y-81684078D01*
X160310000Y-81730235D01*
X160310000Y-82069765D01*
X160240922Y-82115922D01*
X160211470Y-82160000D01*
X159949905Y-82160000D01*
X159726444Y-82067210D01*
X159474661Y-82066991D01*
X159241959Y-82163141D01*
X159063767Y-82341023D01*
X158967210Y-82573556D01*
X158966991Y-82825339D01*
X159063141Y-83058041D01*
X159241023Y-83236233D01*
X159473556Y-83332790D01*
X159725339Y-83333009D01*
X159950439Y-83240000D01*
X160211470Y-83240000D01*
X160240922Y-83284078D01*
X160310000Y-83330235D01*
X160310000Y-83575000D01*
X160351105Y-83781649D01*
X160468162Y-83956838D01*
X160493160Y-83981835D01*
X160493162Y-83981838D01*
X160568503Y-84032179D01*
X160765644Y-84229319D01*
X160450000Y-84229319D01*
X160350000Y-84249210D01*
X160250000Y-84229319D01*
X159800000Y-84229319D01*
X159700000Y-84249210D01*
X159600000Y-84229319D01*
X159150000Y-84229319D01*
X159050000Y-84249210D01*
X158950000Y-84229319D01*
X158648548Y-84229319D01*
X158732790Y-84026444D01*
X158733009Y-83774661D01*
X158636859Y-83541959D01*
X158458977Y-83363767D01*
X158226444Y-83267210D01*
X157974661Y-83266991D01*
X157741959Y-83363141D01*
X157563767Y-83541023D01*
X157467210Y-83773556D01*
X157466991Y-84025339D01*
X157535000Y-84189934D01*
X157535000Y-84229319D01*
X157200000Y-84229319D01*
X157100000Y-84249210D01*
X157000000Y-84229319D01*
X156550000Y-84229319D01*
X156436848Y-84251826D01*
X156340922Y-84315922D01*
X156276826Y-84411848D01*
X156254319Y-84525000D01*
X156254319Y-86275000D01*
X156276826Y-86388152D01*
X156340922Y-86484078D01*
X156436848Y-86548174D01*
X156550000Y-86570681D01*
X156760000Y-86570681D01*
X156760000Y-88660001D01*
X155082699Y-88660001D01*
X155036859Y-88549059D01*
X154858977Y-88370867D01*
X154626444Y-88274310D01*
X154374661Y-88274091D01*
X154141959Y-88370241D01*
X153963767Y-88548123D01*
X153892355Y-88720101D01*
X153801758Y-88629504D01*
X153839837Y-88537798D01*
X153840163Y-88163843D01*
X153697358Y-87818228D01*
X153433163Y-87553571D01*
X153087798Y-87410163D01*
X152713843Y-87409837D01*
X152368228Y-87552642D01*
X152103571Y-87816837D01*
X151960163Y-88162202D01*
X151959837Y-88536157D01*
X152102642Y-88881772D01*
X152366837Y-89146429D01*
X152712202Y-89289837D01*
X153086157Y-89290163D01*
X153179387Y-89251641D01*
X153881782Y-89954036D01*
X153963141Y-90150941D01*
X154141023Y-90329133D01*
X154373556Y-90425690D01*
X154625339Y-90425909D01*
X154858041Y-90329759D01*
X155036233Y-90151877D01*
X155082689Y-90039999D01*
X156760000Y-90039999D01*
X156760000Y-90417746D01*
X156463873Y-90713873D01*
X156368493Y-90856619D01*
X156335000Y-91025000D01*
X156335000Y-91524785D01*
X156276826Y-91611848D01*
X156254319Y-91725000D01*
X156254319Y-93475000D01*
X156276826Y-93588152D01*
X156340922Y-93684078D01*
X156436848Y-93748174D01*
X156550000Y-93770681D01*
X156760000Y-93770681D01*
X156760000Y-97635000D01*
X149035950Y-97635000D01*
X148759733Y-97580057D01*
X148556043Y-97443957D01*
X148419943Y-97240269D01*
X148365000Y-96964049D01*
X148365000Y-95534687D01*
X149109707Y-95534687D01*
X149366452Y-96156057D01*
X149841442Y-96631877D01*
X150462363Y-96889706D01*
X151134687Y-96890293D01*
X151756057Y-96633548D01*
X152231877Y-96158558D01*
X152489706Y-95537637D01*
X152490293Y-94865313D01*
X152233548Y-94243943D01*
X151758558Y-93768123D01*
X151718521Y-93751498D01*
X152230434Y-93751498D01*
X152290990Y-93967244D01*
X152764899Y-94115257D01*
X153259376Y-94070646D01*
X153509010Y-93967244D01*
X153569566Y-93751498D01*
X152900000Y-93081931D01*
X152230434Y-93751498D01*
X151718521Y-93751498D01*
X151137637Y-93510294D01*
X150465313Y-93509707D01*
X149843943Y-93766452D01*
X149368123Y-94241442D01*
X149110294Y-94862363D01*
X149109707Y-95534687D01*
X148365000Y-95534687D01*
X148365000Y-92714899D01*
X151634743Y-92714899D01*
X151679354Y-93209376D01*
X151782756Y-93459010D01*
X151998502Y-93519566D01*
X152668069Y-92850000D01*
X153131931Y-92850000D01*
X153801498Y-93519566D01*
X154017244Y-93459010D01*
X154165257Y-92985101D01*
X154120646Y-92490624D01*
X154017244Y-92240990D01*
X153801498Y-92180434D01*
X153131931Y-92850000D01*
X152668069Y-92850000D01*
X151998502Y-92180434D01*
X151782756Y-92240990D01*
X151634743Y-92714899D01*
X148365000Y-92714899D01*
X148365000Y-91776255D01*
X149909846Y-91776255D01*
X150045055Y-92103486D01*
X150295197Y-92354065D01*
X150622191Y-92489845D01*
X150976255Y-92490154D01*
X151303486Y-92354945D01*
X151554065Y-92104803D01*
X151618966Y-91948502D01*
X152230434Y-91948502D01*
X152900000Y-92618069D01*
X153569566Y-91948502D01*
X153509010Y-91732756D01*
X153035101Y-91584743D01*
X152540624Y-91629354D01*
X152290990Y-91732756D01*
X152230434Y-91948502D01*
X151618966Y-91948502D01*
X151689845Y-91777809D01*
X151690154Y-91423745D01*
X151554945Y-91096514D01*
X151304803Y-90845935D01*
X150977809Y-90710155D01*
X150623745Y-90709846D01*
X150296514Y-90845055D01*
X150045935Y-91095197D01*
X149910155Y-91422191D01*
X149909846Y-91776255D01*
X148365000Y-91776255D01*
X148365000Y-90536157D01*
X151959837Y-90536157D01*
X152102642Y-90881772D01*
X152366837Y-91146429D01*
X152712202Y-91289837D01*
X153086157Y-91290163D01*
X153431772Y-91147358D01*
X153696429Y-90883163D01*
X153839837Y-90537798D01*
X153840163Y-90163843D01*
X153697358Y-89818228D01*
X153433163Y-89553571D01*
X153087798Y-89410163D01*
X152713843Y-89409837D01*
X152368228Y-89552642D01*
X152103571Y-89816837D01*
X151960163Y-90162202D01*
X151959837Y-90536157D01*
X148365000Y-90536157D01*
X148365000Y-87276255D01*
X149909846Y-87276255D01*
X150045055Y-87603486D01*
X150295197Y-87854065D01*
X150622191Y-87989845D01*
X150976255Y-87990154D01*
X151303486Y-87854945D01*
X151554065Y-87604803D01*
X151689845Y-87277809D01*
X151690154Y-86923745D01*
X151554945Y-86596514D01*
X151304803Y-86345935D01*
X150977809Y-86210155D01*
X150623745Y-86209846D01*
X150296514Y-86345055D01*
X150045935Y-86595197D01*
X149910155Y-86922191D01*
X149909846Y-87276255D01*
X148365000Y-87276255D01*
X148365000Y-86036157D01*
X151959837Y-86036157D01*
X152102642Y-86381772D01*
X152366837Y-86646429D01*
X152712202Y-86789837D01*
X153086157Y-86790163D01*
X153431772Y-86647358D01*
X153696429Y-86383163D01*
X153839837Y-86037798D01*
X153840163Y-85663843D01*
X153697358Y-85318228D01*
X153433163Y-85053571D01*
X153087798Y-84910163D01*
X152713843Y-84909837D01*
X152368228Y-85052642D01*
X152103571Y-85316837D01*
X151960163Y-85662202D01*
X151959837Y-86036157D01*
X148365000Y-86036157D01*
X148365000Y-83834687D01*
X149109707Y-83834687D01*
X149366452Y-84456057D01*
X149841442Y-84931877D01*
X150462363Y-85189706D01*
X151134687Y-85190293D01*
X151756057Y-84933548D01*
X152231877Y-84458558D01*
X152489706Y-83837637D01*
X152490293Y-83165313D01*
X152233548Y-82543943D01*
X151758558Y-82068123D01*
X151137637Y-81810294D01*
X150465313Y-81809707D01*
X149843943Y-82066452D01*
X149368123Y-82541442D01*
X149110294Y-83162363D01*
X149109707Y-83834687D01*
X148365000Y-83834687D01*
X148365000Y-81035951D01*
X148419943Y-80759731D01*
X148556043Y-80556043D01*
X148759733Y-80419943D01*
X149035950Y-80365000D01*
X161464300Y-80365000D01*
X161443040Y-80386260D01*
G36*
X169320396Y-80674365D02*
X169118851Y-81207600D01*
X169248550Y-81436000D01*
X170396000Y-81436000D01*
X170396000Y-81416000D01*
X170724000Y-81416000D01*
X170724000Y-81436000D01*
X170744000Y-81436000D01*
X170744000Y-81764000D01*
X170724000Y-81764000D01*
X170724000Y-83054210D01*
X170949182Y-83161234D01*
X171409341Y-82941152D01*
X171760000Y-82567802D01*
X171760000Y-85760000D01*
X165745681Y-85760000D01*
X165745681Y-84525000D01*
X165723174Y-84411848D01*
X165659078Y-84315922D01*
X165563152Y-84251826D01*
X165450000Y-84229319D01*
X165334357Y-84229319D01*
X165706835Y-83856840D01*
X165706838Y-83856838D01*
X165823895Y-83681649D01*
X165827589Y-83663079D01*
X165865001Y-83475000D01*
X165865000Y-83474995D01*
X165865000Y-83346939D01*
X165959078Y-83284078D01*
X166023174Y-83188152D01*
X166045681Y-83075000D01*
X166045681Y-82325000D01*
X166023174Y-82211848D01*
X165959078Y-82115922D01*
X165863152Y-82051826D01*
X165750000Y-82029319D01*
X164950000Y-82029319D01*
X164836848Y-82051826D01*
X164740922Y-82115922D01*
X164676826Y-82211848D01*
X164654319Y-82325000D01*
X164654319Y-83075000D01*
X164676826Y-83188152D01*
X164740922Y-83284078D01*
X164747711Y-83288614D01*
X164676324Y-83360000D01*
X164390000Y-83360000D01*
X164390000Y-83330235D01*
X164459078Y-83284078D01*
X164523174Y-83188152D01*
X164545681Y-83075000D01*
X164545681Y-82325000D01*
X164523174Y-82211848D01*
X164459078Y-82115922D01*
X164363152Y-82051826D01*
X164250000Y-82029319D01*
X163450000Y-82029319D01*
X163336848Y-82051826D01*
X163295549Y-82079422D01*
X163259504Y-81992400D01*
X169118851Y-81992400D01*
X169320396Y-82525635D01*
X169710659Y-82941152D01*
X170170818Y-83161234D01*
X170396000Y-83054210D01*
X170396000Y-81764000D01*
X169248550Y-81764000D01*
X169118851Y-81992400D01*
X163259504Y-81992400D01*
X163256960Y-81986260D01*
X163170700Y-81900000D01*
X163256960Y-81813740D01*
X163348000Y-81593949D01*
X163348000Y-81413500D01*
X163198500Y-81264000D01*
X162514000Y-81264000D01*
X162514000Y-82536000D01*
X162534000Y-82536000D01*
X162534000Y-82864000D01*
X162514000Y-82864000D01*
X162514000Y-83523500D01*
X162663500Y-83673000D01*
X162831835Y-83673000D01*
X162796293Y-83726193D01*
X162755188Y-83932842D01*
X162755188Y-84023508D01*
X162735000Y-84125000D01*
X162735000Y-84229319D01*
X162724796Y-84229319D01*
X162706960Y-84186260D01*
X162538740Y-84018040D01*
X162318949Y-83927000D01*
X162237000Y-83927000D01*
X162087500Y-84076500D01*
X162087500Y-85236000D01*
X162104319Y-85236000D01*
X162104319Y-85564000D01*
X162087500Y-85564000D01*
X162087500Y-85584000D01*
X161865000Y-85584000D01*
X161865000Y-84025005D01*
X161865001Y-84025000D01*
X161823895Y-83818351D01*
X161816076Y-83806649D01*
X161706838Y-83643162D01*
X161706835Y-83643160D01*
X161669942Y-83606267D01*
X161831050Y-83673000D01*
X162036500Y-83673000D01*
X162186000Y-83523500D01*
X162186000Y-82864000D01*
X162166000Y-82864000D01*
X162166000Y-82536000D01*
X162186000Y-82536000D01*
X162186000Y-81264000D01*
X162166000Y-81264000D01*
X162166000Y-80936000D01*
X162186000Y-80936000D01*
X162186000Y-80916000D01*
X162514000Y-80916000D01*
X162514000Y-80936000D01*
X163198500Y-80936000D01*
X163348000Y-80786500D01*
X163348000Y-80606051D01*
X163256960Y-80386260D01*
X163235700Y-80365000D01*
X169610959Y-80365000D01*
X169320396Y-80674365D01*
X169320396Y-80674365D01*
G37*
X169320396Y-80674365D02*
X169118851Y-81207600D01*
X169248550Y-81436000D01*
X170396000Y-81436000D01*
X170396000Y-81416000D01*
X170724000Y-81416000D01*
X170724000Y-81436000D01*
X170744000Y-81436000D01*
X170744000Y-81764000D01*
X170724000Y-81764000D01*
X170724000Y-83054210D01*
X170949182Y-83161234D01*
X171409341Y-82941152D01*
X171760000Y-82567802D01*
X171760000Y-85760000D01*
X165745681Y-85760000D01*
X165745681Y-84525000D01*
X165723174Y-84411848D01*
X165659078Y-84315922D01*
X165563152Y-84251826D01*
X165450000Y-84229319D01*
X165334357Y-84229319D01*
X165706835Y-83856840D01*
X165706838Y-83856838D01*
X165823895Y-83681649D01*
X165827589Y-83663079D01*
X165865001Y-83475000D01*
X165865000Y-83474995D01*
X165865000Y-83346939D01*
X165959078Y-83284078D01*
X166023174Y-83188152D01*
X166045681Y-83075000D01*
X166045681Y-82325000D01*
X166023174Y-82211848D01*
X165959078Y-82115922D01*
X165863152Y-82051826D01*
X165750000Y-82029319D01*
X164950000Y-82029319D01*
X164836848Y-82051826D01*
X164740922Y-82115922D01*
X164676826Y-82211848D01*
X164654319Y-82325000D01*
X164654319Y-83075000D01*
X164676826Y-83188152D01*
X164740922Y-83284078D01*
X164747711Y-83288614D01*
X164676324Y-83360000D01*
X164390000Y-83360000D01*
X164390000Y-83330235D01*
X164459078Y-83284078D01*
X164523174Y-83188152D01*
X164545681Y-83075000D01*
X164545681Y-82325000D01*
X164523174Y-82211848D01*
X164459078Y-82115922D01*
X164363152Y-82051826D01*
X164250000Y-82029319D01*
X163450000Y-82029319D01*
X163336848Y-82051826D01*
X163295549Y-82079422D01*
X163259504Y-81992400D01*
X169118851Y-81992400D01*
X169320396Y-82525635D01*
X169710659Y-82941152D01*
X170170818Y-83161234D01*
X170396000Y-83054210D01*
X170396000Y-81764000D01*
X169248550Y-81764000D01*
X169118851Y-81992400D01*
X163259504Y-81992400D01*
X163256960Y-81986260D01*
X163170700Y-81900000D01*
X163256960Y-81813740D01*
X163348000Y-81593949D01*
X163348000Y-81413500D01*
X163198500Y-81264000D01*
X162514000Y-81264000D01*
X162514000Y-82536000D01*
X162534000Y-82536000D01*
X162534000Y-82864000D01*
X162514000Y-82864000D01*
X162514000Y-83523500D01*
X162663500Y-83673000D01*
X162831835Y-83673000D01*
X162796293Y-83726193D01*
X162755188Y-83932842D01*
X162755188Y-84023508D01*
X162735000Y-84125000D01*
X162735000Y-84229319D01*
X162724796Y-84229319D01*
X162706960Y-84186260D01*
X162538740Y-84018040D01*
X162318949Y-83927000D01*
X162237000Y-83927000D01*
X162087500Y-84076500D01*
X162087500Y-85236000D01*
X162104319Y-85236000D01*
X162104319Y-85564000D01*
X162087500Y-85564000D01*
X162087500Y-85584000D01*
X161865000Y-85584000D01*
X161865000Y-84025005D01*
X161865001Y-84025000D01*
X161823895Y-83818351D01*
X161816076Y-83806649D01*
X161706838Y-83643162D01*
X161706835Y-83643160D01*
X161669942Y-83606267D01*
X161831050Y-83673000D01*
X162036500Y-83673000D01*
X162186000Y-83523500D01*
X162186000Y-82864000D01*
X162166000Y-82864000D01*
X162166000Y-82536000D01*
X162186000Y-82536000D01*
X162186000Y-81264000D01*
X162166000Y-81264000D01*
X162166000Y-80936000D01*
X162186000Y-80936000D01*
X162186000Y-80916000D01*
X162514000Y-80916000D01*
X162514000Y-80936000D01*
X163198500Y-80936000D01*
X163348000Y-80786500D01*
X163348000Y-80606051D01*
X163256960Y-80386260D01*
X163235700Y-80365000D01*
X169610959Y-80365000D01*
X169320396Y-80674365D01*
G36*
X185240269Y-80419943D02*
X185443957Y-80556043D01*
X185580057Y-80759733D01*
X185635000Y-81035950D01*
X185635000Y-87560000D01*
X185565350Y-87560000D01*
X185614000Y-87442549D01*
X185614000Y-86773500D01*
X185464500Y-86624000D01*
X184164000Y-86624000D01*
X184164000Y-86644000D01*
X183836000Y-86644000D01*
X183836000Y-86624000D01*
X182535500Y-86624000D01*
X182386000Y-86773500D01*
X182386000Y-87442549D01*
X182434650Y-87560000D01*
X182240000Y-87560000D01*
X182240000Y-85850000D01*
X182233149Y-85815558D01*
X182213640Y-85786360D01*
X182184442Y-85766851D01*
X182150000Y-85760000D01*
X174240000Y-85760000D01*
X174240000Y-85477451D01*
X182386000Y-85477451D01*
X182386000Y-86146500D01*
X182535500Y-86296000D01*
X183836000Y-86296000D01*
X183836000Y-85147900D01*
X184164000Y-85147900D01*
X184164000Y-86296000D01*
X185464500Y-86296000D01*
X185614000Y-86146500D01*
X185614000Y-85477451D01*
X185522960Y-85257660D01*
X185354740Y-85089440D01*
X185134950Y-84998400D01*
X184313500Y-84998400D01*
X184164000Y-85147900D01*
X183836000Y-85147900D01*
X183686500Y-84998400D01*
X182865050Y-84998400D01*
X182645260Y-85089440D01*
X182477040Y-85257660D01*
X182386000Y-85477451D01*
X174240000Y-85477451D01*
X174240000Y-82883666D01*
X174269440Y-82954740D01*
X174437660Y-83122960D01*
X174657451Y-83214000D01*
X175326500Y-83214000D01*
X175476000Y-83064500D01*
X175476000Y-81764000D01*
X175804000Y-81764000D01*
X175804000Y-83064500D01*
X175953500Y-83214000D01*
X176622549Y-83214000D01*
X176842340Y-83122960D01*
X177010560Y-82954740D01*
X177101600Y-82734950D01*
X177101600Y-82255471D01*
X182709776Y-82255471D01*
X182905753Y-82729772D01*
X183268319Y-83092971D01*
X183742277Y-83289776D01*
X184255471Y-83290224D01*
X184729772Y-83094247D01*
X185092971Y-82731681D01*
X185289776Y-82257723D01*
X185290224Y-81744529D01*
X185094247Y-81270228D01*
X184731681Y-80907029D01*
X184257723Y-80710224D01*
X183744529Y-80709776D01*
X183270228Y-80905753D01*
X182907029Y-81268319D01*
X182710224Y-81742277D01*
X182709776Y-82255471D01*
X177101600Y-82255471D01*
X177101600Y-81913500D01*
X176952100Y-81764000D01*
X175804000Y-81764000D01*
X175476000Y-81764000D01*
X175456000Y-81764000D01*
X175456000Y-81436000D01*
X175476000Y-81436000D01*
X175476000Y-81416000D01*
X175804000Y-81416000D01*
X175804000Y-81436000D01*
X176952100Y-81436000D01*
X177101600Y-81286500D01*
X177101600Y-80465050D01*
X177060158Y-80365000D01*
X184964049Y-80365000D01*
X185240269Y-80419943D01*
X185240269Y-80419943D01*
G37*
X185240269Y-80419943D02*
X185443957Y-80556043D01*
X185580057Y-80759733D01*
X185635000Y-81035950D01*
X185635000Y-87560000D01*
X185565350Y-87560000D01*
X185614000Y-87442549D01*
X185614000Y-86773500D01*
X185464500Y-86624000D01*
X184164000Y-86624000D01*
X184164000Y-86644000D01*
X183836000Y-86644000D01*
X183836000Y-86624000D01*
X182535500Y-86624000D01*
X182386000Y-86773500D01*
X182386000Y-87442549D01*
X182434650Y-87560000D01*
X182240000Y-87560000D01*
X182240000Y-85850000D01*
X182233149Y-85815558D01*
X182213640Y-85786360D01*
X182184442Y-85766851D01*
X182150000Y-85760000D01*
X174240000Y-85760000D01*
X174240000Y-85477451D01*
X182386000Y-85477451D01*
X182386000Y-86146500D01*
X182535500Y-86296000D01*
X183836000Y-86296000D01*
X183836000Y-85147900D01*
X184164000Y-85147900D01*
X184164000Y-86296000D01*
X185464500Y-86296000D01*
X185614000Y-86146500D01*
X185614000Y-85477451D01*
X185522960Y-85257660D01*
X185354740Y-85089440D01*
X185134950Y-84998400D01*
X184313500Y-84998400D01*
X184164000Y-85147900D01*
X183836000Y-85147900D01*
X183686500Y-84998400D01*
X182865050Y-84998400D01*
X182645260Y-85089440D01*
X182477040Y-85257660D01*
X182386000Y-85477451D01*
X174240000Y-85477451D01*
X174240000Y-82883666D01*
X174269440Y-82954740D01*
X174437660Y-83122960D01*
X174657451Y-83214000D01*
X175326500Y-83214000D01*
X175476000Y-83064500D01*
X175476000Y-81764000D01*
X175804000Y-81764000D01*
X175804000Y-83064500D01*
X175953500Y-83214000D01*
X176622549Y-83214000D01*
X176842340Y-83122960D01*
X177010560Y-82954740D01*
X177101600Y-82734950D01*
X177101600Y-82255471D01*
X182709776Y-82255471D01*
X182905753Y-82729772D01*
X183268319Y-83092971D01*
X183742277Y-83289776D01*
X184255471Y-83290224D01*
X184729772Y-83094247D01*
X185092971Y-82731681D01*
X185289776Y-82257723D01*
X185290224Y-81744529D01*
X185094247Y-81270228D01*
X184731681Y-80907029D01*
X184257723Y-80710224D01*
X183744529Y-80709776D01*
X183270228Y-80905753D01*
X182907029Y-81268319D01*
X182710224Y-81742277D01*
X182709776Y-82255471D01*
X177101600Y-82255471D01*
X177101600Y-81913500D01*
X176952100Y-81764000D01*
X175804000Y-81764000D01*
X175476000Y-81764000D01*
X175456000Y-81764000D01*
X175456000Y-81436000D01*
X175476000Y-81436000D01*
X175476000Y-81416000D01*
X175804000Y-81416000D01*
X175804000Y-81436000D01*
X176952100Y-81436000D01*
X177101600Y-81286500D01*
X177101600Y-80465050D01*
X177060158Y-80365000D01*
X184964049Y-80365000D01*
X185240269Y-80419943D01*
D32*
G36*
X173274000Y-81426000D02*
X173294000Y-81426000D01*
X173294000Y-81774000D01*
X173274000Y-81774000D01*
X173274000Y-83045344D01*
X173497301Y-83148572D01*
X173770000Y-83017639D01*
X173770000Y-86150000D01*
X173776090Y-86180615D01*
X173793431Y-86206569D01*
X173819385Y-86223910D01*
X173850000Y-86230000D01*
X180070000Y-86230000D01*
X180070000Y-86304680D01*
X179966961Y-86262000D01*
X179872000Y-86262000D01*
X179725000Y-86409000D01*
X179725000Y-87126000D01*
X179794000Y-87126000D01*
X179794000Y-87474000D01*
X179725000Y-87474000D01*
X179725000Y-87494000D01*
X179475000Y-87494000D01*
X179475000Y-87474000D01*
X178909000Y-87474000D01*
X178762000Y-87621000D01*
X178762000Y-87866960D01*
X178851517Y-88083075D01*
X179016924Y-88248482D01*
X179189985Y-88320166D01*
X179148132Y-88348132D01*
X179086246Y-88440750D01*
X179064515Y-88550000D01*
X179064515Y-88620000D01*
X177994599Y-88620000D01*
X177993754Y-88615750D01*
X177931868Y-88523132D01*
X177839250Y-88461246D01*
X177730000Y-88439515D01*
X176670000Y-88439515D01*
X176560750Y-88461246D01*
X176468132Y-88523132D01*
X176406246Y-88615750D01*
X176384515Y-88725000D01*
X176384515Y-89375000D01*
X176406246Y-89484250D01*
X176468132Y-89576868D01*
X176560750Y-89638754D01*
X176670000Y-89660485D01*
X176770000Y-89660485D01*
X176770000Y-89668423D01*
X176623860Y-89814308D01*
X176520118Y-90064146D01*
X176519882Y-90334667D01*
X176615420Y-90565886D01*
X175974766Y-89925232D01*
X175802821Y-89810343D01*
X175599999Y-89769998D01*
X175599994Y-89769999D01*
X175247913Y-89769999D01*
X175024446Y-89677208D01*
X174776641Y-89676991D01*
X174547617Y-89771622D01*
X174372239Y-89946694D01*
X174277209Y-90175553D01*
X174276992Y-90423358D01*
X174371623Y-90652382D01*
X174483560Y-90764515D01*
X174450000Y-90764515D01*
X174340750Y-90786246D01*
X174248132Y-90848132D01*
X174186246Y-90940750D01*
X174164515Y-91050000D01*
X174164515Y-91550000D01*
X174186246Y-91659250D01*
X174248132Y-91751868D01*
X174340750Y-91813754D01*
X174450000Y-91835485D01*
X174885951Y-91835485D01*
X175314981Y-92264515D01*
X174450000Y-92264515D01*
X174340750Y-92286246D01*
X174248132Y-92348132D01*
X174186246Y-92440750D01*
X174164515Y-92550000D01*
X174164515Y-93050000D01*
X174186246Y-93159250D01*
X174248132Y-93251868D01*
X174340750Y-93313754D01*
X174370000Y-93319572D01*
X174370000Y-93617035D01*
X174300560Y-93617035D01*
X174191310Y-93638766D01*
X174098692Y-93700652D01*
X174036806Y-93793270D01*
X174015075Y-93902520D01*
X174015075Y-95101400D01*
X174036806Y-95210650D01*
X174098692Y-95303268D01*
X174191310Y-95365154D01*
X174300560Y-95386885D01*
X175499440Y-95386885D01*
X175608690Y-95365154D01*
X175701308Y-95303268D01*
X175763194Y-95210650D01*
X175784925Y-95101400D01*
X175784925Y-93902520D01*
X175763194Y-93793270D01*
X175701308Y-93700652D01*
X175608690Y-93638766D01*
X175499440Y-93617035D01*
X175430000Y-93617035D01*
X175430000Y-93319572D01*
X175459250Y-93313754D01*
X175551868Y-93251868D01*
X175613754Y-93159250D01*
X175635485Y-93050000D01*
X175635485Y-92585018D01*
X175864515Y-92814048D01*
X175864515Y-93050000D01*
X175886246Y-93159250D01*
X175948132Y-93251868D01*
X176040750Y-93313754D01*
X176150000Y-93335485D01*
X177050000Y-93335485D01*
X177159250Y-93313754D01*
X177251868Y-93251868D01*
X177313754Y-93159250D01*
X177335485Y-93050000D01*
X177335485Y-92550000D01*
X177313754Y-92440750D01*
X177251868Y-92348132D01*
X177159250Y-92286246D01*
X177050000Y-92264515D01*
X176814048Y-92264515D01*
X176385018Y-91835485D01*
X177050000Y-91835485D01*
X177159250Y-91813754D01*
X177251868Y-91751868D01*
X177313754Y-91659250D01*
X177335485Y-91550000D01*
X177335485Y-91050000D01*
X177313754Y-90940750D01*
X177273205Y-90880064D01*
X177334667Y-90880118D01*
X177584686Y-90776812D01*
X177776140Y-90585692D01*
X177879882Y-90335854D01*
X177880118Y-90065333D01*
X177776812Y-89815314D01*
X177630000Y-89668245D01*
X177630000Y-89660485D01*
X177730000Y-89660485D01*
X177839250Y-89638754D01*
X177931868Y-89576868D01*
X177993754Y-89484250D01*
X177994599Y-89480000D01*
X179070482Y-89480000D01*
X179086246Y-89559250D01*
X179148132Y-89651868D01*
X179240750Y-89713754D01*
X179350000Y-89735485D01*
X179850000Y-89735485D01*
X179959250Y-89713754D01*
X180051868Y-89651868D01*
X180070000Y-89624732D01*
X180070000Y-89953439D01*
X180000000Y-89939515D01*
X179200000Y-89939515D01*
X179090750Y-89961246D01*
X178998132Y-90023132D01*
X178936246Y-90115750D01*
X178914515Y-90225000D01*
X178914515Y-90975000D01*
X178936246Y-91084250D01*
X178998132Y-91176868D01*
X179070000Y-91224889D01*
X179070000Y-91352087D01*
X178977209Y-91575554D01*
X178976992Y-91823359D01*
X179071623Y-92052383D01*
X179246695Y-92227761D01*
X179475554Y-92322791D01*
X179723359Y-92323008D01*
X179952383Y-92228377D01*
X180127761Y-92053305D01*
X180222791Y-91824446D01*
X180222874Y-91730000D01*
X182350000Y-91730000D01*
X182380615Y-91723910D01*
X182406569Y-91706569D01*
X182423910Y-91680615D01*
X182430000Y-91650000D01*
X182430000Y-91540000D01*
X182678610Y-91540000D01*
X182765661Y-91977637D01*
X183013563Y-92348647D01*
X183384573Y-92596549D01*
X183822210Y-92683600D01*
X184177790Y-92683600D01*
X184615427Y-92596549D01*
X184986437Y-92348647D01*
X185234339Y-91977637D01*
X185321390Y-91540000D01*
X185234339Y-91102363D01*
X184986437Y-90731353D01*
X184615427Y-90483451D01*
X184177790Y-90396400D01*
X183822210Y-90396400D01*
X183384573Y-90483451D01*
X183013563Y-90731353D01*
X182765661Y-91102363D01*
X182678610Y-91540000D01*
X182430000Y-91540000D01*
X182430000Y-90330000D01*
X185645000Y-90330000D01*
X185645000Y-96965035D01*
X185589477Y-97244170D01*
X185451167Y-97451165D01*
X185244169Y-97589477D01*
X184965035Y-97645000D01*
X157230000Y-97645000D01*
X157230000Y-94921000D01*
X158012000Y-94921000D01*
X158012000Y-95091960D01*
X158101517Y-95308075D01*
X158266924Y-95473482D01*
X158483039Y-95563000D01*
X158679000Y-95563000D01*
X158826000Y-95416000D01*
X158826000Y-94774000D01*
X158159000Y-94774000D01*
X158012000Y-94921000D01*
X157230000Y-94921000D01*
X157230000Y-93760485D01*
X157650000Y-93760485D01*
X157750000Y-93740594D01*
X157850000Y-93760485D01*
X157981805Y-93760485D01*
X158001518Y-93808076D01*
X158096787Y-93903345D01*
X158012000Y-94108040D01*
X158012000Y-94279000D01*
X158159000Y-94426000D01*
X158826000Y-94426000D01*
X158826000Y-94406000D01*
X159174000Y-94406000D01*
X159174000Y-94426000D01*
X159194000Y-94426000D01*
X159194000Y-94774000D01*
X159174000Y-94774000D01*
X159174000Y-95416000D01*
X159321000Y-95563000D01*
X159516961Y-95563000D01*
X159733076Y-95473482D01*
X159898483Y-95308075D01*
X159940973Y-95205494D01*
X159990750Y-95238754D01*
X160100000Y-95260485D01*
X160900000Y-95260485D01*
X161009250Y-95238754D01*
X161101868Y-95176868D01*
X161133185Y-95130000D01*
X161352087Y-95130000D01*
X161575554Y-95222791D01*
X161823359Y-95223008D01*
X162052383Y-95128377D01*
X162227761Y-94953305D01*
X162322791Y-94724446D01*
X162322869Y-94634667D01*
X166619882Y-94634667D01*
X166723188Y-94884686D01*
X166770000Y-94931580D01*
X166770000Y-95065680D01*
X166769999Y-95065685D01*
X166810344Y-95268507D01*
X166925233Y-95440452D01*
X167359545Y-95874763D01*
X167359547Y-95874766D01*
X167427411Y-95920111D01*
X167165333Y-95919882D01*
X166915314Y-96023188D01*
X166723860Y-96214308D01*
X166620118Y-96464146D01*
X166619882Y-96734667D01*
X166723188Y-96984686D01*
X166914308Y-97176140D01*
X167164146Y-97279882D01*
X167434667Y-97280118D01*
X167684686Y-97176812D01*
X167733543Y-97128040D01*
X167915075Y-97128040D01*
X167915075Y-97197480D01*
X167936806Y-97306730D01*
X167998692Y-97399348D01*
X168091310Y-97461234D01*
X168200560Y-97482965D01*
X169399440Y-97482965D01*
X169508690Y-97461234D01*
X169601308Y-97399348D01*
X169663194Y-97306730D01*
X169684925Y-97197480D01*
X169684925Y-96031841D01*
X169915075Y-96031841D01*
X169915075Y-97197480D01*
X169936806Y-97306730D01*
X169998692Y-97399348D01*
X170091310Y-97461234D01*
X170200560Y-97482965D01*
X171399440Y-97482965D01*
X171508690Y-97461234D01*
X171601308Y-97399348D01*
X171663194Y-97306730D01*
X171684925Y-97197480D01*
X171684925Y-95998600D01*
X171915075Y-95998600D01*
X171915075Y-97197480D01*
X171936806Y-97306730D01*
X171998692Y-97399348D01*
X172091310Y-97461234D01*
X172200560Y-97482965D01*
X173399440Y-97482965D01*
X173508690Y-97461234D01*
X173601308Y-97399348D01*
X173663194Y-97306730D01*
X173684925Y-97197480D01*
X173684925Y-97128040D01*
X174015075Y-97128040D01*
X174015075Y-97199440D01*
X174036806Y-97308690D01*
X174098692Y-97401308D01*
X174191310Y-97463194D01*
X174300560Y-97484925D01*
X175499440Y-97484925D01*
X175608690Y-97463194D01*
X175701308Y-97401308D01*
X175763194Y-97308690D01*
X175784925Y-97199440D01*
X175784925Y-97130000D01*
X175852087Y-97130000D01*
X176075554Y-97222791D01*
X176323359Y-97223008D01*
X176552383Y-97128377D01*
X176727761Y-96953305D01*
X176822791Y-96724446D01*
X176823008Y-96476641D01*
X176730805Y-96253491D01*
X182719778Y-96253491D01*
X182914236Y-96724115D01*
X183273991Y-97084499D01*
X183744275Y-97279778D01*
X184253491Y-97280222D01*
X184724115Y-97085764D01*
X185084499Y-96726009D01*
X185279778Y-96255725D01*
X185280222Y-95746509D01*
X185085764Y-95275885D01*
X184726009Y-94915501D01*
X184255725Y-94720222D01*
X183746509Y-94719778D01*
X183275885Y-94914236D01*
X182915501Y-95273991D01*
X182720222Y-95744275D01*
X182719778Y-96253491D01*
X176730805Y-96253491D01*
X176728377Y-96247617D01*
X176553305Y-96072239D01*
X176324446Y-95977209D01*
X176076641Y-95976992D01*
X175851545Y-96070000D01*
X175784925Y-96070000D01*
X175784925Y-96000560D01*
X175763194Y-95891310D01*
X175701308Y-95798692D01*
X175608690Y-95736806D01*
X175499440Y-95715075D01*
X174300560Y-95715075D01*
X174191310Y-95736806D01*
X174098692Y-95798692D01*
X174036806Y-95891310D01*
X174015075Y-96000560D01*
X174015075Y-96068040D01*
X173684925Y-96068040D01*
X173684925Y-95998600D01*
X173663194Y-95889350D01*
X173601308Y-95796732D01*
X173508690Y-95734846D01*
X173399440Y-95713115D01*
X172200560Y-95713115D01*
X172091310Y-95734846D01*
X171998692Y-95796732D01*
X171936806Y-95889350D01*
X171915075Y-95998600D01*
X171684925Y-95998600D01*
X171663194Y-95889350D01*
X171601308Y-95796732D01*
X171508690Y-95734846D01*
X171399440Y-95713115D01*
X171330000Y-95713115D01*
X171330000Y-95698600D01*
X171289656Y-95495778D01*
X171215587Y-95384925D01*
X171399440Y-95384925D01*
X171508690Y-95363194D01*
X171601308Y-95301308D01*
X171663194Y-95208690D01*
X171684925Y-95099440D01*
X171684925Y-93900560D01*
X171915075Y-93900560D01*
X171915075Y-95099440D01*
X171936806Y-95208690D01*
X171998692Y-95301308D01*
X172091310Y-95363194D01*
X172200560Y-95384925D01*
X173399440Y-95384925D01*
X173508690Y-95363194D01*
X173601308Y-95301308D01*
X173663194Y-95208690D01*
X173684925Y-95099440D01*
X173684925Y-93900560D01*
X173663194Y-93791310D01*
X173601308Y-93698692D01*
X173508690Y-93636806D01*
X173399440Y-93615075D01*
X173330000Y-93615075D01*
X173330000Y-93319572D01*
X173359250Y-93313754D01*
X173451868Y-93251868D01*
X173513754Y-93159250D01*
X173535485Y-93050000D01*
X173535485Y-92550000D01*
X173513754Y-92440750D01*
X173451868Y-92348132D01*
X173359250Y-92286246D01*
X173250000Y-92264515D01*
X172350000Y-92264515D01*
X172240750Y-92286246D01*
X172148132Y-92348132D01*
X172086246Y-92440750D01*
X172064515Y-92550000D01*
X172064515Y-93050000D01*
X172086246Y-93159250D01*
X172148132Y-93251868D01*
X172240750Y-93313754D01*
X172270000Y-93319572D01*
X172270000Y-93615075D01*
X172200560Y-93615075D01*
X172091310Y-93636806D01*
X171998692Y-93698692D01*
X171936806Y-93791310D01*
X171915075Y-93900560D01*
X171684925Y-93900560D01*
X171663194Y-93791310D01*
X171601308Y-93698692D01*
X171508690Y-93636806D01*
X171399440Y-93615075D01*
X171330000Y-93615075D01*
X171330000Y-93319572D01*
X171359250Y-93313754D01*
X171451868Y-93251868D01*
X171513754Y-93159250D01*
X171535485Y-93050000D01*
X171535485Y-92550000D01*
X171513754Y-92440750D01*
X171451868Y-92348132D01*
X171359250Y-92286246D01*
X171250000Y-92264515D01*
X170350000Y-92264515D01*
X170240750Y-92286246D01*
X170148132Y-92348132D01*
X170086246Y-92440750D01*
X170064515Y-92550000D01*
X170064515Y-93050000D01*
X170086246Y-93159250D01*
X170148132Y-93251868D01*
X170240750Y-93313754D01*
X170270000Y-93319572D01*
X170270000Y-93615075D01*
X170200560Y-93615075D01*
X170091310Y-93636806D01*
X169998692Y-93698692D01*
X169936806Y-93791310D01*
X169915075Y-93900560D01*
X169915075Y-94971841D01*
X169684925Y-94971841D01*
X169684925Y-93900560D01*
X169663194Y-93791310D01*
X169601308Y-93698692D01*
X169508690Y-93636806D01*
X169399440Y-93615075D01*
X169330000Y-93615075D01*
X169330000Y-93319572D01*
X169359250Y-93313754D01*
X169451868Y-93251868D01*
X169513754Y-93159250D01*
X169535485Y-93050000D01*
X169535485Y-92550000D01*
X169513754Y-92440750D01*
X169451868Y-92348132D01*
X169359250Y-92286246D01*
X169250000Y-92264515D01*
X168350000Y-92264515D01*
X168240750Y-92286246D01*
X168148132Y-92348132D01*
X168086246Y-92440750D01*
X168064515Y-92550000D01*
X168064515Y-93050000D01*
X168086246Y-93159250D01*
X168148132Y-93251868D01*
X168240750Y-93313754D01*
X168270000Y-93319572D01*
X168270000Y-93615075D01*
X168200560Y-93615075D01*
X168091310Y-93636806D01*
X167998692Y-93698692D01*
X167936806Y-93791310D01*
X167915075Y-93900560D01*
X167915075Y-94207917D01*
X167876812Y-94115314D01*
X167685692Y-93923860D01*
X167435854Y-93820118D01*
X167165333Y-93819882D01*
X166915314Y-93923188D01*
X166723860Y-94114308D01*
X166620118Y-94364146D01*
X166619882Y-94634667D01*
X162322869Y-94634667D01*
X162323008Y-94476641D01*
X162228377Y-94247617D01*
X162053305Y-94072239D01*
X161824446Y-93977209D01*
X161576641Y-93976992D01*
X161351545Y-94070000D01*
X161133185Y-94070000D01*
X161126477Y-94059962D01*
X161164656Y-94002823D01*
X161205000Y-93800000D01*
X161205000Y-93760485D01*
X161550000Y-93760485D01*
X161650000Y-93740594D01*
X161750000Y-93760485D01*
X162200000Y-93760485D01*
X162300000Y-93740594D01*
X162400000Y-93760485D01*
X162850000Y-93760485D01*
X162950000Y-93740594D01*
X163050000Y-93760485D01*
X163500000Y-93760485D01*
X163600000Y-93740594D01*
X163700000Y-93760485D01*
X164150000Y-93760485D01*
X164250000Y-93740594D01*
X164350000Y-93760485D01*
X164800000Y-93760485D01*
X164900000Y-93740594D01*
X165000000Y-93760485D01*
X165450000Y-93760485D01*
X165559250Y-93738754D01*
X165651868Y-93676868D01*
X165713754Y-93584250D01*
X165735485Y-93475000D01*
X165735485Y-91725000D01*
X165713754Y-91615750D01*
X165651868Y-91523132D01*
X165559250Y-91461246D01*
X165450000Y-91439515D01*
X165000000Y-91439515D01*
X164900000Y-91459406D01*
X164800000Y-91439515D01*
X164350000Y-91439515D01*
X164250000Y-91459406D01*
X164150000Y-91439515D01*
X163700000Y-91439515D01*
X163600000Y-91459406D01*
X163500000Y-91439515D01*
X163050000Y-91439515D01*
X162950000Y-91459406D01*
X162850000Y-91439515D01*
X162400000Y-91439515D01*
X162300000Y-91459406D01*
X162200000Y-91439515D01*
X161750000Y-91439515D01*
X161650000Y-91459406D01*
X161550000Y-91439515D01*
X161100000Y-91439515D01*
X161000000Y-91459406D01*
X160900000Y-91439515D01*
X160450000Y-91439515D01*
X160350000Y-91459406D01*
X160250000Y-91439515D01*
X159968597Y-91439515D01*
X160078112Y-91330000D01*
X165968425Y-91330000D01*
X166114310Y-91476140D01*
X166364148Y-91579882D01*
X166634669Y-91580118D01*
X166884688Y-91476812D01*
X167076142Y-91285692D01*
X167179884Y-91035854D01*
X167180120Y-90765333D01*
X167076814Y-90515314D01*
X166885694Y-90323860D01*
X166635856Y-90220118D01*
X166365335Y-90219882D01*
X166115316Y-90323188D01*
X165968247Y-90470000D01*
X159900000Y-90470000D01*
X159735446Y-90502732D01*
X159595944Y-90595944D01*
X159070944Y-91120944D01*
X159060216Y-91137000D01*
X158984500Y-91137000D01*
X158837500Y-91284000D01*
X158837500Y-92426000D01*
X158864515Y-92426000D01*
X158864515Y-92774000D01*
X158837500Y-92774000D01*
X158837500Y-92794000D01*
X158612500Y-92794000D01*
X158612500Y-92774000D01*
X158585485Y-92774000D01*
X158585485Y-92426000D01*
X158612500Y-92426000D01*
X158612500Y-91284000D01*
X158465500Y-91137000D01*
X158383040Y-91137000D01*
X158166925Y-91226517D01*
X158001518Y-91391924D01*
X157981805Y-91439515D01*
X157850000Y-91439515D01*
X157750000Y-91459406D01*
X157650000Y-91439515D01*
X157230000Y-91439515D01*
X157230000Y-91178112D01*
X158578112Y-89830000D01*
X166000000Y-89830000D01*
X166164554Y-89797268D01*
X166304056Y-89704056D01*
X166484755Y-89523357D01*
X167976992Y-89523357D01*
X168070000Y-89748453D01*
X168070000Y-90499995D01*
X168069999Y-90500000D01*
X168110344Y-90702822D01*
X168189131Y-90820737D01*
X168148132Y-90848132D01*
X168086246Y-90940750D01*
X168064515Y-91050000D01*
X168064515Y-91550000D01*
X168086246Y-91659250D01*
X168148132Y-91751868D01*
X168240750Y-91813754D01*
X168350000Y-91835485D01*
X169250000Y-91835485D01*
X169359250Y-91813754D01*
X169451868Y-91751868D01*
X169513754Y-91659250D01*
X169535485Y-91550000D01*
X169535485Y-91050000D01*
X169513754Y-90940750D01*
X169451868Y-90848132D01*
X169359250Y-90786246D01*
X169330000Y-90780428D01*
X169330000Y-90700005D01*
X169330001Y-90700000D01*
X169317168Y-90635485D01*
X169385951Y-90635485D01*
X170064515Y-91314048D01*
X170064515Y-91550000D01*
X170086246Y-91659250D01*
X170148132Y-91751868D01*
X170240750Y-91813754D01*
X170350000Y-91835485D01*
X171250000Y-91835485D01*
X171359250Y-91813754D01*
X171451868Y-91751868D01*
X171513754Y-91659250D01*
X171535485Y-91550000D01*
X171535485Y-91050000D01*
X171513754Y-90940750D01*
X171451868Y-90848132D01*
X171359250Y-90786246D01*
X171250000Y-90764515D01*
X171014048Y-90764515D01*
X170885018Y-90635485D01*
X171385951Y-90635485D01*
X172064515Y-91314048D01*
X172064515Y-91550000D01*
X172086246Y-91659250D01*
X172148132Y-91751868D01*
X172240750Y-91813754D01*
X172350000Y-91835485D01*
X173250000Y-91835485D01*
X173359250Y-91813754D01*
X173451868Y-91751868D01*
X173513754Y-91659250D01*
X173535485Y-91550000D01*
X173535485Y-91050000D01*
X173513754Y-90940750D01*
X173451868Y-90848132D01*
X173359250Y-90786246D01*
X173250000Y-90764515D01*
X173014048Y-90764515D01*
X171974767Y-89725233D01*
X171802822Y-89610344D01*
X171720938Y-89594056D01*
X171709250Y-89586246D01*
X171600000Y-89564515D01*
X170700000Y-89564515D01*
X170590750Y-89586246D01*
X170498132Y-89648132D01*
X170436246Y-89740750D01*
X170414515Y-89850000D01*
X170414515Y-90164981D01*
X170285485Y-90035951D01*
X170285485Y-89850000D01*
X170263754Y-89740750D01*
X170201868Y-89648132D01*
X170109250Y-89586246D01*
X170000000Y-89564515D01*
X169335019Y-89564515D01*
X169764049Y-89135485D01*
X170000000Y-89135485D01*
X170027575Y-89130000D01*
X170500000Y-89130000D01*
X170588668Y-89112363D01*
X170590750Y-89113754D01*
X170700000Y-89135485D01*
X171600000Y-89135485D01*
X171709250Y-89113754D01*
X171801868Y-89051868D01*
X171863754Y-88959250D01*
X171885485Y-88850000D01*
X171885485Y-88350000D01*
X171863754Y-88240750D01*
X171801868Y-88148132D01*
X171709250Y-88086246D01*
X171600000Y-88064515D01*
X170700000Y-88064515D01*
X170590750Y-88086246D01*
X170588668Y-88087637D01*
X170500000Y-88070000D01*
X170027575Y-88070000D01*
X170000000Y-88064515D01*
X169100000Y-88064515D01*
X168990750Y-88086246D01*
X168898132Y-88148132D01*
X168836246Y-88240750D01*
X168814515Y-88350000D01*
X168814515Y-88585951D01*
X168623348Y-88777118D01*
X168476641Y-88776990D01*
X168247617Y-88871621D01*
X168072239Y-89046693D01*
X167977209Y-89275552D01*
X167976992Y-89523357D01*
X166484755Y-89523357D01*
X167928174Y-88079938D01*
X168134667Y-88080118D01*
X168384686Y-87976812D01*
X168576140Y-87785692D01*
X168623764Y-87671000D01*
X171737000Y-87671000D01*
X171737000Y-87866961D01*
X171826518Y-88083076D01*
X171991925Y-88248483D01*
X172094506Y-88290973D01*
X172061246Y-88340750D01*
X172039515Y-88450000D01*
X172039515Y-89250000D01*
X172061246Y-89359250D01*
X172123132Y-89451868D01*
X172215750Y-89513754D01*
X172325000Y-89535485D01*
X173075000Y-89535485D01*
X173157833Y-89519009D01*
X173171623Y-89552383D01*
X173346695Y-89727761D01*
X173575554Y-89822791D01*
X173823359Y-89823008D01*
X174052383Y-89728377D01*
X174201019Y-89580000D01*
X174272819Y-89580000D01*
X174360750Y-89638754D01*
X174470000Y-89660485D01*
X175530000Y-89660485D01*
X175639250Y-89638754D01*
X175731868Y-89576868D01*
X175793754Y-89484250D01*
X175815485Y-89375000D01*
X175815485Y-88725000D01*
X175793754Y-88615750D01*
X175766525Y-88575000D01*
X175793754Y-88534250D01*
X175815485Y-88425000D01*
X175815485Y-87775000D01*
X175793754Y-87665750D01*
X175766525Y-87625000D01*
X175793754Y-87584250D01*
X175815485Y-87475000D01*
X175815485Y-87459500D01*
X176082000Y-87459500D01*
X176082000Y-87591960D01*
X176171517Y-87808075D01*
X176336924Y-87973482D01*
X176553039Y-88063000D01*
X176879000Y-88063000D01*
X177026000Y-87916000D01*
X177026000Y-87312500D01*
X177374000Y-87312500D01*
X177374000Y-87916000D01*
X177521000Y-88063000D01*
X177846961Y-88063000D01*
X178063076Y-87973482D01*
X178228483Y-87808075D01*
X178318000Y-87591960D01*
X178318000Y-87459500D01*
X178171000Y-87312500D01*
X177374000Y-87312500D01*
X177026000Y-87312500D01*
X176229000Y-87312500D01*
X176082000Y-87459500D01*
X175815485Y-87459500D01*
X175815485Y-86825000D01*
X175793754Y-86715750D01*
X175788603Y-86708040D01*
X176082000Y-86708040D01*
X176082000Y-86840500D01*
X176229000Y-86987500D01*
X177026000Y-86987500D01*
X177026000Y-86384000D01*
X177374000Y-86384000D01*
X177374000Y-86987500D01*
X178171000Y-86987500D01*
X178318000Y-86840500D01*
X178318000Y-86733040D01*
X178762000Y-86733040D01*
X178762000Y-86979000D01*
X178909000Y-87126000D01*
X179475000Y-87126000D01*
X179475000Y-86409000D01*
X179328000Y-86262000D01*
X179233039Y-86262000D01*
X179016924Y-86351518D01*
X178851517Y-86516925D01*
X178762000Y-86733040D01*
X178318000Y-86733040D01*
X178318000Y-86708040D01*
X178228483Y-86491925D01*
X178063076Y-86326518D01*
X177846961Y-86237000D01*
X177521000Y-86237000D01*
X177374000Y-86384000D01*
X177026000Y-86384000D01*
X176879000Y-86237000D01*
X176553039Y-86237000D01*
X176336924Y-86326518D01*
X176171517Y-86491925D01*
X176082000Y-86708040D01*
X175788603Y-86708040D01*
X175731868Y-86623132D01*
X175639250Y-86561246D01*
X175530000Y-86539515D01*
X174470000Y-86539515D01*
X174360750Y-86561246D01*
X174268132Y-86623132D01*
X174206246Y-86715750D01*
X174205401Y-86720000D01*
X174050000Y-86720000D01*
X173972632Y-86735390D01*
X173935854Y-86720118D01*
X173665333Y-86719882D01*
X173623319Y-86737242D01*
X173573482Y-86616924D01*
X173408075Y-86451517D01*
X173191960Y-86362000D01*
X173021000Y-86362000D01*
X172874000Y-86509000D01*
X172874000Y-87176000D01*
X172894000Y-87176000D01*
X172894000Y-87524000D01*
X172874000Y-87524000D01*
X172874000Y-87544000D01*
X172526000Y-87544000D01*
X172526000Y-87524000D01*
X171884000Y-87524000D01*
X171737000Y-87671000D01*
X168623764Y-87671000D01*
X168679882Y-87535854D01*
X168680118Y-87265333D01*
X168576812Y-87015314D01*
X168394855Y-86833039D01*
X171737000Y-86833039D01*
X171737000Y-87029000D01*
X171884000Y-87176000D01*
X172526000Y-87176000D01*
X172526000Y-86509000D01*
X172379000Y-86362000D01*
X172208040Y-86362000D01*
X171991925Y-86451517D01*
X171826518Y-86616924D01*
X171737000Y-86833039D01*
X168394855Y-86833039D01*
X168385692Y-86823860D01*
X168135854Y-86720118D01*
X167865333Y-86719882D01*
X167615314Y-86823188D01*
X167423860Y-87014308D01*
X167320118Y-87264146D01*
X167319937Y-87471951D01*
X165821888Y-88970000D01*
X164491664Y-88970000D01*
X165454056Y-88007608D01*
X165547268Y-87868106D01*
X165580000Y-87703552D01*
X165580000Y-86940313D01*
X165622268Y-86877054D01*
X165655000Y-86712500D01*
X165655000Y-86472181D01*
X165713754Y-86384250D01*
X165735485Y-86275000D01*
X165735485Y-86230000D01*
X172150000Y-86230000D01*
X172180615Y-86223910D01*
X172206569Y-86206569D01*
X172223910Y-86180615D01*
X172230000Y-86150000D01*
X172230000Y-82901663D01*
X172265006Y-82938419D01*
X172702699Y-83148572D01*
X172926000Y-83045344D01*
X172926000Y-81774000D01*
X172906000Y-81774000D01*
X172906000Y-81426000D01*
X172926000Y-81426000D01*
X172926000Y-81406000D01*
X173274000Y-81406000D01*
X173274000Y-81426000D01*
X173274000Y-81426000D01*
G37*
X173274000Y-81426000D02*
X173294000Y-81426000D01*
X173294000Y-81774000D01*
X173274000Y-81774000D01*
X173274000Y-83045344D01*
X173497301Y-83148572D01*
X173770000Y-83017639D01*
X173770000Y-86150000D01*
X173776090Y-86180615D01*
X173793431Y-86206569D01*
X173819385Y-86223910D01*
X173850000Y-86230000D01*
X180070000Y-86230000D01*
X180070000Y-86304680D01*
X179966961Y-86262000D01*
X179872000Y-86262000D01*
X179725000Y-86409000D01*
X179725000Y-87126000D01*
X179794000Y-87126000D01*
X179794000Y-87474000D01*
X179725000Y-87474000D01*
X179725000Y-87494000D01*
X179475000Y-87494000D01*
X179475000Y-87474000D01*
X178909000Y-87474000D01*
X178762000Y-87621000D01*
X178762000Y-87866960D01*
X178851517Y-88083075D01*
X179016924Y-88248482D01*
X179189985Y-88320166D01*
X179148132Y-88348132D01*
X179086246Y-88440750D01*
X179064515Y-88550000D01*
X179064515Y-88620000D01*
X177994599Y-88620000D01*
X177993754Y-88615750D01*
X177931868Y-88523132D01*
X177839250Y-88461246D01*
X177730000Y-88439515D01*
X176670000Y-88439515D01*
X176560750Y-88461246D01*
X176468132Y-88523132D01*
X176406246Y-88615750D01*
X176384515Y-88725000D01*
X176384515Y-89375000D01*
X176406246Y-89484250D01*
X176468132Y-89576868D01*
X176560750Y-89638754D01*
X176670000Y-89660485D01*
X176770000Y-89660485D01*
X176770000Y-89668423D01*
X176623860Y-89814308D01*
X176520118Y-90064146D01*
X176519882Y-90334667D01*
X176615420Y-90565886D01*
X175974766Y-89925232D01*
X175802821Y-89810343D01*
X175599999Y-89769998D01*
X175599994Y-89769999D01*
X175247913Y-89769999D01*
X175024446Y-89677208D01*
X174776641Y-89676991D01*
X174547617Y-89771622D01*
X174372239Y-89946694D01*
X174277209Y-90175553D01*
X174276992Y-90423358D01*
X174371623Y-90652382D01*
X174483560Y-90764515D01*
X174450000Y-90764515D01*
X174340750Y-90786246D01*
X174248132Y-90848132D01*
X174186246Y-90940750D01*
X174164515Y-91050000D01*
X174164515Y-91550000D01*
X174186246Y-91659250D01*
X174248132Y-91751868D01*
X174340750Y-91813754D01*
X174450000Y-91835485D01*
X174885951Y-91835485D01*
X175314981Y-92264515D01*
X174450000Y-92264515D01*
X174340750Y-92286246D01*
X174248132Y-92348132D01*
X174186246Y-92440750D01*
X174164515Y-92550000D01*
X174164515Y-93050000D01*
X174186246Y-93159250D01*
X174248132Y-93251868D01*
X174340750Y-93313754D01*
X174370000Y-93319572D01*
X174370000Y-93617035D01*
X174300560Y-93617035D01*
X174191310Y-93638766D01*
X174098692Y-93700652D01*
X174036806Y-93793270D01*
X174015075Y-93902520D01*
X174015075Y-95101400D01*
X174036806Y-95210650D01*
X174098692Y-95303268D01*
X174191310Y-95365154D01*
X174300560Y-95386885D01*
X175499440Y-95386885D01*
X175608690Y-95365154D01*
X175701308Y-95303268D01*
X175763194Y-95210650D01*
X175784925Y-95101400D01*
X175784925Y-93902520D01*
X175763194Y-93793270D01*
X175701308Y-93700652D01*
X175608690Y-93638766D01*
X175499440Y-93617035D01*
X175430000Y-93617035D01*
X175430000Y-93319572D01*
X175459250Y-93313754D01*
X175551868Y-93251868D01*
X175613754Y-93159250D01*
X175635485Y-93050000D01*
X175635485Y-92585018D01*
X175864515Y-92814048D01*
X175864515Y-93050000D01*
X175886246Y-93159250D01*
X175948132Y-93251868D01*
X176040750Y-93313754D01*
X176150000Y-93335485D01*
X177050000Y-93335485D01*
X177159250Y-93313754D01*
X177251868Y-93251868D01*
X177313754Y-93159250D01*
X177335485Y-93050000D01*
X177335485Y-92550000D01*
X177313754Y-92440750D01*
X177251868Y-92348132D01*
X177159250Y-92286246D01*
X177050000Y-92264515D01*
X176814048Y-92264515D01*
X176385018Y-91835485D01*
X177050000Y-91835485D01*
X177159250Y-91813754D01*
X177251868Y-91751868D01*
X177313754Y-91659250D01*
X177335485Y-91550000D01*
X177335485Y-91050000D01*
X177313754Y-90940750D01*
X177273205Y-90880064D01*
X177334667Y-90880118D01*
X177584686Y-90776812D01*
X177776140Y-90585692D01*
X177879882Y-90335854D01*
X177880118Y-90065333D01*
X177776812Y-89815314D01*
X177630000Y-89668245D01*
X177630000Y-89660485D01*
X177730000Y-89660485D01*
X177839250Y-89638754D01*
X177931868Y-89576868D01*
X177993754Y-89484250D01*
X177994599Y-89480000D01*
X179070482Y-89480000D01*
X179086246Y-89559250D01*
X179148132Y-89651868D01*
X179240750Y-89713754D01*
X179350000Y-89735485D01*
X179850000Y-89735485D01*
X179959250Y-89713754D01*
X180051868Y-89651868D01*
X180070000Y-89624732D01*
X180070000Y-89953439D01*
X180000000Y-89939515D01*
X179200000Y-89939515D01*
X179090750Y-89961246D01*
X178998132Y-90023132D01*
X178936246Y-90115750D01*
X178914515Y-90225000D01*
X178914515Y-90975000D01*
X178936246Y-91084250D01*
X178998132Y-91176868D01*
X179070000Y-91224889D01*
X179070000Y-91352087D01*
X178977209Y-91575554D01*
X178976992Y-91823359D01*
X179071623Y-92052383D01*
X179246695Y-92227761D01*
X179475554Y-92322791D01*
X179723359Y-92323008D01*
X179952383Y-92228377D01*
X180127761Y-92053305D01*
X180222791Y-91824446D01*
X180222874Y-91730000D01*
X182350000Y-91730000D01*
X182380615Y-91723910D01*
X182406569Y-91706569D01*
X182423910Y-91680615D01*
X182430000Y-91650000D01*
X182430000Y-91540000D01*
X182678610Y-91540000D01*
X182765661Y-91977637D01*
X183013563Y-92348647D01*
X183384573Y-92596549D01*
X183822210Y-92683600D01*
X184177790Y-92683600D01*
X184615427Y-92596549D01*
X184986437Y-92348647D01*
X185234339Y-91977637D01*
X185321390Y-91540000D01*
X185234339Y-91102363D01*
X184986437Y-90731353D01*
X184615427Y-90483451D01*
X184177790Y-90396400D01*
X183822210Y-90396400D01*
X183384573Y-90483451D01*
X183013563Y-90731353D01*
X182765661Y-91102363D01*
X182678610Y-91540000D01*
X182430000Y-91540000D01*
X182430000Y-90330000D01*
X185645000Y-90330000D01*
X185645000Y-96965035D01*
X185589477Y-97244170D01*
X185451167Y-97451165D01*
X185244169Y-97589477D01*
X184965035Y-97645000D01*
X157230000Y-97645000D01*
X157230000Y-94921000D01*
X158012000Y-94921000D01*
X158012000Y-95091960D01*
X158101517Y-95308075D01*
X158266924Y-95473482D01*
X158483039Y-95563000D01*
X158679000Y-95563000D01*
X158826000Y-95416000D01*
X158826000Y-94774000D01*
X158159000Y-94774000D01*
X158012000Y-94921000D01*
X157230000Y-94921000D01*
X157230000Y-93760485D01*
X157650000Y-93760485D01*
X157750000Y-93740594D01*
X157850000Y-93760485D01*
X157981805Y-93760485D01*
X158001518Y-93808076D01*
X158096787Y-93903345D01*
X158012000Y-94108040D01*
X158012000Y-94279000D01*
X158159000Y-94426000D01*
X158826000Y-94426000D01*
X158826000Y-94406000D01*
X159174000Y-94406000D01*
X159174000Y-94426000D01*
X159194000Y-94426000D01*
X159194000Y-94774000D01*
X159174000Y-94774000D01*
X159174000Y-95416000D01*
X159321000Y-95563000D01*
X159516961Y-95563000D01*
X159733076Y-95473482D01*
X159898483Y-95308075D01*
X159940973Y-95205494D01*
X159990750Y-95238754D01*
X160100000Y-95260485D01*
X160900000Y-95260485D01*
X161009250Y-95238754D01*
X161101868Y-95176868D01*
X161133185Y-95130000D01*
X161352087Y-95130000D01*
X161575554Y-95222791D01*
X161823359Y-95223008D01*
X162052383Y-95128377D01*
X162227761Y-94953305D01*
X162322791Y-94724446D01*
X162322869Y-94634667D01*
X166619882Y-94634667D01*
X166723188Y-94884686D01*
X166770000Y-94931580D01*
X166770000Y-95065680D01*
X166769999Y-95065685D01*
X166810344Y-95268507D01*
X166925233Y-95440452D01*
X167359545Y-95874763D01*
X167359547Y-95874766D01*
X167427411Y-95920111D01*
X167165333Y-95919882D01*
X166915314Y-96023188D01*
X166723860Y-96214308D01*
X166620118Y-96464146D01*
X166619882Y-96734667D01*
X166723188Y-96984686D01*
X166914308Y-97176140D01*
X167164146Y-97279882D01*
X167434667Y-97280118D01*
X167684686Y-97176812D01*
X167733543Y-97128040D01*
X167915075Y-97128040D01*
X167915075Y-97197480D01*
X167936806Y-97306730D01*
X167998692Y-97399348D01*
X168091310Y-97461234D01*
X168200560Y-97482965D01*
X169399440Y-97482965D01*
X169508690Y-97461234D01*
X169601308Y-97399348D01*
X169663194Y-97306730D01*
X169684925Y-97197480D01*
X169684925Y-96031841D01*
X169915075Y-96031841D01*
X169915075Y-97197480D01*
X169936806Y-97306730D01*
X169998692Y-97399348D01*
X170091310Y-97461234D01*
X170200560Y-97482965D01*
X171399440Y-97482965D01*
X171508690Y-97461234D01*
X171601308Y-97399348D01*
X171663194Y-97306730D01*
X171684925Y-97197480D01*
X171684925Y-95998600D01*
X171915075Y-95998600D01*
X171915075Y-97197480D01*
X171936806Y-97306730D01*
X171998692Y-97399348D01*
X172091310Y-97461234D01*
X172200560Y-97482965D01*
X173399440Y-97482965D01*
X173508690Y-97461234D01*
X173601308Y-97399348D01*
X173663194Y-97306730D01*
X173684925Y-97197480D01*
X173684925Y-97128040D01*
X174015075Y-97128040D01*
X174015075Y-97199440D01*
X174036806Y-97308690D01*
X174098692Y-97401308D01*
X174191310Y-97463194D01*
X174300560Y-97484925D01*
X175499440Y-97484925D01*
X175608690Y-97463194D01*
X175701308Y-97401308D01*
X175763194Y-97308690D01*
X175784925Y-97199440D01*
X175784925Y-97130000D01*
X175852087Y-97130000D01*
X176075554Y-97222791D01*
X176323359Y-97223008D01*
X176552383Y-97128377D01*
X176727761Y-96953305D01*
X176822791Y-96724446D01*
X176823008Y-96476641D01*
X176730805Y-96253491D01*
X182719778Y-96253491D01*
X182914236Y-96724115D01*
X183273991Y-97084499D01*
X183744275Y-97279778D01*
X184253491Y-97280222D01*
X184724115Y-97085764D01*
X185084499Y-96726009D01*
X185279778Y-96255725D01*
X185280222Y-95746509D01*
X185085764Y-95275885D01*
X184726009Y-94915501D01*
X184255725Y-94720222D01*
X183746509Y-94719778D01*
X183275885Y-94914236D01*
X182915501Y-95273991D01*
X182720222Y-95744275D01*
X182719778Y-96253491D01*
X176730805Y-96253491D01*
X176728377Y-96247617D01*
X176553305Y-96072239D01*
X176324446Y-95977209D01*
X176076641Y-95976992D01*
X175851545Y-96070000D01*
X175784925Y-96070000D01*
X175784925Y-96000560D01*
X175763194Y-95891310D01*
X175701308Y-95798692D01*
X175608690Y-95736806D01*
X175499440Y-95715075D01*
X174300560Y-95715075D01*
X174191310Y-95736806D01*
X174098692Y-95798692D01*
X174036806Y-95891310D01*
X174015075Y-96000560D01*
X174015075Y-96068040D01*
X173684925Y-96068040D01*
X173684925Y-95998600D01*
X173663194Y-95889350D01*
X173601308Y-95796732D01*
X173508690Y-95734846D01*
X173399440Y-95713115D01*
X172200560Y-95713115D01*
X172091310Y-95734846D01*
X171998692Y-95796732D01*
X171936806Y-95889350D01*
X171915075Y-95998600D01*
X171684925Y-95998600D01*
X171663194Y-95889350D01*
X171601308Y-95796732D01*
X171508690Y-95734846D01*
X171399440Y-95713115D01*
X171330000Y-95713115D01*
X171330000Y-95698600D01*
X171289656Y-95495778D01*
X171215587Y-95384925D01*
X171399440Y-95384925D01*
X171508690Y-95363194D01*
X171601308Y-95301308D01*
X171663194Y-95208690D01*
X171684925Y-95099440D01*
X171684925Y-93900560D01*
X171915075Y-93900560D01*
X171915075Y-95099440D01*
X171936806Y-95208690D01*
X171998692Y-95301308D01*
X172091310Y-95363194D01*
X172200560Y-95384925D01*
X173399440Y-95384925D01*
X173508690Y-95363194D01*
X173601308Y-95301308D01*
X173663194Y-95208690D01*
X173684925Y-95099440D01*
X173684925Y-93900560D01*
X173663194Y-93791310D01*
X173601308Y-93698692D01*
X173508690Y-93636806D01*
X173399440Y-93615075D01*
X173330000Y-93615075D01*
X173330000Y-93319572D01*
X173359250Y-93313754D01*
X173451868Y-93251868D01*
X173513754Y-93159250D01*
X173535485Y-93050000D01*
X173535485Y-92550000D01*
X173513754Y-92440750D01*
X173451868Y-92348132D01*
X173359250Y-92286246D01*
X173250000Y-92264515D01*
X172350000Y-92264515D01*
X172240750Y-92286246D01*
X172148132Y-92348132D01*
X172086246Y-92440750D01*
X172064515Y-92550000D01*
X172064515Y-93050000D01*
X172086246Y-93159250D01*
X172148132Y-93251868D01*
X172240750Y-93313754D01*
X172270000Y-93319572D01*
X172270000Y-93615075D01*
X172200560Y-93615075D01*
X172091310Y-93636806D01*
X171998692Y-93698692D01*
X171936806Y-93791310D01*
X171915075Y-93900560D01*
X171684925Y-93900560D01*
X171663194Y-93791310D01*
X171601308Y-93698692D01*
X171508690Y-93636806D01*
X171399440Y-93615075D01*
X171330000Y-93615075D01*
X171330000Y-93319572D01*
X171359250Y-93313754D01*
X171451868Y-93251868D01*
X171513754Y-93159250D01*
X171535485Y-93050000D01*
X171535485Y-92550000D01*
X171513754Y-92440750D01*
X171451868Y-92348132D01*
X171359250Y-92286246D01*
X171250000Y-92264515D01*
X170350000Y-92264515D01*
X170240750Y-92286246D01*
X170148132Y-92348132D01*
X170086246Y-92440750D01*
X170064515Y-92550000D01*
X170064515Y-93050000D01*
X170086246Y-93159250D01*
X170148132Y-93251868D01*
X170240750Y-93313754D01*
X170270000Y-93319572D01*
X170270000Y-93615075D01*
X170200560Y-93615075D01*
X170091310Y-93636806D01*
X169998692Y-93698692D01*
X169936806Y-93791310D01*
X169915075Y-93900560D01*
X169915075Y-94971841D01*
X169684925Y-94971841D01*
X169684925Y-93900560D01*
X169663194Y-93791310D01*
X169601308Y-93698692D01*
X169508690Y-93636806D01*
X169399440Y-93615075D01*
X169330000Y-93615075D01*
X169330000Y-93319572D01*
X169359250Y-93313754D01*
X169451868Y-93251868D01*
X169513754Y-93159250D01*
X169535485Y-93050000D01*
X169535485Y-92550000D01*
X169513754Y-92440750D01*
X169451868Y-92348132D01*
X169359250Y-92286246D01*
X169250000Y-92264515D01*
X168350000Y-92264515D01*
X168240750Y-92286246D01*
X168148132Y-92348132D01*
X168086246Y-92440750D01*
X168064515Y-92550000D01*
X168064515Y-93050000D01*
X168086246Y-93159250D01*
X168148132Y-93251868D01*
X168240750Y-93313754D01*
X168270000Y-93319572D01*
X168270000Y-93615075D01*
X168200560Y-93615075D01*
X168091310Y-93636806D01*
X167998692Y-93698692D01*
X167936806Y-93791310D01*
X167915075Y-93900560D01*
X167915075Y-94207917D01*
X167876812Y-94115314D01*
X167685692Y-93923860D01*
X167435854Y-93820118D01*
X167165333Y-93819882D01*
X166915314Y-93923188D01*
X166723860Y-94114308D01*
X166620118Y-94364146D01*
X166619882Y-94634667D01*
X162322869Y-94634667D01*
X162323008Y-94476641D01*
X162228377Y-94247617D01*
X162053305Y-94072239D01*
X161824446Y-93977209D01*
X161576641Y-93976992D01*
X161351545Y-94070000D01*
X161133185Y-94070000D01*
X161126477Y-94059962D01*
X161164656Y-94002823D01*
X161205000Y-93800000D01*
X161205000Y-93760485D01*
X161550000Y-93760485D01*
X161650000Y-93740594D01*
X161750000Y-93760485D01*
X162200000Y-93760485D01*
X162300000Y-93740594D01*
X162400000Y-93760485D01*
X162850000Y-93760485D01*
X162950000Y-93740594D01*
X163050000Y-93760485D01*
X163500000Y-93760485D01*
X163600000Y-93740594D01*
X163700000Y-93760485D01*
X164150000Y-93760485D01*
X164250000Y-93740594D01*
X164350000Y-93760485D01*
X164800000Y-93760485D01*
X164900000Y-93740594D01*
X165000000Y-93760485D01*
X165450000Y-93760485D01*
X165559250Y-93738754D01*
X165651868Y-93676868D01*
X165713754Y-93584250D01*
X165735485Y-93475000D01*
X165735485Y-91725000D01*
X165713754Y-91615750D01*
X165651868Y-91523132D01*
X165559250Y-91461246D01*
X165450000Y-91439515D01*
X165000000Y-91439515D01*
X164900000Y-91459406D01*
X164800000Y-91439515D01*
X164350000Y-91439515D01*
X164250000Y-91459406D01*
X164150000Y-91439515D01*
X163700000Y-91439515D01*
X163600000Y-91459406D01*
X163500000Y-91439515D01*
X163050000Y-91439515D01*
X162950000Y-91459406D01*
X162850000Y-91439515D01*
X162400000Y-91439515D01*
X162300000Y-91459406D01*
X162200000Y-91439515D01*
X161750000Y-91439515D01*
X161650000Y-91459406D01*
X161550000Y-91439515D01*
X161100000Y-91439515D01*
X161000000Y-91459406D01*
X160900000Y-91439515D01*
X160450000Y-91439515D01*
X160350000Y-91459406D01*
X160250000Y-91439515D01*
X159968597Y-91439515D01*
X160078112Y-91330000D01*
X165968425Y-91330000D01*
X166114310Y-91476140D01*
X166364148Y-91579882D01*
X166634669Y-91580118D01*
X166884688Y-91476812D01*
X167076142Y-91285692D01*
X167179884Y-91035854D01*
X167180120Y-90765333D01*
X167076814Y-90515314D01*
X166885694Y-90323860D01*
X166635856Y-90220118D01*
X166365335Y-90219882D01*
X166115316Y-90323188D01*
X165968247Y-90470000D01*
X159900000Y-90470000D01*
X159735446Y-90502732D01*
X159595944Y-90595944D01*
X159070944Y-91120944D01*
X159060216Y-91137000D01*
X158984500Y-91137000D01*
X158837500Y-91284000D01*
X158837500Y-92426000D01*
X158864515Y-92426000D01*
X158864515Y-92774000D01*
X158837500Y-92774000D01*
X158837500Y-92794000D01*
X158612500Y-92794000D01*
X158612500Y-92774000D01*
X158585485Y-92774000D01*
X158585485Y-92426000D01*
X158612500Y-92426000D01*
X158612500Y-91284000D01*
X158465500Y-91137000D01*
X158383040Y-91137000D01*
X158166925Y-91226517D01*
X158001518Y-91391924D01*
X157981805Y-91439515D01*
X157850000Y-91439515D01*
X157750000Y-91459406D01*
X157650000Y-91439515D01*
X157230000Y-91439515D01*
X157230000Y-91178112D01*
X158578112Y-89830000D01*
X166000000Y-89830000D01*
X166164554Y-89797268D01*
X166304056Y-89704056D01*
X166484755Y-89523357D01*
X167976992Y-89523357D01*
X168070000Y-89748453D01*
X168070000Y-90499995D01*
X168069999Y-90500000D01*
X168110344Y-90702822D01*
X168189131Y-90820737D01*
X168148132Y-90848132D01*
X168086246Y-90940750D01*
X168064515Y-91050000D01*
X168064515Y-91550000D01*
X168086246Y-91659250D01*
X168148132Y-91751868D01*
X168240750Y-91813754D01*
X168350000Y-91835485D01*
X169250000Y-91835485D01*
X169359250Y-91813754D01*
X169451868Y-91751868D01*
X169513754Y-91659250D01*
X169535485Y-91550000D01*
X169535485Y-91050000D01*
X169513754Y-90940750D01*
X169451868Y-90848132D01*
X169359250Y-90786246D01*
X169330000Y-90780428D01*
X169330000Y-90700005D01*
X169330001Y-90700000D01*
X169317168Y-90635485D01*
X169385951Y-90635485D01*
X170064515Y-91314048D01*
X170064515Y-91550000D01*
X170086246Y-91659250D01*
X170148132Y-91751868D01*
X170240750Y-91813754D01*
X170350000Y-91835485D01*
X171250000Y-91835485D01*
X171359250Y-91813754D01*
X171451868Y-91751868D01*
X171513754Y-91659250D01*
X171535485Y-91550000D01*
X171535485Y-91050000D01*
X171513754Y-90940750D01*
X171451868Y-90848132D01*
X171359250Y-90786246D01*
X171250000Y-90764515D01*
X171014048Y-90764515D01*
X170885018Y-90635485D01*
X171385951Y-90635485D01*
X172064515Y-91314048D01*
X172064515Y-91550000D01*
X172086246Y-91659250D01*
X172148132Y-91751868D01*
X172240750Y-91813754D01*
X172350000Y-91835485D01*
X173250000Y-91835485D01*
X173359250Y-91813754D01*
X173451868Y-91751868D01*
X173513754Y-91659250D01*
X173535485Y-91550000D01*
X173535485Y-91050000D01*
X173513754Y-90940750D01*
X173451868Y-90848132D01*
X173359250Y-90786246D01*
X173250000Y-90764515D01*
X173014048Y-90764515D01*
X171974767Y-89725233D01*
X171802822Y-89610344D01*
X171720938Y-89594056D01*
X171709250Y-89586246D01*
X171600000Y-89564515D01*
X170700000Y-89564515D01*
X170590750Y-89586246D01*
X170498132Y-89648132D01*
X170436246Y-89740750D01*
X170414515Y-89850000D01*
X170414515Y-90164981D01*
X170285485Y-90035951D01*
X170285485Y-89850000D01*
X170263754Y-89740750D01*
X170201868Y-89648132D01*
X170109250Y-89586246D01*
X170000000Y-89564515D01*
X169335019Y-89564515D01*
X169764049Y-89135485D01*
X170000000Y-89135485D01*
X170027575Y-89130000D01*
X170500000Y-89130000D01*
X170588668Y-89112363D01*
X170590750Y-89113754D01*
X170700000Y-89135485D01*
X171600000Y-89135485D01*
X171709250Y-89113754D01*
X171801868Y-89051868D01*
X171863754Y-88959250D01*
X171885485Y-88850000D01*
X171885485Y-88350000D01*
X171863754Y-88240750D01*
X171801868Y-88148132D01*
X171709250Y-88086246D01*
X171600000Y-88064515D01*
X170700000Y-88064515D01*
X170590750Y-88086246D01*
X170588668Y-88087637D01*
X170500000Y-88070000D01*
X170027575Y-88070000D01*
X170000000Y-88064515D01*
X169100000Y-88064515D01*
X168990750Y-88086246D01*
X168898132Y-88148132D01*
X168836246Y-88240750D01*
X168814515Y-88350000D01*
X168814515Y-88585951D01*
X168623348Y-88777118D01*
X168476641Y-88776990D01*
X168247617Y-88871621D01*
X168072239Y-89046693D01*
X167977209Y-89275552D01*
X167976992Y-89523357D01*
X166484755Y-89523357D01*
X167928174Y-88079938D01*
X168134667Y-88080118D01*
X168384686Y-87976812D01*
X168576140Y-87785692D01*
X168623764Y-87671000D01*
X171737000Y-87671000D01*
X171737000Y-87866961D01*
X171826518Y-88083076D01*
X171991925Y-88248483D01*
X172094506Y-88290973D01*
X172061246Y-88340750D01*
X172039515Y-88450000D01*
X172039515Y-89250000D01*
X172061246Y-89359250D01*
X172123132Y-89451868D01*
X172215750Y-89513754D01*
X172325000Y-89535485D01*
X173075000Y-89535485D01*
X173157833Y-89519009D01*
X173171623Y-89552383D01*
X173346695Y-89727761D01*
X173575554Y-89822791D01*
X173823359Y-89823008D01*
X174052383Y-89728377D01*
X174201019Y-89580000D01*
X174272819Y-89580000D01*
X174360750Y-89638754D01*
X174470000Y-89660485D01*
X175530000Y-89660485D01*
X175639250Y-89638754D01*
X175731868Y-89576868D01*
X175793754Y-89484250D01*
X175815485Y-89375000D01*
X175815485Y-88725000D01*
X175793754Y-88615750D01*
X175766525Y-88575000D01*
X175793754Y-88534250D01*
X175815485Y-88425000D01*
X175815485Y-87775000D01*
X175793754Y-87665750D01*
X175766525Y-87625000D01*
X175793754Y-87584250D01*
X175815485Y-87475000D01*
X175815485Y-87459500D01*
X176082000Y-87459500D01*
X176082000Y-87591960D01*
X176171517Y-87808075D01*
X176336924Y-87973482D01*
X176553039Y-88063000D01*
X176879000Y-88063000D01*
X177026000Y-87916000D01*
X177026000Y-87312500D01*
X177374000Y-87312500D01*
X177374000Y-87916000D01*
X177521000Y-88063000D01*
X177846961Y-88063000D01*
X178063076Y-87973482D01*
X178228483Y-87808075D01*
X178318000Y-87591960D01*
X178318000Y-87459500D01*
X178171000Y-87312500D01*
X177374000Y-87312500D01*
X177026000Y-87312500D01*
X176229000Y-87312500D01*
X176082000Y-87459500D01*
X175815485Y-87459500D01*
X175815485Y-86825000D01*
X175793754Y-86715750D01*
X175788603Y-86708040D01*
X176082000Y-86708040D01*
X176082000Y-86840500D01*
X176229000Y-86987500D01*
X177026000Y-86987500D01*
X177026000Y-86384000D01*
X177374000Y-86384000D01*
X177374000Y-86987500D01*
X178171000Y-86987500D01*
X178318000Y-86840500D01*
X178318000Y-86733040D01*
X178762000Y-86733040D01*
X178762000Y-86979000D01*
X178909000Y-87126000D01*
X179475000Y-87126000D01*
X179475000Y-86409000D01*
X179328000Y-86262000D01*
X179233039Y-86262000D01*
X179016924Y-86351518D01*
X178851517Y-86516925D01*
X178762000Y-86733040D01*
X178318000Y-86733040D01*
X178318000Y-86708040D01*
X178228483Y-86491925D01*
X178063076Y-86326518D01*
X177846961Y-86237000D01*
X177521000Y-86237000D01*
X177374000Y-86384000D01*
X177026000Y-86384000D01*
X176879000Y-86237000D01*
X176553039Y-86237000D01*
X176336924Y-86326518D01*
X176171517Y-86491925D01*
X176082000Y-86708040D01*
X175788603Y-86708040D01*
X175731868Y-86623132D01*
X175639250Y-86561246D01*
X175530000Y-86539515D01*
X174470000Y-86539515D01*
X174360750Y-86561246D01*
X174268132Y-86623132D01*
X174206246Y-86715750D01*
X174205401Y-86720000D01*
X174050000Y-86720000D01*
X173972632Y-86735390D01*
X173935854Y-86720118D01*
X173665333Y-86719882D01*
X173623319Y-86737242D01*
X173573482Y-86616924D01*
X173408075Y-86451517D01*
X173191960Y-86362000D01*
X173021000Y-86362000D01*
X172874000Y-86509000D01*
X172874000Y-87176000D01*
X172894000Y-87176000D01*
X172894000Y-87524000D01*
X172874000Y-87524000D01*
X172874000Y-87544000D01*
X172526000Y-87544000D01*
X172526000Y-87524000D01*
X171884000Y-87524000D01*
X171737000Y-87671000D01*
X168623764Y-87671000D01*
X168679882Y-87535854D01*
X168680118Y-87265333D01*
X168576812Y-87015314D01*
X168394855Y-86833039D01*
X171737000Y-86833039D01*
X171737000Y-87029000D01*
X171884000Y-87176000D01*
X172526000Y-87176000D01*
X172526000Y-86509000D01*
X172379000Y-86362000D01*
X172208040Y-86362000D01*
X171991925Y-86451517D01*
X171826518Y-86616924D01*
X171737000Y-86833039D01*
X168394855Y-86833039D01*
X168385692Y-86823860D01*
X168135854Y-86720118D01*
X167865333Y-86719882D01*
X167615314Y-86823188D01*
X167423860Y-87014308D01*
X167320118Y-87264146D01*
X167319937Y-87471951D01*
X165821888Y-88970000D01*
X164491664Y-88970000D01*
X165454056Y-88007608D01*
X165547268Y-87868106D01*
X165580000Y-87703552D01*
X165580000Y-86940313D01*
X165622268Y-86877054D01*
X165655000Y-86712500D01*
X165655000Y-86472181D01*
X165713754Y-86384250D01*
X165735485Y-86275000D01*
X165735485Y-86230000D01*
X172150000Y-86230000D01*
X172180615Y-86223910D01*
X172206569Y-86206569D01*
X172223910Y-86180615D01*
X172230000Y-86150000D01*
X172230000Y-82901663D01*
X172265006Y-82938419D01*
X172702699Y-83148572D01*
X172926000Y-83045344D01*
X172926000Y-81774000D01*
X172906000Y-81774000D01*
X172906000Y-81426000D01*
X172926000Y-81426000D01*
X172926000Y-81406000D01*
X173274000Y-81406000D01*
X173274000Y-81426000D01*
D31*
G36*
X181810000Y-87900000D02*
X181816851Y-87934442D01*
X181836360Y-87963640D01*
X181865558Y-87983149D01*
X181900000Y-87990000D01*
X185210000Y-87990000D01*
X185210000Y-89910000D01*
X182100000Y-89910000D01*
X182065558Y-89916851D01*
X182036360Y-89936360D01*
X182016851Y-89965558D01*
X182010000Y-90000000D01*
X182010000Y-91310000D01*
X180490000Y-91310000D01*
X180490000Y-86190000D01*
X181810000Y-86190000D01*
X181810000Y-87900000D01*
X181810000Y-87900000D01*
G37*
X181810000Y-87900000D02*
X181816851Y-87934442D01*
X181836360Y-87963640D01*
X181865558Y-87983149D01*
X181900000Y-87990000D01*
X185210000Y-87990000D01*
X185210000Y-89910000D01*
X182100000Y-89910000D01*
X182065558Y-89916851D01*
X182036360Y-89936360D01*
X182016851Y-89965558D01*
X182010000Y-90000000D01*
X182010000Y-91310000D01*
X180490000Y-91310000D01*
X180490000Y-86190000D01*
X181810000Y-86190000D01*
X181810000Y-87900000D01*
M02*
