G04 #@! TF.FileFunction,Legend,Bot*
%FSLAX46Y46*%
G04 Gerber Fmt 4.6, Leading zero omitted, Abs format (unit mm)*
G04 Created by KiCad (PCBNEW (2016-07-14 BZR 6980)-product) date Sunday, 23 April 2017 'PMt' 23:49:01*
%MOMM*%
%LPD*%
G01*
G04 APERTURE LIST*
%ADD10C,0.150000*%
%ADD11C,0.175000*%
%ADD12C,0.375000*%
%ADD13C,0.254000*%
%ADD14R,1.727200X2.032000*%
%ADD15O,1.727200X2.032000*%
%ADD16R,2.032000X1.727200*%
%ADD17O,2.032000X1.727200*%
%ADD18C,1.300000*%
%ADD19C,2.800000*%
%ADD20C,1.200000*%
G04 APERTURE END LIST*
D10*
D11*
X164233333Y-82450000D02*
X164133333Y-82483333D01*
X164100000Y-82516666D01*
X164066666Y-82583333D01*
X164066666Y-82683333D01*
X164100000Y-82750000D01*
X164133333Y-82783333D01*
X164200000Y-82816666D01*
X164466666Y-82816666D01*
X164466666Y-82116666D01*
X164233333Y-82116666D01*
X164166666Y-82150000D01*
X164133333Y-82183333D01*
X164100000Y-82250000D01*
X164100000Y-82316666D01*
X164133333Y-82383333D01*
X164166666Y-82416666D01*
X164233333Y-82450000D01*
X164466666Y-82450000D01*
X163666666Y-82816666D02*
X163733333Y-82783333D01*
X163766666Y-82750000D01*
X163800000Y-82683333D01*
X163800000Y-82483333D01*
X163766666Y-82416666D01*
X163733333Y-82383333D01*
X163666666Y-82350000D01*
X163566666Y-82350000D01*
X163500000Y-82383333D01*
X163466666Y-82416666D01*
X163433333Y-82483333D01*
X163433333Y-82683333D01*
X163466666Y-82750000D01*
X163500000Y-82783333D01*
X163566666Y-82816666D01*
X163666666Y-82816666D01*
X162833333Y-82816666D02*
X162833333Y-82450000D01*
X162866666Y-82383333D01*
X162933333Y-82350000D01*
X163066666Y-82350000D01*
X163133333Y-82383333D01*
X162833333Y-82783333D02*
X162900000Y-82816666D01*
X163066666Y-82816666D01*
X163133333Y-82783333D01*
X163166666Y-82716666D01*
X163166666Y-82650000D01*
X163133333Y-82583333D01*
X163066666Y-82550000D01*
X162900000Y-82550000D01*
X162833333Y-82516666D01*
X162500000Y-82816666D02*
X162500000Y-82350000D01*
X162500000Y-82483333D02*
X162466666Y-82416666D01*
X162433333Y-82383333D01*
X162366666Y-82350000D01*
X162300000Y-82350000D01*
X161766666Y-82816666D02*
X161766666Y-82116666D01*
X161766666Y-82783333D02*
X161833333Y-82816666D01*
X161966666Y-82816666D01*
X162033333Y-82783333D01*
X162066666Y-82750000D01*
X162100000Y-82683333D01*
X162100000Y-82483333D01*
X162066666Y-82416666D01*
X162033333Y-82383333D01*
X161966666Y-82350000D01*
X161833333Y-82350000D01*
X161766666Y-82383333D01*
X160933333Y-82350000D02*
X160433333Y-82350000D01*
X160733333Y-82050000D02*
X160933333Y-82950000D01*
X160500000Y-82650000D02*
X161000000Y-82650000D01*
X160700000Y-82950000D02*
X160500000Y-82050000D01*
D12*
X181899107Y-86482142D02*
X180756250Y-86482142D01*
X181327678Y-87053571D02*
X181327678Y-85910714D01*
X179327678Y-85553571D02*
X180041964Y-85553571D01*
X180113392Y-86267857D01*
X180041964Y-86196428D01*
X179899107Y-86125000D01*
X179541964Y-86125000D01*
X179399107Y-86196428D01*
X179327678Y-86267857D01*
X179256250Y-86410714D01*
X179256250Y-86767857D01*
X179327678Y-86910714D01*
X179399107Y-86982142D01*
X179541964Y-87053571D01*
X179899107Y-87053571D01*
X180041964Y-86982142D01*
X180113392Y-86910714D01*
X178827678Y-85553571D02*
X178327678Y-87053571D01*
X177827678Y-85553571D01*
X176184821Y-87053571D02*
X176184821Y-85553571D01*
X175827678Y-85553571D01*
X175613392Y-85625000D01*
X175470535Y-85767857D01*
X175399107Y-85910714D01*
X175327678Y-86196428D01*
X175327678Y-86410714D01*
X175399107Y-86696428D01*
X175470535Y-86839285D01*
X175613392Y-86982142D01*
X175827678Y-87053571D01*
X176184821Y-87053571D01*
X174684821Y-86267857D02*
X174184821Y-86267857D01*
X173970535Y-87053571D02*
X174684821Y-87053571D01*
X174684821Y-85553571D01*
X173970535Y-85553571D01*
X173541964Y-85553571D02*
X173041964Y-87053571D01*
X172541964Y-85553571D01*
X181041964Y-89678571D02*
X181541964Y-88964285D01*
X181899107Y-89678571D02*
X181899107Y-88178571D01*
X181327678Y-88178571D01*
X181184821Y-88250000D01*
X181113392Y-88321428D01*
X181041964Y-88464285D01*
X181041964Y-88678571D01*
X181113392Y-88821428D01*
X181184821Y-88892857D01*
X181327678Y-88964285D01*
X181899107Y-88964285D01*
X180541964Y-88178571D02*
X179541964Y-89678571D01*
X179541964Y-88178571D02*
X180541964Y-89678571D01*
X179184821Y-88178571D02*
X178327678Y-88178571D01*
X178756250Y-89678571D02*
X178756250Y-88178571D01*
X177970535Y-88178571D02*
X176970535Y-89678571D01*
X176970535Y-88178571D02*
X177970535Y-89678571D01*
X181113392Y-90875000D02*
X181256250Y-90803571D01*
X181470535Y-90803571D01*
X181684821Y-90875000D01*
X181827678Y-91017857D01*
X181899107Y-91160714D01*
X181970535Y-91446428D01*
X181970535Y-91660714D01*
X181899107Y-91946428D01*
X181827678Y-92089285D01*
X181684821Y-92232142D01*
X181470535Y-92303571D01*
X181327678Y-92303571D01*
X181113392Y-92232142D01*
X181041964Y-92160714D01*
X181041964Y-91660714D01*
X181327678Y-91660714D01*
X180399107Y-92303571D02*
X180399107Y-90803571D01*
X179541964Y-92303571D01*
X179541964Y-90803571D01*
X178827678Y-92303571D02*
X178827678Y-90803571D01*
X178470535Y-90803571D01*
X178256250Y-90875000D01*
X178113392Y-91017857D01*
X178041964Y-91160714D01*
X177970535Y-91446428D01*
X177970535Y-91660714D01*
X178041964Y-91946428D01*
X178113392Y-92089285D01*
X178256250Y-92232142D01*
X178470535Y-92303571D01*
X178827678Y-92303571D01*
D13*
G36*
X164873000Y-87373000D02*
X154627000Y-87373000D01*
X154627000Y-83127000D01*
X164873000Y-83127000D01*
X164873000Y-87373000D01*
X164873000Y-87373000D01*
G37*
X164873000Y-87373000D02*
X154627000Y-87373000D01*
X154627000Y-83127000D01*
X164873000Y-83127000D01*
X164873000Y-87373000D01*
%LPC*%
D14*
X175640000Y-81600000D03*
D15*
X173100000Y-81600000D03*
X170560000Y-81600000D03*
D16*
X184000000Y-86460000D03*
D17*
X184000000Y-89000000D03*
X184000000Y-91540000D03*
D18*
X152900000Y-88350000D03*
X152900000Y-90350000D03*
X152900000Y-92850000D03*
X152900000Y-85850000D03*
D19*
X150800000Y-83500000D03*
X150800000Y-95200000D03*
D20*
X150800000Y-87100000D03*
X150800000Y-91600000D03*
M02*
