G04 #@! TF.FileFunction,Soldermask,Top*
%FSLAX46Y46*%
G04 Gerber Fmt 4.6, Leading zero omitted, Abs format (unit mm)*
G04 Created by KiCad (PCBNEW (2016-07-14 BZR 6980)-product) date Sunday, 23 April 2017 'PMt' 23:49:01*
%MOMM*%
%LPD*%
G01*
G04 APERTURE LIST*
%ADD10C,0.150000*%
%ADD11R,0.800000X0.750000*%
%ADD12R,0.750000X0.800000*%
%ADD13R,1.198880X1.198880*%
%ADD14R,1.727200X2.032000*%
%ADD15O,1.727200X2.032000*%
%ADD16R,0.500000X0.900000*%
%ADD17R,0.450000X1.750000*%
%ADD18R,1.060000X0.650000*%
%ADD19R,2.032000X1.727200*%
%ADD20O,2.032000X1.727200*%
%ADD21R,0.900000X0.500000*%
%ADD22C,1.300000*%
%ADD23C,2.800000*%
%ADD24C,1.200000*%
G04 APERTURE END LIST*
D10*
D11*
X165350000Y-82700000D03*
X163850000Y-82700000D03*
X162350000Y-82700000D03*
X160850000Y-82700000D03*
D12*
X172700000Y-87350000D03*
X172700000Y-88850000D03*
D11*
X181100000Y-90600000D03*
X179600000Y-90600000D03*
D13*
X168800000Y-94500000D03*
X168800000Y-96598040D03*
X170800000Y-94500000D03*
X170800000Y-96598040D03*
X172800000Y-94500000D03*
X172800000Y-96598040D03*
D14*
X175640000Y-81600000D03*
D15*
X173100000Y-81600000D03*
X170560000Y-81600000D03*
D16*
X181100000Y-89000000D03*
X179600000Y-89000000D03*
X179600000Y-87300000D03*
X181100000Y-87300000D03*
D17*
X156775000Y-92600000D03*
X157425000Y-92600000D03*
X158075000Y-92600000D03*
X158725000Y-92600000D03*
X159375000Y-92600000D03*
X160025000Y-92600000D03*
X160675000Y-92600000D03*
X161325000Y-92600000D03*
X161975000Y-92600000D03*
X162625000Y-92600000D03*
X163275000Y-92600000D03*
X163925000Y-92600000D03*
X164575000Y-92600000D03*
X165225000Y-92600000D03*
X165225000Y-85400000D03*
X164575000Y-85400000D03*
X163925000Y-85400000D03*
X163275000Y-85400000D03*
X162625000Y-85400000D03*
X161975000Y-85400000D03*
X161325000Y-85400000D03*
X160675000Y-85400000D03*
X160025000Y-85400000D03*
X159375000Y-85400000D03*
X158725000Y-85400000D03*
X158075000Y-85400000D03*
X157425000Y-85400000D03*
X156775000Y-85400000D03*
D18*
X175000000Y-87150000D03*
X175000000Y-88100000D03*
X175000000Y-89050000D03*
X177200000Y-89050000D03*
X177200000Y-87150000D03*
D19*
X184000000Y-86460000D03*
D20*
X184000000Y-89000000D03*
X184000000Y-91540000D03*
D13*
X174900000Y-94501960D03*
X174900000Y-96600000D03*
D11*
X159000000Y-94600000D03*
X160500000Y-94600000D03*
X162350000Y-81100000D03*
X160850000Y-81100000D03*
D21*
X171150000Y-88600000D03*
X171150000Y-90100000D03*
X169550000Y-88600000D03*
X169550000Y-90100000D03*
X168800000Y-91300000D03*
X168800000Y-92800000D03*
X170800000Y-91300000D03*
X170800000Y-92800000D03*
X172800000Y-91300000D03*
X172800000Y-92800000D03*
X174900000Y-91300000D03*
X174900000Y-92800000D03*
X176600000Y-91300000D03*
X176600000Y-92800000D03*
D22*
X152900000Y-88350000D03*
X152900000Y-90350000D03*
X152900000Y-92850000D03*
X152900000Y-85850000D03*
D23*
X150800000Y-83500000D03*
X150800000Y-95200000D03*
D24*
X150800000Y-87100000D03*
X150800000Y-91600000D03*
M02*
