G04 #@! TF.FileFunction,Copper,L2,Bot,Signal*
%FSLAX46Y46*%
G04 Gerber Fmt 4.6, Leading zero omitted, Abs format (unit mm)*
G04 Created by KiCad (PCBNEW (2016-07-14 BZR 6980)-product) date Sunday, 23 April 2017 'PMt' 23:49:01*
%MOMM*%
%LPD*%
G01*
G04 APERTURE LIST*
%ADD10C,0.150000*%
%ADD11C,0.175000*%
%ADD12R,1.727200X2.032000*%
%ADD13O,1.727200X2.032000*%
%ADD14R,2.032000X1.727200*%
%ADD15O,2.032000X1.727200*%
%ADD16C,1.300000*%
%ADD17C,2.800000*%
%ADD18C,0.685800*%
%ADD19C,0.800000*%
%ADD20C,0.400000*%
%ADD21C,0.800000*%
%ADD22C,0.300000*%
%ADD23C,0.500000*%
%ADD24C,0.180000*%
G04 APERTURE END LIST*
D10*
D11*
X162816666Y-95670833D02*
X162883333Y-95637500D01*
X163016666Y-95637500D01*
X163083333Y-95670833D01*
X163150000Y-95737500D01*
X163183333Y-95804166D01*
X163183333Y-95937500D01*
X163150000Y-96004166D01*
X163083333Y-96070833D01*
X163016666Y-96104166D01*
X162883333Y-96104166D01*
X162816666Y-96070833D01*
X162950000Y-95404166D02*
X163116666Y-95437500D01*
X163283333Y-95537500D01*
X163383333Y-95704166D01*
X163416666Y-95870833D01*
X163383333Y-96037500D01*
X163283333Y-96204166D01*
X163116666Y-96304166D01*
X162950000Y-96337500D01*
X162783333Y-96304166D01*
X162616666Y-96204166D01*
X162516666Y-96037500D01*
X162483333Y-95870833D01*
X162516666Y-95704166D01*
X162616666Y-95537500D01*
X162783333Y-95437500D01*
X162950000Y-95404166D01*
X161683333Y-95570833D02*
X161650000Y-95537500D01*
X161583333Y-95504166D01*
X161416666Y-95504166D01*
X161350000Y-95537500D01*
X161316666Y-95570833D01*
X161283333Y-95637500D01*
X161283333Y-95704166D01*
X161316666Y-95804166D01*
X161716666Y-96204166D01*
X161283333Y-96204166D01*
X160850000Y-95504166D02*
X160783333Y-95504166D01*
X160716666Y-95537500D01*
X160683333Y-95570833D01*
X160650000Y-95637500D01*
X160616666Y-95770833D01*
X160616666Y-95937500D01*
X160650000Y-96070833D01*
X160683333Y-96137500D01*
X160716666Y-96170833D01*
X160783333Y-96204166D01*
X160850000Y-96204166D01*
X160916666Y-96170833D01*
X160950000Y-96137500D01*
X160983333Y-96070833D01*
X161016666Y-95937500D01*
X161016666Y-95770833D01*
X160983333Y-95637500D01*
X160950000Y-95570833D01*
X160916666Y-95537500D01*
X160850000Y-95504166D01*
X159950000Y-96204166D02*
X160350000Y-96204166D01*
X160150000Y-96204166D02*
X160150000Y-95504166D01*
X160216666Y-95604166D01*
X160283333Y-95670833D01*
X160350000Y-95704166D01*
X159716666Y-95504166D02*
X159250000Y-95504166D01*
X159550000Y-96204166D01*
X158416666Y-96204166D02*
X158283333Y-96204166D01*
X158216666Y-96170833D01*
X158183333Y-96137500D01*
X158116666Y-96037500D01*
X158083333Y-95904166D01*
X158083333Y-95637500D01*
X158116666Y-95570833D01*
X158150000Y-95537500D01*
X158216666Y-95504166D01*
X158350000Y-95504166D01*
X158416666Y-95537500D01*
X158450000Y-95570833D01*
X158483333Y-95637500D01*
X158483333Y-95804166D01*
X158450000Y-95870833D01*
X158416666Y-95904166D01*
X158350000Y-95937500D01*
X158216666Y-95937500D01*
X158150000Y-95904166D01*
X158116666Y-95870833D01*
X158083333Y-95804166D01*
X157683333Y-95804166D02*
X157750000Y-95770833D01*
X157783333Y-95737500D01*
X157816666Y-95670833D01*
X157816666Y-95637500D01*
X157783333Y-95570833D01*
X157750000Y-95537500D01*
X157683333Y-95504166D01*
X157550000Y-95504166D01*
X157483333Y-95537500D01*
X157450000Y-95570833D01*
X157416666Y-95637500D01*
X157416666Y-95670833D01*
X157450000Y-95737500D01*
X157483333Y-95770833D01*
X157550000Y-95804166D01*
X157683333Y-95804166D01*
X157750000Y-95837500D01*
X157783333Y-95870833D01*
X157816666Y-95937500D01*
X157816666Y-96070833D01*
X157783333Y-96137500D01*
X157750000Y-96170833D01*
X157683333Y-96204166D01*
X157550000Y-96204166D01*
X157483333Y-96170833D01*
X157450000Y-96137500D01*
X157416666Y-96070833D01*
X157416666Y-95937500D01*
X157450000Y-95870833D01*
X157483333Y-95837500D01*
X157550000Y-95804166D01*
X156816666Y-95504166D02*
X156950000Y-95504166D01*
X157016666Y-95537500D01*
X157050000Y-95570833D01*
X157116666Y-95670833D01*
X157150000Y-95804166D01*
X157150000Y-96070833D01*
X157116666Y-96137500D01*
X157083333Y-96170833D01*
X157016666Y-96204166D01*
X156883333Y-96204166D01*
X156816666Y-96170833D01*
X156783333Y-96137500D01*
X156750000Y-96070833D01*
X156750000Y-95904166D01*
X156783333Y-95837500D01*
X156816666Y-95804166D01*
X156883333Y-95770833D01*
X157016666Y-95770833D01*
X157083333Y-95804166D01*
X157116666Y-95837500D01*
X157150000Y-95904166D01*
X156450000Y-95937500D02*
X155916666Y-95937500D01*
X155616666Y-96170833D02*
X155516666Y-96204166D01*
X155350000Y-96204166D01*
X155283333Y-96170833D01*
X155250000Y-96137500D01*
X155216666Y-96070833D01*
X155216666Y-96004166D01*
X155250000Y-95937500D01*
X155283333Y-95904166D01*
X155350000Y-95870833D01*
X155483333Y-95837500D01*
X155550000Y-95804166D01*
X155583333Y-95770833D01*
X155616666Y-95704166D01*
X155616666Y-95637500D01*
X155583333Y-95570833D01*
X155550000Y-95537500D01*
X155483333Y-95504166D01*
X155316666Y-95504166D01*
X155216666Y-95537500D01*
X155016666Y-95737500D02*
X154750000Y-95737500D01*
X154916666Y-95504166D02*
X154916666Y-96104166D01*
X154883333Y-96170833D01*
X154816666Y-96204166D01*
X154750000Y-96204166D01*
X154216666Y-95737500D02*
X154216666Y-96204166D01*
X154516666Y-95737500D02*
X154516666Y-96104166D01*
X154483333Y-96170833D01*
X154416666Y-96204166D01*
X154316666Y-96204166D01*
X154250000Y-96170833D01*
X154216666Y-96137500D01*
X153583333Y-96204166D02*
X153583333Y-95504166D01*
X153583333Y-96170833D02*
X153650000Y-96204166D01*
X153783333Y-96204166D01*
X153850000Y-96170833D01*
X153883333Y-96137500D01*
X153916666Y-96070833D01*
X153916666Y-95870833D01*
X153883333Y-95804166D01*
X153850000Y-95770833D01*
X153783333Y-95737500D01*
X153650000Y-95737500D01*
X153583333Y-95770833D01*
X153250000Y-96204166D02*
X153250000Y-95737500D01*
X153250000Y-95504166D02*
X153283333Y-95537500D01*
X153250000Y-95570833D01*
X153216666Y-95537500D01*
X153250000Y-95504166D01*
X153250000Y-95570833D01*
X152816666Y-96204166D02*
X152883333Y-96170833D01*
X152916666Y-96137500D01*
X152950000Y-96070833D01*
X152950000Y-95870833D01*
X152916666Y-95804166D01*
X152883333Y-95770833D01*
X152816666Y-95737500D01*
X152716666Y-95737500D01*
X152650000Y-95770833D01*
X152616666Y-95804166D01*
X152583333Y-95870833D01*
X152583333Y-96070833D01*
X152616666Y-96137500D01*
X152650000Y-96170833D01*
X152716666Y-96204166D01*
X152816666Y-96204166D01*
X164483333Y-97429166D02*
X164483333Y-96729166D01*
X164250000Y-97229166D01*
X164016666Y-96729166D01*
X164016666Y-97429166D01*
X163383333Y-97429166D02*
X163383333Y-97062500D01*
X163416666Y-96995833D01*
X163483333Y-96962500D01*
X163616666Y-96962500D01*
X163683333Y-96995833D01*
X163383333Y-97395833D02*
X163450000Y-97429166D01*
X163616666Y-97429166D01*
X163683333Y-97395833D01*
X163716666Y-97329166D01*
X163716666Y-97262500D01*
X163683333Y-97195833D01*
X163616666Y-97162500D01*
X163450000Y-97162500D01*
X163383333Y-97129166D01*
X163050000Y-96962500D02*
X163050000Y-97429166D01*
X163050000Y-97029166D02*
X163016666Y-96995833D01*
X162950000Y-96962500D01*
X162850000Y-96962500D01*
X162783333Y-96995833D01*
X162750000Y-97062500D01*
X162750000Y-97429166D01*
X162316666Y-97429166D02*
X162383333Y-97395833D01*
X162416666Y-97362500D01*
X162450000Y-97295833D01*
X162450000Y-97095833D01*
X162416666Y-97029166D01*
X162383333Y-96995833D01*
X162316666Y-96962500D01*
X162216666Y-96962500D01*
X162150000Y-96995833D01*
X162116666Y-97029166D01*
X162083333Y-97095833D01*
X162083333Y-97295833D01*
X162116666Y-97362500D01*
X162150000Y-97395833D01*
X162216666Y-97429166D01*
X162316666Y-97429166D01*
X161516666Y-97395833D02*
X161583333Y-97429166D01*
X161716666Y-97429166D01*
X161783333Y-97395833D01*
X161816666Y-97329166D01*
X161816666Y-97062500D01*
X161783333Y-96995833D01*
X161716666Y-96962500D01*
X161583333Y-96962500D01*
X161516666Y-96995833D01*
X161483333Y-97062500D01*
X161483333Y-97129166D01*
X161816666Y-97195833D01*
X161783333Y-96729166D02*
X161750000Y-96762500D01*
X161783333Y-96795833D01*
X161816666Y-96762500D01*
X161783333Y-96729166D01*
X161783333Y-96795833D01*
X161516666Y-96729166D02*
X161483333Y-96762500D01*
X161516666Y-96795833D01*
X161550000Y-96762500D01*
X161516666Y-96729166D01*
X161516666Y-96795833D01*
X161083333Y-97429166D02*
X161150000Y-97395833D01*
X161183333Y-97329166D01*
X161183333Y-96729166D01*
X159750000Y-96962500D02*
X160283333Y-97162500D01*
X159750000Y-97362500D01*
X159050000Y-96762500D02*
X159116666Y-96729166D01*
X159216666Y-96729166D01*
X159316666Y-96762500D01*
X159383333Y-96829166D01*
X159416666Y-96895833D01*
X159450000Y-97029166D01*
X159450000Y-97129166D01*
X159416666Y-97262500D01*
X159383333Y-97329166D01*
X159316666Y-97395833D01*
X159216666Y-97429166D01*
X159150000Y-97429166D01*
X159050000Y-97395833D01*
X159016666Y-97362500D01*
X159016666Y-97129166D01*
X159150000Y-97129166D01*
X158616666Y-97429166D02*
X158683333Y-97395833D01*
X158716666Y-97362500D01*
X158750000Y-97295833D01*
X158750000Y-97095833D01*
X158716666Y-97029166D01*
X158683333Y-96995833D01*
X158616666Y-96962500D01*
X158516666Y-96962500D01*
X158450000Y-96995833D01*
X158416666Y-97029166D01*
X158383333Y-97095833D01*
X158383333Y-97295833D01*
X158416666Y-97362500D01*
X158450000Y-97395833D01*
X158516666Y-97429166D01*
X158616666Y-97429166D01*
X157783333Y-97429166D02*
X157783333Y-96729166D01*
X157783333Y-97395833D02*
X157850000Y-97429166D01*
X157983333Y-97429166D01*
X158050000Y-97395833D01*
X158083333Y-97362500D01*
X158116666Y-97295833D01*
X158116666Y-97095833D01*
X158083333Y-97029166D01*
X158050000Y-96995833D01*
X157983333Y-96962500D01*
X157850000Y-96962500D01*
X157783333Y-96995833D01*
X157516666Y-96962500D02*
X157150000Y-96962500D01*
X157516666Y-97429166D01*
X157150000Y-97429166D01*
X156883333Y-97429166D02*
X156883333Y-96962500D01*
X156883333Y-96729166D02*
X156916666Y-96762500D01*
X156883333Y-96795833D01*
X156850000Y-96762500D01*
X156883333Y-96729166D01*
X156883333Y-96795833D01*
X156450000Y-97429166D02*
X156516666Y-97395833D01*
X156550000Y-97329166D01*
X156550000Y-96729166D01*
X156183333Y-96962500D02*
X155650000Y-97162500D01*
X156183333Y-97362500D01*
X154883333Y-96729166D02*
X154483333Y-96729166D01*
X154683333Y-97429166D02*
X154683333Y-96729166D01*
X154250000Y-97429166D02*
X154250000Y-96962500D01*
X154250000Y-97095833D02*
X154216666Y-97029166D01*
X154183333Y-96995833D01*
X154116666Y-96962500D01*
X154050000Y-96962500D01*
X153516666Y-97429166D02*
X153516666Y-97062500D01*
X153550000Y-96995833D01*
X153616666Y-96962500D01*
X153750000Y-96962500D01*
X153816666Y-96995833D01*
X153516666Y-97395833D02*
X153583333Y-97429166D01*
X153750000Y-97429166D01*
X153816666Y-97395833D01*
X153850000Y-97329166D01*
X153850000Y-97262500D01*
X153816666Y-97195833D01*
X153750000Y-97162500D01*
X153583333Y-97162500D01*
X153516666Y-97129166D01*
X153183333Y-96962500D02*
X153183333Y-97662500D01*
X153183333Y-96995833D02*
X153116666Y-96962500D01*
X152983333Y-96962500D01*
X152916666Y-96995833D01*
X152883333Y-97029166D01*
X152850000Y-97095833D01*
X152850000Y-97295833D01*
X152883333Y-97362500D01*
X152916666Y-97395833D01*
X152983333Y-97429166D01*
X153116666Y-97429166D01*
X153183333Y-97395833D01*
X152550000Y-97429166D02*
X152550000Y-96962500D01*
X152550000Y-96729166D02*
X152583333Y-96762500D01*
X152550000Y-96795833D01*
X152516666Y-96762500D01*
X152550000Y-96729166D01*
X152550000Y-96795833D01*
X151950000Y-97395833D02*
X152016666Y-97429166D01*
X152150000Y-97429166D01*
X152216666Y-97395833D01*
X152250000Y-97329166D01*
X152250000Y-97062500D01*
X152216666Y-96995833D01*
X152150000Y-96962500D01*
X152016666Y-96962500D01*
X151950000Y-96995833D01*
X151916666Y-97062500D01*
X151916666Y-97129166D01*
X152250000Y-97195833D01*
X151616666Y-97429166D02*
X151616666Y-96962500D01*
X151616666Y-97095833D02*
X151583333Y-97029166D01*
X151550000Y-96995833D01*
X151483333Y-96962500D01*
X151416666Y-96962500D01*
D12*
X175640000Y-81600000D03*
D13*
X173100000Y-81600000D03*
X170560000Y-81600000D03*
D14*
X184000000Y-86460000D03*
D15*
X184000000Y-89000000D03*
X184000000Y-91540000D03*
D16*
X152900000Y-88350000D03*
X152900000Y-90350000D03*
X152900000Y-92850000D03*
X152900000Y-85850000D03*
D17*
X150800000Y-83500000D03*
X150800000Y-95200000D03*
D18*
X173700000Y-89200000D03*
X162300004Y-87000000D03*
X159600000Y-82700000D03*
X161700000Y-94600000D03*
X176200000Y-96600000D03*
X179600000Y-91700000D03*
X158100000Y-83900000D03*
X168600000Y-89399998D03*
X167200000Y-85000000D03*
X159600000Y-81100000D03*
X163800000Y-81100000D03*
D19*
X159300000Y-87400000D03*
X167300000Y-96600000D03*
X167300000Y-94500000D03*
X160900000Y-87400000D03*
D18*
X174900000Y-90299999D03*
X174900000Y-85300000D03*
D19*
X166500002Y-90900000D03*
X177200000Y-90200000D03*
X168000000Y-87400000D03*
X173800000Y-87400000D03*
D18*
X154500000Y-89792900D03*
X154500000Y-88907100D03*
D20*
X167200000Y-87999998D02*
X168257101Y-89057099D01*
X167200000Y-85000000D02*
X167200000Y-87999998D01*
X168257101Y-89057099D02*
X168600000Y-89399998D01*
D21*
X163800000Y-81100000D02*
X159600000Y-81100000D01*
D22*
X159300000Y-87965685D02*
X159300000Y-87400000D01*
X159300000Y-88600000D02*
X159300000Y-87965685D01*
X167300000Y-96600000D02*
X159300000Y-88600000D01*
X167300000Y-94500000D02*
X160900000Y-88100000D01*
X160900000Y-88100000D02*
X160900000Y-87400000D01*
D23*
X174900000Y-85300000D02*
X174900000Y-90299999D01*
D22*
X177200000Y-90200000D02*
X175300000Y-92100000D01*
X175300000Y-92100000D02*
X167700002Y-92100000D01*
X167700002Y-92100000D02*
X166500002Y-90900000D01*
X173800000Y-87400000D02*
X168000000Y-87400000D01*
X154500000Y-88907100D02*
X154342900Y-88907100D01*
X154342900Y-88907100D02*
X152900000Y-90350000D01*
D24*
G36*
X159316814Y-80416329D02*
X159076741Y-80576741D01*
X158916329Y-80816814D01*
X158860000Y-81100000D01*
X158916329Y-81383186D01*
X159076741Y-81623259D01*
X159316814Y-81783671D01*
X159600000Y-81840000D01*
X163800000Y-81840000D01*
X164083186Y-81783671D01*
X164323259Y-81623259D01*
X164483671Y-81383186D01*
X164540000Y-81100000D01*
X164483671Y-80816814D01*
X164323259Y-80576741D01*
X164083186Y-80416329D01*
X164076505Y-80415000D01*
X169940841Y-80415000D01*
X169708926Y-80569960D01*
X169448019Y-80960436D01*
X169356400Y-81421034D01*
X169356400Y-81778966D01*
X169448019Y-82239564D01*
X169708926Y-82630040D01*
X170099402Y-82890947D01*
X170560000Y-82982566D01*
X171020598Y-82890947D01*
X171411074Y-82630040D01*
X171671981Y-82239564D01*
X171763600Y-81778966D01*
X171763600Y-81421034D01*
X171671981Y-80960436D01*
X171411074Y-80569960D01*
X171179159Y-80415000D01*
X172480841Y-80415000D01*
X172248926Y-80569960D01*
X171988019Y-80960436D01*
X171896400Y-81421034D01*
X171896400Y-81778966D01*
X171988019Y-82239564D01*
X172248926Y-82630040D01*
X172639402Y-82890947D01*
X173100000Y-82982566D01*
X173560598Y-82890947D01*
X173951074Y-82630040D01*
X174211981Y-82239564D01*
X174303600Y-81778966D01*
X174303600Y-81421034D01*
X174211981Y-80960436D01*
X173951074Y-80569960D01*
X173719159Y-80415000D01*
X174480409Y-80415000D01*
X174456128Y-80451339D01*
X174429740Y-80584000D01*
X174429740Y-82616000D01*
X174456128Y-82748661D01*
X174531274Y-82861126D01*
X174643739Y-82936272D01*
X174776400Y-82962660D01*
X176503600Y-82962660D01*
X176636261Y-82936272D01*
X176748726Y-82861126D01*
X176823872Y-82748661D01*
X176850260Y-82616000D01*
X176850260Y-82265373D01*
X182659768Y-82265373D01*
X182863341Y-82758057D01*
X183239960Y-83135334D01*
X183732288Y-83339767D01*
X184265373Y-83340232D01*
X184758057Y-83136659D01*
X185135334Y-82760040D01*
X185339767Y-82267712D01*
X185340232Y-81734627D01*
X185136659Y-81241943D01*
X184760040Y-80864666D01*
X184267712Y-80660233D01*
X183734627Y-80659768D01*
X183241943Y-80863341D01*
X182864666Y-81239960D01*
X182660233Y-81732288D01*
X182659768Y-82265373D01*
X176850260Y-82265373D01*
X176850260Y-80584000D01*
X176823872Y-80451339D01*
X176799591Y-80415000D01*
X184959126Y-80415000D01*
X185220758Y-80467041D01*
X185407909Y-80592092D01*
X185532958Y-80779241D01*
X185585000Y-81040874D01*
X185585000Y-91375998D01*
X185454211Y-91375998D01*
X185561234Y-91150818D01*
X185341152Y-90690659D01*
X184925635Y-90300396D01*
X184500385Y-90139666D01*
X184639564Y-90111981D01*
X185030040Y-89851074D01*
X185290947Y-89460598D01*
X185382566Y-89000000D01*
X185290947Y-88539402D01*
X185030040Y-88148926D01*
X184639564Y-87888019D01*
X184178966Y-87796400D01*
X183821034Y-87796400D01*
X183360436Y-87888019D01*
X182969960Y-88148926D01*
X182709053Y-88539402D01*
X182617434Y-89000000D01*
X182709053Y-89460598D01*
X182969960Y-89851074D01*
X183360436Y-90111981D01*
X183499615Y-90139666D01*
X183074365Y-90300396D01*
X182658848Y-90690659D01*
X182438766Y-91150818D01*
X182545790Y-91376000D01*
X183836000Y-91376000D01*
X183836000Y-91356000D01*
X184164000Y-91356000D01*
X184164000Y-91376000D01*
X184184000Y-91376000D01*
X184184000Y-91704000D01*
X184164000Y-91704000D01*
X184164000Y-92851450D01*
X184392400Y-92981149D01*
X184925635Y-92779604D01*
X185341152Y-92389341D01*
X185561234Y-91929182D01*
X185454211Y-91704002D01*
X185585000Y-91704002D01*
X185585000Y-96959126D01*
X185532958Y-97220759D01*
X185407909Y-97407908D01*
X185220758Y-97532959D01*
X184959126Y-97585000D01*
X165077500Y-97585000D01*
X165077500Y-95070465D01*
X166560041Y-96553006D01*
X166559872Y-96746549D01*
X166672293Y-97018628D01*
X166880277Y-97226975D01*
X167152159Y-97339871D01*
X167446549Y-97340128D01*
X167718628Y-97227707D01*
X167926975Y-97019723D01*
X168039871Y-96747841D01*
X168040128Y-96453451D01*
X167962416Y-96265373D01*
X182659768Y-96265373D01*
X182863341Y-96758057D01*
X183239960Y-97135334D01*
X183732288Y-97339767D01*
X184265373Y-97340232D01*
X184758057Y-97136659D01*
X185135334Y-96760040D01*
X185339767Y-96267712D01*
X185340232Y-95734627D01*
X185136659Y-95241943D01*
X184760040Y-94864666D01*
X184267712Y-94660233D01*
X183734627Y-94659768D01*
X183241943Y-94863341D01*
X182864666Y-95239960D01*
X182660233Y-95732288D01*
X182659768Y-96265373D01*
X167962416Y-96265373D01*
X167927707Y-96181372D01*
X167719723Y-95973025D01*
X167447841Y-95860129D01*
X167252924Y-95859959D01*
X159790000Y-88397036D01*
X159790000Y-87956459D01*
X159926975Y-87819723D01*
X160039871Y-87547841D01*
X160039872Y-87546549D01*
X160159872Y-87546549D01*
X160272293Y-87818628D01*
X160410000Y-87956575D01*
X160410000Y-88100000D01*
X160447299Y-88287515D01*
X160553518Y-88446482D01*
X166560041Y-94453005D01*
X166559872Y-94646549D01*
X166672293Y-94918628D01*
X166880277Y-95126975D01*
X167152159Y-95239871D01*
X167446549Y-95240128D01*
X167718628Y-95127707D01*
X167926975Y-94919723D01*
X168039871Y-94647841D01*
X168040128Y-94353451D01*
X167927707Y-94081372D01*
X167719723Y-93873025D01*
X167447841Y-93760129D01*
X167252923Y-93759959D01*
X164539513Y-91046549D01*
X165759874Y-91046549D01*
X165872295Y-91318628D01*
X166080279Y-91526975D01*
X166352161Y-91639871D01*
X166547079Y-91640041D01*
X167353519Y-92446482D01*
X167493235Y-92539837D01*
X167512487Y-92552701D01*
X167700002Y-92590000D01*
X175300000Y-92590000D01*
X175487515Y-92552701D01*
X175646482Y-92446482D01*
X176163782Y-91929182D01*
X182438766Y-91929182D01*
X182658848Y-92389341D01*
X183074365Y-92779604D01*
X183607600Y-92981149D01*
X183836000Y-92851450D01*
X183836000Y-91704000D01*
X182545790Y-91704000D01*
X182438766Y-91929182D01*
X176163782Y-91929182D01*
X177153005Y-90939959D01*
X177346549Y-90940128D01*
X177618628Y-90827707D01*
X177826975Y-90619723D01*
X177939871Y-90347841D01*
X177940128Y-90053451D01*
X177827707Y-89781372D01*
X177619723Y-89573025D01*
X177347841Y-89460129D01*
X177053451Y-89459872D01*
X176781372Y-89572293D01*
X176573025Y-89780277D01*
X176460129Y-90052159D01*
X176459959Y-90247077D01*
X175097036Y-91610000D01*
X167902967Y-91610000D01*
X167239961Y-90946995D01*
X167240130Y-90753451D01*
X167127709Y-90481372D01*
X166919725Y-90273025D01*
X166647843Y-90160129D01*
X166353453Y-90159872D01*
X166081374Y-90272293D01*
X165873027Y-90480277D01*
X165760131Y-90752159D01*
X165759874Y-91046549D01*
X164539513Y-91046549D01*
X161419738Y-87926774D01*
X161526975Y-87819723D01*
X161639871Y-87547841D01*
X161640128Y-87253451D01*
X161527707Y-86981372D01*
X161319723Y-86773025D01*
X161047841Y-86660129D01*
X160753451Y-86659872D01*
X160481372Y-86772293D01*
X160273025Y-86980277D01*
X160160129Y-87252159D01*
X160159872Y-87546549D01*
X160039872Y-87546549D01*
X160040128Y-87253451D01*
X159927707Y-86981372D01*
X159719723Y-86773025D01*
X159447841Y-86660129D01*
X159153451Y-86659872D01*
X158881372Y-86772293D01*
X158673025Y-86980277D01*
X158560129Y-87252159D01*
X158559872Y-87546549D01*
X158672293Y-87818628D01*
X158810000Y-87956575D01*
X158810000Y-88600000D01*
X158847299Y-88787515D01*
X158953518Y-88946482D01*
X165006785Y-94999750D01*
X152791428Y-94999750D01*
X152779877Y-94720374D01*
X152539131Y-94139162D01*
X152245683Y-93986248D01*
X151232181Y-94999750D01*
X150922500Y-94999750D01*
X150922500Y-95337716D01*
X150814143Y-95446074D01*
X150800000Y-95431931D01*
X149586248Y-96645683D01*
X149739162Y-96939131D01*
X150485451Y-97212713D01*
X150922500Y-97194643D01*
X150922500Y-97585000D01*
X149040874Y-97585000D01*
X148779241Y-97532958D01*
X148592092Y-97407909D01*
X148467041Y-97220758D01*
X148415000Y-96959126D01*
X148415000Y-94885451D01*
X148787287Y-94885451D01*
X148820123Y-95679626D01*
X149060869Y-96260838D01*
X149354317Y-96413752D01*
X150568069Y-95200000D01*
X149354317Y-93986248D01*
X149060869Y-94139162D01*
X148787287Y-94885451D01*
X148415000Y-94885451D01*
X148415000Y-93754317D01*
X149586248Y-93754317D01*
X150800000Y-94968069D01*
X152013752Y-93754317D01*
X151860838Y-93460869D01*
X151114549Y-93187287D01*
X150320374Y-93220123D01*
X149739162Y-93460869D01*
X149586248Y-93754317D01*
X148415000Y-93754317D01*
X148415000Y-93046059D01*
X151909829Y-93046059D01*
X152060230Y-93410057D01*
X152338478Y-93688792D01*
X152702213Y-93839828D01*
X153096059Y-93840171D01*
X153460057Y-93689770D01*
X153738792Y-93411522D01*
X153889828Y-93047787D01*
X153890171Y-92653941D01*
X153739770Y-92289943D01*
X153461522Y-92011208D01*
X153097787Y-91860172D01*
X152703941Y-91859829D01*
X152339943Y-92010230D01*
X152061208Y-92288478D01*
X151910172Y-92652213D01*
X151909829Y-93046059D01*
X148415000Y-93046059D01*
X148415000Y-91786157D01*
X149859837Y-91786157D01*
X150002642Y-92131772D01*
X150266837Y-92396429D01*
X150612202Y-92539837D01*
X150986157Y-92540163D01*
X151331772Y-92397358D01*
X151596429Y-92133163D01*
X151739837Y-91787798D01*
X151740163Y-91413843D01*
X151597358Y-91068228D01*
X151333163Y-90803571D01*
X150987798Y-90660163D01*
X150613843Y-90659837D01*
X150268228Y-90802642D01*
X150003571Y-91066837D01*
X149860163Y-91412202D01*
X149859837Y-91786157D01*
X148415000Y-91786157D01*
X148415000Y-88546059D01*
X151909829Y-88546059D01*
X152060230Y-88910057D01*
X152338478Y-89188792D01*
X152702213Y-89339828D01*
X153096059Y-89340171D01*
X153301928Y-89255108D01*
X153167794Y-89389241D01*
X153097787Y-89360172D01*
X152703941Y-89359829D01*
X152339943Y-89510230D01*
X152061208Y-89788478D01*
X151910172Y-90152213D01*
X151909829Y-90546059D01*
X152060230Y-90910057D01*
X152338478Y-91188792D01*
X152702213Y-91339828D01*
X153096059Y-91340171D01*
X153460057Y-91189770D01*
X153738792Y-90911522D01*
X153889828Y-90547787D01*
X153890171Y-90153941D01*
X153860597Y-90082367D01*
X153874827Y-90068137D01*
X153920728Y-90179227D01*
X154112663Y-90371497D01*
X154363567Y-90475681D01*
X154635241Y-90475918D01*
X154886327Y-90372172D01*
X155078597Y-90180237D01*
X155182781Y-89929333D01*
X155183018Y-89657659D01*
X155079272Y-89406573D01*
X155022867Y-89350070D01*
X155078597Y-89294437D01*
X155182781Y-89043533D01*
X155183018Y-88771859D01*
X155079272Y-88520773D01*
X154887337Y-88328503D01*
X154636433Y-88224319D01*
X154364759Y-88224082D01*
X154113673Y-88327828D01*
X153921403Y-88519763D01*
X153839126Y-88717909D01*
X153805029Y-88752006D01*
X153889828Y-88547787D01*
X153890171Y-88153941D01*
X153739770Y-87789943D01*
X153461522Y-87511208D01*
X153097787Y-87360172D01*
X152703941Y-87359829D01*
X152339943Y-87510230D01*
X152061208Y-87788478D01*
X151910172Y-88152213D01*
X151909829Y-88546059D01*
X148415000Y-88546059D01*
X148415000Y-87286157D01*
X149859837Y-87286157D01*
X150002642Y-87631772D01*
X150266837Y-87896429D01*
X150612202Y-88039837D01*
X150986157Y-88040163D01*
X151331772Y-87897358D01*
X151596429Y-87633163D01*
X151739837Y-87287798D01*
X151740163Y-86913843D01*
X151673084Y-86751498D01*
X152230434Y-86751498D01*
X152290990Y-86967244D01*
X152764899Y-87115257D01*
X153259376Y-87070646D01*
X153509010Y-86967244D01*
X153569566Y-86751498D01*
X152900000Y-86081931D01*
X152230434Y-86751498D01*
X151673084Y-86751498D01*
X151597358Y-86568228D01*
X151333163Y-86303571D01*
X150987798Y-86160163D01*
X150613843Y-86159837D01*
X150268228Y-86302642D01*
X150003571Y-86566837D01*
X149860163Y-86912202D01*
X149859837Y-87286157D01*
X148415000Y-87286157D01*
X148415000Y-84945683D01*
X149586248Y-84945683D01*
X149739162Y-85239131D01*
X150485451Y-85512713D01*
X151279626Y-85479877D01*
X151771821Y-85276003D01*
X151634743Y-85714899D01*
X151679354Y-86209376D01*
X151782756Y-86459010D01*
X151998502Y-86519566D01*
X152668069Y-85850000D01*
X153131931Y-85850000D01*
X153801498Y-86519566D01*
X154017244Y-86459010D01*
X154165257Y-85985101D01*
X154120646Y-85490624D01*
X154017244Y-85240990D01*
X153801498Y-85180434D01*
X153131931Y-85850000D01*
X152668069Y-85850000D01*
X152653926Y-85835858D01*
X152885858Y-85603926D01*
X152900000Y-85618069D01*
X153382827Y-85135241D01*
X166516982Y-85135241D01*
X166620728Y-85386327D01*
X166660000Y-85425668D01*
X166660000Y-87999998D01*
X166701105Y-88206647D01*
X166818162Y-88381836D01*
X167875261Y-89438934D01*
X167875263Y-89438937D01*
X167917030Y-89480703D01*
X167916982Y-89535239D01*
X168020728Y-89786325D01*
X168212663Y-89978595D01*
X168463567Y-90082779D01*
X168735241Y-90083016D01*
X168986327Y-89979270D01*
X169178597Y-89787335D01*
X169282781Y-89536431D01*
X169283018Y-89264757D01*
X169179272Y-89013671D01*
X168987337Y-88821401D01*
X168736433Y-88717217D01*
X168680846Y-88717169D01*
X168638939Y-88675261D01*
X168638936Y-88675259D01*
X168103768Y-88140091D01*
X168146549Y-88140128D01*
X168418628Y-88027707D01*
X168556575Y-87890000D01*
X173243541Y-87890000D01*
X173380277Y-88026975D01*
X173652159Y-88139871D01*
X173946549Y-88140128D01*
X174218628Y-88027707D01*
X174310000Y-87936494D01*
X174310000Y-89940124D01*
X174217219Y-90163566D01*
X174216982Y-90435240D01*
X174320728Y-90686326D01*
X174512663Y-90878596D01*
X174763567Y-90982780D01*
X175035241Y-90983017D01*
X175286327Y-90879271D01*
X175478597Y-90687336D01*
X175582781Y-90436432D01*
X175583018Y-90164758D01*
X175490000Y-89939636D01*
X175490000Y-85659875D01*
X175516357Y-85596400D01*
X182637340Y-85596400D01*
X182637340Y-87323600D01*
X182663728Y-87456261D01*
X182738874Y-87568726D01*
X182851339Y-87643872D01*
X182984000Y-87670260D01*
X185016000Y-87670260D01*
X185148661Y-87643872D01*
X185261126Y-87568726D01*
X185336272Y-87456261D01*
X185362660Y-87323600D01*
X185362660Y-85596400D01*
X185336272Y-85463739D01*
X185261126Y-85351274D01*
X185148661Y-85276128D01*
X185016000Y-85249740D01*
X182984000Y-85249740D01*
X182851339Y-85276128D01*
X182738874Y-85351274D01*
X182663728Y-85463739D01*
X182637340Y-85596400D01*
X175516357Y-85596400D01*
X175582781Y-85436433D01*
X175583018Y-85164759D01*
X175479272Y-84913673D01*
X175287337Y-84721403D01*
X175036433Y-84617219D01*
X174764759Y-84616982D01*
X174513673Y-84720728D01*
X174321403Y-84912663D01*
X174217219Y-85163567D01*
X174216982Y-85435241D01*
X174310000Y-85660363D01*
X174310000Y-86863460D01*
X174219723Y-86773025D01*
X173947841Y-86660129D01*
X173653451Y-86659872D01*
X173381372Y-86772293D01*
X173243425Y-86910000D01*
X168556459Y-86910000D01*
X168419723Y-86773025D01*
X168147841Y-86660129D01*
X167853451Y-86659872D01*
X167740000Y-86706749D01*
X167740000Y-85425867D01*
X167778597Y-85387337D01*
X167882781Y-85136433D01*
X167883018Y-84864759D01*
X167779272Y-84613673D01*
X167587337Y-84421403D01*
X167336433Y-84317219D01*
X167064759Y-84316982D01*
X166813673Y-84420728D01*
X166621403Y-84612663D01*
X166517219Y-84863567D01*
X166516982Y-85135241D01*
X153382827Y-85135241D01*
X153569566Y-84948502D01*
X153509010Y-84732756D01*
X153035101Y-84584743D01*
X152540624Y-84629354D01*
X152290990Y-84732756D01*
X152285226Y-84753292D01*
X152245685Y-84713751D01*
X152539131Y-84560838D01*
X152812713Y-83814549D01*
X152779877Y-83020374D01*
X152539131Y-82439162D01*
X152245683Y-82286248D01*
X151031931Y-83500000D01*
X151046074Y-83514143D01*
X150814143Y-83746074D01*
X150800000Y-83731931D01*
X149586248Y-84945683D01*
X148415000Y-84945683D01*
X148415000Y-83185451D01*
X148787287Y-83185451D01*
X148820123Y-83979626D01*
X149060869Y-84560838D01*
X149354317Y-84713752D01*
X150568069Y-83500000D01*
X149354317Y-82286248D01*
X149060869Y-82439162D01*
X148787287Y-83185451D01*
X148415000Y-83185451D01*
X148415000Y-82054317D01*
X149586248Y-82054317D01*
X150800000Y-83268069D01*
X152013752Y-82054317D01*
X151860838Y-81760869D01*
X151114549Y-81487287D01*
X150320374Y-81520123D01*
X149739162Y-81760869D01*
X149586248Y-82054317D01*
X148415000Y-82054317D01*
X148415000Y-81040874D01*
X148467041Y-80779242D01*
X148592092Y-80592091D01*
X148779241Y-80467042D01*
X149040874Y-80415000D01*
X159323495Y-80415000D01*
X159316814Y-80416329D01*
X159316814Y-80416329D01*
G37*
X159316814Y-80416329D02*
X159076741Y-80576741D01*
X158916329Y-80816814D01*
X158860000Y-81100000D01*
X158916329Y-81383186D01*
X159076741Y-81623259D01*
X159316814Y-81783671D01*
X159600000Y-81840000D01*
X163800000Y-81840000D01*
X164083186Y-81783671D01*
X164323259Y-81623259D01*
X164483671Y-81383186D01*
X164540000Y-81100000D01*
X164483671Y-80816814D01*
X164323259Y-80576741D01*
X164083186Y-80416329D01*
X164076505Y-80415000D01*
X169940841Y-80415000D01*
X169708926Y-80569960D01*
X169448019Y-80960436D01*
X169356400Y-81421034D01*
X169356400Y-81778966D01*
X169448019Y-82239564D01*
X169708926Y-82630040D01*
X170099402Y-82890947D01*
X170560000Y-82982566D01*
X171020598Y-82890947D01*
X171411074Y-82630040D01*
X171671981Y-82239564D01*
X171763600Y-81778966D01*
X171763600Y-81421034D01*
X171671981Y-80960436D01*
X171411074Y-80569960D01*
X171179159Y-80415000D01*
X172480841Y-80415000D01*
X172248926Y-80569960D01*
X171988019Y-80960436D01*
X171896400Y-81421034D01*
X171896400Y-81778966D01*
X171988019Y-82239564D01*
X172248926Y-82630040D01*
X172639402Y-82890947D01*
X173100000Y-82982566D01*
X173560598Y-82890947D01*
X173951074Y-82630040D01*
X174211981Y-82239564D01*
X174303600Y-81778966D01*
X174303600Y-81421034D01*
X174211981Y-80960436D01*
X173951074Y-80569960D01*
X173719159Y-80415000D01*
X174480409Y-80415000D01*
X174456128Y-80451339D01*
X174429740Y-80584000D01*
X174429740Y-82616000D01*
X174456128Y-82748661D01*
X174531274Y-82861126D01*
X174643739Y-82936272D01*
X174776400Y-82962660D01*
X176503600Y-82962660D01*
X176636261Y-82936272D01*
X176748726Y-82861126D01*
X176823872Y-82748661D01*
X176850260Y-82616000D01*
X176850260Y-82265373D01*
X182659768Y-82265373D01*
X182863341Y-82758057D01*
X183239960Y-83135334D01*
X183732288Y-83339767D01*
X184265373Y-83340232D01*
X184758057Y-83136659D01*
X185135334Y-82760040D01*
X185339767Y-82267712D01*
X185340232Y-81734627D01*
X185136659Y-81241943D01*
X184760040Y-80864666D01*
X184267712Y-80660233D01*
X183734627Y-80659768D01*
X183241943Y-80863341D01*
X182864666Y-81239960D01*
X182660233Y-81732288D01*
X182659768Y-82265373D01*
X176850260Y-82265373D01*
X176850260Y-80584000D01*
X176823872Y-80451339D01*
X176799591Y-80415000D01*
X184959126Y-80415000D01*
X185220758Y-80467041D01*
X185407909Y-80592092D01*
X185532958Y-80779241D01*
X185585000Y-81040874D01*
X185585000Y-91375998D01*
X185454211Y-91375998D01*
X185561234Y-91150818D01*
X185341152Y-90690659D01*
X184925635Y-90300396D01*
X184500385Y-90139666D01*
X184639564Y-90111981D01*
X185030040Y-89851074D01*
X185290947Y-89460598D01*
X185382566Y-89000000D01*
X185290947Y-88539402D01*
X185030040Y-88148926D01*
X184639564Y-87888019D01*
X184178966Y-87796400D01*
X183821034Y-87796400D01*
X183360436Y-87888019D01*
X182969960Y-88148926D01*
X182709053Y-88539402D01*
X182617434Y-89000000D01*
X182709053Y-89460598D01*
X182969960Y-89851074D01*
X183360436Y-90111981D01*
X183499615Y-90139666D01*
X183074365Y-90300396D01*
X182658848Y-90690659D01*
X182438766Y-91150818D01*
X182545790Y-91376000D01*
X183836000Y-91376000D01*
X183836000Y-91356000D01*
X184164000Y-91356000D01*
X184164000Y-91376000D01*
X184184000Y-91376000D01*
X184184000Y-91704000D01*
X184164000Y-91704000D01*
X184164000Y-92851450D01*
X184392400Y-92981149D01*
X184925635Y-92779604D01*
X185341152Y-92389341D01*
X185561234Y-91929182D01*
X185454211Y-91704002D01*
X185585000Y-91704002D01*
X185585000Y-96959126D01*
X185532958Y-97220759D01*
X185407909Y-97407908D01*
X185220758Y-97532959D01*
X184959126Y-97585000D01*
X165077500Y-97585000D01*
X165077500Y-95070465D01*
X166560041Y-96553006D01*
X166559872Y-96746549D01*
X166672293Y-97018628D01*
X166880277Y-97226975D01*
X167152159Y-97339871D01*
X167446549Y-97340128D01*
X167718628Y-97227707D01*
X167926975Y-97019723D01*
X168039871Y-96747841D01*
X168040128Y-96453451D01*
X167962416Y-96265373D01*
X182659768Y-96265373D01*
X182863341Y-96758057D01*
X183239960Y-97135334D01*
X183732288Y-97339767D01*
X184265373Y-97340232D01*
X184758057Y-97136659D01*
X185135334Y-96760040D01*
X185339767Y-96267712D01*
X185340232Y-95734627D01*
X185136659Y-95241943D01*
X184760040Y-94864666D01*
X184267712Y-94660233D01*
X183734627Y-94659768D01*
X183241943Y-94863341D01*
X182864666Y-95239960D01*
X182660233Y-95732288D01*
X182659768Y-96265373D01*
X167962416Y-96265373D01*
X167927707Y-96181372D01*
X167719723Y-95973025D01*
X167447841Y-95860129D01*
X167252924Y-95859959D01*
X159790000Y-88397036D01*
X159790000Y-87956459D01*
X159926975Y-87819723D01*
X160039871Y-87547841D01*
X160039872Y-87546549D01*
X160159872Y-87546549D01*
X160272293Y-87818628D01*
X160410000Y-87956575D01*
X160410000Y-88100000D01*
X160447299Y-88287515D01*
X160553518Y-88446482D01*
X166560041Y-94453005D01*
X166559872Y-94646549D01*
X166672293Y-94918628D01*
X166880277Y-95126975D01*
X167152159Y-95239871D01*
X167446549Y-95240128D01*
X167718628Y-95127707D01*
X167926975Y-94919723D01*
X168039871Y-94647841D01*
X168040128Y-94353451D01*
X167927707Y-94081372D01*
X167719723Y-93873025D01*
X167447841Y-93760129D01*
X167252923Y-93759959D01*
X164539513Y-91046549D01*
X165759874Y-91046549D01*
X165872295Y-91318628D01*
X166080279Y-91526975D01*
X166352161Y-91639871D01*
X166547079Y-91640041D01*
X167353519Y-92446482D01*
X167493235Y-92539837D01*
X167512487Y-92552701D01*
X167700002Y-92590000D01*
X175300000Y-92590000D01*
X175487515Y-92552701D01*
X175646482Y-92446482D01*
X176163782Y-91929182D01*
X182438766Y-91929182D01*
X182658848Y-92389341D01*
X183074365Y-92779604D01*
X183607600Y-92981149D01*
X183836000Y-92851450D01*
X183836000Y-91704000D01*
X182545790Y-91704000D01*
X182438766Y-91929182D01*
X176163782Y-91929182D01*
X177153005Y-90939959D01*
X177346549Y-90940128D01*
X177618628Y-90827707D01*
X177826975Y-90619723D01*
X177939871Y-90347841D01*
X177940128Y-90053451D01*
X177827707Y-89781372D01*
X177619723Y-89573025D01*
X177347841Y-89460129D01*
X177053451Y-89459872D01*
X176781372Y-89572293D01*
X176573025Y-89780277D01*
X176460129Y-90052159D01*
X176459959Y-90247077D01*
X175097036Y-91610000D01*
X167902967Y-91610000D01*
X167239961Y-90946995D01*
X167240130Y-90753451D01*
X167127709Y-90481372D01*
X166919725Y-90273025D01*
X166647843Y-90160129D01*
X166353453Y-90159872D01*
X166081374Y-90272293D01*
X165873027Y-90480277D01*
X165760131Y-90752159D01*
X165759874Y-91046549D01*
X164539513Y-91046549D01*
X161419738Y-87926774D01*
X161526975Y-87819723D01*
X161639871Y-87547841D01*
X161640128Y-87253451D01*
X161527707Y-86981372D01*
X161319723Y-86773025D01*
X161047841Y-86660129D01*
X160753451Y-86659872D01*
X160481372Y-86772293D01*
X160273025Y-86980277D01*
X160160129Y-87252159D01*
X160159872Y-87546549D01*
X160039872Y-87546549D01*
X160040128Y-87253451D01*
X159927707Y-86981372D01*
X159719723Y-86773025D01*
X159447841Y-86660129D01*
X159153451Y-86659872D01*
X158881372Y-86772293D01*
X158673025Y-86980277D01*
X158560129Y-87252159D01*
X158559872Y-87546549D01*
X158672293Y-87818628D01*
X158810000Y-87956575D01*
X158810000Y-88600000D01*
X158847299Y-88787515D01*
X158953518Y-88946482D01*
X165006785Y-94999750D01*
X152791428Y-94999750D01*
X152779877Y-94720374D01*
X152539131Y-94139162D01*
X152245683Y-93986248D01*
X151232181Y-94999750D01*
X150922500Y-94999750D01*
X150922500Y-95337716D01*
X150814143Y-95446074D01*
X150800000Y-95431931D01*
X149586248Y-96645683D01*
X149739162Y-96939131D01*
X150485451Y-97212713D01*
X150922500Y-97194643D01*
X150922500Y-97585000D01*
X149040874Y-97585000D01*
X148779241Y-97532958D01*
X148592092Y-97407909D01*
X148467041Y-97220758D01*
X148415000Y-96959126D01*
X148415000Y-94885451D01*
X148787287Y-94885451D01*
X148820123Y-95679626D01*
X149060869Y-96260838D01*
X149354317Y-96413752D01*
X150568069Y-95200000D01*
X149354317Y-93986248D01*
X149060869Y-94139162D01*
X148787287Y-94885451D01*
X148415000Y-94885451D01*
X148415000Y-93754317D01*
X149586248Y-93754317D01*
X150800000Y-94968069D01*
X152013752Y-93754317D01*
X151860838Y-93460869D01*
X151114549Y-93187287D01*
X150320374Y-93220123D01*
X149739162Y-93460869D01*
X149586248Y-93754317D01*
X148415000Y-93754317D01*
X148415000Y-93046059D01*
X151909829Y-93046059D01*
X152060230Y-93410057D01*
X152338478Y-93688792D01*
X152702213Y-93839828D01*
X153096059Y-93840171D01*
X153460057Y-93689770D01*
X153738792Y-93411522D01*
X153889828Y-93047787D01*
X153890171Y-92653941D01*
X153739770Y-92289943D01*
X153461522Y-92011208D01*
X153097787Y-91860172D01*
X152703941Y-91859829D01*
X152339943Y-92010230D01*
X152061208Y-92288478D01*
X151910172Y-92652213D01*
X151909829Y-93046059D01*
X148415000Y-93046059D01*
X148415000Y-91786157D01*
X149859837Y-91786157D01*
X150002642Y-92131772D01*
X150266837Y-92396429D01*
X150612202Y-92539837D01*
X150986157Y-92540163D01*
X151331772Y-92397358D01*
X151596429Y-92133163D01*
X151739837Y-91787798D01*
X151740163Y-91413843D01*
X151597358Y-91068228D01*
X151333163Y-90803571D01*
X150987798Y-90660163D01*
X150613843Y-90659837D01*
X150268228Y-90802642D01*
X150003571Y-91066837D01*
X149860163Y-91412202D01*
X149859837Y-91786157D01*
X148415000Y-91786157D01*
X148415000Y-88546059D01*
X151909829Y-88546059D01*
X152060230Y-88910057D01*
X152338478Y-89188792D01*
X152702213Y-89339828D01*
X153096059Y-89340171D01*
X153301928Y-89255108D01*
X153167794Y-89389241D01*
X153097787Y-89360172D01*
X152703941Y-89359829D01*
X152339943Y-89510230D01*
X152061208Y-89788478D01*
X151910172Y-90152213D01*
X151909829Y-90546059D01*
X152060230Y-90910057D01*
X152338478Y-91188792D01*
X152702213Y-91339828D01*
X153096059Y-91340171D01*
X153460057Y-91189770D01*
X153738792Y-90911522D01*
X153889828Y-90547787D01*
X153890171Y-90153941D01*
X153860597Y-90082367D01*
X153874827Y-90068137D01*
X153920728Y-90179227D01*
X154112663Y-90371497D01*
X154363567Y-90475681D01*
X154635241Y-90475918D01*
X154886327Y-90372172D01*
X155078597Y-90180237D01*
X155182781Y-89929333D01*
X155183018Y-89657659D01*
X155079272Y-89406573D01*
X155022867Y-89350070D01*
X155078597Y-89294437D01*
X155182781Y-89043533D01*
X155183018Y-88771859D01*
X155079272Y-88520773D01*
X154887337Y-88328503D01*
X154636433Y-88224319D01*
X154364759Y-88224082D01*
X154113673Y-88327828D01*
X153921403Y-88519763D01*
X153839126Y-88717909D01*
X153805029Y-88752006D01*
X153889828Y-88547787D01*
X153890171Y-88153941D01*
X153739770Y-87789943D01*
X153461522Y-87511208D01*
X153097787Y-87360172D01*
X152703941Y-87359829D01*
X152339943Y-87510230D01*
X152061208Y-87788478D01*
X151910172Y-88152213D01*
X151909829Y-88546059D01*
X148415000Y-88546059D01*
X148415000Y-87286157D01*
X149859837Y-87286157D01*
X150002642Y-87631772D01*
X150266837Y-87896429D01*
X150612202Y-88039837D01*
X150986157Y-88040163D01*
X151331772Y-87897358D01*
X151596429Y-87633163D01*
X151739837Y-87287798D01*
X151740163Y-86913843D01*
X151673084Y-86751498D01*
X152230434Y-86751498D01*
X152290990Y-86967244D01*
X152764899Y-87115257D01*
X153259376Y-87070646D01*
X153509010Y-86967244D01*
X153569566Y-86751498D01*
X152900000Y-86081931D01*
X152230434Y-86751498D01*
X151673084Y-86751498D01*
X151597358Y-86568228D01*
X151333163Y-86303571D01*
X150987798Y-86160163D01*
X150613843Y-86159837D01*
X150268228Y-86302642D01*
X150003571Y-86566837D01*
X149860163Y-86912202D01*
X149859837Y-87286157D01*
X148415000Y-87286157D01*
X148415000Y-84945683D01*
X149586248Y-84945683D01*
X149739162Y-85239131D01*
X150485451Y-85512713D01*
X151279626Y-85479877D01*
X151771821Y-85276003D01*
X151634743Y-85714899D01*
X151679354Y-86209376D01*
X151782756Y-86459010D01*
X151998502Y-86519566D01*
X152668069Y-85850000D01*
X153131931Y-85850000D01*
X153801498Y-86519566D01*
X154017244Y-86459010D01*
X154165257Y-85985101D01*
X154120646Y-85490624D01*
X154017244Y-85240990D01*
X153801498Y-85180434D01*
X153131931Y-85850000D01*
X152668069Y-85850000D01*
X152653926Y-85835858D01*
X152885858Y-85603926D01*
X152900000Y-85618069D01*
X153382827Y-85135241D01*
X166516982Y-85135241D01*
X166620728Y-85386327D01*
X166660000Y-85425668D01*
X166660000Y-87999998D01*
X166701105Y-88206647D01*
X166818162Y-88381836D01*
X167875261Y-89438934D01*
X167875263Y-89438937D01*
X167917030Y-89480703D01*
X167916982Y-89535239D01*
X168020728Y-89786325D01*
X168212663Y-89978595D01*
X168463567Y-90082779D01*
X168735241Y-90083016D01*
X168986327Y-89979270D01*
X169178597Y-89787335D01*
X169282781Y-89536431D01*
X169283018Y-89264757D01*
X169179272Y-89013671D01*
X168987337Y-88821401D01*
X168736433Y-88717217D01*
X168680846Y-88717169D01*
X168638939Y-88675261D01*
X168638936Y-88675259D01*
X168103768Y-88140091D01*
X168146549Y-88140128D01*
X168418628Y-88027707D01*
X168556575Y-87890000D01*
X173243541Y-87890000D01*
X173380277Y-88026975D01*
X173652159Y-88139871D01*
X173946549Y-88140128D01*
X174218628Y-88027707D01*
X174310000Y-87936494D01*
X174310000Y-89940124D01*
X174217219Y-90163566D01*
X174216982Y-90435240D01*
X174320728Y-90686326D01*
X174512663Y-90878596D01*
X174763567Y-90982780D01*
X175035241Y-90983017D01*
X175286327Y-90879271D01*
X175478597Y-90687336D01*
X175582781Y-90436432D01*
X175583018Y-90164758D01*
X175490000Y-89939636D01*
X175490000Y-85659875D01*
X175516357Y-85596400D01*
X182637340Y-85596400D01*
X182637340Y-87323600D01*
X182663728Y-87456261D01*
X182738874Y-87568726D01*
X182851339Y-87643872D01*
X182984000Y-87670260D01*
X185016000Y-87670260D01*
X185148661Y-87643872D01*
X185261126Y-87568726D01*
X185336272Y-87456261D01*
X185362660Y-87323600D01*
X185362660Y-85596400D01*
X185336272Y-85463739D01*
X185261126Y-85351274D01*
X185148661Y-85276128D01*
X185016000Y-85249740D01*
X182984000Y-85249740D01*
X182851339Y-85276128D01*
X182738874Y-85351274D01*
X182663728Y-85463739D01*
X182637340Y-85596400D01*
X175516357Y-85596400D01*
X175582781Y-85436433D01*
X175583018Y-85164759D01*
X175479272Y-84913673D01*
X175287337Y-84721403D01*
X175036433Y-84617219D01*
X174764759Y-84616982D01*
X174513673Y-84720728D01*
X174321403Y-84912663D01*
X174217219Y-85163567D01*
X174216982Y-85435241D01*
X174310000Y-85660363D01*
X174310000Y-86863460D01*
X174219723Y-86773025D01*
X173947841Y-86660129D01*
X173653451Y-86659872D01*
X173381372Y-86772293D01*
X173243425Y-86910000D01*
X168556459Y-86910000D01*
X168419723Y-86773025D01*
X168147841Y-86660129D01*
X167853451Y-86659872D01*
X167740000Y-86706749D01*
X167740000Y-85425867D01*
X167778597Y-85387337D01*
X167882781Y-85136433D01*
X167883018Y-84864759D01*
X167779272Y-84613673D01*
X167587337Y-84421403D01*
X167336433Y-84317219D01*
X167064759Y-84316982D01*
X166813673Y-84420728D01*
X166621403Y-84612663D01*
X166517219Y-84863567D01*
X166516982Y-85135241D01*
X153382827Y-85135241D01*
X153569566Y-84948502D01*
X153509010Y-84732756D01*
X153035101Y-84584743D01*
X152540624Y-84629354D01*
X152290990Y-84732756D01*
X152285226Y-84753292D01*
X152245685Y-84713751D01*
X152539131Y-84560838D01*
X152812713Y-83814549D01*
X152779877Y-83020374D01*
X152539131Y-82439162D01*
X152245683Y-82286248D01*
X151031931Y-83500000D01*
X151046074Y-83514143D01*
X150814143Y-83746074D01*
X150800000Y-83731931D01*
X149586248Y-84945683D01*
X148415000Y-84945683D01*
X148415000Y-83185451D01*
X148787287Y-83185451D01*
X148820123Y-83979626D01*
X149060869Y-84560838D01*
X149354317Y-84713752D01*
X150568069Y-83500000D01*
X149354317Y-82286248D01*
X149060869Y-82439162D01*
X148787287Y-83185451D01*
X148415000Y-83185451D01*
X148415000Y-82054317D01*
X149586248Y-82054317D01*
X150800000Y-83268069D01*
X152013752Y-82054317D01*
X151860838Y-81760869D01*
X151114549Y-81487287D01*
X150320374Y-81520123D01*
X149739162Y-81760869D01*
X149586248Y-82054317D01*
X148415000Y-82054317D01*
X148415000Y-81040874D01*
X148467041Y-80779242D01*
X148592092Y-80592091D01*
X148779241Y-80467042D01*
X149040874Y-80415000D01*
X159323495Y-80415000D01*
X159316814Y-80416329D01*
M02*
