G04 #@! TF.FileFunction,Soldermask,Top*
%FSLAX46Y46*%
G04 Gerber Fmt 4.6, Leading zero omitted, Abs format (unit mm)*
G04 Created by KiCad (PCBNEW 4.0.6-e0-6349~53~ubuntu16.04.1) date Sat Jul  1 03:26:18 2017*
%MOMM*%
%LPD*%
G01*
G04 APERTURE LIST*
%ADD10C,0.100000*%
%ADD11C,0.150000*%
%ADD12C,2.000000*%
%ADD13O,2.000000X2.000000*%
%ADD14R,2.400000X1.924000*%
%ADD15O,2.400000X1.924000*%
%ADD16R,1.700000X1.700000*%
%ADD17C,1.700000*%
%ADD18C,2.398980*%
%ADD19R,2.300000X2.400000*%
%ADD20C,2.300000*%
%ADD21C,4.000000*%
%ADD22R,2.127200X2.127200*%
%ADD23O,2.127200X2.127200*%
%ADD24C,1.400760*%
%ADD25C,1.797000*%
%ADD26C,2.000200*%
G04 APERTURE END LIST*
D10*
D11*
X196250000Y-118000000D02*
X113000000Y-118000000D01*
X196250000Y-52750000D02*
X196250000Y-118000000D01*
X113000000Y-52750000D02*
X196250000Y-52750000D01*
X113000000Y-118000000D02*
X113000000Y-52750000D01*
D12*
X145400000Y-68800000D03*
D13*
X145400000Y-58640000D03*
D14*
X189230000Y-61468000D03*
D15*
X191770000Y-61468000D03*
X189230000Y-74168000D03*
X191770000Y-64008000D03*
X189230000Y-76708000D03*
X191770000Y-66548000D03*
X189230000Y-79248000D03*
X191770000Y-69088000D03*
X189230000Y-81788000D03*
X191770000Y-71628000D03*
X189230000Y-84328000D03*
X191770000Y-74168000D03*
X189230000Y-86868000D03*
X191770000Y-76708000D03*
X189230000Y-89408000D03*
X191770000Y-79248000D03*
X189230000Y-91948000D03*
X191770000Y-81788000D03*
X189230000Y-94488000D03*
X191770000Y-84328000D03*
X189230000Y-97028000D03*
X191770000Y-86868000D03*
X189230000Y-99568000D03*
X191770000Y-89408000D03*
X191770000Y-91948000D03*
X189230000Y-102108000D03*
X191770000Y-94488000D03*
X191770000Y-99568000D03*
X191770000Y-102108000D03*
X191770000Y-104648000D03*
X191770000Y-107188000D03*
X189230000Y-104648000D03*
X189230000Y-107188000D03*
X189230000Y-64008000D03*
X189230000Y-66548000D03*
X189230000Y-69088000D03*
X189230000Y-71628000D03*
X189230000Y-109728000D03*
X191770000Y-109728000D03*
X191770000Y-97028000D03*
D14*
X118110000Y-61468000D03*
D15*
X120650000Y-61468000D03*
X118110000Y-64008000D03*
X120650000Y-64008000D03*
X118110000Y-66548000D03*
X120650000Y-66548000D03*
X118110000Y-69088000D03*
X120650000Y-69088000D03*
X118110000Y-71628000D03*
X120650000Y-71628000D03*
X118110000Y-74168000D03*
X120650000Y-74168000D03*
X118110000Y-76708000D03*
X120650000Y-76708000D03*
X118110000Y-79248000D03*
X120650000Y-79248000D03*
X118110000Y-81788000D03*
X120650000Y-81788000D03*
X118110000Y-84328000D03*
X120650000Y-84328000D03*
X118110000Y-86868000D03*
X120650000Y-86868000D03*
X118110000Y-89408000D03*
X120650000Y-89408000D03*
X118110000Y-91948000D03*
X120650000Y-91948000D03*
X118110000Y-94488000D03*
X120650000Y-94488000D03*
X118110000Y-97028000D03*
X120650000Y-97028000D03*
X118110000Y-99568000D03*
X120650000Y-99568000D03*
X118110000Y-102108000D03*
X120650000Y-102108000D03*
X118110000Y-104648000D03*
X120650000Y-104648000D03*
X118110000Y-107188000D03*
X120650000Y-107188000D03*
X118110000Y-109728000D03*
X120650000Y-109728000D03*
D16*
X135255000Y-64008000D03*
D17*
X135255000Y-61508000D03*
D18*
X164465000Y-85471000D03*
X164465000Y-77851000D03*
D19*
X136017000Y-72644000D03*
D20*
X133477000Y-72644000D03*
D19*
X173863000Y-72644000D03*
D20*
X176403000Y-72644000D03*
D19*
X136017000Y-96139000D03*
D20*
X133477000Y-96139000D03*
D19*
X173863000Y-96012000D03*
D20*
X176403000Y-96012000D03*
D21*
X125250000Y-112250000D03*
X160500000Y-70500000D03*
X167250000Y-92250000D03*
D22*
X127007800Y-61542700D03*
D23*
X129547800Y-61542700D03*
X127007800Y-64082700D03*
X129547800Y-64082700D03*
D24*
X166243000Y-67056000D03*
X164973000Y-68326000D03*
X164973000Y-65786000D03*
X128143000Y-71374000D03*
X129413000Y-72644000D03*
X126873000Y-72644000D03*
X181737000Y-73914000D03*
X180467000Y-72644000D03*
X183007000Y-72644000D03*
X128143000Y-94742000D03*
X129413000Y-96012000D03*
X126873000Y-96012000D03*
X181737000Y-97282000D03*
X180467000Y-96012000D03*
X183007000Y-96012000D03*
D18*
X134239000Y-85344000D03*
X134239000Y-77724000D03*
X145415000Y-85344000D03*
X145415000Y-77724000D03*
X175641000Y-85217000D03*
X175641000Y-77597000D03*
X145415000Y-108966000D03*
X145415000Y-101346000D03*
X134239000Y-108458000D03*
X134239000Y-100838000D03*
X175641000Y-108585000D03*
X175641000Y-100965000D03*
X164465000Y-108839000D03*
X164465000Y-101219000D03*
X169164000Y-62611000D03*
X161544000Y-62611000D03*
X169164000Y-59563000D03*
X161544000Y-59563000D03*
X129921000Y-85217000D03*
X129921000Y-77597000D03*
X126365000Y-85217000D03*
X126365000Y-77597000D03*
X180086000Y-85217000D03*
X180086000Y-77597000D03*
X183515000Y-85217000D03*
X183515000Y-77597000D03*
X129921000Y-108458000D03*
X129921000Y-100838000D03*
X126365000Y-108458000D03*
X126365000Y-100838000D03*
X179959000Y-108585000D03*
X179959000Y-100965000D03*
X183515000Y-108585000D03*
X183515000Y-100965000D03*
D12*
X155000000Y-99000000D03*
D13*
X155000000Y-88840000D03*
D25*
X137287000Y-77724000D03*
X142367000Y-77724000D03*
X137287000Y-85344000D03*
X142367000Y-85344000D03*
X148463000Y-77724000D03*
X153543000Y-77724000D03*
X148463000Y-85344000D03*
X153543000Y-85344000D03*
X172593000Y-85344000D03*
X167513000Y-85344000D03*
X172593000Y-77724000D03*
X167513000Y-77724000D03*
X161417000Y-85344000D03*
X156337000Y-85344000D03*
X161417000Y-77724000D03*
X156337000Y-77724000D03*
X148463000Y-101219000D03*
X153543000Y-101219000D03*
X148463000Y-108839000D03*
X153543000Y-108839000D03*
X137287000Y-101219000D03*
X142367000Y-101219000D03*
X137287000Y-108839000D03*
X142367000Y-108839000D03*
X172593000Y-108712000D03*
X167513000Y-108712000D03*
X172593000Y-101092000D03*
X167513000Y-101092000D03*
X161417000Y-108712000D03*
X156337000Y-108712000D03*
X161417000Y-101092000D03*
X156337000Y-101092000D03*
D26*
X157178971Y-64124429D03*
X150828971Y-64124429D03*
M02*
