%FSLAX45Y45*%
G04 Gerber Fmt 4.5, Leading zero omitted, Abs format (unit mm)*
G04 Created by KiCad (PCBNEW 4.0.6-e0-6349~53~ubuntu16.04.1) date Sat Jul  1 03:26:22 2017*
%MOMM*%
%LPD*%
G01*
G04 APERTURE LIST*
%ADD10C,0.127000*%
%ADD11C,0.150000*%
%ADD12C,0.200000*%
%ADD13C,0.300000*%
G04 APERTURE END LIST*
D10*
D11*
X19625000Y-11800000D02*
X11300000Y-11800000D01*
X19625000Y-5275000D02*
X19625000Y-11800000D01*
X11300000Y-5275000D02*
X19625000Y-5275000D01*
X11300000Y-11800000D02*
X11300000Y-5275000D01*
D12*
X12657300Y-7234400D02*
X12717300Y-7294400D01*
X12717300Y-7234400D02*
X12657300Y-7294400D01*
X12657300Y-9571200D02*
X18270700Y-9571200D02*
X18330700Y-9631200D01*
X18330700Y-9571200D02*
X18270700Y-9631200D01*
X13764260Y-8013700D02*
G75*
G03X13764260Y-8013700I-35560J0D01*
G01*
X13764260Y-8343900D02*
G75*
G03X13764260Y-8343900I-35560J0D01*
G01*
X13764260Y-10350500D02*
G75*
G03X13764260Y-10350500I-35560J0D01*
G01*
X13764260Y-10668000D02*
G75*
G03X13764260Y-10668000I-35560J0D01*
G01*
X14869160Y-7962900D02*
G75*
G03X14869160Y-7962900I-35560J0D01*
G01*
X14881860Y-8318500D02*
G75*
G03X14881860Y-8318500I-35560J0D01*
G01*
X14881860Y-10350500D02*
G75*
G03X14881860Y-10350500I-35560J0D01*
G01*
X14881860Y-10693400D02*
G75*
G03X14881860Y-10693400I-35560J0D01*
G01*
X16177260Y-8001000D02*
G75*
G03X16177260Y-8001000I-35560J0D01*
G01*
X16177260Y-8343900D02*
G75*
G03X16177260Y-8343900I-35560J0D01*
G01*
X16177260Y-10375900D02*
G75*
G03X16177260Y-10375900I-35560J0D01*
G01*
X16177260Y-10693400D02*
G75*
G03X16177260Y-10693400I-35560J0D01*
G01*
X17294860Y-8013700D02*
G75*
G03X17294860Y-8013700I-35560J0D01*
G01*
X17294860Y-8331200D02*
G75*
G03X17294860Y-8331200I-35560J0D01*
G01*
X17294860Y-10337800D02*
G75*
G03X17294860Y-10337800I-35560J0D01*
G01*
X17294860Y-10693400D02*
G75*
G03X17294860Y-10693400I-35560J0D01*
G01*
X13525500Y-6360800D02*
X13525500Y-6440800D01*
X13485500Y-6400800D02*
X13565500Y-6400800D01*
X14540000Y-5824000D02*
X14540000Y-5904000D01*
X14500000Y-5864000D02*
X14580000Y-5864000D01*
X14540000Y-6840000D02*
X14540000Y-6920000D01*
X14500000Y-6880000D02*
X14580000Y-6880000D01*
X15500000Y-8844000D02*
X15500000Y-8924000D01*
X15460000Y-8884000D02*
X15540000Y-8884000D01*
X15500000Y-9860000D02*
X15500000Y-9940000D01*
X15460000Y-9900000D02*
X15540000Y-9900000D01*
X12586462Y-7809738D01*
X12686538Y-7759700D02*
G75*
G03X12686538Y-7759700I-50038J0D01*
G01*
X12586462Y-8471662D02*
X12686538Y-8571738D01*
X12686538Y-8471662D02*
X12586462Y-8571738D01*
X12686538Y-8521700D02*
G75*
G03X12686538Y-8521700I-50038J0D01*
G01*
X12586462Y-10033762D02*
X12686538Y-10133838D01*
X12686538Y-10033762D02*
X12586462Y-10133838D01*
X12686538Y-10083800D02*
G75*
G03X12686538Y-10083800I-50038J0D01*
G01*
X12586462Y-10795762D02*
X12686538Y-10895838D01*
X12686538Y-10795762D02*
X12586462Y-10895838D01*
X12686538Y-10845800D02*
G75*
G03X12686538Y-10845800I-50038J0D01*
G01*
X12942062Y-7709662D02*
X13042138Y-7809738D01*
X13042138Y-7709662D02*
X12942062Y-7809738D01*
X13042138Y-7759700D02*
G75*
G03X13042138Y-7759700I-50038J0D01*
G01*
X12942062Y-8471662D02*
X13042138Y-8571738D01*
X13042138Y-8471662D02*
X12942062Y-8571738D01*
X13042138Y-8521700D02*
G75*
G03X13042138Y-8521700I-50038J0D01*
G01*
X12942062Y-10033762D02*
X13042138Y-10133838D01*
X13042138Y-10033762D02*
X12942062Y-10133838D01*
X13042138Y-10083800D02*
G75*
G03X13042138Y-10083800I-50038J0D01*
G01*
X12942062Y-10795762D02*
X13042138Y-10895838D01*
X13042138Y-10795762D02*
X12942062Y-10895838D01*
X13042138Y-10845800D02*
G75*
G03X13042138Y-10845800I-50038J0D01*
G01*
X13297662Y-7214362D02*
X13397738Y-7314438D01*
X13397738Y-7214362D02*
X13297662Y-7314438D01*
X13397738Y-7264400D02*
G75*
G03X13397738Y-7264400I-50038J0D01*
G01*
X13297662Y-9563862D02*
X13397738Y-9663938D01*
X13397738Y-9563862D02*
X13297662Y-9663938D01*
X13397738Y-9613900D02*
G75*
G03X13397738Y-9613900I-50038J0D01*
G01*
X13373862Y-7722362D02*
X13473938Y-7822438D01*
X13473938Y-7722362D02*
X13373862Y-7822438D01*
X13473938Y-7772400D02*
G75*
G03X13473938Y-7772400I-50038J0D01*
G01*
X13373862Y-8484362D02*
X13473938Y-8584438D01*
X13473938Y-8484362D02*
X13373862Y-8584438D01*
X13473938Y-8534400D02*
G75*
G03X13473938Y-8534400I-50038J0D01*
G01*
X13373862Y-10033762D02*
X13473938Y-10133838D01*
X13473938Y-10033762D02*
X13373862Y-10133838D01*
X13473938Y-10083800D02*
G75*
G03X13473938Y-10083800I-50038J0D01*
G01*
X13373862Y-10795762D02*
X13473938Y-10895838D01*
X13473938Y-10795762D02*
X13373862Y-10895838D01*
X13473938Y-10845800D02*
G75*
G03X13473938Y-10845800I-50038J0D01*
G01*
X13551662Y-7214362D02*
X13651738Y-7314438D01*
X13651738Y-7214362D02*
X13551662Y-7314438D01*
X13651738Y-7264400D02*
G75*
G03X13651738Y-7264400I-50038J0D01*
G01*
X13551662Y-9563862D02*
X13651738Y-9663938D01*
X13651738Y-9563862D02*
X13551662Y-9663938D01*
X13651738Y-9613900D02*
G75*
G03X13651738Y-9613900I-50038J0D01*
G01*
X14491462Y-7722362D02*
X14591538Y-7822438D01*
X14591538Y-7722362D02*
X14491462Y-7822438D01*
X14591538Y-7772400D02*
G75*
G03X14591538Y-7772400I-50038J0D01*
G01*
X14491462Y-8484362D02*
X14591538Y-8584438D01*
X14591538Y-8484362D02*
X14491462Y-8584438D01*
X14591538Y-8534400D02*
G75*
G03X14591538Y-8534400I-50038J0D01*
G01*
X14491462Y-10084562D02*
X14591538Y-10184638D01*
X14591538Y-10084562D02*
X14491462Y-10184638D01*
X14591538Y-10134600D02*
G75*
G03X14591538Y-10134600I-50038J0D01*
G01*
X14491462Y-10846562D02*
X14591538Y-10946638D01*
X14591538Y-10846562D02*
X14491462Y-10946638D01*
X14591538Y-10896600D02*
G75*
G03X14591538Y-10896600I-50038J0D01*
G01*
X15032859Y-6362405D02*
X15132935Y-6462481D01*
X15132935Y-6362405D02*
X15032859Y-6462481D01*
X15132935Y-6412443D02*
G75*
G03X15132935Y-6412443I-50038J0D01*
G01*
X15667859Y-6362405D02*
X15767935Y-6462481D01*
X15767935Y-6362405D02*
X15667859Y-6462481D01*
X15767935Y-6412443D02*
G75*
G03X15767935Y-6412443I-50038J0D01*
G01*
X16104362Y-5906262D02*
X16204438Y-6006338D01*
X16204438Y-5906262D02*
X16104362Y-6006338D01*
X16204438Y-5956300D02*
G75*
G03X16204438Y-5956300I-50038J0D01*
G01*
X16104362Y-6211062D02*
X16204438Y-6311138D01*
X16204438Y-6211062D02*
X16104362Y-6311138D01*
X16204438Y-6261100D02*
G75*
G03X16204438Y-6261100I-50038J0D01*
G01*
X16396462Y-7735062D02*
X16496538Y-7835138D01*
X16496538Y-7735062D02*
X16396462Y-7835138D01*
X16496538Y-7785100D02*
G75*
G03X16496538Y-7785100I-50038J0D01*
G01*
X16396462Y-8497062D02*
X16496538Y-8597138D01*
X16496538Y-8497062D02*
X16396462Y-8597138D01*
X16496538Y-8547100D02*
G75*
G03X16496538Y-8547100I-50038J0D01*
G01*
X16396462Y-10071862D02*
X16496538Y-10171938D01*
X16496538Y-10071862D02*
X16396462Y-10171938D01*
X16496538Y-10121900D02*
G75*
G03X16496538Y-10121900I-50038J0D01*
G01*
X16396462Y-10833862D02*
X16496538Y-10933938D01*
X16496538Y-10833862D02*
X16396462Y-10933938D01*
X16496538Y-10883900D02*
G75*
G03X16496538Y-10883900I-50038J0D01*
G01*
X16866362Y-5906262D02*
X16966438Y-6006338D01*
X16966438Y-5906262D02*
X16866362Y-6006338D01*
X16966438Y-5956300D02*
G75*
G03X16966438Y-5956300I-50038J0D01*
G01*
X16866362Y-6211062D02*
X16966438Y-6311138D01*
X16966438Y-6211062D02*
X16866362Y-6311138D01*
X16966438Y-6261100D02*
G75*
G03X16966438Y-6261100I-50038J0D01*
G01*
X17336262Y-7214362D02*
X17436338Y-7314438D01*
X17436338Y-7214362D02*
X17336262Y-7314438D01*
X17436338Y-7264400D02*
G75*
G03X17436338Y-7264400I-50038J0D01*
G01*
X17336262Y-9551162D02*
X17436338Y-9651238D01*
X17436338Y-9551162D02*
X17336262Y-9651238D01*
X17436338Y-9601200D02*
G75*
G03X17436338Y-9601200I-50038J0D01*
G01*
X17514062Y-7709662D02*
X17614138Y-7809738D01*
X17614138Y-7709662D02*
X17514062Y-7809738D01*
X17614138Y-7759700D02*
G75*
G03X17614138Y-7759700I-50038J0D01*
G01*
X17514062Y-8471662D02*
X17614138Y-8571738D01*
X17614138Y-8471662D02*
X17514062Y-8571738D01*
X17614138Y-8521700D02*
G75*
G03X17614138Y-8521700I-50038J0D01*
G01*
X17514062Y-10046462D02*
X17614138Y-10146538D01*
X17614138Y-10046462D02*
X17514062Y-10146538D01*
X17614138Y-10096500D02*
G75*
G03X17614138Y-10096500I-50038J0D01*
G01*
X17514062Y-10808462D02*
X17614138Y-10908538D01*
X17614138Y-10808462D02*
X17514062Y-10908538D01*
X17614138Y-10858500D02*
G75*
G03X17614138Y-10858500I-50038J0D01*
G01*
X17590262Y-7214362D02*
X17690338Y-7314438D01*
X17690338Y-7214362D02*
X17590262Y-7314438D01*
X17690338Y-7264400D02*
G75*
G03X17690338Y-7264400I-50038J0D01*
G01*
X17590262Y-9551162D02*
X17690338Y-9651238D01*
X17690338Y-9551162D02*
X17590262Y-9651238D01*
X17690338Y-9601200D02*
G75*
G03X17690338Y-9601200I-50038J0D01*
G01*
X17945862Y-10046462D02*
X18045938Y-10146538D01*
X18045938Y-10046462D02*
X17945862Y-10146538D01*
X18045938Y-10096500D02*
G75*
G03X18045938Y-10096500I-50038J0D01*
G01*
X17945862Y-10808462D02*
X18045938Y-10908538D01*
X18045938Y-10808462D02*
X17945862Y-10908538D01*
X18045938Y-10858500D02*
G75*
G03X18045938Y-10858500I-50038J0D01*
G01*
X17958562Y-7709662D02*
X18058638Y-7809738D01*
X18058638Y-7709662D02*
X17958562Y-7809738D01*
X18058638Y-7759700D02*
G75*
G03X18058638Y-7759700I-50038J0D01*
G01*
X17958562Y-8471662D02*
X18058638Y-8571738D01*
X18058638Y-8471662D02*
X17958562Y-8571738D01*
X18058638Y-8521700D02*
G75*
G03X18058638Y-8521700I-50038J0D01*
G01*
X18301462Y-7709662D02*
X18401538Y-7809738D01*
X18401538Y-7709662D02*
X18301462Y-7809738D01*
X18401538Y-7759700D02*
G75*
G03X18401538Y-7759700I-50038J0D01*
G01*
X18301462Y-8471662D02*
X18401538Y-8571738D01*
X18401538Y-8471662D02*
X18301462Y-8571738D01*
X18401538Y-8521700D02*
G75*
G03X18401538Y-8521700I-50038J0D01*
G01*
X18301462Y-10046462D02*
X18401538Y-10146538D01*
X18401538Y-10046462D02*
X18301462Y-10146538D01*
X18401538Y-10096500D02*
G75*
G03X18401538Y-10096500I-50038J0D01*
G01*
X18301462Y-10808462D02*
X18401538Y-10908538D01*
X18401538Y-10808462D02*
X18301462Y-10908538D01*
X18401538Y-10858500D02*
G75*
G03X18401538Y-10858500I-50038J0D01*
G01*
X11760200Y-6096000D02*
X11861800Y-6197600D01*
X11861800Y-6096000D02*
X18872200Y-10668000D02*
X18973800Y-10769600D01*
X18973800Y-10668000D02*
X18872200Y-10769600D01*
X18923000Y-10668000D02*
X18923000Y-10769600D01*
X18872200Y-10718800D02*
X18973800Y-10718800D01*
X18872200Y-10922000D02*
X18973800Y-11023600D01*
X18973800Y-10922000D02*
X18872200Y-11023600D01*
X18923000Y-10922000D02*
X18923000Y-11023600D01*
X18872200Y-10972800D02*
X18973800Y-10972800D01*
X19126200Y-6096000D02*
X19227800Y-6197600D01*
X19227800Y-6096000D02*
X19126200Y-6197600D01*
X19177000Y-6096000D02*
X19177000Y-6197600D01*
X19126200Y-6146800D02*
X19227800Y-6146800D01*
X19126200Y-6350000D02*
X19227800Y-6451600D01*
X19227800Y-6350000D02*
X19126200Y-6451600D01*
X19177000Y-6350000D02*
X19177000Y-6451600D01*
X19126200Y-6400800D02*
X19227800Y-6400800D01*
X19126200Y-6604000D02*
X19227800Y-6705600D01*
X19227800Y-6604000D02*
X19126200Y-6705600D01*
X19177000Y-6604000D02*
X19177000Y-6705600D01*
X19126200Y-6654800D02*
X19227800Y-6654800D01*
X19126200Y-6858000D02*
X19227800Y-6959600D01*
X19227800Y-6858000D02*
X19126200Y-6959600D01*
X19177000Y-6858000D02*
X19177000Y-6959600D01*
X19126200Y-6908800D02*
X19227800Y-6908800D01*
X19126200Y-7112000D02*
X19227800Y-7213600D01*
X19227800Y-7112000D02*
X19126200Y-7213600D01*
X19177000Y-7112000D02*
X19177000Y-7213600D01*
X19126200Y-7162800D02*
X19227800Y-7162800D01*
X19126200Y-7366000D02*
X19227800Y-7467600D01*
X19227800Y-7366000D02*
X19126200Y-7467600D01*
X19177000Y-7366000D02*
X19177000Y-7467600D01*
X19126200Y-7416800D02*
X19227800Y-7416800D01*
X19126200Y-7620000D02*
X19227800Y-7721600D01*
X19227800Y-7620000D02*
X19126200Y-7721600D01*
X19177000Y-7620000D02*
X19177000Y-7721600D01*
X19126200Y-7670800D02*
X19227800Y-7670800D01*
X19126200Y-7874000D02*
X19227800Y-7975600D01*
X19227800Y-7874000D02*
X19126200Y-7975600D01*
X19177000Y-7874000D02*
X19177000Y-7975600D01*
X19126200Y-7924800D02*
X19227800Y-7924800D01*
X19126200Y-8128000D02*
X19227800Y-8229600D01*
X19227800Y-8128000D02*
X19126200Y-8229600D01*
X19177000Y-8128000D02*
X19177000Y-8229600D01*
X19126200Y-8178800D02*
X19227800Y-8178800D01*
X19126200Y-8382000D02*
X19227800Y-8483600D01*
X19227800Y-8382000D02*
X19126200Y-8483600D01*
X19177000Y-8382000D02*
X19177000Y-8483600D01*
X19126200Y-8432800D02*
X19227800Y-8432800D01*
X19126200Y-8636000D02*
X19227800Y-8737600D01*
X19227800Y-8636000D02*
X19126200Y-8737600D01*
X19177000Y-8636000D02*
X19177000Y-8737600D01*
X19126200Y-8686800D02*
X19227800Y-8686800D01*
X19126200Y-8890000D02*
X19227800Y-8991600D01*
X19227800Y-8890000D02*
X19126200Y-8991600D01*
X19177000Y-8890000D02*
X19177000Y-8991600D01*
X19126200Y-8940800D02*
X19227800Y-8940800D01*
X19126200Y-9144000D02*
X19227800Y-9245600D01*
X19227800Y-9144000D02*
X19126200Y-9245600D01*
X19177000Y-9144000D02*
X19177000Y-9245600D01*
X19126200Y-9194800D02*
X19227800Y-9194800D01*
X19126200Y-9398000D02*
X19227800Y-9499600D01*
X19227800Y-9398000D02*
X19126200Y-9499600D01*
X19177000Y-9398000D02*
X19177000Y-9499600D01*
X19126200Y-9448800D02*
X19227800Y-9448800D01*
X19126200Y-9652000D02*
X19227800Y-9753600D01*
X19227800Y-9652000D02*
X19126200Y-9753600D01*
X19177000Y-9652000D02*
X19177000Y-9753600D01*
X19126200Y-9702800D02*
X19227800Y-9702800D01*
X19126200Y-9906000D02*
X19227800Y-10007600D01*
X19227800Y-9906000D02*
X19126200Y-10007600D01*
X19177000Y-9906000D02*
X19177000Y-10007600D01*
X19126200Y-9956800D02*
X19227800Y-9956800D01*
X19126200Y-10160000D02*
X19227800Y-10261600D01*
X19227800Y-10160000D02*
X19126200Y-10261600D01*
X19177000Y-10160000D02*
X19177000Y-10261600D01*
X19126200Y-10210800D02*
X19227800Y-10210800D01*
X19126200Y-10414000D02*
X19227800Y-10515600D01*
X19227800Y-10414000D02*
X19126200Y-10515600D01*
X19177000Y-10414000D02*
X19177000Y-10515600D01*
X19126200Y-10464800D02*
X19227800Y-10464800D01*
X19126200Y-10668000D02*
X19227800Y-10769600D01*
X19227800Y-10668000D02*
X19126200Y-10769600D01*
X19177000Y-10668000D02*
X19177000Y-10769600D01*
X19126200Y-10718800D02*
X19227800Y-10718800D01*
X19126200Y-10922000D02*
X19227800Y-11023600D01*
X19227800Y-10922000D02*
X19126200Y-11023600D01*
X19177000Y-10922000D02*
X19177000Y-11023600D01*
X19126200Y-10972800D02*
X19227800Y-10972800D01*
D13*
X11563928Y-12273214D02*
X11563928Y-11973214D01*
X11635357Y-11973214D01*
X11678214Y-11987500D01*
X11706786Y-12016071D01*
X11721071Y-12044643D01*
X11735357Y-12101786D01*
X11735357Y-12144643D01*
X11721071Y-12201786D01*
X11706786Y-12230357D01*
X11678214Y-12258929D01*
X11635357Y-12273214D01*
X11563928Y-12273214D01*
X11863928Y-12273214D02*
X11863928Y-12073214D01*
X11863928Y-12130357D02*
X11878214Y-12101786D01*
X11892500Y-12087500D01*
X11921071Y-12073214D01*
X11949643Y-12073214D01*
X12049643Y-12273214D02*
X12049643Y-12073214D01*
X12049643Y-11973214D02*
X12035357Y-11987500D01*
X12049643Y-12001786D01*
X12063928Y-11987500D01*
X12049643Y-11973214D01*
X18121071Y-12688929D01*
X18106786Y-12646071D01*
X18092500Y-12617500D01*
X18063929Y-12574643D01*
X18049643Y-12560357D01*
X11292500Y-13163500D02*
G75*
G03X11292500Y-13163500I-35560J0D01*
G01*
X11621071Y-12999214D02*
X11649643Y-12999214D01*
X11678214Y-13013500D01*
X11692500Y-13027786D01*
X11706786Y-13056357D01*
X11721071Y-13113500D01*
X11721071Y-13184929D01*
X11706786Y-13242071D01*
X11692500Y-13270643D01*
X12706786Y-13509500D01*
X12735357Y-13495214D01*
X12778214Y-13495214D01*
X12806786Y-13509500D01*
X12821071Y-13538071D01*
X12821071Y-13695214D01*
X12963928Y-13695214D02*
X12963928Y-13495214D01*
X12963928Y-13523786D02*
X12978214Y-13509500D01*
X13006786Y-13495214D01*
X13049643Y-13495214D01*
X13078214Y-13509500D01*
X13092500Y-13538071D01*
X13092500Y-13695214D01*
X13092500Y-13538071D02*
X13106786Y-13509500D01*
X13135357Y-13495214D01*
X13178214Y-13495214D01*
X13206786Y-13509500D01*
X13221071Y-13538071D01*
X13221071Y-13695214D01*
X13806786Y-13380929D02*
X13549643Y-13766643D01*
X14192500Y-13395214D02*
X14221071Y-13395214D01*
X14249643Y-13409500D01*
X14263928Y-13423786D01*
X14278214Y-13452357D01*
X14292500Y-13509500D01*
X14292500Y-13580929D01*
X14278214Y-13638071D01*
X14263928Y-13666643D01*
X14249643Y-13680929D01*
X14221071Y-13695214D01*
X14192500Y-13695214D01*
X14163928Y-13680929D01*
X14149643Y-13666643D01*
X14135357Y-13638071D01*
X14121071Y-13580929D01*
X14121071Y-13509500D01*
X14135357Y-13452357D01*
X14149643Y-13423786D01*
X14163928Y-13409500D01*
X14192500Y-13395214D01*
X14421071Y-13666643D02*
X14435357Y-13680929D01*
X14421071Y-13695214D01*
X14406786Y-13680929D01*
X14421071Y-13666643D01*
X14421071Y-13695214D01*
X14621071Y-13395214D02*
X14649643Y-13395214D01*
X14678214Y-13409500D01*
X14692500Y-13423786D01*
X14706785Y-13452357D01*
X14721071Y-13509500D01*
X14721071Y-13580929D01*
X14706785Y-13638071D01*
X14692500Y-13666643D01*
X14678214Y-13680929D01*
X14649643Y-13695214D01*
X14621071Y-13695214D01*
X14592500Y-13680929D01*
X14578214Y-13666643D01*
X14563928Y-13638071D01*
X14549643Y-13580929D01*
X14549643Y-13509500D01*
X14563928Y-13452357D01*
X14578214Y-13423786D01*
X14592500Y-13409500D01*
X14621071Y-13395214D01*
X14821071Y-13395214D02*
X15006785Y-13395214D01*
X14906785Y-13509500D01*
X14949643Y-13509500D01*
X14978214Y-13523786D01*
X14992500Y-13538071D01*
X15006785Y-13566643D01*
X11292500Y-14797538D01*
X11292500Y-14697462D02*
X11192424Y-14797538D01*
X11292500Y-14747500D02*
G75*
G03X11292500Y-14747500I-50038J0D01*
G01*
X11721071Y-14883214D02*
X11549643Y-14883214D01*
X11635357Y-14883214D02*
X11635357Y-14583214D01*
X11606786Y-14626071D01*
X11578214Y-14654643D01*
X18135357Y-15136357D01*
X18121071Y-15064929D01*
X18106786Y-15022071D01*
X18092500Y-14993500D01*
X18063929Y-14950643D01*
X18049643Y-14936357D01*
M02*
