G04 #@! TF.FileFunction,Legend,Top*
%FSLAX46Y46*%
G04 Gerber Fmt 4.6, Leading zero omitted, Abs format (unit mm)*
G04 Created by KiCad (PCBNEW 4.0.6-e0-6349~53~ubuntu16.04.1) date Sat Jul  1 03:26:18 2017*
%MOMM*%
%LPD*%
G01*
G04 APERTURE LIST*
%ADD10C,0.100000*%
%ADD11C,0.150000*%
%ADD12C,0.187500*%
%ADD13C,0.125000*%
%ADD14C,0.300000*%
%ADD15C,0.120000*%
%ADD16C,0.002540*%
%ADD17C,0.200000*%
%ADD18C,0.170000*%
%ADD19C,0.175000*%
%ADD20C,0.180000*%
%ADD21C,0.190000*%
G04 APERTURE END LIST*
D10*
D11*
X196250000Y-118000000D02*
X113000000Y-118000000D01*
X196250000Y-52750000D02*
X196250000Y-118000000D01*
X113000000Y-52750000D02*
X196250000Y-52750000D01*
X113000000Y-118000000D02*
X113000000Y-52750000D01*
D12*
X171964285Y-68083333D02*
X123317001Y-106767381D01*
X123650334Y-106767381D02*
X123745572Y-106767381D01*
X123793191Y-106815000D01*
X123840810Y-106910238D01*
X123864619Y-107100714D01*
X123864619Y-107434048D01*
X123840810Y-107624524D01*
X123793191Y-107719762D01*
X123745572Y-107767381D01*
X123650334Y-107767381D01*
X123602715Y-107719762D01*
X123555096Y-107624524D01*
X123531286Y-107434048D01*
X123531286Y-107100714D01*
X123555096Y-106910238D01*
X123602715Y-106815000D01*
X123650334Y-106767381D01*
X124031287Y-106767381D02*
X196102429Y-69431810D01*
D13*
X193274334Y-66254381D02*
X193393381Y-67254381D01*
X193488619Y-66540095D01*
X193583857Y-67254381D01*
X193702905Y-66254381D01*
X193869572Y-66968667D02*
X194107667Y-66968667D01*
X193821953Y-67254381D02*
X193988620Y-66254381D01*
X194155286Y-67254381D01*
X194321953Y-67254381D02*
X194321953Y-66254381D01*
X194607667Y-67254381D02*
X194393381Y-66682952D01*
X194607667Y-66254381D02*
X194321953Y-66825810D01*
X194821953Y-66730571D02*
X194988619Y-66730571D01*
X195060048Y-67254381D02*
X194821953Y-67254381D01*
X194821953Y-66254381D01*
X195060048Y-66254381D01*
X195274334Y-66254381D02*
X195274334Y-67063905D01*
X195298143Y-67159143D01*
X195321953Y-67206762D01*
X195369572Y-67254381D01*
X195464810Y-67254381D01*
X195512429Y-67206762D01*
X195536238Y-67159143D01*
X195560048Y-67063905D01*
X195560048Y-66254381D01*
X195798144Y-67254381D02*
X195798144Y-66254381D01*
X195988620Y-66254381D01*
X196036239Y-66302000D01*
X196060048Y-66349619D01*
X196083858Y-66444857D01*
X196083858Y-66587714D01*
X196060048Y-66682952D01*
X196036239Y-66730571D01*
X195988620Y-66778190D01*
X195798144Y-66778190D01*
D17*
X193929096Y-64016000D02*
X193833858Y-63968381D01*
X193691001Y-63968381D01*
X193548143Y-64016000D01*
X193452905Y-64111238D01*
X193405286Y-64206476D01*
X193357667Y-64396952D01*
X193357667Y-64539810D01*
X193405286Y-64730286D01*
X193452905Y-64825524D01*
X193548143Y-64920762D01*
X193691001Y-64968381D01*
X193786239Y-64968381D01*
X193929096Y-64920762D01*
X193976715Y-64873143D01*
X193976715Y-64539810D01*
X193786239Y-64539810D01*
X194405286Y-64968381D02*
X194405286Y-63968381D01*
X194976715Y-64968381D01*
X194976715Y-63968381D01*
X195452905Y-64968381D02*
X195452905Y-63968381D01*
X195691000Y-63968381D01*
X195833858Y-64016000D01*
X195929096Y-64111238D01*
X195976715Y-64206476D01*
X196024334Y-64396952D01*
X196024334Y-64539810D01*
X195976715Y-64730286D01*
X195929096Y-64825524D01*
X195833858Y-64920762D01*
X195691000Y-64968381D01*
X195452905Y-64968381D01*
X193278286Y-61539429D02*
X194040191Y-61539429D01*
X193659239Y-61920381D02*
X193659239Y-61158476D01*
X194992572Y-60920381D02*
X194516381Y-60920381D01*
X194468762Y-61396571D01*
X194516381Y-61348952D01*
X194611619Y-61301333D01*
X194849715Y-61301333D01*
X194944953Y-61348952D01*
X194992572Y-61396571D01*
X186697905Y-84637524D01*
X186602667Y-84732762D01*
X186459809Y-84780381D01*
X186221714Y-84780381D01*
X187174095Y-84494667D02*
X187650286Y-84494667D01*
X187078857Y-84780381D02*
X187412190Y-83780381D01*
X187745524Y-84780381D01*
D13*
X185555048Y-81240381D02*
X185721715Y-82240381D01*
X185888381Y-81240381D01*
X186055048Y-82240381D02*
X186055048Y-81240381D01*
X186174095Y-81240381D01*
X186245524Y-81288000D01*
X186293143Y-81383238D01*
X186316952Y-81478476D01*
X186340762Y-81668952D01*
X186340762Y-81811810D01*
X186316952Y-82002286D01*
X186293143Y-82097524D01*
X186245524Y-82192762D01*
X186174095Y-82240381D01*
X186055048Y-82240381D01*
X186555048Y-82240381D02*
X186555048Y-81240381D01*
X186674095Y-81240381D01*
X186745524Y-81288000D01*
X186793143Y-81383238D01*
X186816952Y-81478476D01*
X186840762Y-81668952D01*
X186840762Y-81811810D01*
X186816952Y-82002286D01*
X186793143Y-82097524D01*
X186745524Y-82192762D01*
X186674095Y-82240381D01*
X186555048Y-82240381D01*
X187031238Y-81954667D02*
X187269333Y-81954667D01*
X186983619Y-82240381D02*
X187150286Y-81240381D01*
X187316952Y-82240381D01*
D17*
X185245524Y-79700381D02*
X185245524Y-78700381D01*
X185483619Y-78700381D01*
X185626477Y-78748000D01*
X185721715Y-78843238D01*
X185769334Y-78938476D01*
X185816953Y-79128952D01*
X185816953Y-79271810D01*
X185769334Y-79462286D01*
X185721715Y-79557524D01*
X185626477Y-79652762D01*
X185483619Y-79700381D01*
X185245524Y-79700381D01*
X186197905Y-79414667D02*
X186674096Y-79414667D01*
X186102667Y-79700381D02*
X186436000Y-78700381D01*
X186769334Y-79700381D01*
X187674096Y-79605143D02*
X187626477Y-79652762D01*
X187483620Y-79700381D01*
X187388382Y-79700381D01*
X187245524Y-79652762D01*
X187150286Y-79557524D01*
X187102667Y-79462286D01*
X187055048Y-79271810D01*
X187055048Y-79128952D01*
X187102667Y-78938476D01*
X187150286Y-78843238D01*
X187245524Y-78748000D01*
X187388382Y-78700381D01*
X187483620Y-78700381D01*
X187626477Y-78748000D01*
X187674096Y-78795619D01*
X185745524Y-77065143D02*
X185697905Y-77112762D01*
X185555048Y-77160381D01*
X185459810Y-77160381D01*
X185316952Y-77112762D01*
X185221714Y-77017524D01*
X185174095Y-76922286D01*
X185126476Y-76731810D01*
X185126476Y-76588952D01*
X185174095Y-76398476D01*
X185221714Y-76303238D01*
X185316952Y-76208000D01*
X185459810Y-76160381D01*
X185555048Y-76160381D01*
X185697905Y-76208000D01*
X185745524Y-76255619D01*
X186174095Y-77160381D02*
X186174095Y-76160381D01*
X186174095Y-76636571D02*
X186745524Y-76636571D01*
X186745524Y-77160381D02*
X186745524Y-76160381D01*
X187745524Y-77160381D02*
X187174095Y-77160381D01*
X187459809Y-77160381D02*
X187459809Y-76160381D01*
X187364571Y-76303238D01*
X187269333Y-76398476D01*
X187174095Y-76446095D01*
X185491524Y-74525143D02*
X185443905Y-74572762D01*
X185301048Y-74620381D01*
X185205810Y-74620381D01*
X185062952Y-74572762D01*
X184967714Y-74477524D01*
X184920095Y-74382286D01*
X184872476Y-74191810D01*
X184872476Y-74048952D01*
X184920095Y-73858476D01*
X184967714Y-73763238D01*
X185062952Y-73668000D01*
X185205810Y-73620381D01*
X185301048Y-73620381D01*
X185443905Y-73668000D01*
X185491524Y-73715619D01*
X185920095Y-74620381D02*
X185920095Y-73620381D01*
X185920095Y-74096571D02*
X186491524Y-74096571D01*
X186491524Y-74620381D02*
X186491524Y-73620381D01*
X186920095Y-73715619D02*
X186967714Y-73668000D01*
X187062952Y-73620381D01*
X187301048Y-73620381D01*
X187396286Y-73668000D01*
X187443905Y-73715619D01*
X187491524Y-73810857D01*
X187491524Y-73906095D01*
X187443905Y-74048952D01*
X186872476Y-74620381D01*
X187491524Y-74620381D01*
X185491524Y-71985143D02*
X185443905Y-72032762D01*
X185301048Y-72080381D01*
X185205810Y-72080381D01*
X185062952Y-72032762D01*
X184967714Y-71937524D01*
X184920095Y-71842286D01*
X184872476Y-71651810D01*
X184872476Y-71508952D01*
X184920095Y-71318476D01*
X184967714Y-71223238D01*
X185062952Y-71128000D01*
X185205810Y-71080381D01*
X185301048Y-71080381D01*
X185443905Y-71128000D01*
X185491524Y-71175619D01*
X185920095Y-72080381D02*
X185920095Y-71080381D01*
X185920095Y-71556571D02*
X186491524Y-71556571D01*
X186491524Y-72080381D02*
X186491524Y-71080381D01*
X186872476Y-71080381D02*
X187491524Y-71080381D01*
X187158190Y-71461333D01*
X187301048Y-71461333D01*
X187396286Y-71508952D01*
X187443905Y-71556571D01*
X187491524Y-71651810D01*
X187491524Y-71889905D01*
X187443905Y-71985143D01*
X187396286Y-72032762D01*
X187301048Y-72080381D01*
X187015333Y-72080381D01*
X186920095Y-72032762D01*
X186872476Y-71985143D01*
D13*
X186094762Y-68588000D02*
X186047143Y-68540381D01*
X185975715Y-68540381D01*
X185904286Y-68588000D01*
X185856667Y-68683238D01*
X185832858Y-68778476D01*
X185809048Y-68968952D01*
X185809048Y-69111810D01*
X185832858Y-69302286D01*
X185856667Y-69397524D01*
X185904286Y-69492762D01*
X185975715Y-69540381D01*
X186023334Y-69540381D01*
X186094762Y-69492762D01*
X186118572Y-69445143D01*
X186118572Y-69111810D01*
X186023334Y-69111810D01*
X186332858Y-69540381D02*
X186332858Y-68540381D01*
X186618572Y-69540381D01*
X186618572Y-68540381D01*
X186856668Y-69540381D02*
X186856668Y-68540381D01*
X186975715Y-68540381D01*
X187047144Y-68588000D01*
X187094763Y-68683238D01*
X187118572Y-68778476D01*
X187142382Y-68968952D01*
X187142382Y-69111810D01*
X187118572Y-69302286D01*
X187094763Y-69397524D01*
X187047144Y-69492762D01*
X186975715Y-69540381D01*
X186856668Y-69540381D01*
X187332858Y-69254667D02*
X187570953Y-69254667D01*
X187285239Y-69540381D02*
X187451906Y-68540381D01*
X187618572Y-69540381D01*
D17*
X185459810Y-67000381D02*
X185459810Y-66000381D01*
X185888381Y-66952762D02*
X186031238Y-67000381D01*
X186269334Y-67000381D01*
X186364572Y-66952762D01*
X186412191Y-66905143D01*
X186459810Y-66809905D01*
X186459810Y-66714667D01*
X186412191Y-66619429D01*
X186364572Y-66571810D01*
X186269334Y-66524190D01*
X186078857Y-66476571D01*
X185983619Y-66428952D01*
X185936000Y-66381333D01*
X185888381Y-66286095D01*
X185888381Y-66190857D01*
X185936000Y-66095619D01*
X185983619Y-66048000D01*
X186078857Y-66000381D01*
X186316953Y-66000381D01*
X186459810Y-66048000D01*
X186888381Y-67000381D02*
X186888381Y-66000381D01*
X170488095Y-97273810D01*
X146122399Y-64195858D02*
X146884304Y-64195858D01*
X146503352Y-64576810D02*
X146503352Y-63814905D01*
M02*
