G75*
G70*
%OFA0B0*%
%FSLAX25Y25*%
%IPPOS*%
%LPD*%
%AMOC8*
5,1,8,0,0,1.08239X$1,22.5*
%
%ADD16C,0.02360*%
%ADD17C,0.03570*%
X0011000Y0011000D02*
G75*
%LPD*%
X0139000Y0011000D02*
G75*
%LPD*%
D16*
X0133490Y0023540D02*
X0120510Y0023540D01*
X0133490Y0023540D02*
X0133490Y0016460D01*
X0120510Y0016460D01*
X0120510Y0023540D01*
X0131140Y0023540D02*
X0131140Y0016460D01*
X0128790Y0016460D02*
X0128790Y0023540D01*
X0126440Y0023540D02*
X0126440Y0016460D01*
X0124090Y0016460D02*
X0124090Y0023540D01*
X0121740Y0023540D02*
X0121740Y0016460D01*
X0120510Y0033460D02*
X0133490Y0033460D01*
X0120510Y0033460D02*
X0120510Y0040540D01*
X0133490Y0040540D01*
X0133490Y0033460D01*
X0131140Y0033460D02*
X0131140Y0040540D01*
X0128790Y0040540D02*
X0128790Y0033460D01*
X0126440Y0033460D02*
X0126440Y0040540D01*
X0124090Y0040540D02*
X0124090Y0033460D01*
X0121740Y0033460D02*
X0121740Y0040540D01*
D17*
X0133000Y0017000D03*
X0129000Y0017000D03*
X0125000Y0017000D03*
X0121000Y0017000D03*
X0121000Y0022500D03*
X0133000Y0022500D03*
X0133000Y0034500D03*
X0133000Y0040000D03*
X0129000Y0040000D03*
X0125000Y0040000D03*
X0121000Y0040000D03*
X0121000Y0034500D03*
X0113000Y0011000D02*
G75*
%LPD*%
D16*
X0107490Y0023540D02*
X0094510Y0023540D01*
X0107490Y0023540D02*
X0107490Y0016460D01*
X0094510Y0016460D01*
X0094510Y0023540D01*
X0105140Y0023540D02*
X0105140Y0016460D01*
X0102790Y0016460D02*
X0102790Y0023540D01*
X0100440Y0023540D02*
X0100440Y0016460D01*
X0098090Y0016460D02*
X0098090Y0023540D01*
X0095740Y0023540D02*
X0095740Y0016460D01*
X0094510Y0033460D02*
X0107490Y0033460D01*
X0094510Y0033460D02*
X0094510Y0040540D01*
X0107490Y0040540D01*
X0107490Y0033460D01*
X0105140Y0033460D02*
X0105140Y0040540D01*
X0102790Y0040540D02*
X0102790Y0033460D01*
X0100440Y0033460D02*
X0100440Y0040540D01*
X0098090Y0040540D02*
X0098090Y0033460D01*
X0095740Y0033460D02*
X0095740Y0040540D01*
D17*
X0107000Y0017000D03*
X0103000Y0017000D03*
X0099000Y0017000D03*
X0095000Y0017000D03*
X0095000Y0022500D03*
X0107000Y0022500D03*
X0107000Y0034500D03*
X0107000Y0040000D03*
X0103000Y0040000D03*
X0099000Y0040000D03*
X0095000Y0040000D03*
X0095000Y0034500D03*
X0139000Y0048000D02*
G75*
%LPD*%
D16*
X0133490Y0060540D02*
X0120510Y0060540D01*
X0133490Y0060540D02*
X0133490Y0053460D01*
X0120510Y0053460D01*
X0120510Y0060540D01*
X0131140Y0060540D02*
X0131140Y0053460D01*
X0128790Y0053460D02*
X0128790Y0060540D01*
X0126440Y0060540D02*
X0126440Y0053460D01*
X0124090Y0053460D02*
X0124090Y0060540D01*
X0121740Y0060540D02*
X0121740Y0053460D01*
X0120510Y0070460D02*
X0133490Y0070460D01*
X0120510Y0070460D02*
X0120510Y0077540D01*
X0133490Y0077540D01*
X0133490Y0070460D01*
X0131140Y0070460D02*
X0131140Y0077540D01*
X0128790Y0077540D02*
X0128790Y0070460D01*
X0126440Y0070460D02*
X0126440Y0077540D01*
X0124090Y0077540D02*
X0124090Y0070460D01*
X0121740Y0070460D02*
X0121740Y0077540D01*
D17*
X0133000Y0054000D03*
X0129000Y0054000D03*
X0125000Y0054000D03*
X0121000Y0054000D03*
X0121000Y0059500D03*
X0133000Y0059500D03*
X0133000Y0071500D03*
X0133000Y0077000D03*
X0129000Y0077000D03*
X0125000Y0077000D03*
X0121000Y0077000D03*
X0121000Y0071500D03*
X0087000Y0011000D02*
G75*
%LPD*%
D16*
X0081490Y0023540D02*
X0068510Y0023540D01*
X0081490Y0023540D02*
X0081490Y0016460D01*
X0068510Y0016460D01*
X0068510Y0023540D01*
X0079140Y0023540D02*
X0079140Y0016460D01*
X0076790Y0016460D02*
X0076790Y0023540D01*
X0074440Y0023540D02*
X0074440Y0016460D01*
X0072090Y0016460D02*
X0072090Y0023540D01*
X0069740Y0023540D02*
X0069740Y0016460D01*
X0068510Y0033460D02*
X0081490Y0033460D01*
X0068510Y0033460D02*
X0068510Y0040540D01*
X0081490Y0040540D01*
X0081490Y0033460D01*
X0079140Y0033460D02*
X0079140Y0040540D01*
X0076790Y0040540D02*
X0076790Y0033460D01*
X0074440Y0033460D02*
X0074440Y0040540D01*
X0072090Y0040540D02*
X0072090Y0033460D01*
X0069740Y0033460D02*
X0069740Y0040540D01*
D17*
X0081000Y0017000D03*
X0077000Y0017000D03*
X0073000Y0017000D03*
X0069000Y0017000D03*
X0069000Y0022500D03*
X0081000Y0022500D03*
X0081000Y0034500D03*
X0081000Y0040000D03*
X0077000Y0040000D03*
X0073000Y0040000D03*
X0069000Y0040000D03*
X0069000Y0034500D03*
X0113000Y0048000D02*
G75*
%LPD*%
D16*
X0107490Y0060540D02*
X0094510Y0060540D01*
X0107490Y0060540D02*
X0107490Y0053460D01*
X0094510Y0053460D01*
X0094510Y0060540D01*
X0105140Y0060540D02*
X0105140Y0053460D01*
X0102790Y0053460D02*
X0102790Y0060540D01*
X0100440Y0060540D02*
X0100440Y0053460D01*
X0098090Y0053460D02*
X0098090Y0060540D01*
X0095740Y0060540D02*
X0095740Y0053460D01*
X0094510Y0070460D02*
X0107490Y0070460D01*
X0094510Y0070460D02*
X0094510Y0077540D01*
X0107490Y0077540D01*
X0107490Y0070460D01*
X0105140Y0070460D02*
X0105140Y0077540D01*
X0102790Y0077540D02*
X0102790Y0070460D01*
X0100440Y0070460D02*
X0100440Y0077540D01*
X0098090Y0077540D02*
X0098090Y0070460D01*
X0095740Y0070460D02*
X0095740Y0077540D01*
D17*
X0107000Y0054000D03*
X0103000Y0054000D03*
X0099000Y0054000D03*
X0095000Y0054000D03*
X0095000Y0059500D03*
X0107000Y0059500D03*
X0107000Y0071500D03*
X0107000Y0077000D03*
X0103000Y0077000D03*
X0099000Y0077000D03*
X0095000Y0077000D03*
X0095000Y0071500D03*
X0061000Y0011000D02*
G75*
%LPD*%
D16*
X0055490Y0023540D02*
X0042510Y0023540D01*
X0055490Y0023540D02*
X0055490Y0016460D01*
X0042510Y0016460D01*
X0042510Y0023540D01*
X0053140Y0023540D02*
X0053140Y0016460D01*
X0050790Y0016460D02*
X0050790Y0023540D01*
X0048440Y0023540D02*
X0048440Y0016460D01*
X0046090Y0016460D02*
X0046090Y0023540D01*
X0043740Y0023540D02*
X0043740Y0016460D01*
X0042510Y0033460D02*
X0055490Y0033460D01*
X0042510Y0033460D02*
X0042510Y0040540D01*
X0055490Y0040540D01*
X0055490Y0033460D01*
X0053140Y0033460D02*
X0053140Y0040540D01*
X0050790Y0040540D02*
X0050790Y0033460D01*
X0048440Y0033460D02*
X0048440Y0040540D01*
X0046090Y0040540D02*
X0046090Y0033460D01*
X0043740Y0033460D02*
X0043740Y0040540D01*
D17*
X0055000Y0017000D03*
X0051000Y0017000D03*
X0047000Y0017000D03*
X0043000Y0017000D03*
X0043000Y0022500D03*
X0055000Y0022500D03*
X0055000Y0034500D03*
X0055000Y0040000D03*
X0051000Y0040000D03*
X0047000Y0040000D03*
X0043000Y0040000D03*
X0043000Y0034500D03*
X0087000Y0048000D02*
G75*
%LPD*%
D16*
X0081490Y0060540D02*
X0068510Y0060540D01*
X0081490Y0060540D02*
X0081490Y0053460D01*
X0068510Y0053460D01*
X0068510Y0060540D01*
X0079140Y0060540D02*
X0079140Y0053460D01*
X0076790Y0053460D02*
X0076790Y0060540D01*
X0074440Y0060540D02*
X0074440Y0053460D01*
X0072090Y0053460D02*
X0072090Y0060540D01*
X0069740Y0060540D02*
X0069740Y0053460D01*
X0068510Y0070460D02*
X0081490Y0070460D01*
X0068510Y0070460D02*
X0068510Y0077540D01*
X0081490Y0077540D01*
X0081490Y0070460D01*
X0079140Y0070460D02*
X0079140Y0077540D01*
X0076790Y0077540D02*
X0076790Y0070460D01*
X0074440Y0070460D02*
X0074440Y0077540D01*
X0072090Y0077540D02*
X0072090Y0070460D01*
X0069740Y0070460D02*
X0069740Y0077540D01*
D17*
X0081000Y0054000D03*
X0077000Y0054000D03*
X0073000Y0054000D03*
X0069000Y0054000D03*
X0069000Y0059500D03*
X0081000Y0059500D03*
X0081000Y0071500D03*
X0081000Y0077000D03*
X0077000Y0077000D03*
X0073000Y0077000D03*
X0069000Y0077000D03*
X0069000Y0071500D03*
X0061000Y0048000D02*
G75*
%LPD*%
D16*
X0055490Y0060540D02*
X0042510Y0060540D01*
X0055490Y0060540D02*
X0055490Y0053460D01*
X0042510Y0053460D01*
X0042510Y0060540D01*
X0053140Y0060540D02*
X0053140Y0053460D01*
X0050790Y0053460D02*
X0050790Y0060540D01*
X0048440Y0060540D02*
X0048440Y0053460D01*
X0046090Y0053460D02*
X0046090Y0060540D01*
X0043740Y0060540D02*
X0043740Y0053460D01*
X0042510Y0070460D02*
X0055490Y0070460D01*
X0042510Y0070460D02*
X0042510Y0077540D01*
X0055490Y0077540D01*
X0055490Y0070460D01*
X0053140Y0070460D02*
X0053140Y0077540D01*
X0050790Y0077540D02*
X0050790Y0070460D01*
X0048440Y0070460D02*
X0048440Y0077540D01*
X0046090Y0077540D02*
X0046090Y0070460D01*
X0043740Y0070460D02*
X0043740Y0077540D01*
D17*
X0055000Y0054000D03*
X0051000Y0054000D03*
X0047000Y0054000D03*
X0043000Y0054000D03*
X0043000Y0059500D03*
X0055000Y0059500D03*
X0055000Y0071500D03*
X0055000Y0077000D03*
X0051000Y0077000D03*
X0047000Y0077000D03*
X0043000Y0077000D03*
X0043000Y0071500D03*
X0035000Y0011000D02*
G75*
%LPD*%
D16*
X0029490Y0023540D02*
X0016510Y0023540D01*
X0029490Y0023540D02*
X0029490Y0016460D01*
X0016510Y0016460D01*
X0016510Y0023540D01*
X0027140Y0023540D02*
X0027140Y0016460D01*
X0024790Y0016460D02*
X0024790Y0023540D01*
X0022440Y0023540D02*
X0022440Y0016460D01*
X0020090Y0016460D02*
X0020090Y0023540D01*
X0017740Y0023540D02*
X0017740Y0016460D01*
X0016510Y0033460D02*
X0029490Y0033460D01*
X0016510Y0033460D02*
X0016510Y0040540D01*
X0029490Y0040540D01*
X0029490Y0033460D01*
X0027140Y0033460D02*
X0027140Y0040540D01*
X0024790Y0040540D02*
X0024790Y0033460D01*
X0022440Y0033460D02*
X0022440Y0040540D01*
X0020090Y0040540D02*
X0020090Y0033460D01*
X0017740Y0033460D02*
X0017740Y0040540D01*
D17*
X0029000Y0017000D03*
X0025000Y0017000D03*
X0021000Y0017000D03*
X0017000Y0017000D03*
X0017000Y0022500D03*
X0029000Y0022500D03*
X0029000Y0034500D03*
X0029000Y0040000D03*
X0025000Y0040000D03*
X0021000Y0040000D03*
X0017000Y0040000D03*
X0017000Y0034500D03*
X0035000Y0048000D02*
G75*
%LPD*%
D16*
X0029490Y0060540D02*
X0016510Y0060540D01*
X0029490Y0060540D02*
X0029490Y0053460D01*
X0016510Y0053460D01*
X0016510Y0060540D01*
X0027140Y0060540D02*
X0027140Y0053460D01*
X0024790Y0053460D02*
X0024790Y0060540D01*
X0022440Y0060540D02*
X0022440Y0053460D01*
X0020090Y0053460D02*
X0020090Y0060540D01*
X0017740Y0060540D02*
X0017740Y0053460D01*
X0016510Y0070460D02*
X0029490Y0070460D01*
X0016510Y0070460D02*
X0016510Y0077540D01*
X0029490Y0077540D01*
X0029490Y0070460D01*
X0027140Y0070460D02*
X0027140Y0077540D01*
X0024790Y0077540D02*
X0024790Y0070460D01*
X0022440Y0070460D02*
X0022440Y0077540D01*
X0020090Y0077540D02*
X0020090Y0070460D01*
X0017740Y0070460D02*
X0017740Y0077540D01*
D17*
X0029000Y0054000D03*
X0025000Y0054000D03*
X0021000Y0054000D03*
X0017000Y0054000D03*
X0017000Y0059500D03*
X0029000Y0059500D03*
X0029000Y0071500D03*
X0029000Y0077000D03*
X0025000Y0077000D03*
X0021000Y0077000D03*
X0017000Y0077000D03*
X0017000Y0071500D03*
X0011000Y0085000D02*
G75*
%LPD*%
X0139000Y0085000D02*
G75*
%LPD*%
D16*
X0133490Y0097540D02*
X0120510Y0097540D01*
X0133490Y0097540D02*
X0133490Y0090460D01*
X0120510Y0090460D01*
X0120510Y0097540D01*
X0131140Y0097540D02*
X0131140Y0090460D01*
X0128790Y0090460D02*
X0128790Y0097540D01*
X0126440Y0097540D02*
X0126440Y0090460D01*
X0124090Y0090460D02*
X0124090Y0097540D01*
X0121740Y0097540D02*
X0121740Y0090460D01*
X0120510Y0107460D02*
X0133490Y0107460D01*
X0120510Y0107460D02*
X0120510Y0114540D01*
X0133490Y0114540D01*
X0133490Y0107460D01*
X0131140Y0107460D02*
X0131140Y0114540D01*
X0128790Y0114540D02*
X0128790Y0107460D01*
X0126440Y0107460D02*
X0126440Y0114540D01*
X0124090Y0114540D02*
X0124090Y0107460D01*
X0121740Y0107460D02*
X0121740Y0114540D01*
D17*
X0133000Y0091000D03*
X0129000Y0091000D03*
X0125000Y0091000D03*
X0121000Y0091000D03*
X0121000Y0096500D03*
X0133000Y0096500D03*
X0133000Y0108500D03*
X0133000Y0114000D03*
X0129000Y0114000D03*
X0125000Y0114000D03*
X0121000Y0114000D03*
X0121000Y0108500D03*
X0113000Y0085000D02*
G75*
%LPD*%
D16*
X0107490Y0097540D02*
X0094510Y0097540D01*
X0107490Y0097540D02*
X0107490Y0090460D01*
X0094510Y0090460D01*
X0094510Y0097540D01*
X0105140Y0097540D02*
X0105140Y0090460D01*
X0102790Y0090460D02*
X0102790Y0097540D01*
X0100440Y0097540D02*
X0100440Y0090460D01*
X0098090Y0090460D02*
X0098090Y0097540D01*
X0095740Y0097540D02*
X0095740Y0090460D01*
X0094510Y0107460D02*
X0107490Y0107460D01*
X0094510Y0107460D02*
X0094510Y0114540D01*
X0107490Y0114540D01*
X0107490Y0107460D01*
X0105140Y0107460D02*
X0105140Y0114540D01*
X0102790Y0114540D02*
X0102790Y0107460D01*
X0100440Y0107460D02*
X0100440Y0114540D01*
X0098090Y0114540D02*
X0098090Y0107460D01*
X0095740Y0107460D02*
X0095740Y0114540D01*
D17*
X0107000Y0091000D03*
X0103000Y0091000D03*
X0099000Y0091000D03*
X0095000Y0091000D03*
X0095000Y0096500D03*
X0107000Y0096500D03*
X0107000Y0108500D03*
X0107000Y0114000D03*
X0103000Y0114000D03*
X0099000Y0114000D03*
X0095000Y0114000D03*
X0095000Y0108500D03*
X0139000Y0122000D02*
G75*
%LPD*%
D16*
X0133490Y0134540D02*
X0120510Y0134540D01*
X0133490Y0134540D02*
X0133490Y0127460D01*
X0120510Y0127460D01*
X0120510Y0134540D01*
X0131140Y0134540D02*
X0131140Y0127460D01*
X0128790Y0127460D02*
X0128790Y0134540D01*
X0126440Y0134540D02*
X0126440Y0127460D01*
X0124090Y0127460D02*
X0124090Y0134540D01*
X0121740Y0134540D02*
X0121740Y0127460D01*
X0120510Y0144460D02*
X0133490Y0144460D01*
X0120510Y0144460D02*
X0120510Y0151540D01*
X0133490Y0151540D01*
X0133490Y0144460D01*
X0131140Y0144460D02*
X0131140Y0151540D01*
X0128790Y0151540D02*
X0128790Y0144460D01*
X0126440Y0144460D02*
X0126440Y0151540D01*
X0124090Y0151540D02*
X0124090Y0144460D01*
X0121740Y0144460D02*
X0121740Y0151540D01*
D17*
X0133000Y0128000D03*
X0129000Y0128000D03*
X0125000Y0128000D03*
X0121000Y0128000D03*
X0121000Y0133500D03*
X0133000Y0133500D03*
X0133000Y0145500D03*
X0133000Y0151000D03*
X0129000Y0151000D03*
X0125000Y0151000D03*
X0121000Y0151000D03*
X0121000Y0145500D03*
X0087000Y0085000D02*
G75*
%LPD*%
D16*
X0081490Y0097540D02*
X0068510Y0097540D01*
X0081490Y0097540D02*
X0081490Y0090460D01*
X0068510Y0090460D01*
X0068510Y0097540D01*
X0079140Y0097540D02*
X0079140Y0090460D01*
X0076790Y0090460D02*
X0076790Y0097540D01*
X0074440Y0097540D02*
X0074440Y0090460D01*
X0072090Y0090460D02*
X0072090Y0097540D01*
X0069740Y0097540D02*
X0069740Y0090460D01*
X0068510Y0107460D02*
X0081490Y0107460D01*
X0068510Y0107460D02*
X0068510Y0114540D01*
X0081490Y0114540D01*
X0081490Y0107460D01*
X0079140Y0107460D02*
X0079140Y0114540D01*
X0076790Y0114540D02*
X0076790Y0107460D01*
X0074440Y0107460D02*
X0074440Y0114540D01*
X0072090Y0114540D02*
X0072090Y0107460D01*
X0069740Y0107460D02*
X0069740Y0114540D01*
D17*
X0081000Y0091000D03*
X0077000Y0091000D03*
X0073000Y0091000D03*
X0069000Y0091000D03*
X0069000Y0096500D03*
X0081000Y0096500D03*
X0081000Y0108500D03*
X0081000Y0114000D03*
X0077000Y0114000D03*
X0073000Y0114000D03*
X0069000Y0114000D03*
X0069000Y0108500D03*
X0113000Y0122000D02*
G75*
%LPD*%
D16*
X0107490Y0134540D02*
X0094510Y0134540D01*
X0107490Y0134540D02*
X0107490Y0127460D01*
X0094510Y0127460D01*
X0094510Y0134540D01*
X0105140Y0134540D02*
X0105140Y0127460D01*
X0102790Y0127460D02*
X0102790Y0134540D01*
X0100440Y0134540D02*
X0100440Y0127460D01*
X0098090Y0127460D02*
X0098090Y0134540D01*
X0095740Y0134540D02*
X0095740Y0127460D01*
X0094510Y0144460D02*
X0107490Y0144460D01*
X0094510Y0144460D02*
X0094510Y0151540D01*
X0107490Y0151540D01*
X0107490Y0144460D01*
X0105140Y0144460D02*
X0105140Y0151540D01*
X0102790Y0151540D02*
X0102790Y0144460D01*
X0100440Y0144460D02*
X0100440Y0151540D01*
X0098090Y0151540D02*
X0098090Y0144460D01*
X0095740Y0144460D02*
X0095740Y0151540D01*
D17*
X0107000Y0128000D03*
X0103000Y0128000D03*
X0099000Y0128000D03*
X0095000Y0128000D03*
X0095000Y0133500D03*
X0107000Y0133500D03*
X0107000Y0145500D03*
X0107000Y0151000D03*
X0103000Y0151000D03*
X0099000Y0151000D03*
X0095000Y0151000D03*
X0095000Y0145500D03*
X0061000Y0085000D02*
G75*
%LPD*%
D16*
X0055490Y0097540D02*
X0042510Y0097540D01*
X0055490Y0097540D02*
X0055490Y0090460D01*
X0042510Y0090460D01*
X0042510Y0097540D01*
X0053140Y0097540D02*
X0053140Y0090460D01*
X0050790Y0090460D02*
X0050790Y0097540D01*
X0048440Y0097540D02*
X0048440Y0090460D01*
X0046090Y0090460D02*
X0046090Y0097540D01*
X0043740Y0097540D02*
X0043740Y0090460D01*
X0042510Y0107460D02*
X0055490Y0107460D01*
X0042510Y0107460D02*
X0042510Y0114540D01*
X0055490Y0114540D01*
X0055490Y0107460D01*
X0053140Y0107460D02*
X0053140Y0114540D01*
X0050790Y0114540D02*
X0050790Y0107460D01*
X0048440Y0107460D02*
X0048440Y0114540D01*
X0046090Y0114540D02*
X0046090Y0107460D01*
X0043740Y0107460D02*
X0043740Y0114540D01*
D17*
X0055000Y0091000D03*
X0051000Y0091000D03*
X0047000Y0091000D03*
X0043000Y0091000D03*
X0043000Y0096500D03*
X0055000Y0096500D03*
X0055000Y0108500D03*
X0055000Y0114000D03*
X0051000Y0114000D03*
X0047000Y0114000D03*
X0043000Y0114000D03*
X0043000Y0108500D03*
X0087000Y0122000D02*
G75*
%LPD*%
D16*
X0081490Y0134540D02*
X0068510Y0134540D01*
X0081490Y0134540D02*
X0081490Y0127460D01*
X0068510Y0127460D01*
X0068510Y0134540D01*
X0079140Y0134540D02*
X0079140Y0127460D01*
X0076790Y0127460D02*
X0076790Y0134540D01*
X0074440Y0134540D02*
X0074440Y0127460D01*
X0072090Y0127460D02*
X0072090Y0134540D01*
X0069740Y0134540D02*
X0069740Y0127460D01*
X0068510Y0144460D02*
X0081490Y0144460D01*
X0068510Y0144460D02*
X0068510Y0151540D01*
X0081490Y0151540D01*
X0081490Y0144460D01*
X0079140Y0144460D02*
X0079140Y0151540D01*
X0076790Y0151540D02*
X0076790Y0144460D01*
X0074440Y0144460D02*
X0074440Y0151540D01*
X0072090Y0151540D02*
X0072090Y0144460D01*
X0069740Y0144460D02*
X0069740Y0151540D01*
D17*
X0081000Y0128000D03*
X0077000Y0128000D03*
X0073000Y0128000D03*
X0069000Y0128000D03*
X0069000Y0133500D03*
X0081000Y0133500D03*
X0081000Y0145500D03*
X0081000Y0151000D03*
X0077000Y0151000D03*
X0073000Y0151000D03*
X0069000Y0151000D03*
X0069000Y0145500D03*
X0061000Y0122000D02*
G75*
%LPD*%
D16*
X0055490Y0134540D02*
X0042510Y0134540D01*
X0055490Y0134540D02*
X0055490Y0127460D01*
X0042510Y0127460D01*
X0042510Y0134540D01*
X0053140Y0134540D02*
X0053140Y0127460D01*
X0050790Y0127460D02*
X0050790Y0134540D01*
X0048440Y0134540D02*
X0048440Y0127460D01*
X0046090Y0127460D02*
X0046090Y0134540D01*
X0043740Y0134540D02*
X0043740Y0127460D01*
X0042510Y0144460D02*
X0055490Y0144460D01*
X0042510Y0144460D02*
X0042510Y0151540D01*
X0055490Y0151540D01*
X0055490Y0144460D01*
X0053140Y0144460D02*
X0053140Y0151540D01*
X0050790Y0151540D02*
X0050790Y0144460D01*
X0048440Y0144460D02*
X0048440Y0151540D01*
X0046090Y0151540D02*
X0046090Y0144460D01*
X0043740Y0144460D02*
X0043740Y0151540D01*
D17*
X0055000Y0128000D03*
X0051000Y0128000D03*
X0047000Y0128000D03*
X0043000Y0128000D03*
X0043000Y0133500D03*
X0055000Y0133500D03*
X0055000Y0145500D03*
X0055000Y0151000D03*
X0051000Y0151000D03*
X0047000Y0151000D03*
X0043000Y0151000D03*
X0043000Y0145500D03*
X0035000Y0085000D02*
G75*
%LPD*%
D16*
X0029490Y0097540D02*
X0016510Y0097540D01*
X0029490Y0097540D02*
X0029490Y0090460D01*
X0016510Y0090460D01*
X0016510Y0097540D01*
X0027140Y0097540D02*
X0027140Y0090460D01*
X0024790Y0090460D02*
X0024790Y0097540D01*
X0022440Y0097540D02*
X0022440Y0090460D01*
X0020090Y0090460D02*
X0020090Y0097540D01*
X0017740Y0097540D02*
X0017740Y0090460D01*
X0016510Y0107460D02*
X0029490Y0107460D01*
X0016510Y0107460D02*
X0016510Y0114540D01*
X0029490Y0114540D01*
X0029490Y0107460D01*
X0027140Y0107460D02*
X0027140Y0114540D01*
X0024790Y0114540D02*
X0024790Y0107460D01*
X0022440Y0107460D02*
X0022440Y0114540D01*
X0020090Y0114540D02*
X0020090Y0107460D01*
X0017740Y0107460D02*
X0017740Y0114540D01*
D17*
X0029000Y0091000D03*
X0025000Y0091000D03*
X0021000Y0091000D03*
X0017000Y0091000D03*
X0017000Y0096500D03*
X0029000Y0096500D03*
X0029000Y0108500D03*
X0029000Y0114000D03*
X0025000Y0114000D03*
X0021000Y0114000D03*
X0017000Y0114000D03*
X0017000Y0108500D03*
X0035000Y0122000D02*
G75*
%LPD*%
D16*
X0029490Y0134540D02*
X0016510Y0134540D01*
X0029490Y0134540D02*
X0029490Y0127460D01*
X0016510Y0127460D01*
X0016510Y0134540D01*
X0027140Y0134540D02*
X0027140Y0127460D01*
X0024790Y0127460D02*
X0024790Y0134540D01*
X0022440Y0134540D02*
X0022440Y0127460D01*
X0020090Y0127460D02*
X0020090Y0134540D01*
X0017740Y0134540D02*
X0017740Y0127460D01*
X0016510Y0144460D02*
X0029490Y0144460D01*
X0016510Y0144460D02*
X0016510Y0151540D01*
X0029490Y0151540D01*
X0029490Y0144460D01*
X0027140Y0144460D02*
X0027140Y0151540D01*
X0024790Y0151540D02*
X0024790Y0144460D01*
X0022440Y0144460D02*
X0022440Y0151540D01*
X0020090Y0151540D02*
X0020090Y0144460D01*
X0017740Y0144460D02*
X0017740Y0151540D01*
D17*
X0029000Y0128000D03*
X0025000Y0128000D03*
X0021000Y0128000D03*
X0017000Y0128000D03*
X0017000Y0133500D03*
X0029000Y0133500D03*
X0029000Y0145500D03*
X0029000Y0151000D03*
X0025000Y0151000D03*
X0021000Y0151000D03*
X0017000Y0151000D03*
X0017000Y0145500D03*
X0141000Y0011000D02*
G75*
%LPD*%
X0269000Y0011000D02*
G75*
%LPD*%
D16*
X0263490Y0023540D02*
X0250510Y0023540D01*
X0263490Y0023540D02*
X0263490Y0016460D01*
X0250510Y0016460D01*
X0250510Y0023540D01*
X0261140Y0023540D02*
X0261140Y0016460D01*
X0258790Y0016460D02*
X0258790Y0023540D01*
X0256440Y0023540D02*
X0256440Y0016460D01*
X0254090Y0016460D02*
X0254090Y0023540D01*
X0251740Y0023540D02*
X0251740Y0016460D01*
X0250510Y0033460D02*
X0263490Y0033460D01*
X0250510Y0033460D02*
X0250510Y0040540D01*
X0263490Y0040540D01*
X0263490Y0033460D01*
X0261140Y0033460D02*
X0261140Y0040540D01*
X0258790Y0040540D02*
X0258790Y0033460D01*
X0256440Y0033460D02*
X0256440Y0040540D01*
X0254090Y0040540D02*
X0254090Y0033460D01*
X0251740Y0033460D02*
X0251740Y0040540D01*
D17*
X0263000Y0017000D03*
X0259000Y0017000D03*
X0255000Y0017000D03*
X0251000Y0017000D03*
X0251000Y0022500D03*
X0263000Y0022500D03*
X0263000Y0034500D03*
X0263000Y0040000D03*
X0259000Y0040000D03*
X0255000Y0040000D03*
X0251000Y0040000D03*
X0251000Y0034500D03*
X0243000Y0011000D02*
G75*
%LPD*%
D16*
X0237490Y0023540D02*
X0224510Y0023540D01*
X0237490Y0023540D02*
X0237490Y0016460D01*
X0224510Y0016460D01*
X0224510Y0023540D01*
X0235140Y0023540D02*
X0235140Y0016460D01*
X0232790Y0016460D02*
X0232790Y0023540D01*
X0230440Y0023540D02*
X0230440Y0016460D01*
X0228090Y0016460D02*
X0228090Y0023540D01*
X0225740Y0023540D02*
X0225740Y0016460D01*
X0224510Y0033460D02*
X0237490Y0033460D01*
X0224510Y0033460D02*
X0224510Y0040540D01*
X0237490Y0040540D01*
X0237490Y0033460D01*
X0235140Y0033460D02*
X0235140Y0040540D01*
X0232790Y0040540D02*
X0232790Y0033460D01*
X0230440Y0033460D02*
X0230440Y0040540D01*
X0228090Y0040540D02*
X0228090Y0033460D01*
X0225740Y0033460D02*
X0225740Y0040540D01*
D17*
X0237000Y0017000D03*
X0233000Y0017000D03*
X0229000Y0017000D03*
X0225000Y0017000D03*
X0225000Y0022500D03*
X0237000Y0022500D03*
X0237000Y0034500D03*
X0237000Y0040000D03*
X0233000Y0040000D03*
X0229000Y0040000D03*
X0225000Y0040000D03*
X0225000Y0034500D03*
X0269000Y0048000D02*
G75*
%LPD*%
D16*
X0263490Y0060540D02*
X0250510Y0060540D01*
X0263490Y0060540D02*
X0263490Y0053460D01*
X0250510Y0053460D01*
X0250510Y0060540D01*
X0261140Y0060540D02*
X0261140Y0053460D01*
X0258790Y0053460D02*
X0258790Y0060540D01*
X0256440Y0060540D02*
X0256440Y0053460D01*
X0254090Y0053460D02*
X0254090Y0060540D01*
X0251740Y0060540D02*
X0251740Y0053460D01*
X0250510Y0070460D02*
X0263490Y0070460D01*
X0250510Y0070460D02*
X0250510Y0077540D01*
X0263490Y0077540D01*
X0263490Y0070460D01*
X0261140Y0070460D02*
X0261140Y0077540D01*
X0258790Y0077540D02*
X0258790Y0070460D01*
X0256440Y0070460D02*
X0256440Y0077540D01*
X0254090Y0077540D02*
X0254090Y0070460D01*
X0251740Y0070460D02*
X0251740Y0077540D01*
D17*
X0263000Y0054000D03*
X0259000Y0054000D03*
X0255000Y0054000D03*
X0251000Y0054000D03*
X0251000Y0059500D03*
X0263000Y0059500D03*
X0263000Y0071500D03*
X0263000Y0077000D03*
X0259000Y0077000D03*
X0255000Y0077000D03*
X0251000Y0077000D03*
X0251000Y0071500D03*
X0217000Y0011000D02*
G75*
%LPD*%
D16*
X0211490Y0023540D02*
X0198510Y0023540D01*
X0211490Y0023540D02*
X0211490Y0016460D01*
X0198510Y0016460D01*
X0198510Y0023540D01*
X0209140Y0023540D02*
X0209140Y0016460D01*
X0206790Y0016460D02*
X0206790Y0023540D01*
X0204440Y0023540D02*
X0204440Y0016460D01*
X0202090Y0016460D02*
X0202090Y0023540D01*
X0199740Y0023540D02*
X0199740Y0016460D01*
X0198510Y0033460D02*
X0211490Y0033460D01*
X0198510Y0033460D02*
X0198510Y0040540D01*
X0211490Y0040540D01*
X0211490Y0033460D01*
X0209140Y0033460D02*
X0209140Y0040540D01*
X0206790Y0040540D02*
X0206790Y0033460D01*
X0204440Y0033460D02*
X0204440Y0040540D01*
X0202090Y0040540D02*
X0202090Y0033460D01*
X0199740Y0033460D02*
X0199740Y0040540D01*
D17*
X0211000Y0017000D03*
X0207000Y0017000D03*
X0203000Y0017000D03*
X0199000Y0017000D03*
X0199000Y0022500D03*
X0211000Y0022500D03*
X0211000Y0034500D03*
X0211000Y0040000D03*
X0207000Y0040000D03*
X0203000Y0040000D03*
X0199000Y0040000D03*
X0199000Y0034500D03*
X0243000Y0048000D02*
G75*
%LPD*%
D16*
X0237490Y0060540D02*
X0224510Y0060540D01*
X0237490Y0060540D02*
X0237490Y0053460D01*
X0224510Y0053460D01*
X0224510Y0060540D01*
X0235140Y0060540D02*
X0235140Y0053460D01*
X0232790Y0053460D02*
X0232790Y0060540D01*
X0230440Y0060540D02*
X0230440Y0053460D01*
X0228090Y0053460D02*
X0228090Y0060540D01*
X0225740Y0060540D02*
X0225740Y0053460D01*
X0224510Y0070460D02*
X0237490Y0070460D01*
X0224510Y0070460D02*
X0224510Y0077540D01*
X0237490Y0077540D01*
X0237490Y0070460D01*
X0235140Y0070460D02*
X0235140Y0077540D01*
X0232790Y0077540D02*
X0232790Y0070460D01*
X0230440Y0070460D02*
X0230440Y0077540D01*
X0228090Y0077540D02*
X0228090Y0070460D01*
X0225740Y0070460D02*
X0225740Y0077540D01*
D17*
X0237000Y0054000D03*
X0233000Y0054000D03*
X0229000Y0054000D03*
X0225000Y0054000D03*
X0225000Y0059500D03*
X0237000Y0059500D03*
X0237000Y0071500D03*
X0237000Y0077000D03*
X0233000Y0077000D03*
X0229000Y0077000D03*
X0225000Y0077000D03*
X0225000Y0071500D03*
X0191000Y0011000D02*
G75*
%LPD*%
D16*
X0185490Y0023540D02*
X0172510Y0023540D01*
X0185490Y0023540D02*
X0185490Y0016460D01*
X0172510Y0016460D01*
X0172510Y0023540D01*
X0183140Y0023540D02*
X0183140Y0016460D01*
X0180790Y0016460D02*
X0180790Y0023540D01*
X0178440Y0023540D02*
X0178440Y0016460D01*
X0176090Y0016460D02*
X0176090Y0023540D01*
X0173740Y0023540D02*
X0173740Y0016460D01*
X0172510Y0033460D02*
X0185490Y0033460D01*
X0172510Y0033460D02*
X0172510Y0040540D01*
X0185490Y0040540D01*
X0185490Y0033460D01*
X0183140Y0033460D02*
X0183140Y0040540D01*
X0180790Y0040540D02*
X0180790Y0033460D01*
X0178440Y0033460D02*
X0178440Y0040540D01*
X0176090Y0040540D02*
X0176090Y0033460D01*
X0173740Y0033460D02*
X0173740Y0040540D01*
D17*
X0185000Y0017000D03*
X0181000Y0017000D03*
X0177000Y0017000D03*
X0173000Y0017000D03*
X0173000Y0022500D03*
X0185000Y0022500D03*
X0185000Y0034500D03*
X0185000Y0040000D03*
X0181000Y0040000D03*
X0177000Y0040000D03*
X0173000Y0040000D03*
X0173000Y0034500D03*
X0217000Y0048000D02*
G75*
%LPD*%
D16*
X0211490Y0060540D02*
X0198510Y0060540D01*
X0211490Y0060540D02*
X0211490Y0053460D01*
X0198510Y0053460D01*
X0198510Y0060540D01*
X0209140Y0060540D02*
X0209140Y0053460D01*
X0206790Y0053460D02*
X0206790Y0060540D01*
X0204440Y0060540D02*
X0204440Y0053460D01*
X0202090Y0053460D02*
X0202090Y0060540D01*
X0199740Y0060540D02*
X0199740Y0053460D01*
X0198510Y0070460D02*
X0211490Y0070460D01*
X0198510Y0070460D02*
X0198510Y0077540D01*
X0211490Y0077540D01*
X0211490Y0070460D01*
X0209140Y0070460D02*
X0209140Y0077540D01*
X0206790Y0077540D02*
X0206790Y0070460D01*
X0204440Y0070460D02*
X0204440Y0077540D01*
X0202090Y0077540D02*
X0202090Y0070460D01*
X0199740Y0070460D02*
X0199740Y0077540D01*
D17*
X0211000Y0054000D03*
X0207000Y0054000D03*
X0203000Y0054000D03*
X0199000Y0054000D03*
X0199000Y0059500D03*
X0211000Y0059500D03*
X0211000Y0071500D03*
X0211000Y0077000D03*
X0207000Y0077000D03*
X0203000Y0077000D03*
X0199000Y0077000D03*
X0199000Y0071500D03*
X0191000Y0048000D02*
G75*
%LPD*%
D16*
X0185490Y0060540D02*
X0172510Y0060540D01*
X0185490Y0060540D02*
X0185490Y0053460D01*
X0172510Y0053460D01*
X0172510Y0060540D01*
X0183140Y0060540D02*
X0183140Y0053460D01*
X0180790Y0053460D02*
X0180790Y0060540D01*
X0178440Y0060540D02*
X0178440Y0053460D01*
X0176090Y0053460D02*
X0176090Y0060540D01*
X0173740Y0060540D02*
X0173740Y0053460D01*
X0172510Y0070460D02*
X0185490Y0070460D01*
X0172510Y0070460D02*
X0172510Y0077540D01*
X0185490Y0077540D01*
X0185490Y0070460D01*
X0183140Y0070460D02*
X0183140Y0077540D01*
X0180790Y0077540D02*
X0180790Y0070460D01*
X0178440Y0070460D02*
X0178440Y0077540D01*
X0176090Y0077540D02*
X0176090Y0070460D01*
X0173740Y0070460D02*
X0173740Y0077540D01*
D17*
X0185000Y0054000D03*
X0181000Y0054000D03*
X0177000Y0054000D03*
X0173000Y0054000D03*
X0173000Y0059500D03*
X0185000Y0059500D03*
X0185000Y0071500D03*
X0185000Y0077000D03*
X0181000Y0077000D03*
X0177000Y0077000D03*
X0173000Y0077000D03*
X0173000Y0071500D03*
X0165000Y0011000D02*
G75*
%LPD*%
D16*
X0159490Y0023540D02*
X0146510Y0023540D01*
X0159490Y0023540D02*
X0159490Y0016460D01*
X0146510Y0016460D01*
X0146510Y0023540D01*
X0157140Y0023540D02*
X0157140Y0016460D01*
X0154790Y0016460D02*
X0154790Y0023540D01*
X0152440Y0023540D02*
X0152440Y0016460D01*
X0150090Y0016460D02*
X0150090Y0023540D01*
X0147740Y0023540D02*
X0147740Y0016460D01*
X0146510Y0033460D02*
X0159490Y0033460D01*
X0146510Y0033460D02*
X0146510Y0040540D01*
X0159490Y0040540D01*
X0159490Y0033460D01*
X0157140Y0033460D02*
X0157140Y0040540D01*
X0154790Y0040540D02*
X0154790Y0033460D01*
X0152440Y0033460D02*
X0152440Y0040540D01*
X0150090Y0040540D02*
X0150090Y0033460D01*
X0147740Y0033460D02*
X0147740Y0040540D01*
D17*
X0159000Y0017000D03*
X0155000Y0017000D03*
X0151000Y0017000D03*
X0147000Y0017000D03*
X0147000Y0022500D03*
X0159000Y0022500D03*
X0159000Y0034500D03*
X0159000Y0040000D03*
X0155000Y0040000D03*
X0151000Y0040000D03*
X0147000Y0040000D03*
X0147000Y0034500D03*
X0165000Y0048000D02*
G75*
%LPD*%
D16*
X0159490Y0060540D02*
X0146510Y0060540D01*
X0159490Y0060540D02*
X0159490Y0053460D01*
X0146510Y0053460D01*
X0146510Y0060540D01*
X0157140Y0060540D02*
X0157140Y0053460D01*
X0154790Y0053460D02*
X0154790Y0060540D01*
X0152440Y0060540D02*
X0152440Y0053460D01*
X0150090Y0053460D02*
X0150090Y0060540D01*
X0147740Y0060540D02*
X0147740Y0053460D01*
X0146510Y0070460D02*
X0159490Y0070460D01*
X0146510Y0070460D02*
X0146510Y0077540D01*
X0159490Y0077540D01*
X0159490Y0070460D01*
X0157140Y0070460D02*
X0157140Y0077540D01*
X0154790Y0077540D02*
X0154790Y0070460D01*
X0152440Y0070460D02*
X0152440Y0077540D01*
X0150090Y0077540D02*
X0150090Y0070460D01*
X0147740Y0070460D02*
X0147740Y0077540D01*
D17*
X0159000Y0054000D03*
X0155000Y0054000D03*
X0151000Y0054000D03*
X0147000Y0054000D03*
X0147000Y0059500D03*
X0159000Y0059500D03*
X0159000Y0071500D03*
X0159000Y0077000D03*
X0155000Y0077000D03*
X0151000Y0077000D03*
X0147000Y0077000D03*
X0147000Y0071500D03*
X0141000Y0085000D02*
G75*
%LPD*%
X0269000Y0085000D02*
G75*
%LPD*%
D16*
X0263490Y0097540D02*
X0250510Y0097540D01*
X0263490Y0097540D02*
X0263490Y0090460D01*
X0250510Y0090460D01*
X0250510Y0097540D01*
X0261140Y0097540D02*
X0261140Y0090460D01*
X0258790Y0090460D02*
X0258790Y0097540D01*
X0256440Y0097540D02*
X0256440Y0090460D01*
X0254090Y0090460D02*
X0254090Y0097540D01*
X0251740Y0097540D02*
X0251740Y0090460D01*
X0250510Y0107460D02*
X0263490Y0107460D01*
X0250510Y0107460D02*
X0250510Y0114540D01*
X0263490Y0114540D01*
X0263490Y0107460D01*
X0261140Y0107460D02*
X0261140Y0114540D01*
X0258790Y0114540D02*
X0258790Y0107460D01*
X0256440Y0107460D02*
X0256440Y0114540D01*
X0254090Y0114540D02*
X0254090Y0107460D01*
X0251740Y0107460D02*
X0251740Y0114540D01*
D17*
X0263000Y0091000D03*
X0259000Y0091000D03*
X0255000Y0091000D03*
X0251000Y0091000D03*
X0251000Y0096500D03*
X0263000Y0096500D03*
X0263000Y0108500D03*
X0263000Y0114000D03*
X0259000Y0114000D03*
X0255000Y0114000D03*
X0251000Y0114000D03*
X0251000Y0108500D03*
X0243000Y0085000D02*
G75*
%LPD*%
D16*
X0237490Y0097540D02*
X0224510Y0097540D01*
X0237490Y0097540D02*
X0237490Y0090460D01*
X0224510Y0090460D01*
X0224510Y0097540D01*
X0235140Y0097540D02*
X0235140Y0090460D01*
X0232790Y0090460D02*
X0232790Y0097540D01*
X0230440Y0097540D02*
X0230440Y0090460D01*
X0228090Y0090460D02*
X0228090Y0097540D01*
X0225740Y0097540D02*
X0225740Y0090460D01*
X0224510Y0107460D02*
X0237490Y0107460D01*
X0224510Y0107460D02*
X0224510Y0114540D01*
X0237490Y0114540D01*
X0237490Y0107460D01*
X0235140Y0107460D02*
X0235140Y0114540D01*
X0232790Y0114540D02*
X0232790Y0107460D01*
X0230440Y0107460D02*
X0230440Y0114540D01*
X0228090Y0114540D02*
X0228090Y0107460D01*
X0225740Y0107460D02*
X0225740Y0114540D01*
D17*
X0237000Y0091000D03*
X0233000Y0091000D03*
X0229000Y0091000D03*
X0225000Y0091000D03*
X0225000Y0096500D03*
X0237000Y0096500D03*
X0237000Y0108500D03*
X0237000Y0114000D03*
X0233000Y0114000D03*
X0229000Y0114000D03*
X0225000Y0114000D03*
X0225000Y0108500D03*
X0269000Y0122000D02*
G75*
%LPD*%
D16*
X0263490Y0134540D02*
X0250510Y0134540D01*
X0263490Y0134540D02*
X0263490Y0127460D01*
X0250510Y0127460D01*
X0250510Y0134540D01*
X0261140Y0134540D02*
X0261140Y0127460D01*
X0258790Y0127460D02*
X0258790Y0134540D01*
X0256440Y0134540D02*
X0256440Y0127460D01*
X0254090Y0127460D02*
X0254090Y0134540D01*
X0251740Y0134540D02*
X0251740Y0127460D01*
X0250510Y0144460D02*
X0263490Y0144460D01*
X0250510Y0144460D02*
X0250510Y0151540D01*
X0263490Y0151540D01*
X0263490Y0144460D01*
X0261140Y0144460D02*
X0261140Y0151540D01*
X0258790Y0151540D02*
X0258790Y0144460D01*
X0256440Y0144460D02*
X0256440Y0151540D01*
X0254090Y0151540D02*
X0254090Y0144460D01*
X0251740Y0144460D02*
X0251740Y0151540D01*
D17*
X0263000Y0128000D03*
X0259000Y0128000D03*
X0255000Y0128000D03*
X0251000Y0128000D03*
X0251000Y0133500D03*
X0263000Y0133500D03*
X0263000Y0145500D03*
X0263000Y0151000D03*
X0259000Y0151000D03*
X0255000Y0151000D03*
X0251000Y0151000D03*
X0251000Y0145500D03*
X0217000Y0085000D02*
G75*
%LPD*%
D16*
X0211490Y0097540D02*
X0198510Y0097540D01*
X0211490Y0097540D02*
X0211490Y0090460D01*
X0198510Y0090460D01*
X0198510Y0097540D01*
X0209140Y0097540D02*
X0209140Y0090460D01*
X0206790Y0090460D02*
X0206790Y0097540D01*
X0204440Y0097540D02*
X0204440Y0090460D01*
X0202090Y0090460D02*
X0202090Y0097540D01*
X0199740Y0097540D02*
X0199740Y0090460D01*
X0198510Y0107460D02*
X0211490Y0107460D01*
X0198510Y0107460D02*
X0198510Y0114540D01*
X0211490Y0114540D01*
X0211490Y0107460D01*
X0209140Y0107460D02*
X0209140Y0114540D01*
X0206790Y0114540D02*
X0206790Y0107460D01*
X0204440Y0107460D02*
X0204440Y0114540D01*
X0202090Y0114540D02*
X0202090Y0107460D01*
X0199740Y0107460D02*
X0199740Y0114540D01*
D17*
X0211000Y0091000D03*
X0207000Y0091000D03*
X0203000Y0091000D03*
X0199000Y0091000D03*
X0199000Y0096500D03*
X0211000Y0096500D03*
X0211000Y0108500D03*
X0211000Y0114000D03*
X0207000Y0114000D03*
X0203000Y0114000D03*
X0199000Y0114000D03*
X0199000Y0108500D03*
X0243000Y0122000D02*
G75*
%LPD*%
D16*
X0237490Y0134540D02*
X0224510Y0134540D01*
X0237490Y0134540D02*
X0237490Y0127460D01*
X0224510Y0127460D01*
X0224510Y0134540D01*
X0235140Y0134540D02*
X0235140Y0127460D01*
X0232790Y0127460D02*
X0232790Y0134540D01*
X0230440Y0134540D02*
X0230440Y0127460D01*
X0228090Y0127460D02*
X0228090Y0134540D01*
X0225740Y0134540D02*
X0225740Y0127460D01*
X0224510Y0144460D02*
X0237490Y0144460D01*
X0224510Y0144460D02*
X0224510Y0151540D01*
X0237490Y0151540D01*
X0237490Y0144460D01*
X0235140Y0144460D02*
X0235140Y0151540D01*
X0232790Y0151540D02*
X0232790Y0144460D01*
X0230440Y0144460D02*
X0230440Y0151540D01*
X0228090Y0151540D02*
X0228090Y0144460D01*
X0225740Y0144460D02*
X0225740Y0151540D01*
D17*
X0237000Y0128000D03*
X0233000Y0128000D03*
X0229000Y0128000D03*
X0225000Y0128000D03*
X0225000Y0133500D03*
X0237000Y0133500D03*
X0237000Y0145500D03*
X0237000Y0151000D03*
X0233000Y0151000D03*
X0229000Y0151000D03*
X0225000Y0151000D03*
X0225000Y0145500D03*
X0191000Y0085000D02*
G75*
%LPD*%
D16*
X0185490Y0097540D02*
X0172510Y0097540D01*
X0185490Y0097540D02*
X0185490Y0090460D01*
X0172510Y0090460D01*
X0172510Y0097540D01*
X0183140Y0097540D02*
X0183140Y0090460D01*
X0180790Y0090460D02*
X0180790Y0097540D01*
X0178440Y0097540D02*
X0178440Y0090460D01*
X0176090Y0090460D02*
X0176090Y0097540D01*
X0173740Y0097540D02*
X0173740Y0090460D01*
X0172510Y0107460D02*
X0185490Y0107460D01*
X0172510Y0107460D02*
X0172510Y0114540D01*
X0185490Y0114540D01*
X0185490Y0107460D01*
X0183140Y0107460D02*
X0183140Y0114540D01*
X0180790Y0114540D02*
X0180790Y0107460D01*
X0178440Y0107460D02*
X0178440Y0114540D01*
X0176090Y0114540D02*
X0176090Y0107460D01*
X0173740Y0107460D02*
X0173740Y0114540D01*
D17*
X0185000Y0091000D03*
X0181000Y0091000D03*
X0177000Y0091000D03*
X0173000Y0091000D03*
X0173000Y0096500D03*
X0185000Y0096500D03*
X0185000Y0108500D03*
X0185000Y0114000D03*
X0181000Y0114000D03*
X0177000Y0114000D03*
X0173000Y0114000D03*
X0173000Y0108500D03*
X0217000Y0122000D02*
G75*
%LPD*%
D16*
X0211490Y0134540D02*
X0198510Y0134540D01*
X0211490Y0134540D02*
X0211490Y0127460D01*
X0198510Y0127460D01*
X0198510Y0134540D01*
X0209140Y0134540D02*
X0209140Y0127460D01*
X0206790Y0127460D02*
X0206790Y0134540D01*
X0204440Y0134540D02*
X0204440Y0127460D01*
X0202090Y0127460D02*
X0202090Y0134540D01*
X0199740Y0134540D02*
X0199740Y0127460D01*
X0198510Y0144460D02*
X0211490Y0144460D01*
X0198510Y0144460D02*
X0198510Y0151540D01*
X0211490Y0151540D01*
X0211490Y0144460D01*
X0209140Y0144460D02*
X0209140Y0151540D01*
X0206790Y0151540D02*
X0206790Y0144460D01*
X0204440Y0144460D02*
X0204440Y0151540D01*
X0202090Y0151540D02*
X0202090Y0144460D01*
X0199740Y0144460D02*
X0199740Y0151540D01*
D17*
X0211000Y0128000D03*
X0207000Y0128000D03*
X0203000Y0128000D03*
X0199000Y0128000D03*
X0199000Y0133500D03*
X0211000Y0133500D03*
X0211000Y0145500D03*
X0211000Y0151000D03*
X0207000Y0151000D03*
X0203000Y0151000D03*
X0199000Y0151000D03*
X0199000Y0145500D03*
X0191000Y0122000D02*
G75*
%LPD*%
D16*
X0185490Y0134540D02*
X0172510Y0134540D01*
X0185490Y0134540D02*
X0185490Y0127460D01*
X0172510Y0127460D01*
X0172510Y0134540D01*
X0183140Y0134540D02*
X0183140Y0127460D01*
X0180790Y0127460D02*
X0180790Y0134540D01*
X0178440Y0134540D02*
X0178440Y0127460D01*
X0176090Y0127460D02*
X0176090Y0134540D01*
X0173740Y0134540D02*
X0173740Y0127460D01*
X0172510Y0144460D02*
X0185490Y0144460D01*
X0172510Y0144460D02*
X0172510Y0151540D01*
X0185490Y0151540D01*
X0185490Y0144460D01*
X0183140Y0144460D02*
X0183140Y0151540D01*
X0180790Y0151540D02*
X0180790Y0144460D01*
X0178440Y0144460D02*
X0178440Y0151540D01*
X0176090Y0151540D02*
X0176090Y0144460D01*
X0173740Y0144460D02*
X0173740Y0151540D01*
D17*
X0185000Y0128000D03*
X0181000Y0128000D03*
X0177000Y0128000D03*
X0173000Y0128000D03*
X0173000Y0133500D03*
X0185000Y0133500D03*
X0185000Y0145500D03*
X0185000Y0151000D03*
X0181000Y0151000D03*
X0177000Y0151000D03*
X0173000Y0151000D03*
X0173000Y0145500D03*
X0165000Y0085000D02*
G75*
%LPD*%
D16*
X0159490Y0097540D02*
X0146510Y0097540D01*
X0159490Y0097540D02*
X0159490Y0090460D01*
X0146510Y0090460D01*
X0146510Y0097540D01*
X0157140Y0097540D02*
X0157140Y0090460D01*
X0154790Y0090460D02*
X0154790Y0097540D01*
X0152440Y0097540D02*
X0152440Y0090460D01*
X0150090Y0090460D02*
X0150090Y0097540D01*
X0147740Y0097540D02*
X0147740Y0090460D01*
X0146510Y0107460D02*
X0159490Y0107460D01*
X0146510Y0107460D02*
X0146510Y0114540D01*
X0159490Y0114540D01*
X0159490Y0107460D01*
X0157140Y0107460D02*
X0157140Y0114540D01*
X0154790Y0114540D02*
X0154790Y0107460D01*
X0152440Y0107460D02*
X0152440Y0114540D01*
X0150090Y0114540D02*
X0150090Y0107460D01*
X0147740Y0107460D02*
X0147740Y0114540D01*
D17*
X0159000Y0091000D03*
X0155000Y0091000D03*
X0151000Y0091000D03*
X0147000Y0091000D03*
X0147000Y0096500D03*
X0159000Y0096500D03*
X0159000Y0108500D03*
X0159000Y0114000D03*
X0155000Y0114000D03*
X0151000Y0114000D03*
X0147000Y0114000D03*
X0147000Y0108500D03*
X0165000Y0122000D02*
G75*
%LPD*%
D16*
X0159490Y0134540D02*
X0146510Y0134540D01*
X0159490Y0134540D02*
X0159490Y0127460D01*
X0146510Y0127460D01*
X0146510Y0134540D01*
X0157140Y0134540D02*
X0157140Y0127460D01*
X0154790Y0127460D02*
X0154790Y0134540D01*
X0152440Y0134540D02*
X0152440Y0127460D01*
X0150090Y0127460D02*
X0150090Y0134540D01*
X0147740Y0134540D02*
X0147740Y0127460D01*
X0146510Y0144460D02*
X0159490Y0144460D01*
X0146510Y0144460D02*
X0146510Y0151540D01*
X0159490Y0151540D01*
X0159490Y0144460D01*
X0157140Y0144460D02*
X0157140Y0151540D01*
X0154790Y0151540D02*
X0154790Y0144460D01*
X0152440Y0144460D02*
X0152440Y0151540D01*
X0150090Y0151540D02*
X0150090Y0144460D01*
X0147740Y0144460D02*
X0147740Y0151540D01*
D17*
X0159000Y0128000D03*
X0155000Y0128000D03*
X0151000Y0128000D03*
X0147000Y0128000D03*
X0147000Y0133500D03*
X0159000Y0133500D03*
X0159000Y0145500D03*
X0159000Y0151000D03*
X0155000Y0151000D03*
X0151000Y0151000D03*
X0147000Y0151000D03*
X0147000Y0145500D03*
X0011000Y0159000D02*
G75*
%LPD*%
X0139000Y0159000D02*
G75*
%LPD*%
D16*
X0133490Y0171540D02*
X0120510Y0171540D01*
X0133490Y0171540D02*
X0133490Y0164460D01*
X0120510Y0164460D01*
X0120510Y0171540D01*
X0131140Y0171540D02*
X0131140Y0164460D01*
X0128790Y0164460D02*
X0128790Y0171540D01*
X0126440Y0171540D02*
X0126440Y0164460D01*
X0124090Y0164460D02*
X0124090Y0171540D01*
X0121740Y0171540D02*
X0121740Y0164460D01*
X0120510Y0181460D02*
X0133490Y0181460D01*
X0120510Y0181460D02*
X0120510Y0188540D01*
X0133490Y0188540D01*
X0133490Y0181460D01*
X0131140Y0181460D02*
X0131140Y0188540D01*
X0128790Y0188540D02*
X0128790Y0181460D01*
X0126440Y0181460D02*
X0126440Y0188540D01*
X0124090Y0188540D02*
X0124090Y0181460D01*
X0121740Y0181460D02*
X0121740Y0188540D01*
D17*
X0133000Y0165000D03*
X0129000Y0165000D03*
X0125000Y0165000D03*
X0121000Y0165000D03*
X0121000Y0170500D03*
X0133000Y0170500D03*
X0133000Y0182500D03*
X0133000Y0188000D03*
X0129000Y0188000D03*
X0125000Y0188000D03*
X0121000Y0188000D03*
X0121000Y0182500D03*
X0113000Y0159000D02*
G75*
%LPD*%
D16*
X0107490Y0171540D02*
X0094510Y0171540D01*
X0107490Y0171540D02*
X0107490Y0164460D01*
X0094510Y0164460D01*
X0094510Y0171540D01*
X0105140Y0171540D02*
X0105140Y0164460D01*
X0102790Y0164460D02*
X0102790Y0171540D01*
X0100440Y0171540D02*
X0100440Y0164460D01*
X0098090Y0164460D02*
X0098090Y0171540D01*
X0095740Y0171540D02*
X0095740Y0164460D01*
X0094510Y0181460D02*
X0107490Y0181460D01*
X0094510Y0181460D02*
X0094510Y0188540D01*
X0107490Y0188540D01*
X0107490Y0181460D01*
X0105140Y0181460D02*
X0105140Y0188540D01*
X0102790Y0188540D02*
X0102790Y0181460D01*
X0100440Y0181460D02*
X0100440Y0188540D01*
X0098090Y0188540D02*
X0098090Y0181460D01*
X0095740Y0181460D02*
X0095740Y0188540D01*
D17*
X0107000Y0165000D03*
X0103000Y0165000D03*
X0099000Y0165000D03*
X0095000Y0165000D03*
X0095000Y0170500D03*
X0107000Y0170500D03*
X0107000Y0182500D03*
X0107000Y0188000D03*
X0103000Y0188000D03*
X0099000Y0188000D03*
X0095000Y0188000D03*
X0095000Y0182500D03*
X0139000Y0196000D02*
G75*
%LPD*%
D16*
X0133490Y0208540D02*
X0120510Y0208540D01*
X0133490Y0208540D02*
X0133490Y0201460D01*
X0120510Y0201460D01*
X0120510Y0208540D01*
X0131140Y0208540D02*
X0131140Y0201460D01*
X0128790Y0201460D02*
X0128790Y0208540D01*
X0126440Y0208540D02*
X0126440Y0201460D01*
X0124090Y0201460D02*
X0124090Y0208540D01*
X0121740Y0208540D02*
X0121740Y0201460D01*
X0120510Y0218460D02*
X0133490Y0218460D01*
X0120510Y0218460D02*
X0120510Y0225540D01*
X0133490Y0225540D01*
X0133490Y0218460D01*
X0131140Y0218460D02*
X0131140Y0225540D01*
X0128790Y0225540D02*
X0128790Y0218460D01*
X0126440Y0218460D02*
X0126440Y0225540D01*
X0124090Y0225540D02*
X0124090Y0218460D01*
X0121740Y0218460D02*
X0121740Y0225540D01*
D17*
X0133000Y0202000D03*
X0129000Y0202000D03*
X0125000Y0202000D03*
X0121000Y0202000D03*
X0121000Y0207500D03*
X0133000Y0207500D03*
X0133000Y0219500D03*
X0133000Y0225000D03*
X0129000Y0225000D03*
X0125000Y0225000D03*
X0121000Y0225000D03*
X0121000Y0219500D03*
X0087000Y0159000D02*
G75*
%LPD*%
D16*
X0081490Y0171540D02*
X0068510Y0171540D01*
X0081490Y0171540D02*
X0081490Y0164460D01*
X0068510Y0164460D01*
X0068510Y0171540D01*
X0079140Y0171540D02*
X0079140Y0164460D01*
X0076790Y0164460D02*
X0076790Y0171540D01*
X0074440Y0171540D02*
X0074440Y0164460D01*
X0072090Y0164460D02*
X0072090Y0171540D01*
X0069740Y0171540D02*
X0069740Y0164460D01*
X0068510Y0181460D02*
X0081490Y0181460D01*
X0068510Y0181460D02*
X0068510Y0188540D01*
X0081490Y0188540D01*
X0081490Y0181460D01*
X0079140Y0181460D02*
X0079140Y0188540D01*
X0076790Y0188540D02*
X0076790Y0181460D01*
X0074440Y0181460D02*
X0074440Y0188540D01*
X0072090Y0188540D02*
X0072090Y0181460D01*
X0069740Y0181460D02*
X0069740Y0188540D01*
D17*
X0081000Y0165000D03*
X0077000Y0165000D03*
X0073000Y0165000D03*
X0069000Y0165000D03*
X0069000Y0170500D03*
X0081000Y0170500D03*
X0081000Y0182500D03*
X0081000Y0188000D03*
X0077000Y0188000D03*
X0073000Y0188000D03*
X0069000Y0188000D03*
X0069000Y0182500D03*
X0113000Y0196000D02*
G75*
%LPD*%
D16*
X0107490Y0208540D02*
X0094510Y0208540D01*
X0107490Y0208540D02*
X0107490Y0201460D01*
X0094510Y0201460D01*
X0094510Y0208540D01*
X0105140Y0208540D02*
X0105140Y0201460D01*
X0102790Y0201460D02*
X0102790Y0208540D01*
X0100440Y0208540D02*
X0100440Y0201460D01*
X0098090Y0201460D02*
X0098090Y0208540D01*
X0095740Y0208540D02*
X0095740Y0201460D01*
X0094510Y0218460D02*
X0107490Y0218460D01*
X0094510Y0218460D02*
X0094510Y0225540D01*
X0107490Y0225540D01*
X0107490Y0218460D01*
X0105140Y0218460D02*
X0105140Y0225540D01*
X0102790Y0225540D02*
X0102790Y0218460D01*
X0100440Y0218460D02*
X0100440Y0225540D01*
X0098090Y0225540D02*
X0098090Y0218460D01*
X0095740Y0218460D02*
X0095740Y0225540D01*
D17*
X0107000Y0202000D03*
X0103000Y0202000D03*
X0099000Y0202000D03*
X0095000Y0202000D03*
X0095000Y0207500D03*
X0107000Y0207500D03*
X0107000Y0219500D03*
X0107000Y0225000D03*
X0103000Y0225000D03*
X0099000Y0225000D03*
X0095000Y0225000D03*
X0095000Y0219500D03*
X0061000Y0159000D02*
G75*
%LPD*%
D16*
X0055490Y0171540D02*
X0042510Y0171540D01*
X0055490Y0171540D02*
X0055490Y0164460D01*
X0042510Y0164460D01*
X0042510Y0171540D01*
X0053140Y0171540D02*
X0053140Y0164460D01*
X0050790Y0164460D02*
X0050790Y0171540D01*
X0048440Y0171540D02*
X0048440Y0164460D01*
X0046090Y0164460D02*
X0046090Y0171540D01*
X0043740Y0171540D02*
X0043740Y0164460D01*
X0042510Y0181460D02*
X0055490Y0181460D01*
X0042510Y0181460D02*
X0042510Y0188540D01*
X0055490Y0188540D01*
X0055490Y0181460D01*
X0053140Y0181460D02*
X0053140Y0188540D01*
X0050790Y0188540D02*
X0050790Y0181460D01*
X0048440Y0181460D02*
X0048440Y0188540D01*
X0046090Y0188540D02*
X0046090Y0181460D01*
X0043740Y0181460D02*
X0043740Y0188540D01*
D17*
X0055000Y0165000D03*
X0051000Y0165000D03*
X0047000Y0165000D03*
X0043000Y0165000D03*
X0043000Y0170500D03*
X0055000Y0170500D03*
X0055000Y0182500D03*
X0055000Y0188000D03*
X0051000Y0188000D03*
X0047000Y0188000D03*
X0043000Y0188000D03*
X0043000Y0182500D03*
X0087000Y0196000D02*
G75*
%LPD*%
D16*
X0081490Y0208540D02*
X0068510Y0208540D01*
X0081490Y0208540D02*
X0081490Y0201460D01*
X0068510Y0201460D01*
X0068510Y0208540D01*
X0079140Y0208540D02*
X0079140Y0201460D01*
X0076790Y0201460D02*
X0076790Y0208540D01*
X0074440Y0208540D02*
X0074440Y0201460D01*
X0072090Y0201460D02*
X0072090Y0208540D01*
X0069740Y0208540D02*
X0069740Y0201460D01*
X0068510Y0218460D02*
X0081490Y0218460D01*
X0068510Y0218460D02*
X0068510Y0225540D01*
X0081490Y0225540D01*
X0081490Y0218460D01*
X0079140Y0218460D02*
X0079140Y0225540D01*
X0076790Y0225540D02*
X0076790Y0218460D01*
X0074440Y0218460D02*
X0074440Y0225540D01*
X0072090Y0225540D02*
X0072090Y0218460D01*
X0069740Y0218460D02*
X0069740Y0225540D01*
D17*
X0081000Y0202000D03*
X0077000Y0202000D03*
X0073000Y0202000D03*
X0069000Y0202000D03*
X0069000Y0207500D03*
X0081000Y0207500D03*
X0081000Y0219500D03*
X0081000Y0225000D03*
X0077000Y0225000D03*
X0073000Y0225000D03*
X0069000Y0225000D03*
X0069000Y0219500D03*
X0061000Y0196000D02*
G75*
%LPD*%
D16*
X0055490Y0208540D02*
X0042510Y0208540D01*
X0055490Y0208540D02*
X0055490Y0201460D01*
X0042510Y0201460D01*
X0042510Y0208540D01*
X0053140Y0208540D02*
X0053140Y0201460D01*
X0050790Y0201460D02*
X0050790Y0208540D01*
X0048440Y0208540D02*
X0048440Y0201460D01*
X0046090Y0201460D02*
X0046090Y0208540D01*
X0043740Y0208540D02*
X0043740Y0201460D01*
X0042510Y0218460D02*
X0055490Y0218460D01*
X0042510Y0218460D02*
X0042510Y0225540D01*
X0055490Y0225540D01*
X0055490Y0218460D01*
X0053140Y0218460D02*
X0053140Y0225540D01*
X0050790Y0225540D02*
X0050790Y0218460D01*
X0048440Y0218460D02*
X0048440Y0225540D01*
X0046090Y0225540D02*
X0046090Y0218460D01*
X0043740Y0218460D02*
X0043740Y0225540D01*
D17*
X0055000Y0202000D03*
X0051000Y0202000D03*
X0047000Y0202000D03*
X0043000Y0202000D03*
X0043000Y0207500D03*
X0055000Y0207500D03*
X0055000Y0219500D03*
X0055000Y0225000D03*
X0051000Y0225000D03*
X0047000Y0225000D03*
X0043000Y0225000D03*
X0043000Y0219500D03*
X0035000Y0159000D02*
G75*
%LPD*%
D16*
X0029490Y0171540D02*
X0016510Y0171540D01*
X0029490Y0171540D02*
X0029490Y0164460D01*
X0016510Y0164460D01*
X0016510Y0171540D01*
X0027140Y0171540D02*
X0027140Y0164460D01*
X0024790Y0164460D02*
X0024790Y0171540D01*
X0022440Y0171540D02*
X0022440Y0164460D01*
X0020090Y0164460D02*
X0020090Y0171540D01*
X0017740Y0171540D02*
X0017740Y0164460D01*
X0016510Y0181460D02*
X0029490Y0181460D01*
X0016510Y0181460D02*
X0016510Y0188540D01*
X0029490Y0188540D01*
X0029490Y0181460D01*
X0027140Y0181460D02*
X0027140Y0188540D01*
X0024790Y0188540D02*
X0024790Y0181460D01*
X0022440Y0181460D02*
X0022440Y0188540D01*
X0020090Y0188540D02*
X0020090Y0181460D01*
X0017740Y0181460D02*
X0017740Y0188540D01*
D17*
X0029000Y0165000D03*
X0025000Y0165000D03*
X0021000Y0165000D03*
X0017000Y0165000D03*
X0017000Y0170500D03*
X0029000Y0170500D03*
X0029000Y0182500D03*
X0029000Y0188000D03*
X0025000Y0188000D03*
X0021000Y0188000D03*
X0017000Y0188000D03*
X0017000Y0182500D03*
X0035000Y0196000D02*
G75*
%LPD*%
D16*
X0029490Y0208540D02*
X0016510Y0208540D01*
X0029490Y0208540D02*
X0029490Y0201460D01*
X0016510Y0201460D01*
X0016510Y0208540D01*
X0027140Y0208540D02*
X0027140Y0201460D01*
X0024790Y0201460D02*
X0024790Y0208540D01*
X0022440Y0208540D02*
X0022440Y0201460D01*
X0020090Y0201460D02*
X0020090Y0208540D01*
X0017740Y0208540D02*
X0017740Y0201460D01*
X0016510Y0218460D02*
X0029490Y0218460D01*
X0016510Y0218460D02*
X0016510Y0225540D01*
X0029490Y0225540D01*
X0029490Y0218460D01*
X0027140Y0218460D02*
X0027140Y0225540D01*
X0024790Y0225540D02*
X0024790Y0218460D01*
X0022440Y0218460D02*
X0022440Y0225540D01*
X0020090Y0225540D02*
X0020090Y0218460D01*
X0017740Y0218460D02*
X0017740Y0225540D01*
D17*
X0029000Y0202000D03*
X0025000Y0202000D03*
X0021000Y0202000D03*
X0017000Y0202000D03*
X0017000Y0207500D03*
X0029000Y0207500D03*
X0029000Y0219500D03*
X0029000Y0225000D03*
X0025000Y0225000D03*
X0021000Y0225000D03*
X0017000Y0225000D03*
X0017000Y0219500D03*
X0141000Y0159000D02*
G75*
%LPD*%
X0269000Y0159000D02*
G75*
%LPD*%
D16*
X0263490Y0171540D02*
X0250510Y0171540D01*
X0263490Y0171540D02*
X0263490Y0164460D01*
X0250510Y0164460D01*
X0250510Y0171540D01*
X0261140Y0171540D02*
X0261140Y0164460D01*
X0258790Y0164460D02*
X0258790Y0171540D01*
X0256440Y0171540D02*
X0256440Y0164460D01*
X0254090Y0164460D02*
X0254090Y0171540D01*
X0251740Y0171540D02*
X0251740Y0164460D01*
X0250510Y0181460D02*
X0263490Y0181460D01*
X0250510Y0181460D02*
X0250510Y0188540D01*
X0263490Y0188540D01*
X0263490Y0181460D01*
X0261140Y0181460D02*
X0261140Y0188540D01*
X0258790Y0188540D02*
X0258790Y0181460D01*
X0256440Y0181460D02*
X0256440Y0188540D01*
X0254090Y0188540D02*
X0254090Y0181460D01*
X0251740Y0181460D02*
X0251740Y0188540D01*
D17*
X0263000Y0165000D03*
X0259000Y0165000D03*
X0255000Y0165000D03*
X0251000Y0165000D03*
X0251000Y0170500D03*
X0263000Y0170500D03*
X0263000Y0182500D03*
X0263000Y0188000D03*
X0259000Y0188000D03*
X0255000Y0188000D03*
X0251000Y0188000D03*
X0251000Y0182500D03*
X0243000Y0159000D02*
G75*
%LPD*%
D16*
X0237490Y0171540D02*
X0224510Y0171540D01*
X0237490Y0171540D02*
X0237490Y0164460D01*
X0224510Y0164460D01*
X0224510Y0171540D01*
X0235140Y0171540D02*
X0235140Y0164460D01*
X0232790Y0164460D02*
X0232790Y0171540D01*
X0230440Y0171540D02*
X0230440Y0164460D01*
X0228090Y0164460D02*
X0228090Y0171540D01*
X0225740Y0171540D02*
X0225740Y0164460D01*
X0224510Y0181460D02*
X0237490Y0181460D01*
X0224510Y0181460D02*
X0224510Y0188540D01*
X0237490Y0188540D01*
X0237490Y0181460D01*
X0235140Y0181460D02*
X0235140Y0188540D01*
X0232790Y0188540D02*
X0232790Y0181460D01*
X0230440Y0181460D02*
X0230440Y0188540D01*
X0228090Y0188540D02*
X0228090Y0181460D01*
X0225740Y0181460D02*
X0225740Y0188540D01*
D17*
X0237000Y0165000D03*
X0233000Y0165000D03*
X0229000Y0165000D03*
X0225000Y0165000D03*
X0225000Y0170500D03*
X0237000Y0170500D03*
X0237000Y0182500D03*
X0237000Y0188000D03*
X0233000Y0188000D03*
X0229000Y0188000D03*
X0225000Y0188000D03*
X0225000Y0182500D03*
X0269000Y0196000D02*
G75*
%LPD*%
D16*
X0263490Y0208540D02*
X0250510Y0208540D01*
X0263490Y0208540D02*
X0263490Y0201460D01*
X0250510Y0201460D01*
X0250510Y0208540D01*
X0261140Y0208540D02*
X0261140Y0201460D01*
X0258790Y0201460D02*
X0258790Y0208540D01*
X0256440Y0208540D02*
X0256440Y0201460D01*
X0254090Y0201460D02*
X0254090Y0208540D01*
X0251740Y0208540D02*
X0251740Y0201460D01*
X0250510Y0218460D02*
X0263490Y0218460D01*
X0250510Y0218460D02*
X0250510Y0225540D01*
X0263490Y0225540D01*
X0263490Y0218460D01*
X0261140Y0218460D02*
X0261140Y0225540D01*
X0258790Y0225540D02*
X0258790Y0218460D01*
X0256440Y0218460D02*
X0256440Y0225540D01*
X0254090Y0225540D02*
X0254090Y0218460D01*
X0251740Y0218460D02*
X0251740Y0225540D01*
D17*
X0263000Y0202000D03*
X0259000Y0202000D03*
X0255000Y0202000D03*
X0251000Y0202000D03*
X0251000Y0207500D03*
X0263000Y0207500D03*
X0263000Y0219500D03*
X0263000Y0225000D03*
X0259000Y0225000D03*
X0255000Y0225000D03*
X0251000Y0225000D03*
X0251000Y0219500D03*
X0217000Y0159000D02*
G75*
%LPD*%
D16*
X0211490Y0171540D02*
X0198510Y0171540D01*
X0211490Y0171540D02*
X0211490Y0164460D01*
X0198510Y0164460D01*
X0198510Y0171540D01*
X0209140Y0171540D02*
X0209140Y0164460D01*
X0206790Y0164460D02*
X0206790Y0171540D01*
X0204440Y0171540D02*
X0204440Y0164460D01*
X0202090Y0164460D02*
X0202090Y0171540D01*
X0199740Y0171540D02*
X0199740Y0164460D01*
X0198510Y0181460D02*
X0211490Y0181460D01*
X0198510Y0181460D02*
X0198510Y0188540D01*
X0211490Y0188540D01*
X0211490Y0181460D01*
X0209140Y0181460D02*
X0209140Y0188540D01*
X0206790Y0188540D02*
X0206790Y0181460D01*
X0204440Y0181460D02*
X0204440Y0188540D01*
X0202090Y0188540D02*
X0202090Y0181460D01*
X0199740Y0181460D02*
X0199740Y0188540D01*
D17*
X0211000Y0165000D03*
X0207000Y0165000D03*
X0203000Y0165000D03*
X0199000Y0165000D03*
X0199000Y0170500D03*
X0211000Y0170500D03*
X0211000Y0182500D03*
X0211000Y0188000D03*
X0207000Y0188000D03*
X0203000Y0188000D03*
X0199000Y0188000D03*
X0199000Y0182500D03*
X0243000Y0196000D02*
G75*
%LPD*%
D16*
X0237490Y0208540D02*
X0224510Y0208540D01*
X0237490Y0208540D02*
X0237490Y0201460D01*
X0224510Y0201460D01*
X0224510Y0208540D01*
X0235140Y0208540D02*
X0235140Y0201460D01*
X0232790Y0201460D02*
X0232790Y0208540D01*
X0230440Y0208540D02*
X0230440Y0201460D01*
X0228090Y0201460D02*
X0228090Y0208540D01*
X0225740Y0208540D02*
X0225740Y0201460D01*
X0224510Y0218460D02*
X0237490Y0218460D01*
X0224510Y0218460D02*
X0224510Y0225540D01*
X0237490Y0225540D01*
X0237490Y0218460D01*
X0235140Y0218460D02*
X0235140Y0225540D01*
X0232790Y0225540D02*
X0232790Y0218460D01*
X0230440Y0218460D02*
X0230440Y0225540D01*
X0228090Y0225540D02*
X0228090Y0218460D01*
X0225740Y0218460D02*
X0225740Y0225540D01*
D17*
X0237000Y0202000D03*
X0233000Y0202000D03*
X0229000Y0202000D03*
X0225000Y0202000D03*
X0225000Y0207500D03*
X0237000Y0207500D03*
X0237000Y0219500D03*
X0237000Y0225000D03*
X0233000Y0225000D03*
X0229000Y0225000D03*
X0225000Y0225000D03*
X0225000Y0219500D03*
X0191000Y0159000D02*
G75*
%LPD*%
D16*
X0185490Y0171540D02*
X0172510Y0171540D01*
X0185490Y0171540D02*
X0185490Y0164460D01*
X0172510Y0164460D01*
X0172510Y0171540D01*
X0183140Y0171540D02*
X0183140Y0164460D01*
X0180790Y0164460D02*
X0180790Y0171540D01*
X0178440Y0171540D02*
X0178440Y0164460D01*
X0176090Y0164460D02*
X0176090Y0171540D01*
X0173740Y0171540D02*
X0173740Y0164460D01*
X0172510Y0181460D02*
X0185490Y0181460D01*
X0172510Y0181460D02*
X0172510Y0188540D01*
X0185490Y0188540D01*
X0185490Y0181460D01*
X0183140Y0181460D02*
X0183140Y0188540D01*
X0180790Y0188540D02*
X0180790Y0181460D01*
X0178440Y0181460D02*
X0178440Y0188540D01*
X0176090Y0188540D02*
X0176090Y0181460D01*
X0173740Y0181460D02*
X0173740Y0188540D01*
D17*
X0185000Y0165000D03*
X0181000Y0165000D03*
X0177000Y0165000D03*
X0173000Y0165000D03*
X0173000Y0170500D03*
X0185000Y0170500D03*
X0185000Y0182500D03*
X0185000Y0188000D03*
X0181000Y0188000D03*
X0177000Y0188000D03*
X0173000Y0188000D03*
X0173000Y0182500D03*
X0217000Y0196000D02*
G75*
%LPD*%
D16*
X0211490Y0208540D02*
X0198510Y0208540D01*
X0211490Y0208540D02*
X0211490Y0201460D01*
X0198510Y0201460D01*
X0198510Y0208540D01*
X0209140Y0208540D02*
X0209140Y0201460D01*
X0206790Y0201460D02*
X0206790Y0208540D01*
X0204440Y0208540D02*
X0204440Y0201460D01*
X0202090Y0201460D02*
X0202090Y0208540D01*
X0199740Y0208540D02*
X0199740Y0201460D01*
X0198510Y0218460D02*
X0211490Y0218460D01*
X0198510Y0218460D02*
X0198510Y0225540D01*
X0211490Y0225540D01*
X0211490Y0218460D01*
X0209140Y0218460D02*
X0209140Y0225540D01*
X0206790Y0225540D02*
X0206790Y0218460D01*
X0204440Y0218460D02*
X0204440Y0225540D01*
X0202090Y0225540D02*
X0202090Y0218460D01*
X0199740Y0218460D02*
X0199740Y0225540D01*
D17*
X0211000Y0202000D03*
X0207000Y0202000D03*
X0203000Y0202000D03*
X0199000Y0202000D03*
X0199000Y0207500D03*
X0211000Y0207500D03*
X0211000Y0219500D03*
X0211000Y0225000D03*
X0207000Y0225000D03*
X0203000Y0225000D03*
X0199000Y0225000D03*
X0199000Y0219500D03*
X0191000Y0196000D02*
G75*
%LPD*%
D16*
X0185490Y0208540D02*
X0172510Y0208540D01*
X0185490Y0208540D02*
X0185490Y0201460D01*
X0172510Y0201460D01*
X0172510Y0208540D01*
X0183140Y0208540D02*
X0183140Y0201460D01*
X0180790Y0201460D02*
X0180790Y0208540D01*
X0178440Y0208540D02*
X0178440Y0201460D01*
X0176090Y0201460D02*
X0176090Y0208540D01*
X0173740Y0208540D02*
X0173740Y0201460D01*
X0172510Y0218460D02*
X0185490Y0218460D01*
X0172510Y0218460D02*
X0172510Y0225540D01*
X0185490Y0225540D01*
X0185490Y0218460D01*
X0183140Y0218460D02*
X0183140Y0225540D01*
X0180790Y0225540D02*
X0180790Y0218460D01*
X0178440Y0218460D02*
X0178440Y0225540D01*
X0176090Y0225540D02*
X0176090Y0218460D01*
X0173740Y0218460D02*
X0173740Y0225540D01*
D17*
X0185000Y0202000D03*
X0181000Y0202000D03*
X0177000Y0202000D03*
X0173000Y0202000D03*
X0173000Y0207500D03*
X0185000Y0207500D03*
X0185000Y0219500D03*
X0185000Y0225000D03*
X0181000Y0225000D03*
X0177000Y0225000D03*
X0173000Y0225000D03*
X0173000Y0219500D03*
X0165000Y0159000D02*
G75*
%LPD*%
D16*
X0159490Y0171540D02*
X0146510Y0171540D01*
X0159490Y0171540D02*
X0159490Y0164460D01*
X0146510Y0164460D01*
X0146510Y0171540D01*
X0157140Y0171540D02*
X0157140Y0164460D01*
X0154790Y0164460D02*
X0154790Y0171540D01*
X0152440Y0171540D02*
X0152440Y0164460D01*
X0150090Y0164460D02*
X0150090Y0171540D01*
X0147740Y0171540D02*
X0147740Y0164460D01*
X0146510Y0181460D02*
X0159490Y0181460D01*
X0146510Y0181460D02*
X0146510Y0188540D01*
X0159490Y0188540D01*
X0159490Y0181460D01*
X0157140Y0181460D02*
X0157140Y0188540D01*
X0154790Y0188540D02*
X0154790Y0181460D01*
X0152440Y0181460D02*
X0152440Y0188540D01*
X0150090Y0188540D02*
X0150090Y0181460D01*
X0147740Y0181460D02*
X0147740Y0188540D01*
D17*
X0159000Y0165000D03*
X0155000Y0165000D03*
X0151000Y0165000D03*
X0147000Y0165000D03*
X0147000Y0170500D03*
X0159000Y0170500D03*
X0159000Y0182500D03*
X0159000Y0188000D03*
X0155000Y0188000D03*
X0151000Y0188000D03*
X0147000Y0188000D03*
X0147000Y0182500D03*
X0165000Y0196000D02*
G75*
%LPD*%
D16*
X0159490Y0208540D02*
X0146510Y0208540D01*
X0159490Y0208540D02*
X0159490Y0201460D01*
X0146510Y0201460D01*
X0146510Y0208540D01*
X0157140Y0208540D02*
X0157140Y0201460D01*
X0154790Y0201460D02*
X0154790Y0208540D01*
X0152440Y0208540D02*
X0152440Y0201460D01*
X0150090Y0201460D02*
X0150090Y0208540D01*
X0147740Y0208540D02*
X0147740Y0201460D01*
X0146510Y0218460D02*
X0159490Y0218460D01*
X0146510Y0218460D02*
X0146510Y0225540D01*
X0159490Y0225540D01*
X0159490Y0218460D01*
X0157140Y0218460D02*
X0157140Y0225540D01*
X0154790Y0225540D02*
X0154790Y0218460D01*
X0152440Y0218460D02*
X0152440Y0225540D01*
X0150090Y0225540D02*
X0150090Y0218460D01*
X0147740Y0218460D02*
X0147740Y0225540D01*
D17*
X0159000Y0202000D03*
X0155000Y0202000D03*
X0151000Y0202000D03*
X0147000Y0202000D03*
X0147000Y0207500D03*
X0159000Y0207500D03*
X0159000Y0219500D03*
X0159000Y0225000D03*
X0155000Y0225000D03*
X0151000Y0225000D03*
X0147000Y0225000D03*
X0147000Y0219500D03*
X0011000Y0233000D02*
G75*
%LPD*%
X0139000Y0233000D02*
G75*
%LPD*%
D16*
X0133490Y0245540D02*
X0120510Y0245540D01*
X0133490Y0245540D02*
X0133490Y0238460D01*
X0120510Y0238460D01*
X0120510Y0245540D01*
X0131140Y0245540D02*
X0131140Y0238460D01*
X0128790Y0238460D02*
X0128790Y0245540D01*
X0126440Y0245540D02*
X0126440Y0238460D01*
X0124090Y0238460D02*
X0124090Y0245540D01*
X0121740Y0245540D02*
X0121740Y0238460D01*
X0120510Y0255460D02*
X0133490Y0255460D01*
X0120510Y0255460D02*
X0120510Y0262540D01*
X0133490Y0262540D01*
X0133490Y0255460D01*
X0131140Y0255460D02*
X0131140Y0262540D01*
X0128790Y0262540D02*
X0128790Y0255460D01*
X0126440Y0255460D02*
X0126440Y0262540D01*
X0124090Y0262540D02*
X0124090Y0255460D01*
X0121740Y0255460D02*
X0121740Y0262540D01*
D17*
X0133000Y0239000D03*
X0129000Y0239000D03*
X0125000Y0239000D03*
X0121000Y0239000D03*
X0121000Y0244500D03*
X0133000Y0244500D03*
X0133000Y0256500D03*
X0133000Y0262000D03*
X0129000Y0262000D03*
X0125000Y0262000D03*
X0121000Y0262000D03*
X0121000Y0256500D03*
X0113000Y0233000D02*
G75*
%LPD*%
D16*
X0107490Y0245540D02*
X0094510Y0245540D01*
X0107490Y0245540D02*
X0107490Y0238460D01*
X0094510Y0238460D01*
X0094510Y0245540D01*
X0105140Y0245540D02*
X0105140Y0238460D01*
X0102790Y0238460D02*
X0102790Y0245540D01*
X0100440Y0245540D02*
X0100440Y0238460D01*
X0098090Y0238460D02*
X0098090Y0245540D01*
X0095740Y0245540D02*
X0095740Y0238460D01*
X0094510Y0255460D02*
X0107490Y0255460D01*
X0094510Y0255460D02*
X0094510Y0262540D01*
X0107490Y0262540D01*
X0107490Y0255460D01*
X0105140Y0255460D02*
X0105140Y0262540D01*
X0102790Y0262540D02*
X0102790Y0255460D01*
X0100440Y0255460D02*
X0100440Y0262540D01*
X0098090Y0262540D02*
X0098090Y0255460D01*
X0095740Y0255460D02*
X0095740Y0262540D01*
D17*
X0107000Y0239000D03*
X0103000Y0239000D03*
X0099000Y0239000D03*
X0095000Y0239000D03*
X0095000Y0244500D03*
X0107000Y0244500D03*
X0107000Y0256500D03*
X0107000Y0262000D03*
X0103000Y0262000D03*
X0099000Y0262000D03*
X0095000Y0262000D03*
X0095000Y0256500D03*
X0139000Y0270000D02*
G75*
%LPD*%
D16*
X0133490Y0282540D02*
X0120510Y0282540D01*
X0133490Y0282540D02*
X0133490Y0275460D01*
X0120510Y0275460D01*
X0120510Y0282540D01*
X0131140Y0282540D02*
X0131140Y0275460D01*
X0128790Y0275460D02*
X0128790Y0282540D01*
X0126440Y0282540D02*
X0126440Y0275460D01*
X0124090Y0275460D02*
X0124090Y0282540D01*
X0121740Y0282540D02*
X0121740Y0275460D01*
X0120510Y0292460D02*
X0133490Y0292460D01*
X0120510Y0292460D02*
X0120510Y0299540D01*
X0133490Y0299540D01*
X0133490Y0292460D01*
X0131140Y0292460D02*
X0131140Y0299540D01*
X0128790Y0299540D02*
X0128790Y0292460D01*
X0126440Y0292460D02*
X0126440Y0299540D01*
X0124090Y0299540D02*
X0124090Y0292460D01*
X0121740Y0292460D02*
X0121740Y0299540D01*
D17*
X0133000Y0276000D03*
X0129000Y0276000D03*
X0125000Y0276000D03*
X0121000Y0276000D03*
X0121000Y0281500D03*
X0133000Y0281500D03*
X0133000Y0293500D03*
X0133000Y0299000D03*
X0129000Y0299000D03*
X0125000Y0299000D03*
X0121000Y0299000D03*
X0121000Y0293500D03*
X0087000Y0233000D02*
G75*
%LPD*%
D16*
X0081490Y0245540D02*
X0068510Y0245540D01*
X0081490Y0245540D02*
X0081490Y0238460D01*
X0068510Y0238460D01*
X0068510Y0245540D01*
X0079140Y0245540D02*
X0079140Y0238460D01*
X0076790Y0238460D02*
X0076790Y0245540D01*
X0074440Y0245540D02*
X0074440Y0238460D01*
X0072090Y0238460D02*
X0072090Y0245540D01*
X0069740Y0245540D02*
X0069740Y0238460D01*
X0068510Y0255460D02*
X0081490Y0255460D01*
X0068510Y0255460D02*
X0068510Y0262540D01*
X0081490Y0262540D01*
X0081490Y0255460D01*
X0079140Y0255460D02*
X0079140Y0262540D01*
X0076790Y0262540D02*
X0076790Y0255460D01*
X0074440Y0255460D02*
X0074440Y0262540D01*
X0072090Y0262540D02*
X0072090Y0255460D01*
X0069740Y0255460D02*
X0069740Y0262540D01*
D17*
X0081000Y0239000D03*
X0077000Y0239000D03*
X0073000Y0239000D03*
X0069000Y0239000D03*
X0069000Y0244500D03*
X0081000Y0244500D03*
X0081000Y0256500D03*
X0081000Y0262000D03*
X0077000Y0262000D03*
X0073000Y0262000D03*
X0069000Y0262000D03*
X0069000Y0256500D03*
X0113000Y0270000D02*
G75*
%LPD*%
D16*
X0107490Y0282540D02*
X0094510Y0282540D01*
X0107490Y0282540D02*
X0107490Y0275460D01*
X0094510Y0275460D01*
X0094510Y0282540D01*
X0105140Y0282540D02*
X0105140Y0275460D01*
X0102790Y0275460D02*
X0102790Y0282540D01*
X0100440Y0282540D02*
X0100440Y0275460D01*
X0098090Y0275460D02*
X0098090Y0282540D01*
X0095740Y0282540D02*
X0095740Y0275460D01*
X0094510Y0292460D02*
X0107490Y0292460D01*
X0094510Y0292460D02*
X0094510Y0299540D01*
X0107490Y0299540D01*
X0107490Y0292460D01*
X0105140Y0292460D02*
X0105140Y0299540D01*
X0102790Y0299540D02*
X0102790Y0292460D01*
X0100440Y0292460D02*
X0100440Y0299540D01*
X0098090Y0299540D02*
X0098090Y0292460D01*
X0095740Y0292460D02*
X0095740Y0299540D01*
D17*
X0107000Y0276000D03*
X0103000Y0276000D03*
X0099000Y0276000D03*
X0095000Y0276000D03*
X0095000Y0281500D03*
X0107000Y0281500D03*
X0107000Y0293500D03*
X0107000Y0299000D03*
X0103000Y0299000D03*
X0099000Y0299000D03*
X0095000Y0299000D03*
X0095000Y0293500D03*
X0061000Y0233000D02*
G75*
%LPD*%
D16*
X0055490Y0245540D02*
X0042510Y0245540D01*
X0055490Y0245540D02*
X0055490Y0238460D01*
X0042510Y0238460D01*
X0042510Y0245540D01*
X0053140Y0245540D02*
X0053140Y0238460D01*
X0050790Y0238460D02*
X0050790Y0245540D01*
X0048440Y0245540D02*
X0048440Y0238460D01*
X0046090Y0238460D02*
X0046090Y0245540D01*
X0043740Y0245540D02*
X0043740Y0238460D01*
X0042510Y0255460D02*
X0055490Y0255460D01*
X0042510Y0255460D02*
X0042510Y0262540D01*
X0055490Y0262540D01*
X0055490Y0255460D01*
X0053140Y0255460D02*
X0053140Y0262540D01*
X0050790Y0262540D02*
X0050790Y0255460D01*
X0048440Y0255460D02*
X0048440Y0262540D01*
X0046090Y0262540D02*
X0046090Y0255460D01*
X0043740Y0255460D02*
X0043740Y0262540D01*
D17*
X0055000Y0239000D03*
X0051000Y0239000D03*
X0047000Y0239000D03*
X0043000Y0239000D03*
X0043000Y0244500D03*
X0055000Y0244500D03*
X0055000Y0256500D03*
X0055000Y0262000D03*
X0051000Y0262000D03*
X0047000Y0262000D03*
X0043000Y0262000D03*
X0043000Y0256500D03*
X0087000Y0270000D02*
G75*
%LPD*%
D16*
X0081490Y0282540D02*
X0068510Y0282540D01*
X0081490Y0282540D02*
X0081490Y0275460D01*
X0068510Y0275460D01*
X0068510Y0282540D01*
X0079140Y0282540D02*
X0079140Y0275460D01*
X0076790Y0275460D02*
X0076790Y0282540D01*
X0074440Y0282540D02*
X0074440Y0275460D01*
X0072090Y0275460D02*
X0072090Y0282540D01*
X0069740Y0282540D02*
X0069740Y0275460D01*
X0068510Y0292460D02*
X0081490Y0292460D01*
X0068510Y0292460D02*
X0068510Y0299540D01*
X0081490Y0299540D01*
X0081490Y0292460D01*
X0079140Y0292460D02*
X0079140Y0299540D01*
X0076790Y0299540D02*
X0076790Y0292460D01*
X0074440Y0292460D02*
X0074440Y0299540D01*
X0072090Y0299540D02*
X0072090Y0292460D01*
X0069740Y0292460D02*
X0069740Y0299540D01*
D17*
X0081000Y0276000D03*
X0077000Y0276000D03*
X0073000Y0276000D03*
X0069000Y0276000D03*
X0069000Y0281500D03*
X0081000Y0281500D03*
X0081000Y0293500D03*
X0081000Y0299000D03*
X0077000Y0299000D03*
X0073000Y0299000D03*
X0069000Y0299000D03*
X0069000Y0293500D03*
X0061000Y0270000D02*
G75*
%LPD*%
D16*
X0055490Y0282540D02*
X0042510Y0282540D01*
X0055490Y0282540D02*
X0055490Y0275460D01*
X0042510Y0275460D01*
X0042510Y0282540D01*
X0053140Y0282540D02*
X0053140Y0275460D01*
X0050790Y0275460D02*
X0050790Y0282540D01*
X0048440Y0282540D02*
X0048440Y0275460D01*
X0046090Y0275460D02*
X0046090Y0282540D01*
X0043740Y0282540D02*
X0043740Y0275460D01*
X0042510Y0292460D02*
X0055490Y0292460D01*
X0042510Y0292460D02*
X0042510Y0299540D01*
X0055490Y0299540D01*
X0055490Y0292460D01*
X0053140Y0292460D02*
X0053140Y0299540D01*
X0050790Y0299540D02*
X0050790Y0292460D01*
X0048440Y0292460D02*
X0048440Y0299540D01*
X0046090Y0299540D02*
X0046090Y0292460D01*
X0043740Y0292460D02*
X0043740Y0299540D01*
D17*
X0055000Y0276000D03*
X0051000Y0276000D03*
X0047000Y0276000D03*
X0043000Y0276000D03*
X0043000Y0281500D03*
X0055000Y0281500D03*
X0055000Y0293500D03*
X0055000Y0299000D03*
X0051000Y0299000D03*
X0047000Y0299000D03*
X0043000Y0299000D03*
X0043000Y0293500D03*
X0035000Y0233000D02*
G75*
%LPD*%
D16*
X0029490Y0245540D02*
X0016510Y0245540D01*
X0029490Y0245540D02*
X0029490Y0238460D01*
X0016510Y0238460D01*
X0016510Y0245540D01*
X0027140Y0245540D02*
X0027140Y0238460D01*
X0024790Y0238460D02*
X0024790Y0245540D01*
X0022440Y0245540D02*
X0022440Y0238460D01*
X0020090Y0238460D02*
X0020090Y0245540D01*
X0017740Y0245540D02*
X0017740Y0238460D01*
X0016510Y0255460D02*
X0029490Y0255460D01*
X0016510Y0255460D02*
X0016510Y0262540D01*
X0029490Y0262540D01*
X0029490Y0255460D01*
X0027140Y0255460D02*
X0027140Y0262540D01*
X0024790Y0262540D02*
X0024790Y0255460D01*
X0022440Y0255460D02*
X0022440Y0262540D01*
X0020090Y0262540D02*
X0020090Y0255460D01*
X0017740Y0255460D02*
X0017740Y0262540D01*
D17*
X0029000Y0239000D03*
X0025000Y0239000D03*
X0021000Y0239000D03*
X0017000Y0239000D03*
X0017000Y0244500D03*
X0029000Y0244500D03*
X0029000Y0256500D03*
X0029000Y0262000D03*
X0025000Y0262000D03*
X0021000Y0262000D03*
X0017000Y0262000D03*
X0017000Y0256500D03*
X0035000Y0270000D02*
G75*
%LPD*%
D16*
X0029490Y0282540D02*
X0016510Y0282540D01*
X0029490Y0282540D02*
X0029490Y0275460D01*
X0016510Y0275460D01*
X0016510Y0282540D01*
X0027140Y0282540D02*
X0027140Y0275460D01*
X0024790Y0275460D02*
X0024790Y0282540D01*
X0022440Y0282540D02*
X0022440Y0275460D01*
X0020090Y0275460D02*
X0020090Y0282540D01*
X0017740Y0282540D02*
X0017740Y0275460D01*
X0016510Y0292460D02*
X0029490Y0292460D01*
X0016510Y0292460D02*
X0016510Y0299540D01*
X0029490Y0299540D01*
X0029490Y0292460D01*
X0027140Y0292460D02*
X0027140Y0299540D01*
X0024790Y0299540D02*
X0024790Y0292460D01*
X0022440Y0292460D02*
X0022440Y0299540D01*
X0020090Y0299540D02*
X0020090Y0292460D01*
X0017740Y0292460D02*
X0017740Y0299540D01*
D17*
X0029000Y0276000D03*
X0025000Y0276000D03*
X0021000Y0276000D03*
X0017000Y0276000D03*
X0017000Y0281500D03*
X0029000Y0281500D03*
X0029000Y0293500D03*
X0029000Y0299000D03*
X0025000Y0299000D03*
X0021000Y0299000D03*
X0017000Y0299000D03*
X0017000Y0293500D03*
X0141000Y0233000D02*
G75*
%LPD*%
X0269000Y0233000D02*
G75*
%LPD*%
D16*
X0263490Y0245540D02*
X0250510Y0245540D01*
X0263490Y0245540D02*
X0263490Y0238460D01*
X0250510Y0238460D01*
X0250510Y0245540D01*
X0261140Y0245540D02*
X0261140Y0238460D01*
X0258790Y0238460D02*
X0258790Y0245540D01*
X0256440Y0245540D02*
X0256440Y0238460D01*
X0254090Y0238460D02*
X0254090Y0245540D01*
X0251740Y0245540D02*
X0251740Y0238460D01*
X0250510Y0255460D02*
X0263490Y0255460D01*
X0250510Y0255460D02*
X0250510Y0262540D01*
X0263490Y0262540D01*
X0263490Y0255460D01*
X0261140Y0255460D02*
X0261140Y0262540D01*
X0258790Y0262540D02*
X0258790Y0255460D01*
X0256440Y0255460D02*
X0256440Y0262540D01*
X0254090Y0262540D02*
X0254090Y0255460D01*
X0251740Y0255460D02*
X0251740Y0262540D01*
D17*
X0263000Y0239000D03*
X0259000Y0239000D03*
X0255000Y0239000D03*
X0251000Y0239000D03*
X0251000Y0244500D03*
X0263000Y0244500D03*
X0263000Y0256500D03*
X0263000Y0262000D03*
X0259000Y0262000D03*
X0255000Y0262000D03*
X0251000Y0262000D03*
X0251000Y0256500D03*
X0243000Y0233000D02*
G75*
%LPD*%
D16*
X0237490Y0245540D02*
X0224510Y0245540D01*
X0237490Y0245540D02*
X0237490Y0238460D01*
X0224510Y0238460D01*
X0224510Y0245540D01*
X0235140Y0245540D02*
X0235140Y0238460D01*
X0232790Y0238460D02*
X0232790Y0245540D01*
X0230440Y0245540D02*
X0230440Y0238460D01*
X0228090Y0238460D02*
X0228090Y0245540D01*
X0225740Y0245540D02*
X0225740Y0238460D01*
X0224510Y0255460D02*
X0237490Y0255460D01*
X0224510Y0255460D02*
X0224510Y0262540D01*
X0237490Y0262540D01*
X0237490Y0255460D01*
X0235140Y0255460D02*
X0235140Y0262540D01*
X0232790Y0262540D02*
X0232790Y0255460D01*
X0230440Y0255460D02*
X0230440Y0262540D01*
X0228090Y0262540D02*
X0228090Y0255460D01*
X0225740Y0255460D02*
X0225740Y0262540D01*
D17*
X0237000Y0239000D03*
X0233000Y0239000D03*
X0229000Y0239000D03*
X0225000Y0239000D03*
X0225000Y0244500D03*
X0237000Y0244500D03*
X0237000Y0256500D03*
X0237000Y0262000D03*
X0233000Y0262000D03*
X0229000Y0262000D03*
X0225000Y0262000D03*
X0225000Y0256500D03*
X0269000Y0270000D02*
G75*
%LPD*%
D16*
X0263490Y0282540D02*
X0250510Y0282540D01*
X0263490Y0282540D02*
X0263490Y0275460D01*
X0250510Y0275460D01*
X0250510Y0282540D01*
X0261140Y0282540D02*
X0261140Y0275460D01*
X0258790Y0275460D02*
X0258790Y0282540D01*
X0256440Y0282540D02*
X0256440Y0275460D01*
X0254090Y0275460D02*
X0254090Y0282540D01*
X0251740Y0282540D02*
X0251740Y0275460D01*
X0250510Y0292460D02*
X0263490Y0292460D01*
X0250510Y0292460D02*
X0250510Y0299540D01*
X0263490Y0299540D01*
X0263490Y0292460D01*
X0261140Y0292460D02*
X0261140Y0299540D01*
X0258790Y0299540D02*
X0258790Y0292460D01*
X0256440Y0292460D02*
X0256440Y0299540D01*
X0254090Y0299540D02*
X0254090Y0292460D01*
X0251740Y0292460D02*
X0251740Y0299540D01*
D17*
X0263000Y0276000D03*
X0259000Y0276000D03*
X0255000Y0276000D03*
X0251000Y0276000D03*
X0251000Y0281500D03*
X0263000Y0281500D03*
X0263000Y0293500D03*
X0263000Y0299000D03*
X0259000Y0299000D03*
X0255000Y0299000D03*
X0251000Y0299000D03*
X0251000Y0293500D03*
X0217000Y0233000D02*
G75*
%LPD*%
D16*
X0211490Y0245540D02*
X0198510Y0245540D01*
X0211490Y0245540D02*
X0211490Y0238460D01*
X0198510Y0238460D01*
X0198510Y0245540D01*
X0209140Y0245540D02*
X0209140Y0238460D01*
X0206790Y0238460D02*
X0206790Y0245540D01*
X0204440Y0245540D02*
X0204440Y0238460D01*
X0202090Y0238460D02*
X0202090Y0245540D01*
X0199740Y0245540D02*
X0199740Y0238460D01*
X0198510Y0255460D02*
X0211490Y0255460D01*
X0198510Y0255460D02*
X0198510Y0262540D01*
X0211490Y0262540D01*
X0211490Y0255460D01*
X0209140Y0255460D02*
X0209140Y0262540D01*
X0206790Y0262540D02*
X0206790Y0255460D01*
X0204440Y0255460D02*
X0204440Y0262540D01*
X0202090Y0262540D02*
X0202090Y0255460D01*
X0199740Y0255460D02*
X0199740Y0262540D01*
D17*
X0211000Y0239000D03*
X0207000Y0239000D03*
X0203000Y0239000D03*
X0199000Y0239000D03*
X0199000Y0244500D03*
X0211000Y0244500D03*
X0211000Y0256500D03*
X0211000Y0262000D03*
X0207000Y0262000D03*
X0203000Y0262000D03*
X0199000Y0262000D03*
X0199000Y0256500D03*
X0243000Y0270000D02*
G75*
%LPD*%
D16*
X0237490Y0282540D02*
X0224510Y0282540D01*
X0237490Y0282540D02*
X0237490Y0275460D01*
X0224510Y0275460D01*
X0224510Y0282540D01*
X0235140Y0282540D02*
X0235140Y0275460D01*
X0232790Y0275460D02*
X0232790Y0282540D01*
X0230440Y0282540D02*
X0230440Y0275460D01*
X0228090Y0275460D02*
X0228090Y0282540D01*
X0225740Y0282540D02*
X0225740Y0275460D01*
X0224510Y0292460D02*
X0237490Y0292460D01*
X0224510Y0292460D02*
X0224510Y0299540D01*
X0237490Y0299540D01*
X0237490Y0292460D01*
X0235140Y0292460D02*
X0235140Y0299540D01*
X0232790Y0299540D02*
X0232790Y0292460D01*
X0230440Y0292460D02*
X0230440Y0299540D01*
X0228090Y0299540D02*
X0228090Y0292460D01*
X0225740Y0292460D02*
X0225740Y0299540D01*
D17*
X0237000Y0276000D03*
X0233000Y0276000D03*
X0229000Y0276000D03*
X0225000Y0276000D03*
X0225000Y0281500D03*
X0237000Y0281500D03*
X0237000Y0293500D03*
X0237000Y0299000D03*
X0233000Y0299000D03*
X0229000Y0299000D03*
X0225000Y0299000D03*
X0225000Y0293500D03*
X0191000Y0233000D02*
G75*
%LPD*%
D16*
X0185490Y0245540D02*
X0172510Y0245540D01*
X0185490Y0245540D02*
X0185490Y0238460D01*
X0172510Y0238460D01*
X0172510Y0245540D01*
X0183140Y0245540D02*
X0183140Y0238460D01*
X0180790Y0238460D02*
X0180790Y0245540D01*
X0178440Y0245540D02*
X0178440Y0238460D01*
X0176090Y0238460D02*
X0176090Y0245540D01*
X0173740Y0245540D02*
X0173740Y0238460D01*
X0172510Y0255460D02*
X0185490Y0255460D01*
X0172510Y0255460D02*
X0172510Y0262540D01*
X0185490Y0262540D01*
X0185490Y0255460D01*
X0183140Y0255460D02*
X0183140Y0262540D01*
X0180790Y0262540D02*
X0180790Y0255460D01*
X0178440Y0255460D02*
X0178440Y0262540D01*
X0176090Y0262540D02*
X0176090Y0255460D01*
X0173740Y0255460D02*
X0173740Y0262540D01*
D17*
X0185000Y0239000D03*
X0181000Y0239000D03*
X0177000Y0239000D03*
X0173000Y0239000D03*
X0173000Y0244500D03*
X0185000Y0244500D03*
X0185000Y0256500D03*
X0185000Y0262000D03*
X0181000Y0262000D03*
X0177000Y0262000D03*
X0173000Y0262000D03*
X0173000Y0256500D03*
X0217000Y0270000D02*
G75*
%LPD*%
D16*
X0211490Y0282540D02*
X0198510Y0282540D01*
X0211490Y0282540D02*
X0211490Y0275460D01*
X0198510Y0275460D01*
X0198510Y0282540D01*
X0209140Y0282540D02*
X0209140Y0275460D01*
X0206790Y0275460D02*
X0206790Y0282540D01*
X0204440Y0282540D02*
X0204440Y0275460D01*
X0202090Y0275460D02*
X0202090Y0282540D01*
X0199740Y0282540D02*
X0199740Y0275460D01*
X0198510Y0292460D02*
X0211490Y0292460D01*
X0198510Y0292460D02*
X0198510Y0299540D01*
X0211490Y0299540D01*
X0211490Y0292460D01*
X0209140Y0292460D02*
X0209140Y0299540D01*
X0206790Y0299540D02*
X0206790Y0292460D01*
X0204440Y0292460D02*
X0204440Y0299540D01*
X0202090Y0299540D02*
X0202090Y0292460D01*
X0199740Y0292460D02*
X0199740Y0299540D01*
D17*
X0211000Y0276000D03*
X0207000Y0276000D03*
X0203000Y0276000D03*
X0199000Y0276000D03*
X0199000Y0281500D03*
X0211000Y0281500D03*
X0211000Y0293500D03*
X0211000Y0299000D03*
X0207000Y0299000D03*
X0203000Y0299000D03*
X0199000Y0299000D03*
X0199000Y0293500D03*
X0191000Y0270000D02*
G75*
%LPD*%
D16*
X0185490Y0282540D02*
X0172510Y0282540D01*
X0185490Y0282540D02*
X0185490Y0275460D01*
X0172510Y0275460D01*
X0172510Y0282540D01*
X0183140Y0282540D02*
X0183140Y0275460D01*
X0180790Y0275460D02*
X0180790Y0282540D01*
X0178440Y0282540D02*
X0178440Y0275460D01*
X0176090Y0275460D02*
X0176090Y0282540D01*
X0173740Y0282540D02*
X0173740Y0275460D01*
X0172510Y0292460D02*
X0185490Y0292460D01*
X0172510Y0292460D02*
X0172510Y0299540D01*
X0185490Y0299540D01*
X0185490Y0292460D01*
X0183140Y0292460D02*
X0183140Y0299540D01*
X0180790Y0299540D02*
X0180790Y0292460D01*
X0178440Y0292460D02*
X0178440Y0299540D01*
X0176090Y0299540D02*
X0176090Y0292460D01*
X0173740Y0292460D02*
X0173740Y0299540D01*
D17*
X0185000Y0276000D03*
X0181000Y0276000D03*
X0177000Y0276000D03*
X0173000Y0276000D03*
X0173000Y0281500D03*
X0185000Y0281500D03*
X0185000Y0293500D03*
X0185000Y0299000D03*
X0181000Y0299000D03*
X0177000Y0299000D03*
X0173000Y0299000D03*
X0173000Y0293500D03*
X0165000Y0233000D02*
G75*
%LPD*%
D16*
X0159490Y0245540D02*
X0146510Y0245540D01*
X0159490Y0245540D02*
X0159490Y0238460D01*
X0146510Y0238460D01*
X0146510Y0245540D01*
X0157140Y0245540D02*
X0157140Y0238460D01*
X0154790Y0238460D02*
X0154790Y0245540D01*
X0152440Y0245540D02*
X0152440Y0238460D01*
X0150090Y0238460D02*
X0150090Y0245540D01*
X0147740Y0245540D02*
X0147740Y0238460D01*
X0146510Y0255460D02*
X0159490Y0255460D01*
X0146510Y0255460D02*
X0146510Y0262540D01*
X0159490Y0262540D01*
X0159490Y0255460D01*
X0157140Y0255460D02*
X0157140Y0262540D01*
X0154790Y0262540D02*
X0154790Y0255460D01*
X0152440Y0255460D02*
X0152440Y0262540D01*
X0150090Y0262540D02*
X0150090Y0255460D01*
X0147740Y0255460D02*
X0147740Y0262540D01*
D17*
X0159000Y0239000D03*
X0155000Y0239000D03*
X0151000Y0239000D03*
X0147000Y0239000D03*
X0147000Y0244500D03*
X0159000Y0244500D03*
X0159000Y0256500D03*
X0159000Y0262000D03*
X0155000Y0262000D03*
X0151000Y0262000D03*
X0147000Y0262000D03*
X0147000Y0256500D03*
X0165000Y0270000D02*
G75*
%LPD*%
D16*
X0159490Y0282540D02*
X0146510Y0282540D01*
X0159490Y0282540D02*
X0159490Y0275460D01*
X0146510Y0275460D01*
X0146510Y0282540D01*
X0157140Y0282540D02*
X0157140Y0275460D01*
X0154790Y0275460D02*
X0154790Y0282540D01*
X0152440Y0282540D02*
X0152440Y0275460D01*
X0150090Y0275460D02*
X0150090Y0282540D01*
X0147740Y0282540D02*
X0147740Y0275460D01*
X0146510Y0292460D02*
X0159490Y0292460D01*
X0146510Y0292460D02*
X0146510Y0299540D01*
X0159490Y0299540D01*
X0159490Y0292460D01*
X0157140Y0292460D02*
X0157140Y0299540D01*
X0154790Y0299540D02*
X0154790Y0292460D01*
X0152440Y0292460D02*
X0152440Y0299540D01*
X0150090Y0299540D02*
X0150090Y0292460D01*
X0147740Y0292460D02*
X0147740Y0299540D01*
D17*
X0159000Y0276000D03*
X0155000Y0276000D03*
X0151000Y0276000D03*
X0147000Y0276000D03*
X0147000Y0281500D03*
X0159000Y0281500D03*
X0159000Y0293500D03*
X0159000Y0299000D03*
X0155000Y0299000D03*
X0151000Y0299000D03*
X0147000Y0299000D03*
X0147000Y0293500D03*
X0011000Y0307000D02*
G75*
%LPD*%
X0139000Y0307000D02*
G75*
%LPD*%
D16*
X0133490Y0319540D02*
X0120510Y0319540D01*
X0133490Y0319540D02*
X0133490Y0312460D01*
X0120510Y0312460D01*
X0120510Y0319540D01*
X0131140Y0319540D02*
X0131140Y0312460D01*
X0128790Y0312460D02*
X0128790Y0319540D01*
X0126440Y0319540D02*
X0126440Y0312460D01*
X0124090Y0312460D02*
X0124090Y0319540D01*
X0121740Y0319540D02*
X0121740Y0312460D01*
X0120510Y0329460D02*
X0133490Y0329460D01*
X0120510Y0329460D02*
X0120510Y0336540D01*
X0133490Y0336540D01*
X0133490Y0329460D01*
X0131140Y0329460D02*
X0131140Y0336540D01*
X0128790Y0336540D02*
X0128790Y0329460D01*
X0126440Y0329460D02*
X0126440Y0336540D01*
X0124090Y0336540D02*
X0124090Y0329460D01*
X0121740Y0329460D02*
X0121740Y0336540D01*
D17*
X0133000Y0313000D03*
X0129000Y0313000D03*
X0125000Y0313000D03*
X0121000Y0313000D03*
X0121000Y0318500D03*
X0133000Y0318500D03*
X0133000Y0330500D03*
X0133000Y0336000D03*
X0129000Y0336000D03*
X0125000Y0336000D03*
X0121000Y0336000D03*
X0121000Y0330500D03*
X0113000Y0307000D02*
G75*
%LPD*%
D16*
X0107490Y0319540D02*
X0094510Y0319540D01*
X0107490Y0319540D02*
X0107490Y0312460D01*
X0094510Y0312460D01*
X0094510Y0319540D01*
X0105140Y0319540D02*
X0105140Y0312460D01*
X0102790Y0312460D02*
X0102790Y0319540D01*
X0100440Y0319540D02*
X0100440Y0312460D01*
X0098090Y0312460D02*
X0098090Y0319540D01*
X0095740Y0319540D02*
X0095740Y0312460D01*
X0094510Y0329460D02*
X0107490Y0329460D01*
X0094510Y0329460D02*
X0094510Y0336540D01*
X0107490Y0336540D01*
X0107490Y0329460D01*
X0105140Y0329460D02*
X0105140Y0336540D01*
X0102790Y0336540D02*
X0102790Y0329460D01*
X0100440Y0329460D02*
X0100440Y0336540D01*
X0098090Y0336540D02*
X0098090Y0329460D01*
X0095740Y0329460D02*
X0095740Y0336540D01*
D17*
X0107000Y0313000D03*
X0103000Y0313000D03*
X0099000Y0313000D03*
X0095000Y0313000D03*
X0095000Y0318500D03*
X0107000Y0318500D03*
X0107000Y0330500D03*
X0107000Y0336000D03*
X0103000Y0336000D03*
X0099000Y0336000D03*
X0095000Y0336000D03*
X0095000Y0330500D03*
X0139000Y0344000D02*
G75*
%LPD*%
D16*
X0133490Y0356540D02*
X0120510Y0356540D01*
X0133490Y0356540D02*
X0133490Y0349460D01*
X0120510Y0349460D01*
X0120510Y0356540D01*
X0131140Y0356540D02*
X0131140Y0349460D01*
X0128790Y0349460D02*
X0128790Y0356540D01*
X0126440Y0356540D02*
X0126440Y0349460D01*
X0124090Y0349460D02*
X0124090Y0356540D01*
X0121740Y0356540D02*
X0121740Y0349460D01*
X0120510Y0366460D02*
X0133490Y0366460D01*
X0120510Y0366460D02*
X0120510Y0373540D01*
X0133490Y0373540D01*
X0133490Y0366460D01*
X0131140Y0366460D02*
X0131140Y0373540D01*
X0128790Y0373540D02*
X0128790Y0366460D01*
X0126440Y0366460D02*
X0126440Y0373540D01*
X0124090Y0373540D02*
X0124090Y0366460D01*
X0121740Y0366460D02*
X0121740Y0373540D01*
D17*
X0133000Y0350000D03*
X0129000Y0350000D03*
X0125000Y0350000D03*
X0121000Y0350000D03*
X0121000Y0355500D03*
X0133000Y0355500D03*
X0133000Y0367500D03*
X0133000Y0373000D03*
X0129000Y0373000D03*
X0125000Y0373000D03*
X0121000Y0373000D03*
X0121000Y0367500D03*
X0087000Y0307000D02*
G75*
%LPD*%
D16*
X0081490Y0319540D02*
X0068510Y0319540D01*
X0081490Y0319540D02*
X0081490Y0312460D01*
X0068510Y0312460D01*
X0068510Y0319540D01*
X0079140Y0319540D02*
X0079140Y0312460D01*
X0076790Y0312460D02*
X0076790Y0319540D01*
X0074440Y0319540D02*
X0074440Y0312460D01*
X0072090Y0312460D02*
X0072090Y0319540D01*
X0069740Y0319540D02*
X0069740Y0312460D01*
X0068510Y0329460D02*
X0081490Y0329460D01*
X0068510Y0329460D02*
X0068510Y0336540D01*
X0081490Y0336540D01*
X0081490Y0329460D01*
X0079140Y0329460D02*
X0079140Y0336540D01*
X0076790Y0336540D02*
X0076790Y0329460D01*
X0074440Y0329460D02*
X0074440Y0336540D01*
X0072090Y0336540D02*
X0072090Y0329460D01*
X0069740Y0329460D02*
X0069740Y0336540D01*
D17*
X0081000Y0313000D03*
X0077000Y0313000D03*
X0073000Y0313000D03*
X0069000Y0313000D03*
X0069000Y0318500D03*
X0081000Y0318500D03*
X0081000Y0330500D03*
X0081000Y0336000D03*
X0077000Y0336000D03*
X0073000Y0336000D03*
X0069000Y0336000D03*
X0069000Y0330500D03*
X0113000Y0344000D02*
G75*
%LPD*%
D16*
X0107490Y0356540D02*
X0094510Y0356540D01*
X0107490Y0356540D02*
X0107490Y0349460D01*
X0094510Y0349460D01*
X0094510Y0356540D01*
X0105140Y0356540D02*
X0105140Y0349460D01*
X0102790Y0349460D02*
X0102790Y0356540D01*
X0100440Y0356540D02*
X0100440Y0349460D01*
X0098090Y0349460D02*
X0098090Y0356540D01*
X0095740Y0356540D02*
X0095740Y0349460D01*
X0094510Y0366460D02*
X0107490Y0366460D01*
X0094510Y0366460D02*
X0094510Y0373540D01*
X0107490Y0373540D01*
X0107490Y0366460D01*
X0105140Y0366460D02*
X0105140Y0373540D01*
X0102790Y0373540D02*
X0102790Y0366460D01*
X0100440Y0366460D02*
X0100440Y0373540D01*
X0098090Y0373540D02*
X0098090Y0366460D01*
X0095740Y0366460D02*
X0095740Y0373540D01*
D17*
X0107000Y0350000D03*
X0103000Y0350000D03*
X0099000Y0350000D03*
X0095000Y0350000D03*
X0095000Y0355500D03*
X0107000Y0355500D03*
X0107000Y0367500D03*
X0107000Y0373000D03*
X0103000Y0373000D03*
X0099000Y0373000D03*
X0095000Y0373000D03*
X0095000Y0367500D03*
X0061000Y0307000D02*
G75*
%LPD*%
D16*
X0055490Y0319540D02*
X0042510Y0319540D01*
X0055490Y0319540D02*
X0055490Y0312460D01*
X0042510Y0312460D01*
X0042510Y0319540D01*
X0053140Y0319540D02*
X0053140Y0312460D01*
X0050790Y0312460D02*
X0050790Y0319540D01*
X0048440Y0319540D02*
X0048440Y0312460D01*
X0046090Y0312460D02*
X0046090Y0319540D01*
X0043740Y0319540D02*
X0043740Y0312460D01*
X0042510Y0329460D02*
X0055490Y0329460D01*
X0042510Y0329460D02*
X0042510Y0336540D01*
X0055490Y0336540D01*
X0055490Y0329460D01*
X0053140Y0329460D02*
X0053140Y0336540D01*
X0050790Y0336540D02*
X0050790Y0329460D01*
X0048440Y0329460D02*
X0048440Y0336540D01*
X0046090Y0336540D02*
X0046090Y0329460D01*
X0043740Y0329460D02*
X0043740Y0336540D01*
D17*
X0055000Y0313000D03*
X0051000Y0313000D03*
X0047000Y0313000D03*
X0043000Y0313000D03*
X0043000Y0318500D03*
X0055000Y0318500D03*
X0055000Y0330500D03*
X0055000Y0336000D03*
X0051000Y0336000D03*
X0047000Y0336000D03*
X0043000Y0336000D03*
X0043000Y0330500D03*
X0087000Y0344000D02*
G75*
%LPD*%
D16*
X0081490Y0356540D02*
X0068510Y0356540D01*
X0081490Y0356540D02*
X0081490Y0349460D01*
X0068510Y0349460D01*
X0068510Y0356540D01*
X0079140Y0356540D02*
X0079140Y0349460D01*
X0076790Y0349460D02*
X0076790Y0356540D01*
X0074440Y0356540D02*
X0074440Y0349460D01*
X0072090Y0349460D02*
X0072090Y0356540D01*
X0069740Y0356540D02*
X0069740Y0349460D01*
X0068510Y0366460D02*
X0081490Y0366460D01*
X0068510Y0366460D02*
X0068510Y0373540D01*
X0081490Y0373540D01*
X0081490Y0366460D01*
X0079140Y0366460D02*
X0079140Y0373540D01*
X0076790Y0373540D02*
X0076790Y0366460D01*
X0074440Y0366460D02*
X0074440Y0373540D01*
X0072090Y0373540D02*
X0072090Y0366460D01*
X0069740Y0366460D02*
X0069740Y0373540D01*
D17*
X0081000Y0350000D03*
X0077000Y0350000D03*
X0073000Y0350000D03*
X0069000Y0350000D03*
X0069000Y0355500D03*
X0081000Y0355500D03*
X0081000Y0367500D03*
X0081000Y0373000D03*
X0077000Y0373000D03*
X0073000Y0373000D03*
X0069000Y0373000D03*
X0069000Y0367500D03*
X0061000Y0344000D02*
G75*
%LPD*%
D16*
X0055490Y0356540D02*
X0042510Y0356540D01*
X0055490Y0356540D02*
X0055490Y0349460D01*
X0042510Y0349460D01*
X0042510Y0356540D01*
X0053140Y0356540D02*
X0053140Y0349460D01*
X0050790Y0349460D02*
X0050790Y0356540D01*
X0048440Y0356540D02*
X0048440Y0349460D01*
X0046090Y0349460D02*
X0046090Y0356540D01*
X0043740Y0356540D02*
X0043740Y0349460D01*
X0042510Y0366460D02*
X0055490Y0366460D01*
X0042510Y0366460D02*
X0042510Y0373540D01*
X0055490Y0373540D01*
X0055490Y0366460D01*
X0053140Y0366460D02*
X0053140Y0373540D01*
X0050790Y0373540D02*
X0050790Y0366460D01*
X0048440Y0366460D02*
X0048440Y0373540D01*
X0046090Y0373540D02*
X0046090Y0366460D01*
X0043740Y0366460D02*
X0043740Y0373540D01*
D17*
X0055000Y0350000D03*
X0051000Y0350000D03*
X0047000Y0350000D03*
X0043000Y0350000D03*
X0043000Y0355500D03*
X0055000Y0355500D03*
X0055000Y0367500D03*
X0055000Y0373000D03*
X0051000Y0373000D03*
X0047000Y0373000D03*
X0043000Y0373000D03*
X0043000Y0367500D03*
X0035000Y0307000D02*
G75*
%LPD*%
D16*
X0029490Y0319540D02*
X0016510Y0319540D01*
X0029490Y0319540D02*
X0029490Y0312460D01*
X0016510Y0312460D01*
X0016510Y0319540D01*
X0027140Y0319540D02*
X0027140Y0312460D01*
X0024790Y0312460D02*
X0024790Y0319540D01*
X0022440Y0319540D02*
X0022440Y0312460D01*
X0020090Y0312460D02*
X0020090Y0319540D01*
X0017740Y0319540D02*
X0017740Y0312460D01*
X0016510Y0329460D02*
X0029490Y0329460D01*
X0016510Y0329460D02*
X0016510Y0336540D01*
X0029490Y0336540D01*
X0029490Y0329460D01*
X0027140Y0329460D02*
X0027140Y0336540D01*
X0024790Y0336540D02*
X0024790Y0329460D01*
X0022440Y0329460D02*
X0022440Y0336540D01*
X0020090Y0336540D02*
X0020090Y0329460D01*
X0017740Y0329460D02*
X0017740Y0336540D01*
D17*
X0029000Y0313000D03*
X0025000Y0313000D03*
X0021000Y0313000D03*
X0017000Y0313000D03*
X0017000Y0318500D03*
X0029000Y0318500D03*
X0029000Y0330500D03*
X0029000Y0336000D03*
X0025000Y0336000D03*
X0021000Y0336000D03*
X0017000Y0336000D03*
X0017000Y0330500D03*
X0035000Y0344000D02*
G75*
%LPD*%
D16*
X0029490Y0356540D02*
X0016510Y0356540D01*
X0029490Y0356540D02*
X0029490Y0349460D01*
X0016510Y0349460D01*
X0016510Y0356540D01*
X0027140Y0356540D02*
X0027140Y0349460D01*
X0024790Y0349460D02*
X0024790Y0356540D01*
X0022440Y0356540D02*
X0022440Y0349460D01*
X0020090Y0349460D02*
X0020090Y0356540D01*
X0017740Y0356540D02*
X0017740Y0349460D01*
X0016510Y0366460D02*
X0029490Y0366460D01*
X0016510Y0366460D02*
X0016510Y0373540D01*
X0029490Y0373540D01*
X0029490Y0366460D01*
X0027140Y0366460D02*
X0027140Y0373540D01*
X0024790Y0373540D02*
X0024790Y0366460D01*
X0022440Y0366460D02*
X0022440Y0373540D01*
X0020090Y0373540D02*
X0020090Y0366460D01*
X0017740Y0366460D02*
X0017740Y0373540D01*
D17*
X0029000Y0350000D03*
X0025000Y0350000D03*
X0021000Y0350000D03*
X0017000Y0350000D03*
X0017000Y0355500D03*
X0029000Y0355500D03*
X0029000Y0367500D03*
X0029000Y0373000D03*
X0025000Y0373000D03*
X0021000Y0373000D03*
X0017000Y0373000D03*
X0017000Y0367500D03*
X0141000Y0307000D02*
G75*
%LPD*%
X0269000Y0307000D02*
G75*
%LPD*%
D16*
X0263490Y0319540D02*
X0250510Y0319540D01*
X0263490Y0319540D02*
X0263490Y0312460D01*
X0250510Y0312460D01*
X0250510Y0319540D01*
X0261140Y0319540D02*
X0261140Y0312460D01*
X0258790Y0312460D02*
X0258790Y0319540D01*
X0256440Y0319540D02*
X0256440Y0312460D01*
X0254090Y0312460D02*
X0254090Y0319540D01*
X0251740Y0319540D02*
X0251740Y0312460D01*
X0250510Y0329460D02*
X0263490Y0329460D01*
X0250510Y0329460D02*
X0250510Y0336540D01*
X0263490Y0336540D01*
X0263490Y0329460D01*
X0261140Y0329460D02*
X0261140Y0336540D01*
X0258790Y0336540D02*
X0258790Y0329460D01*
X0256440Y0329460D02*
X0256440Y0336540D01*
X0254090Y0336540D02*
X0254090Y0329460D01*
X0251740Y0329460D02*
X0251740Y0336540D01*
D17*
X0263000Y0313000D03*
X0259000Y0313000D03*
X0255000Y0313000D03*
X0251000Y0313000D03*
X0251000Y0318500D03*
X0263000Y0318500D03*
X0263000Y0330500D03*
X0263000Y0336000D03*
X0259000Y0336000D03*
X0255000Y0336000D03*
X0251000Y0336000D03*
X0251000Y0330500D03*
X0243000Y0307000D02*
G75*
%LPD*%
D16*
X0237490Y0319540D02*
X0224510Y0319540D01*
X0237490Y0319540D02*
X0237490Y0312460D01*
X0224510Y0312460D01*
X0224510Y0319540D01*
X0235140Y0319540D02*
X0235140Y0312460D01*
X0232790Y0312460D02*
X0232790Y0319540D01*
X0230440Y0319540D02*
X0230440Y0312460D01*
X0228090Y0312460D02*
X0228090Y0319540D01*
X0225740Y0319540D02*
X0225740Y0312460D01*
X0224510Y0329460D02*
X0237490Y0329460D01*
X0224510Y0329460D02*
X0224510Y0336540D01*
X0237490Y0336540D01*
X0237490Y0329460D01*
X0235140Y0329460D02*
X0235140Y0336540D01*
X0232790Y0336540D02*
X0232790Y0329460D01*
X0230440Y0329460D02*
X0230440Y0336540D01*
X0228090Y0336540D02*
X0228090Y0329460D01*
X0225740Y0329460D02*
X0225740Y0336540D01*
D17*
X0237000Y0313000D03*
X0233000Y0313000D03*
X0229000Y0313000D03*
X0225000Y0313000D03*
X0225000Y0318500D03*
X0237000Y0318500D03*
X0237000Y0330500D03*
X0237000Y0336000D03*
X0233000Y0336000D03*
X0229000Y0336000D03*
X0225000Y0336000D03*
X0225000Y0330500D03*
X0269000Y0344000D02*
G75*
%LPD*%
D16*
X0263490Y0356540D02*
X0250510Y0356540D01*
X0263490Y0356540D02*
X0263490Y0349460D01*
X0250510Y0349460D01*
X0250510Y0356540D01*
X0261140Y0356540D02*
X0261140Y0349460D01*
X0258790Y0349460D02*
X0258790Y0356540D01*
X0256440Y0356540D02*
X0256440Y0349460D01*
X0254090Y0349460D02*
X0254090Y0356540D01*
X0251740Y0356540D02*
X0251740Y0349460D01*
X0250510Y0366460D02*
X0263490Y0366460D01*
X0250510Y0366460D02*
X0250510Y0373540D01*
X0263490Y0373540D01*
X0263490Y0366460D01*
X0261140Y0366460D02*
X0261140Y0373540D01*
X0258790Y0373540D02*
X0258790Y0366460D01*
X0256440Y0366460D02*
X0256440Y0373540D01*
X0254090Y0373540D02*
X0254090Y0366460D01*
X0251740Y0366460D02*
X0251740Y0373540D01*
D17*
X0263000Y0350000D03*
X0259000Y0350000D03*
X0255000Y0350000D03*
X0251000Y0350000D03*
X0251000Y0355500D03*
X0263000Y0355500D03*
X0263000Y0367500D03*
X0263000Y0373000D03*
X0259000Y0373000D03*
X0255000Y0373000D03*
X0251000Y0373000D03*
X0251000Y0367500D03*
X0217000Y0307000D02*
G75*
%LPD*%
D16*
X0211490Y0319540D02*
X0198510Y0319540D01*
X0211490Y0319540D02*
X0211490Y0312460D01*
X0198510Y0312460D01*
X0198510Y0319540D01*
X0209140Y0319540D02*
X0209140Y0312460D01*
X0206790Y0312460D02*
X0206790Y0319540D01*
X0204440Y0319540D02*
X0204440Y0312460D01*
X0202090Y0312460D02*
X0202090Y0319540D01*
X0199740Y0319540D02*
X0199740Y0312460D01*
X0198510Y0329460D02*
X0211490Y0329460D01*
X0198510Y0329460D02*
X0198510Y0336540D01*
X0211490Y0336540D01*
X0211490Y0329460D01*
X0209140Y0329460D02*
X0209140Y0336540D01*
X0206790Y0336540D02*
X0206790Y0329460D01*
X0204440Y0329460D02*
X0204440Y0336540D01*
X0202090Y0336540D02*
X0202090Y0329460D01*
X0199740Y0329460D02*
X0199740Y0336540D01*
D17*
X0211000Y0313000D03*
X0207000Y0313000D03*
X0203000Y0313000D03*
X0199000Y0313000D03*
X0199000Y0318500D03*
X0211000Y0318500D03*
X0211000Y0330500D03*
X0211000Y0336000D03*
X0207000Y0336000D03*
X0203000Y0336000D03*
X0199000Y0336000D03*
X0199000Y0330500D03*
X0243000Y0344000D02*
G75*
%LPD*%
D16*
X0237490Y0356540D02*
X0224510Y0356540D01*
X0237490Y0356540D02*
X0237490Y0349460D01*
X0224510Y0349460D01*
X0224510Y0356540D01*
X0235140Y0356540D02*
X0235140Y0349460D01*
X0232790Y0349460D02*
X0232790Y0356540D01*
X0230440Y0356540D02*
X0230440Y0349460D01*
X0228090Y0349460D02*
X0228090Y0356540D01*
X0225740Y0356540D02*
X0225740Y0349460D01*
X0224510Y0366460D02*
X0237490Y0366460D01*
X0224510Y0366460D02*
X0224510Y0373540D01*
X0237490Y0373540D01*
X0237490Y0366460D01*
X0235140Y0366460D02*
X0235140Y0373540D01*
X0232790Y0373540D02*
X0232790Y0366460D01*
X0230440Y0366460D02*
X0230440Y0373540D01*
X0228090Y0373540D02*
X0228090Y0366460D01*
X0225740Y0366460D02*
X0225740Y0373540D01*
D17*
X0237000Y0350000D03*
X0233000Y0350000D03*
X0229000Y0350000D03*
X0225000Y0350000D03*
X0225000Y0355500D03*
X0237000Y0355500D03*
X0237000Y0367500D03*
X0237000Y0373000D03*
X0233000Y0373000D03*
X0229000Y0373000D03*
X0225000Y0373000D03*
X0225000Y0367500D03*
X0191000Y0307000D02*
G75*
%LPD*%
D16*
X0185490Y0319540D02*
X0172510Y0319540D01*
X0185490Y0319540D02*
X0185490Y0312460D01*
X0172510Y0312460D01*
X0172510Y0319540D01*
X0183140Y0319540D02*
X0183140Y0312460D01*
X0180790Y0312460D02*
X0180790Y0319540D01*
X0178440Y0319540D02*
X0178440Y0312460D01*
X0176090Y0312460D02*
X0176090Y0319540D01*
X0173740Y0319540D02*
X0173740Y0312460D01*
X0172510Y0329460D02*
X0185490Y0329460D01*
X0172510Y0329460D02*
X0172510Y0336540D01*
X0185490Y0336540D01*
X0185490Y0329460D01*
X0183140Y0329460D02*
X0183140Y0336540D01*
X0180790Y0336540D02*
X0180790Y0329460D01*
X0178440Y0329460D02*
X0178440Y0336540D01*
X0176090Y0336540D02*
X0176090Y0329460D01*
X0173740Y0329460D02*
X0173740Y0336540D01*
D17*
X0185000Y0313000D03*
X0181000Y0313000D03*
X0177000Y0313000D03*
X0173000Y0313000D03*
X0173000Y0318500D03*
X0185000Y0318500D03*
X0185000Y0330500D03*
X0185000Y0336000D03*
X0181000Y0336000D03*
X0177000Y0336000D03*
X0173000Y0336000D03*
X0173000Y0330500D03*
X0217000Y0344000D02*
G75*
%LPD*%
D16*
X0211490Y0356540D02*
X0198510Y0356540D01*
X0211490Y0356540D02*
X0211490Y0349460D01*
X0198510Y0349460D01*
X0198510Y0356540D01*
X0209140Y0356540D02*
X0209140Y0349460D01*
X0206790Y0349460D02*
X0206790Y0356540D01*
X0204440Y0356540D02*
X0204440Y0349460D01*
X0202090Y0349460D02*
X0202090Y0356540D01*
X0199740Y0356540D02*
X0199740Y0349460D01*
X0198510Y0366460D02*
X0211490Y0366460D01*
X0198510Y0366460D02*
X0198510Y0373540D01*
X0211490Y0373540D01*
X0211490Y0366460D01*
X0209140Y0366460D02*
X0209140Y0373540D01*
X0206790Y0373540D02*
X0206790Y0366460D01*
X0204440Y0366460D02*
X0204440Y0373540D01*
X0202090Y0373540D02*
X0202090Y0366460D01*
X0199740Y0366460D02*
X0199740Y0373540D01*
D17*
X0211000Y0350000D03*
X0207000Y0350000D03*
X0203000Y0350000D03*
X0199000Y0350000D03*
X0199000Y0355500D03*
X0211000Y0355500D03*
X0211000Y0367500D03*
X0211000Y0373000D03*
X0207000Y0373000D03*
X0203000Y0373000D03*
X0199000Y0373000D03*
X0199000Y0367500D03*
X0191000Y0344000D02*
G75*
%LPD*%
D16*
X0185490Y0356540D02*
X0172510Y0356540D01*
X0185490Y0356540D02*
X0185490Y0349460D01*
X0172510Y0349460D01*
X0172510Y0356540D01*
X0183140Y0356540D02*
X0183140Y0349460D01*
X0180790Y0349460D02*
X0180790Y0356540D01*
X0178440Y0356540D02*
X0178440Y0349460D01*
X0176090Y0349460D02*
X0176090Y0356540D01*
X0173740Y0356540D02*
X0173740Y0349460D01*
X0172510Y0366460D02*
X0185490Y0366460D01*
X0172510Y0366460D02*
X0172510Y0373540D01*
X0185490Y0373540D01*
X0185490Y0366460D01*
X0183140Y0366460D02*
X0183140Y0373540D01*
X0180790Y0373540D02*
X0180790Y0366460D01*
X0178440Y0366460D02*
X0178440Y0373540D01*
X0176090Y0373540D02*
X0176090Y0366460D01*
X0173740Y0366460D02*
X0173740Y0373540D01*
D17*
X0185000Y0350000D03*
X0181000Y0350000D03*
X0177000Y0350000D03*
X0173000Y0350000D03*
X0173000Y0355500D03*
X0185000Y0355500D03*
X0185000Y0367500D03*
X0185000Y0373000D03*
X0181000Y0373000D03*
X0177000Y0373000D03*
X0173000Y0373000D03*
X0173000Y0367500D03*
X0165000Y0307000D02*
G75*
%LPD*%
D16*
X0159490Y0319540D02*
X0146510Y0319540D01*
X0159490Y0319540D02*
X0159490Y0312460D01*
X0146510Y0312460D01*
X0146510Y0319540D01*
X0157140Y0319540D02*
X0157140Y0312460D01*
X0154790Y0312460D02*
X0154790Y0319540D01*
X0152440Y0319540D02*
X0152440Y0312460D01*
X0150090Y0312460D02*
X0150090Y0319540D01*
X0147740Y0319540D02*
X0147740Y0312460D01*
X0146510Y0329460D02*
X0159490Y0329460D01*
X0146510Y0329460D02*
X0146510Y0336540D01*
X0159490Y0336540D01*
X0159490Y0329460D01*
X0157140Y0329460D02*
X0157140Y0336540D01*
X0154790Y0336540D02*
X0154790Y0329460D01*
X0152440Y0329460D02*
X0152440Y0336540D01*
X0150090Y0336540D02*
X0150090Y0329460D01*
X0147740Y0329460D02*
X0147740Y0336540D01*
D17*
X0159000Y0313000D03*
X0155000Y0313000D03*
X0151000Y0313000D03*
X0147000Y0313000D03*
X0147000Y0318500D03*
X0159000Y0318500D03*
X0159000Y0330500D03*
X0159000Y0336000D03*
X0155000Y0336000D03*
X0151000Y0336000D03*
X0147000Y0336000D03*
X0147000Y0330500D03*
X0165000Y0344000D02*
G75*
%LPD*%
D16*
X0159490Y0356540D02*
X0146510Y0356540D01*
X0159490Y0356540D02*
X0159490Y0349460D01*
X0146510Y0349460D01*
X0146510Y0356540D01*
X0157140Y0356540D02*
X0157140Y0349460D01*
X0154790Y0349460D02*
X0154790Y0356540D01*
X0152440Y0356540D02*
X0152440Y0349460D01*
X0150090Y0349460D02*
X0150090Y0356540D01*
X0147740Y0356540D02*
X0147740Y0349460D01*
X0146510Y0366460D02*
X0159490Y0366460D01*
X0146510Y0366460D02*
X0146510Y0373540D01*
X0159490Y0373540D01*
X0159490Y0366460D01*
X0157140Y0366460D02*
X0157140Y0373540D01*
X0154790Y0373540D02*
X0154790Y0366460D01*
X0152440Y0366460D02*
X0152440Y0373540D01*
X0150090Y0373540D02*
X0150090Y0366460D01*
X0147740Y0366460D02*
X0147740Y0373540D01*
D17*
X0159000Y0350000D03*
X0155000Y0350000D03*
X0151000Y0350000D03*
X0147000Y0350000D03*
X0147000Y0355500D03*
X0159000Y0355500D03*
X0159000Y0367500D03*
X0159000Y0373000D03*
X0155000Y0373000D03*
X0151000Y0373000D03*
X0147000Y0373000D03*
X0147000Y0367500D03*
M02*
