G75*
G70*
%OFA0B0*%
%FSLAX25Y25*%
%IPPOS*%
%LPD*%
%AMOC8*
5,1,8,0,0,1.08239X$1,22.5*
%
%ADD16C,0.02360*%
%ADD17C,0.03570*%
X0011000Y0011000D02*
G75*
%LPD*%
D16*
X0023540Y0016510D02*
X0023540Y0029490D01*
X0023540Y0016510D02*
X0016460Y0016510D01*
X0016460Y0029490D01*
X0023540Y0029490D01*
X0023540Y0018860D02*
X0016460Y0018860D01*
X0016460Y0021210D02*
X0023540Y0021210D01*
X0023540Y0023560D02*
X0016460Y0023560D01*
X0016460Y0025910D02*
X0023540Y0025910D01*
X0023540Y0028260D02*
X0016460Y0028260D01*
X0033460Y0029490D02*
X0033460Y0016510D01*
X0033460Y0029490D02*
X0040540Y0029490D01*
X0040540Y0016510D01*
X0033460Y0016510D01*
X0033460Y0018860D02*
X0040540Y0018860D01*
X0040540Y0021210D02*
X0033460Y0021210D01*
X0033460Y0023560D02*
X0040540Y0023560D01*
X0040540Y0025910D02*
X0033460Y0025910D01*
X0033460Y0028260D02*
X0040540Y0028260D01*
D17*
X0017000Y0017000D03*
X0017000Y0021000D03*
X0017000Y0025000D03*
X0017000Y0029000D03*
X0022500Y0029000D03*
X0022500Y0017000D03*
X0034500Y0017000D03*
X0040000Y0017000D03*
X0040000Y0021000D03*
X0040000Y0025000D03*
X0040000Y0029000D03*
X0034500Y0029000D03*
X0011000Y0037000D02*
G75*
%LPD*%
D16*
X0023540Y0042510D02*
X0023540Y0055490D01*
X0023540Y0042510D02*
X0016460Y0042510D01*
X0016460Y0055490D01*
X0023540Y0055490D01*
X0023540Y0044860D02*
X0016460Y0044860D01*
X0016460Y0047210D02*
X0023540Y0047210D01*
X0023540Y0049560D02*
X0016460Y0049560D01*
X0016460Y0051910D02*
X0023540Y0051910D01*
X0023540Y0054260D02*
X0016460Y0054260D01*
X0033460Y0055490D02*
X0033460Y0042510D01*
X0033460Y0055490D02*
X0040540Y0055490D01*
X0040540Y0042510D01*
X0033460Y0042510D01*
X0033460Y0044860D02*
X0040540Y0044860D01*
X0040540Y0047210D02*
X0033460Y0047210D01*
X0033460Y0049560D02*
X0040540Y0049560D01*
X0040540Y0051910D02*
X0033460Y0051910D01*
X0033460Y0054260D02*
X0040540Y0054260D01*
D17*
X0017000Y0043000D03*
X0017000Y0047000D03*
X0017000Y0051000D03*
X0017000Y0055000D03*
X0022500Y0055000D03*
X0022500Y0043000D03*
X0034500Y0043000D03*
X0040000Y0043000D03*
X0040000Y0047000D03*
X0040000Y0051000D03*
X0040000Y0055000D03*
X0034500Y0055000D03*
X0048000Y0011000D02*
G75*
%LPD*%
D16*
X0060540Y0016510D02*
X0060540Y0029490D01*
X0060540Y0016510D02*
X0053460Y0016510D01*
X0053460Y0029490D01*
X0060540Y0029490D01*
X0060540Y0018860D02*
X0053460Y0018860D01*
X0053460Y0021210D02*
X0060540Y0021210D01*
X0060540Y0023560D02*
X0053460Y0023560D01*
X0053460Y0025910D02*
X0060540Y0025910D01*
X0060540Y0028260D02*
X0053460Y0028260D01*
X0070460Y0029490D02*
X0070460Y0016510D01*
X0070460Y0029490D02*
X0077540Y0029490D01*
X0077540Y0016510D01*
X0070460Y0016510D01*
X0070460Y0018860D02*
X0077540Y0018860D01*
X0077540Y0021210D02*
X0070460Y0021210D01*
X0070460Y0023560D02*
X0077540Y0023560D01*
X0077540Y0025910D02*
X0070460Y0025910D01*
X0070460Y0028260D02*
X0077540Y0028260D01*
D17*
X0054000Y0017000D03*
X0054000Y0021000D03*
X0054000Y0025000D03*
X0054000Y0029000D03*
X0059500Y0029000D03*
X0059500Y0017000D03*
X0071500Y0017000D03*
X0077000Y0017000D03*
X0077000Y0021000D03*
X0077000Y0025000D03*
X0077000Y0029000D03*
X0071500Y0029000D03*
X0011000Y0063000D02*
G75*
%LPD*%
D16*
X0023540Y0068510D02*
X0023540Y0081490D01*
X0023540Y0068510D02*
X0016460Y0068510D01*
X0016460Y0081490D01*
X0023540Y0081490D01*
X0023540Y0070860D02*
X0016460Y0070860D01*
X0016460Y0073210D02*
X0023540Y0073210D01*
X0023540Y0075560D02*
X0016460Y0075560D01*
X0016460Y0077910D02*
X0023540Y0077910D01*
X0023540Y0080260D02*
X0016460Y0080260D01*
X0033460Y0081490D02*
X0033460Y0068510D01*
X0033460Y0081490D02*
X0040540Y0081490D01*
X0040540Y0068510D01*
X0033460Y0068510D01*
X0033460Y0070860D02*
X0040540Y0070860D01*
X0040540Y0073210D02*
X0033460Y0073210D01*
X0033460Y0075560D02*
X0040540Y0075560D01*
X0040540Y0077910D02*
X0033460Y0077910D01*
X0033460Y0080260D02*
X0040540Y0080260D01*
D17*
X0017000Y0069000D03*
X0017000Y0073000D03*
X0017000Y0077000D03*
X0017000Y0081000D03*
X0022500Y0081000D03*
X0022500Y0069000D03*
X0034500Y0069000D03*
X0040000Y0069000D03*
X0040000Y0073000D03*
X0040000Y0077000D03*
X0040000Y0081000D03*
X0034500Y0081000D03*
X0048000Y0037000D02*
G75*
%LPD*%
D16*
X0060540Y0042510D02*
X0060540Y0055490D01*
X0060540Y0042510D02*
X0053460Y0042510D01*
X0053460Y0055490D01*
X0060540Y0055490D01*
X0060540Y0044860D02*
X0053460Y0044860D01*
X0053460Y0047210D02*
X0060540Y0047210D01*
X0060540Y0049560D02*
X0053460Y0049560D01*
X0053460Y0051910D02*
X0060540Y0051910D01*
X0060540Y0054260D02*
X0053460Y0054260D01*
X0070460Y0055490D02*
X0070460Y0042510D01*
X0070460Y0055490D02*
X0077540Y0055490D01*
X0077540Y0042510D01*
X0070460Y0042510D01*
X0070460Y0044860D02*
X0077540Y0044860D01*
X0077540Y0047210D02*
X0070460Y0047210D01*
X0070460Y0049560D02*
X0077540Y0049560D01*
X0077540Y0051910D02*
X0070460Y0051910D01*
X0070460Y0054260D02*
X0077540Y0054260D01*
D17*
X0054000Y0043000D03*
X0054000Y0047000D03*
X0054000Y0051000D03*
X0054000Y0055000D03*
X0059500Y0055000D03*
X0059500Y0043000D03*
X0071500Y0043000D03*
X0077000Y0043000D03*
X0077000Y0047000D03*
X0077000Y0051000D03*
X0077000Y0055000D03*
X0071500Y0055000D03*
X0011000Y0089000D02*
G75*
%LPD*%
D16*
X0023540Y0094510D02*
X0023540Y0107490D01*
X0023540Y0094510D02*
X0016460Y0094510D01*
X0016460Y0107490D01*
X0023540Y0107490D01*
X0023540Y0096860D02*
X0016460Y0096860D01*
X0016460Y0099210D02*
X0023540Y0099210D01*
X0023540Y0101560D02*
X0016460Y0101560D01*
X0016460Y0103910D02*
X0023540Y0103910D01*
X0023540Y0106260D02*
X0016460Y0106260D01*
X0033460Y0107490D02*
X0033460Y0094510D01*
X0033460Y0107490D02*
X0040540Y0107490D01*
X0040540Y0094510D01*
X0033460Y0094510D01*
X0033460Y0096860D02*
X0040540Y0096860D01*
X0040540Y0099210D02*
X0033460Y0099210D01*
X0033460Y0101560D02*
X0040540Y0101560D01*
X0040540Y0103910D02*
X0033460Y0103910D01*
X0033460Y0106260D02*
X0040540Y0106260D01*
D17*
X0017000Y0095000D03*
X0017000Y0099000D03*
X0017000Y0103000D03*
X0017000Y0107000D03*
X0022500Y0107000D03*
X0022500Y0095000D03*
X0034500Y0095000D03*
X0040000Y0095000D03*
X0040000Y0099000D03*
X0040000Y0103000D03*
X0040000Y0107000D03*
X0034500Y0107000D03*
X0048000Y0063000D02*
G75*
%LPD*%
D16*
X0060540Y0068510D02*
X0060540Y0081490D01*
X0060540Y0068510D02*
X0053460Y0068510D01*
X0053460Y0081490D01*
X0060540Y0081490D01*
X0060540Y0070860D02*
X0053460Y0070860D01*
X0053460Y0073210D02*
X0060540Y0073210D01*
X0060540Y0075560D02*
X0053460Y0075560D01*
X0053460Y0077910D02*
X0060540Y0077910D01*
X0060540Y0080260D02*
X0053460Y0080260D01*
X0070460Y0081490D02*
X0070460Y0068510D01*
X0070460Y0081490D02*
X0077540Y0081490D01*
X0077540Y0068510D01*
X0070460Y0068510D01*
X0070460Y0070860D02*
X0077540Y0070860D01*
X0077540Y0073210D02*
X0070460Y0073210D01*
X0070460Y0075560D02*
X0077540Y0075560D01*
X0077540Y0077910D02*
X0070460Y0077910D01*
X0070460Y0080260D02*
X0077540Y0080260D01*
D17*
X0054000Y0069000D03*
X0054000Y0073000D03*
X0054000Y0077000D03*
X0054000Y0081000D03*
X0059500Y0081000D03*
X0059500Y0069000D03*
X0071500Y0069000D03*
X0077000Y0069000D03*
X0077000Y0073000D03*
X0077000Y0077000D03*
X0077000Y0081000D03*
X0071500Y0081000D03*
X0048000Y0089000D02*
G75*
%LPD*%
D16*
X0060540Y0094510D02*
X0060540Y0107490D01*
X0060540Y0094510D02*
X0053460Y0094510D01*
X0053460Y0107490D01*
X0060540Y0107490D01*
X0060540Y0096860D02*
X0053460Y0096860D01*
X0053460Y0099210D02*
X0060540Y0099210D01*
X0060540Y0101560D02*
X0053460Y0101560D01*
X0053460Y0103910D02*
X0060540Y0103910D01*
X0060540Y0106260D02*
X0053460Y0106260D01*
X0070460Y0107490D02*
X0070460Y0094510D01*
X0070460Y0107490D02*
X0077540Y0107490D01*
X0077540Y0094510D01*
X0070460Y0094510D01*
X0070460Y0096860D02*
X0077540Y0096860D01*
X0077540Y0099210D02*
X0070460Y0099210D01*
X0070460Y0101560D02*
X0077540Y0101560D01*
X0077540Y0103910D02*
X0070460Y0103910D01*
X0070460Y0106260D02*
X0077540Y0106260D01*
D17*
X0054000Y0095000D03*
X0054000Y0099000D03*
X0054000Y0103000D03*
X0054000Y0107000D03*
X0059500Y0107000D03*
X0059500Y0095000D03*
X0071500Y0095000D03*
X0077000Y0095000D03*
X0077000Y0099000D03*
X0077000Y0103000D03*
X0077000Y0107000D03*
X0071500Y0107000D03*
X0011000Y0115000D02*
G75*
%LPD*%
D16*
X0023540Y0120510D02*
X0023540Y0133490D01*
X0023540Y0120510D02*
X0016460Y0120510D01*
X0016460Y0133490D01*
X0023540Y0133490D01*
X0023540Y0122860D02*
X0016460Y0122860D01*
X0016460Y0125210D02*
X0023540Y0125210D01*
X0023540Y0127560D02*
X0016460Y0127560D01*
X0016460Y0129910D02*
X0023540Y0129910D01*
X0023540Y0132260D02*
X0016460Y0132260D01*
X0033460Y0133490D02*
X0033460Y0120510D01*
X0033460Y0133490D02*
X0040540Y0133490D01*
X0040540Y0120510D01*
X0033460Y0120510D01*
X0033460Y0122860D02*
X0040540Y0122860D01*
X0040540Y0125210D02*
X0033460Y0125210D01*
X0033460Y0127560D02*
X0040540Y0127560D01*
X0040540Y0129910D02*
X0033460Y0129910D01*
X0033460Y0132260D02*
X0040540Y0132260D01*
D17*
X0017000Y0121000D03*
X0017000Y0125000D03*
X0017000Y0129000D03*
X0017000Y0133000D03*
X0022500Y0133000D03*
X0022500Y0121000D03*
X0034500Y0121000D03*
X0040000Y0121000D03*
X0040000Y0125000D03*
X0040000Y0129000D03*
X0040000Y0133000D03*
X0034500Y0133000D03*
X0048000Y0115000D02*
G75*
%LPD*%
D16*
X0060540Y0120510D02*
X0060540Y0133490D01*
X0060540Y0120510D02*
X0053460Y0120510D01*
X0053460Y0133490D01*
X0060540Y0133490D01*
X0060540Y0122860D02*
X0053460Y0122860D01*
X0053460Y0125210D02*
X0060540Y0125210D01*
X0060540Y0127560D02*
X0053460Y0127560D01*
X0053460Y0129910D02*
X0060540Y0129910D01*
X0060540Y0132260D02*
X0053460Y0132260D01*
X0070460Y0133490D02*
X0070460Y0120510D01*
X0070460Y0133490D02*
X0077540Y0133490D01*
X0077540Y0120510D01*
X0070460Y0120510D01*
X0070460Y0122860D02*
X0077540Y0122860D01*
X0077540Y0125210D02*
X0070460Y0125210D01*
X0070460Y0127560D02*
X0077540Y0127560D01*
X0077540Y0129910D02*
X0070460Y0129910D01*
X0070460Y0132260D02*
X0077540Y0132260D01*
D17*
X0054000Y0121000D03*
X0054000Y0125000D03*
X0054000Y0129000D03*
X0054000Y0133000D03*
X0059500Y0133000D03*
X0059500Y0121000D03*
X0071500Y0121000D03*
X0077000Y0121000D03*
X0077000Y0125000D03*
X0077000Y0129000D03*
X0077000Y0133000D03*
X0071500Y0133000D03*
M02*
