/* XPM */
static char * stick_unfocus_xpm[] = {
"20 17 20 1",
" 	c None",
".	c #EBEBEB",
"+	c #E9E9E9",
"@	c #E6E6E6",
"#	c #E5E5E5",
"$	c #E2E2E2",
"%	c #DFDFDF",
"&	c #DEDEDE",
"*	c #FEFEFE",
"=	c #C4C4C4",
"-	c #898989",
";	c #B7B7B7",
">	c #6A6A6A",
",	c #B9B9B9",
"'	c #E4E4E4",
")	c #686868",
"!	c #E0E0E0",
"~	c #666666",
"{	c #E8E8E8",
"]	c #E1E1E1",
"....................",
"....................",
".....+@#$%&%$#@+....",
"....+*********=&+...",
"....@*********-=#...",
"....#**;;;;;**>,'...",
"....$**;**;;**);$...",
"....%**;;;;;**>;&...",
"....&**;***;**>;&...",
"....&**;;;;;**>;&...",
"....!*********~;!...",
"....!*********>,&...",
"....@=->)>>>)>-=#...",
"....+&=,;;;;;,=&+...",
".....{]%%&&&&%@+....",
"....................",
"...................."};
