#define doc_width 20
#define doc_height 23
static unsigned char doc_bits[] = {
	0x00, 0x00, 0x00, 0x00, 0x00, 0x00, 0xff, 0x3f, 0x00, 0x01, 0x60, 0x00,
	0x01, 0xa0, 0x00, 0xa9, 0x2a, 0x01, 0xf9, 0x2f, 0x02, 0x01, 0xe0, 0x07,
	0xf9, 0x1f, 0x0f, 0x01, 0x00, 0x0c, 0xf9, 0xff, 0x0c, 0x01, 0x00, 0x0c,
	0xf9, 0x7f, 0x0c, 0x01, 0x00, 0x0c, 0xf9, 0x3f, 0x0c, 0x01, 0x00, 0x0c,
	0xf9, 0x7f, 0x0c, 0x01, 0x00, 0x0c, 0x01, 0x00, 0x0c, 0xff, 0xff, 0x0f,
	0xfe, 0xff, 0x0f, 0x00, 0x00, 0x00, 0x00, 0x00, 0x00, };
