#define image_width 20
#define image_height 23
static char image_bits[] = {
	0x00, 0x00, 0x00, 0x00, 0x00, 0x00, 0xff, 0xff, 0x07, 0x01, 0x00, 0x0c,
	0x01, 0x1c, 0x0c, 0x01, 0x22, 0x0c, 0x01, 0x26, 0x0c, 0x01, 0x29, 0x0c,
	0x01, 0x19, 0x0c, 0x81, 0x10, 0x0c, 0x81, 0x0c, 0x0c, 0x41, 0x08, 0x0c,
	0x41, 0x06, 0x0c, 0xc1, 0x04, 0x0c, 0xc1, 0x03, 0x0c, 0xc1, 0x01, 0x0c,
	0xc1, 0x00, 0x0c, 0x41, 0x00, 0x0c, 0x01, 0x00, 0x0c, 0xff, 0xff, 0x0f,
	0xfe, 0xff, 0x0f, 0x00, 0x00, 0x00, 0x00, 0x00, 0x00};
